  0
SECTION
  2
HEADER
  9
$ACADVER
  1
AC1009
  9
$INSBASE
 10
0.0
 20
0.0
 30
0.0
  9
$EXTMIN
 10
0.0
 20
0.0
 30
0.0
  9
$EXTMAX
 10
0.0
 20
0.0
 30
0.0
  0
ENDSEC
  0
SECTION
  2
TABLES
  0
TABLE
  2
VPORT
 70
1
  0
VPORT
  2
*ACTIVE
 70
0
 10
0.0
 20
0.0
 11
1.0
 21
1.0
 12
-5.0
 22
1.0
 13
0.0
 23
0.0
 14
0.1
 24
0.1
 15
0.1
 25
0.1
 16
0.0
 26
0.0
 36
1.0
 17
0.0
 27
0.0
 37
0.0
 40
10.0
 41
1.0
 42
50.0
 43
0.0
 44
0.0
 50
0.0
 51
0.0
 71
0
 72
100
 73
1
 74
1
 75
0
 76
0
 77
0
 78
0
  0
ENDTAB
  0
TABLE
  2
LTYPE
 70
8
  0
LTYPE
  2
CONTINUOUS
 70
0
  3
Solid line
 72
65
 73
0
 40
0.0
  0
LTYPE
  2
DOT
 70
0
  3
. . . . . . .
 72
65
 73
2
 40
0.25
 49
0.0
 49
-0.25
  0
LTYPE
  2
DASHED
 70
0
  3
__ __ __ __ __
 72
65
 73
2
 40
0.8
 49
0.5
 49
-0.3
  0
LTYPE
  2
DASHDOT
 70
0
  3
__ . __ . __ .
 72
65
 73
4
 40
1.0
 49
0.5
 49
-0.25
 49
0.0
 49
-0.25
  0
LTYPE
  2
DIVIDE
 70
0
  3
____ . . ____ . . 
 72
65
 73
6
 40
1.25
 49
0.5
 49
-0.25
 49
0.0
 49
-0.25
 49
0.0
 49
-0.25
  0
LTYPE
  2
BORDER
 70
0
  3
__ __ . __ __ . 
 72
65
 73
6
 40
1.75
 49
0.5
 49
-0.25
 49
0.5
 49
-0.25
 49
0.0
 49
-0.25
  0
LTYPE
  2
HIDDEN
 70
0
  3
__ __ __ __ __
 72
65
 73
2
 40
0.4
 49
0.25
 49
-0.25
  0
LTYPE
  2
CENTER
 70
0
  3
____ _ ____ _ __
 72
65
 73
4
 40
2.0
 49
1.25
 49
-0.25
 49
0.25
 49
-0.25
  0
ENDTAB
  0
TABLE
  2
LAYER
 70
1
  0
LAYER
  2
PYDXF
 70
64
 62
7
  6
continuous
  0
ENDTAB
  0
TABLE
  2
STYLE
 70
1
  0
STYLE
  2
STANDARD
 70
0
 40
0
 41
1.0
 50
0.0
 71
0
 42
1
 3
ARIAL.TTF
 4

  0
ENDTAB
  0
TABLE
  2
VIEW
 70
1
  0
VIEW
  2
BF_TOPVIEW
 70
0
 40
120.0
 10
0.0
 20
0.0
 41
200.0
 11
0.0
 21
0.0
 31
1.0
 12
0.0
 22
0.0
 32
0.0
 42
50.0
 43
0.0
 44
0.0
 50
0.0
 71
0
  0
ENDTAB
  0
ENDSEC
  0
SECTION
  2
BLOCKS
  0
ENDSEC
  0
SECTION
  2
ENTITIES
  0
LINE
  8
0
 10
-2.793570041656494
 20
7.099709987640381
 30
1.2000000476837158
 11
-2.7781600952148438
 21
7.17510986328125
 31
1.2000000476837158
  0
LINE
  8
0
 10
-2.7781600952148438
 20
7.17510986328125
 30
1.2000000476837158
 11
-2.7736001014709473
 21
7.254370212554932
 31
1.2000000476837158
  0
LINE
  8
0
 10
-5.622499942779541
 20
6.633190155029297
 30
1.2000000476837158
 11
-4.960020065307617
 21
6.075900077819824
 31
1.2000000476837158
  0
LINE
  8
0
 10
7.253749847412109
 20
-2.7746798992156982
 30
1.2000000476837158
 11
7.17510986328125
 21
-2.7781600952148438
 31
1.2000000476837158
  0
LINE
  8
0
 10
4.751739978790283
 20
5.969160079956055
 30
1.2000000476837158
 11
4.824749946594238
 21
5.9935197830200195
 31
1.2000000476837158
  0
LINE
  8
0
 10
8.83998966217041
 20
-1.8053900003433228
 30
1.2000000476837158
 11
8.870039939880371
 21
-1.8776099681854248
 31
1.2000000476837158
  0
LINE
  8
0
 10
-5.757140159606934
 20
-6.714489936828613
 30
1.2000000476837158
 11
-5.830780029296875
 21
-6.739930152893066
 31
1.2000000476837158
  0
LINE
  8
0
 10
-4.960020065307617
 20
6.075900077819824
 30
1.2000000476837158
 11
-4.894589900970459
 21
6.029819965362549
 31
1.2000000476837158
  0
LINE
  8
0
 10
5.9935197830200195
 20
-4.824749946594238
 30
1.2000000476837158
 11
6.029200077056885
 21
-4.895669937133789
 31
1.2000000476837158
  0
LINE
  8
0
 10
6.029200077056885
 20
-4.895669937133789
 30
1.2000000476837158
 11
6.075900077819824
 21
-4.960020065307617
 31
1.2000000476837158
  0
LINE
  8
0
 10
-6.752960205078125
 20
-5.9835100173950195
 30
1.2000000476837158
 11
-6.752339839935303
 21
-5.906949996948242
 31
1.2000000476837158
  0
LINE
  8
0
 10
4.895669937133789
 20
6.029200077056885
 30
1.2000000476837158
 11
4.960020065307617
 21
6.075900077819824
 31
1.2000000476837158
  0
LINE
  8
0
 10
-2.905090093612671
 20
6.899419784545898
 30
1.2000000476837158
 11
-2.8586599826812744
 21
6.960929870605469
 31
1.2000000476837158
  0
LINE
  8
0
 10
-4.895669937133789
 20
-6.029200077056885
 30
1.2000000476837158
 11
-4.960020065307617
 21
-6.075900077819824
 31
1.2000000476837158
  0
LINE
  8
0
 10
-2.0
 20
0.0
 30
1.2000000476837158
 11
-1.8477599620819092
 21
-0.7653669714927673
 31
1.2000000476837158
  0
LINE
  8
0
 10
-6.450940132141113
 20
-6.450940132141113
 30
1.2000000476837158
 11
-6.711319923400879
 21
-6.154029846191406
 31
1.2000000476837158
  0
LINE
  8
0
 10
-5.956130027770996
 20
-4.599009990692139
 30
1.2000000476837158
 11
-5.966219902038574
 21
-4.521450042724609
 31
1.2000000476837158
  0
LINE
  8
0
 10
-5.830780029296875
 20
6.739930152893066
 30
1.2000000476837158
 11
-5.757140159606934
 21
6.714489936828613
 31
1.2000000476837158
  0
LINE
  8
0
 10
7.669270038604736
 20
-1.2251800298690796
 30
1.2000000476837158
 11
7.7418999671936035
 21
-1.2575500011444092
 31
1.2000000476837158
  0
LINE
  8
0
 10
-6.029819965362549
 20
-4.894589900970459
 30
1.2000000476837158
 11
-5.9935197830200195
 21
-4.824749946594238
 31
1.2000000476837158
  0
LINE
  8
0
 10
-4.4469099044799805
 20
5.989009857177734
 30
1.2000000476837158
 11
-4.375840187072754
 21
6.022809982299805
 31
1.2000000476837158
  0
LINE
  8
0
 10
-5.989009857177734
 20
-4.4469099044799805
 30
1.2000000476837158
 11
-6.022809982299805
 21
-4.375840187072754
 31
1.2000000476837158
  0
LINE
  8
0
 10
-2.933259963989258
 20
8.185819625854492
 30
1.2000000476837158
 11
-2.9415299892425537
 21
8.264900207519531
 31
1.2000000476837158
  0
LINE
  8
0
 10
-5.966219902038574
 20
-4.521450042724609
 30
1.2000000476837158
 11
-5.989009857177734
 21
-4.4469099044799805
 31
1.2000000476837158
  0
LINE
  8
0
 10
-6.450940132141113
 20
6.450940132141113
 30
1.2000000476837158
 11
-6.154029846191406
 21
6.711319923400879
 31
1.2000000476837158
  0
LINE
  8
0
 10
-2.921560049057007
 20
8.419569969177246
 30
1.2000000476837158
 11
-2.8942201137542725
 21
8.491740226745605
 31
1.2000000476837158
  0
LINE
  8
0
 10
-6.711319923400879
 20
6.154029846191406
 30
1.2000000476837158
 11
-6.450940132141113
 21
6.450940132141113
 31
1.2000000476837158
  0
LINE
  8
0
 10
-6.1356201171875
 20
6.7200798988342285
 30
1.2000000476837158
 11
-6.061079978942871
 21
6.742869853973389
 31
1.2000000476837158
  0
LINE
  8
0
 10
-6.154029846191406
 20
6.711319923400879
 30
1.2000000476837158
 11
-6.1356201171875
 21
6.7200798988342285
 31
1.2000000476837158
  0
LINE
  8
0
 10
6.742869853973389
 20
6.061079978942871
 30
1.2000000476837158
 11
6.752960205078125
 21
5.9835100173950195
 31
1.2000000476837158
  0
LINE
  8
0
 10
4.824749946594238
 20
5.9935197830200195
 30
1.2000000476837158
 11
4.895669937133789
 21
6.029200077056885
 31
1.2000000476837158
  0
LINE
  8
0
 10
2.7746798992156982
 20
7.253749847412109
 30
1.2000000476837158
 11
2.7781600952148438
 21
7.17510986328125
 31
1.2000000476837158
  0
LINE
  8
0
 10
-4.675570011138916
 20
-5.95674991607666
 30
1.2000000476837158
 11
-4.751739978790283
 21
-5.969160079956055
 31
1.2000000476837158
  0
LINE
  8
0
 10
-4.824749946594238
 20
-5.9935197830200195
 30
1.2000000476837158
 11
-4.895669937133789
 21
-6.029200077056885
 31
1.2000000476837158
  0
LINE
  8
0
 10
6.739930152893066
 20
-5.830780029296875
 30
1.2000000476837158
 11
6.752339839935303
 21
-5.906949996948242
 31
1.2000000476837158
  0
LINE
  8
0
 10
-1.8477599620819092
 20
-0.7653669714927673
 30
1.2000000476837158
 11
-1.4142099618911743
 21
-1.4142099618911743
 31
1.2000000476837158
  0
LINE
  8
0
 10
7.7418999671936035
 20
-1.2575500011444092
 30
1.2000000476837158
 11
8.555760383605957
 21
-1.5526399612426758
 31
1.2000000476837158
  0
LINE
  8
0
 10
8.628379821777344
 20
-1.585010051727295
 30
1.2000000476837158
 11
8.693490028381348
 21
-1.6285899877548218
 31
1.2000000476837158
  0
LINE
  8
0
 10
-6.075900077819824
 20
-4.960020065307617
 30
1.2000000476837158
 11
-6.029819965362549
 21
-4.894589900970459
 31
1.2000000476837158
  0
LINE
  8
0
 10
-7.02754020690918
 20
-2.820919990539551
 30
1.2000000476837158
 11
-7.099709987640381
 21
-2.793570041656494
 31
1.2000000476837158
  0
LINE
  8
0
 10
-6.739930152893066
 20
5.830780029296875
 30
1.2000000476837158
 11
-6.752339839935303
 21
5.906949996948242
 31
1.2000000476837158
  0
LINE
  8
0
 10
6.742869853973389
 20
-6.061079978942871
 30
1.2000000476837158
 11
6.7200798988342285
 21
-6.1356201171875
 31
1.2000000476837158
  0
LINE
  8
0
 10
-7.099709987640381
 20
-2.793570041656494
 30
1.2000000476837158
 11
-7.17510986328125
 21
-2.7781600952148438
 31
1.2000000476837158
  0
LINE
  8
0
 10
-2.9415299892425537
 20
8.264900207519531
 30
1.2000000476837158
 11
-2.936350107192993
 21
8.343079566955566
 31
1.2000000476837158
  0
LINE
  8
0
 10
-5.757140159606934
 20
6.714489936828613
 30
1.2000000476837158
 11
-5.686850070953369
 21
6.679890155792236
 31
1.2000000476837158
  0
LINE
  8
0
 10
-5.686850070953369
 20
6.679890155792236
 30
1.2000000476837158
 11
-5.622499942779541
 21
6.633190155029297
 31
1.2000000476837158
  0
LINE
  8
0
 10
-6.714489936828613
 20
5.757140159606934
 30
1.2000000476837158
 11
-6.739930152893066
 21
5.830780029296875
 31
1.2000000476837158
  0
LINE
  8
0
 10
7.427619934082031
 20
0.9325780272483826
 30
1.2000000476837158
 11
7.41008996963501
 21
0.8566269874572754
 31
1.2000000476837158
  0
LINE
  8
0
 10
8.801170349121094
 20
-1.739400029182434
 30
1.2000000476837158
 11
8.83998966217041
 21
-1.8053900003433228
 31
1.2000000476837158
  0
LINE
  8
0
 10
-2.7351601123809814
 20
8.685199737548828
 30
1.2000000476837158
 11
-2.3612101078033447
 21
8.812150001525879
 31
1.2000000476837158
  0
LINE
  8
0
 10
7.41008996963501
 20
0.8566269874572754
 30
1.2000000476837158
 11
7.403830051422119
 21
0.778186023235321
 31
1.2000000476837158
  0
LINE
  8
0
 10
-1.9738800525665283
 20
8.889189720153809
 30
1.2000000476837158
 11
-1.9535599946975708
 21
8.88757038116455
 31
1.2000000476837158
  0
LINE
  8
0
 10
-5.830780029296875
 20
-6.739930152893066
 30
1.2000000476837158
 11
-5.906949996948242
 21
-6.752339839935303
 31
1.2000000476837158
  0
LINE
  8
0
 10
-2.8586599826812744
 20
6.960929870605469
 30
1.2000000476837158
 11
-2.820919990539551
 21
7.02754020690918
 31
1.2000000476837158
  0
LINE
  8
0
 10
-3.027980089187622
 20
-6.801000118255615
 30
1.2000000476837158
 11
-4.375840187072754
 21
-6.022809982299805
 31
1.2000000476837158
  0
LINE
  8
0
 10
-2.820919990539551
 20
7.02754020690918
 30
1.2000000476837158
 11
-2.793570041656494
 21
7.099709987640381
 31
1.2000000476837158
  0
LINE
  8
0
 10
6.1356201171875
 20
-6.7200798988342285
 30
1.2000000476837158
 11
6.061079978942871
 21
-6.742869853973389
 31
1.2000000476837158
  0
LINE
  8
0
 10
8.752340316772461
 20
-1.6796400547027588
 30
1.2000000476837158
 11
8.801170349121094
 21
-1.739400029182434
 31
1.2000000476837158
  0
LINE
  8
0
 10
5.9835100173950195
 20
-6.752960205078125
 30
1.2000000476837158
 11
5.906949996948242
 21
-6.752339839935303
 31
1.2000000476837158
  0
LINE
  8
0
 10
-2.906169891357422
 20
-6.898789882659912
 30
1.2000000476837158
 11
-2.9631800651550293
 21
-6.845640182495117
 31
1.2000000476837158
  0
LINE
  8
0
 10
-6.7200798988342285
 20
-6.1356201171875
 30
1.2000000476837158
 11
-6.742869853973389
 21
-6.061079978942871
 31
1.2000000476837158
  0
LINE
  8
0
 10
6.752339839935303
 20
-5.906949996948242
 30
1.2000000476837158
 11
6.752960205078125
 21
-5.9835100173950195
 31
1.2000000476837158
  0
LINE
  8
0
 10
-4.751739978790283
 20
-5.969160079956055
 30
1.2000000476837158
 11
-4.824749946594238
 21
-5.9935197830200195
 31
1.2000000476837158
  0
LINE
  8
0
 10
7.5453200340271
 20
1.1305500268936157
 30
1.2000000476837158
 11
7.4964799880981445
 21
1.0707800388336182
 31
1.2000000476837158
  0
LINE
  8
0
 10
-6.633190155029297
 20
-5.622499942779541
 30
1.2000000476837158
 11
-6.075900077819824
 21
-4.960020065307617
 31
1.2000000476837158
  0
LINE
  8
0
 10
8.555760383605957
 20
-1.5526399612426758
 30
1.2000000476837158
 11
8.628379821777344
 21
-1.585010051727295
 31
1.2000000476837158
  0
LINE
  8
0
 10
-2.936350107192993
 20
8.343079566955566
 30
1.2000000476837158
 11
-2.921560049057007
 21
8.419569969177246
 31
1.2000000476837158
  0
LINE
  8
0
 10
-5.95674991607666
 20
4.675570011138916
 30
1.2000000476837158
 11
-5.969160079956055
 21
4.751739978790283
 31
1.2000000476837158
  0
LINE
  8
0
 10
-2.7818799018859863
 20
-7.333449840545654
 30
1.2000000476837158
 11
-2.7746798992156982
 21
-7.253749847412109
 31
1.2000000476837158
  0
LINE
  8
0
 10
-2.3612101078033447
 20
8.812150001525879
 30
1.2000000476837158
 11
-1.9738800525665283
 21
8.889189720153809
 31
1.2000000476837158
  0
LINE
  8
0
 10
-5.965590000152588
 20
4.522520065307617
 30
1.2000000476837158
 11
-5.956130027770996
 21
4.599009990692139
 31
1.2000000476837158
  0
LINE
  8
0
 10
-5.98838996887207
 20
4.447979927062988
 30
1.2000000476837158
 11
-5.965590000152588
 21
4.522520065307617
 31
1.2000000476837158
  0
LINE
  8
0
 10
2.7781600952148438
 20
7.17510986328125
 30
1.2000000476837158
 11
2.793570041656494
 21
7.099709987640381
 31
1.2000000476837158
  0
LINE
  8
0
 10
2.793570041656494
 20
7.099709987640381
 30
1.2000000476837158
 11
2.820919990539551
 21
7.02754020690918
 31
1.2000000476837158
  0
LINE
  8
0
 10
-6.022809982299805
 20
4.375840187072754
 30
1.2000000476837158
 11
-5.98838996887207
 21
4.447979927062988
 31
1.2000000476837158
  0
LINE
  8
0
 10
6.061079978942871
 20
-6.742869853973389
 30
1.2000000476837158
 11
5.9835100173950195
 21
-6.752960205078125
 31
1.2000000476837158
  0
LINE
  8
0
 10
-8.685199737548828
 20
-2.7351601123809814
 30
1.2000000476837158
 11
-8.812150001525879
 21
-2.3612101078033447
 31
1.2000000476837158
  0
LINE
  8
0
 10
-8.620479583740234
 20
-2.8089599609375
 30
1.2000000476837158
 11
-8.673640251159668
 21
-2.7519500255584717
 31
1.2000000476837158
  0
LINE
  8
0
 10
-6.801000118255615
 20
3.027980089187622
 30
1.2000000476837158
 11
-6.022809982299805
 21
4.375840187072754
 31
1.2000000476837158
  0
LINE
  8
0
 10
-2.9631800651550293
 20
-6.845640182495117
 30
1.2000000476837158
 11
-3.027980089187622
 21
-6.801000118255615
 31
1.2000000476837158
  0
LINE
  8
0
 10
6.752960205078125
 20
-5.9835100173950195
 30
1.2000000476837158
 11
6.742869853973389
 21
-6.061079978942871
 31
1.2000000476837158
  0
LINE
  8
0
 10
-6.845640182495117
 20
2.9631800651550293
 30
1.2000000476837158
 11
-6.801000118255615
 21
3.027980089187622
 31
1.2000000476837158
  0
LINE
  8
0
 10
-8.491740226745605
 20
-2.8942201137542725
 30
1.2000000476837158
 11
-8.558349609375
 21
-2.8564798831939697
 31
1.2000000476837158
  0
LINE
  8
0
 10
4.447979927062988
 20
5.98838996887207
 30
1.2000000476837158
 11
4.522520065307617
 21
5.965590000152588
 31
1.2000000476837158
  0
LINE
  8
0
 10
2.906169891357422
 20
6.898789882659912
 30
1.2000000476837158
 11
2.9631800651550293
 21
6.845640182495117
 31
1.2000000476837158
  0
LINE
  8
0
 10
8.419569969177246
 20
-2.921560049057007
 30
1.2000000476837158
 11
8.343079566955566
 21
-2.936350107192993
 31
1.2000000476837158
  0
LINE
  8
0
 10
8.264900207519531
 20
-2.9415299892425537
 30
1.2000000476837158
 11
8.185819625854492
 21
-2.933259963989258
 31
1.2000000476837158
  0
LINE
  8
0
 10
4.675570011138916
 20
-5.95674991607666
 30
1.2000000476837158
 11
4.599009990692139
 21
-5.956130027770996
 31
1.2000000476837158
  0
LINE
  8
0
 10
4.751739978790283
 20
-5.969160079956055
 30
1.2000000476837158
 11
4.675570011138916
 21
-5.95674991607666
 31
1.2000000476837158
  0
LINE
  8
0
 10
7.4964799880981445
 20
1.0707800388336182
 30
1.2000000476837158
 11
7.457670211791992
 21
1.00478994846344
 31
1.2000000476837158
  0
LINE
  8
0
 10
-2.7519500255584717
 20
-8.673640251159668
 30
1.2000000476837158
 11
-2.8089599609375
 21
-8.620479583740234
 31
1.2000000476837158
  0
LINE
  8
0
 10
-5.956130027770996
 20
4.599009990692139
 30
1.2000000476837158
 11
-5.95674991607666
 21
4.675570011138916
 31
1.2000000476837158
  0
LINE
  8
0
 10
-1.6285899877548218
 20
8.693490028381348
 30
1.2000000476837158
 11
-1.585010051727295
 21
8.628379821777344
 31
1.2000000476837158
  0
LINE
  8
0
 10
-2.7351698875427246
 20
-8.685199737548828
 30
1.2000000476837158
 11
-2.7519500255584717
 21
-8.673640251159668
 31
1.2000000476837158
  0
LINE
  8
0
 10
4.824749946594238
 20
-5.9935197830200195
 30
1.2000000476837158
 11
4.751739978790283
 21
-5.969160079956055
 31
1.2000000476837158
  0
LINE
  8
0
 10
4.599009990692139
 20
5.956130027770996
 30
1.2000000476837158
 11
4.675570011138916
 21
5.95674991607666
 31
1.2000000476837158
  0
LINE
  8
0
 10
-8.812150001525879
 20
-2.3612101078033447
 30
1.2000000476837158
 11
-8.889189720153809
 21
-1.9738800525665283
 31
1.2000000476837158
  0
LINE
  8
0
 10
4.522520065307617
 20
5.965590000152588
 30
1.2000000476837158
 11
4.599009990692139
 21
5.956130027770996
 31
1.2000000476837158
  0
LINE
  8
0
 10
-2.3612101078033447
 20
-8.812140464782715
 30
1.2000000476837158
 11
-2.7351698875427246
 21
-8.685199737548828
 31
1.2000000476837158
  0
LINE
  8
0
 10
4.894589900970459
 20
-6.029819965362549
 30
1.2000000476837158
 11
4.824749946594238
 21
-5.9935197830200195
 31
1.2000000476837158
  0
LINE
  8
0
 10
-0.9325780272483826
 20
7.427619934082031
 30
1.2000000476837158
 11
-0.8566269874572754
 21
7.41008996963501
 31
1.2000000476837158
  0
LINE
  8
0
 10
8.889189720153809
 20
1.9738800525665283
 30
1.2000000476837158
 11
8.812150001525879
 21
2.3612101078033447
 31
1.2000000476837158
  0
LINE
  8
0
 10
4.675570011138916
 20
5.95674991607666
 30
1.2000000476837158
 11
4.751739978790283
 21
5.969160079956055
 31
1.2000000476837158
  0
LINE
  8
0
 10
4.4469099044799805
 20
-5.989009857177734
 30
1.2000000476837158
 11
4.375840187072754
 21
-6.022809982299805
 31
1.2000000476837158
  0
LINE
  8
0
 10
-6.022809982299805
 20
-4.375840187072754
 30
1.2000000476837158
 11
-6.801000118255615
 21
-3.027980089187622
 31
1.2000000476837158
  0
LINE
  8
0
 10
8.693490028381348
 20
-1.6285899877548218
 30
1.2000000476837158
 11
8.752340316772461
 21
-1.6796400547027588
 31
1.2000000476837158
  0
LINE
  8
0
 10
-8.558349609375
 20
-2.8564798831939697
 30
1.2000000476837158
 11
-8.620479583740234
 21
-2.8089599609375
 31
1.2000000476837158
  0
LINE
  8
0
 10
5.622499942779541
 20
6.633190155029297
 30
1.2000000476837158
 11
5.686850070953369
 21
6.679890155792236
 31
1.2000000476837158
  0
LINE
  8
0
 10
4.599009990692139
 20
-5.956130027770996
 30
1.2000000476837158
 11
4.521450042724609
 21
-5.966219902038574
 31
1.2000000476837158
  0
LINE
  8
0
 10
-6.960929870605469
 20
-2.8586599826812744
 30
1.2000000476837158
 11
-7.02754020690918
 21
-2.820919990539551
 31
1.2000000476837158
  0
LINE
  8
0
 10
0.8578730225563049
 20
7.41008996963501
 30
1.2000000476837158
 11
0.9338240027427673
 21
7.427619934082031
 31
1.2000000476837158
  0
LINE
  8
0
 10
8.889189720153809
 20
1.9738800525665283
 30
1.2000000476837158
 11
8.88757038116455
 21
1.9535599946975708
 31
1.2000000476837158
  0
LINE
  8
0
 10
-1.8053900003433228
 20
-8.83998966217041
 30
1.2000000476837158
 11
-1.8776099681854248
 21
-8.870039939880371
 31
1.2000000476837158
  0
LINE
  8
0
 10
-2.7781600952148438
 20
-7.17510986328125
 30
1.2000000476837158
 11
-2.793570041656494
 21
-7.099709987640381
 31
1.2000000476837158
  0
LINE
  8
0
 10
-8.491740226745605
 20
2.8942201137542725
 30
1.2000000476837158
 11
-8.419569969177246
 21
2.921560049057007
 31
1.2000000476837158
  0
LINE
  8
0
 10
5.956130027770996
 20
-4.599009990692139
 30
1.2000000476837158
 11
5.95674991607666
 21
-4.675570011138916
 31
1.2000000476837158
  0
LINE
  8
0
 10
-1.8776099681854248
 20
-8.870039939880371
 30
1.2000000476837158
 11
-1.9535599946975708
 21
-8.88757038116455
 31
1.2000000476837158
  0
LINE
  8
0
 10
-8.558349609375
 20
2.8564798831939697
 30
1.2000000476837158
 11
-8.491740226745605
 21
2.8942201137542725
 31
1.2000000476837158
  0
LINE
  8
0
 10
-0.8566269874572754
 20
7.41008996963501
 30
1.2000000476837158
 11
-0.778186023235321
 21
7.403830051422119
 31
1.2000000476837158
  0
LINE
  8
0
 10
-1.739400029182434
 20
8.801170349121094
 30
1.2000000476837158
 11
-1.6796400547027588
 21
8.752340316772461
 31
1.2000000476837158
  0
LINE
  8
0
 10
-7.602910041809082
 20
-1.1815999746322632
 30
1.2000000476837158
 11
-7.5453200340271
 21
-1.1305500268936157
 31
1.2000000476837158
  0
LINE
  8
0
 10
8.343079566955566
 20
-2.936350107192993
 30
1.2000000476837158
 11
8.264900207519531
 21
-2.9415299892425537
 31
1.2000000476837158
  0
LINE
  8
0
 10
-1.6796400547027588
 20
8.752340316772461
 30
1.2000000476837158
 11
-1.6285899877548218
 21
8.693490028381348
 31
1.2000000476837158
  0
LINE
  8
0
 10
-7.669270038604736
 20
-1.22393000125885
 30
1.2000000476837158
 11
-7.602910041809082
 21
-1.1815999746322632
 31
1.2000000476837158
  0
LINE
  8
0
 10
-6.752339839935303
 20
5.906949996948242
 30
1.2000000476837158
 11
-6.752960205078125
 21
5.9835100173950195
 31
1.2000000476837158
  0
LINE
  8
0
 10
7.457670211791992
 20
1.00478994846344
 30
1.2000000476837158
 11
7.427619934082031
 21
0.9325780272483826
 31
1.2000000476837158
  0
LINE
  8
0
 10
-2.7746798992156982
 20
-7.253749847412109
 30
1.2000000476837158
 11
-2.7781600952148438
 21
-7.17510986328125
 31
1.2000000476837158
  0
LINE
  8
0
 10
-8.419569969177246
 20
2.921560049057007
 30
1.2000000476837158
 11
-8.343079566955566
 21
2.936350107192993
 31
1.2000000476837158
  0
LINE
  8
0
 10
2.820919990539551
 20
7.02754020690918
 30
1.2000000476837158
 11
2.8586599826812744
 21
6.960929870605469
 31
1.2000000476837158
  0
LINE
  8
0
 10
2.8586599826812744
 20
6.960929870605469
 30
1.2000000476837158
 11
2.906169891357422
 21
6.898789882659912
 31
1.2000000476837158
  0
LINE
  8
0
 10
-7.5453200340271
 20
-1.1305500268936157
 30
1.2000000476837158
 11
-7.4964799880981445
 21
-1.0707800388336182
 31
1.2000000476837158
  0
LINE
  8
0
 10
6.154029846191406
 20
-6.711319923400879
 30
1.2000000476837158
 11
6.1356201171875
 21
-6.7200798988342285
 31
1.2000000476837158
  0
LINE
  8
0
 10
-1.9535599946975708
 20
8.88757038116455
 30
1.2000000476837158
 11
-1.8776099681854248
 21
8.870039939880371
 31
1.2000000476837158
  0
LINE
  8
0
 10
-6.801000118255615
 20
-3.027980089187622
 30
1.2000000476837158
 11
-6.846260070800781
 21
-2.962100028991699
 31
1.2000000476837158
  0
LINE
  8
0
 10
-2.8586599826812744
 20
-6.960929870605469
 30
1.2000000476837158
 11
-2.906169891357422
 21
-6.898789882659912
 31
1.2000000476837158
  0
LINE
  8
0
 10
4.521450042724609
 20
-5.966219902038574
 30
1.2000000476837158
 11
4.4469099044799805
 21
-5.989009857177734
 31
1.2000000476837158
  0
LINE
  8
0
 10
-6.899419784545898
 20
-2.905090093612671
 30
1.2000000476837158
 11
-6.960929870605469
 21
-2.8586599826812744
 31
1.2000000476837158
  0
LINE
  8
0
 10
2.7818799018859863
 20
-7.333449840545654
 30
1.2000000476837158
 11
2.933259963989258
 21
-8.185819625854492
 31
1.2000000476837158
  0
LINE
  8
0
 10
1.8477599620819092
 20
-0.7653669714927673
 30
1.2000000476837158
 11
1.4142099618911743
 21
-1.4142099618911743
 31
1.2000000476837158
  0
LINE
  8
0
 10
5.686850070953369
 20
6.679890155792236
 30
1.2000000476837158
 11
5.757140159606934
 21
6.714489936828613
 31
1.2000000476837158
  0
LINE
  8
0
 10
6.7200798988342285
 20
-6.1356201171875
 30
1.2000000476837158
 11
6.711319923400879
 21
-6.154029846191406
 31
1.2000000476837158
  0
LINE
  8
0
 10
2.936350107192993
 20
-8.343079566955566
 30
1.2000000476837158
 11
2.921560049057007
 21
-8.419569969177246
 31
1.2000000476837158
  0
LINE
  8
0
 10
-4.960020065307617
 20
-6.075900077819824
 30
1.2000000476837158
 11
-5.622499942779541
 21
-6.633190155029297
 31
1.2000000476837158
  0
LINE
  8
0
 10
-6.7200798988342285
 20
6.1356201171875
 30
1.2000000476837158
 11
-6.711319923400879
 21
6.154029846191406
 31
1.2000000476837158
  0
LINE
  8
0
 10
2.9415299892425537
 20
-8.264900207519531
 30
1.2000000476837158
 11
2.936350107192993
 21
-8.343079566955566
 31
1.2000000476837158
  0
LINE
  8
0
 10
-2.7818799018859863
 20
7.333449840545654
 30
1.2000000476837158
 11
-2.933259963989258
 21
8.185819625854492
 31
1.2000000476837158
  0
LINE
  8
0
 10
6.450940132141113
 20
-6.450940132141113
 30
1.2000000476837158
 11
6.154029846191406
 21
-6.711319923400879
 31
1.2000000476837158
  0
LINE
  8
0
 10
-6.752960205078125
 20
5.9835100173950195
 30
1.2000000476837158
 11
-6.742869853973389
 21
6.061079978942871
 31
1.2000000476837158
  0
LINE
  8
0
 10
-5.622499942779541
 20
-6.633190155029297
 30
1.2000000476837158
 11
-5.686850070953369
 21
-6.679890155792236
 31
1.2000000476837158
  0
LINE
  8
0
 10
6.154029846191406
 20
6.711319923400879
 30
1.2000000476837158
 11
6.450940132141113
 21
6.450940132141113
 31
1.2000000476837158
  0
LINE
  8
0
 10
6.711319923400879
 20
-6.154029846191406
 30
1.2000000476837158
 11
6.450940132141113
 21
-6.450940132141113
 31
1.2000000476837158
  0
LINE
  8
0
 10
1.739400029182434
 20
8.801170349121094
 30
1.2000000476837158
 11
1.8053900003433228
 21
8.83998966217041
 31
1.2000000476837158
  0
LINE
  8
0
 10
6.1356201171875
 20
6.7200798988342285
 30
1.2000000476837158
 11
6.154029846191406
 21
6.711319923400879
 31
1.2000000476837158
  0
LINE
  8
0
 10
-6.752339839935303
 20
-5.906949996948242
 30
1.2000000476837158
 11
-6.739930152893066
 21
-5.830780029296875
 31
1.2000000476837158
  0
LINE
  8
0
 10
-0.8578730225563049
 20
-7.41008996963501
 30
1.2000000476837158
 11
-0.9338240027427673
 21
-7.427619934082031
 31
1.2000000476837158
  0
LINE
  8
0
 10
-1.00478994846344
 20
-7.457670211791992
 30
1.2000000476837158
 11
-1.0707800388336182
 21
-7.4964799880981445
 31
1.2000000476837158
  0
LINE
  8
0
 10
6.061079978942871
 20
6.742869853973389
 30
1.2000000476837158
 11
6.1356201171875
 21
6.7200798988342285
 31
1.2000000476837158
  0
LINE
  8
0
 10
-6.739930152893066
 20
-5.830780029296875
 30
1.2000000476837158
 11
-6.714489936828613
 21
-5.757140159606934
 31
1.2000000476837158
  0
LINE
  8
0
 10
-6.846260070800781
 20
-2.962100028991699
 30
1.2000000476837158
 11
-6.899419784545898
 21
-2.905090093612671
 31
1.2000000476837158
  0
LINE
  8
0
 10
1.8776099681854248
 20
8.870039939880371
 30
1.2000000476837158
 11
1.9535599946975708
 21
8.88757038116455
 31
1.2000000476837158
  0
LINE
  8
0
 10
-2.820919990539551
 20
-7.02754020690918
 30
1.2000000476837158
 11
-2.8586599826812744
 21
-6.960929870605469
 31
1.2000000476837158
  0
LINE
  8
0
 10
-4.894589900970459
 20
6.029819965362549
 30
1.2000000476837158
 11
-4.824749946594238
 21
5.9935197830200195
 31
1.2000000476837158
  0
LINE
  8
0
 10
-8.673640251159668
 20
-2.7519500255584717
 30
1.2000000476837158
 11
-8.685199737548828
 21
-2.7351601123809814
 31
1.2000000476837158
  0
LINE
  8
0
 10
-7.7418999671936035
 20
1.2575500011444092
 30
1.2000000476837158
 11
-8.555760383605957
 21
1.5526399612426758
 31
1.2000000476837158
  0
LINE
  8
0
 10
2.933259963989258
 20
-8.185819625854492
 30
1.2000000476837158
 11
2.9415299892425537
 21
-8.264900207519531
 31
1.2000000476837158
  0
LINE
  8
0
 10
8.88757038116455
 20
1.9535599946975708
 30
1.2000000476837158
 11
8.870039939880371
 21
1.8776099681854248
 31
1.2000000476837158
  0
LINE
  8
0
 10
8.752340316772461
 20
1.6796400547027588
 30
1.2000000476837158
 11
8.693490028381348
 21
1.6285899877548218
 31
1.2000000476837158
  0
LINE
  8
0
 10
0.778186023235321
 20
7.403830051422119
 30
1.2000000476837158
 11
0.8578730225563049
 21
7.41008996963501
 31
1.2000000476837158
  0
LINE
  8
0
 10
-1.8776099681854248
 20
8.870039939880371
 30
1.2000000476837158
 11
-1.8053900003433228
 21
8.83998966217041
 31
1.2000000476837158
  0
LINE
  8
0
 10
-7.669270038604736
 20
1.2251800298690796
 30
1.2000000476837158
 11
-7.7418999671936035
 21
1.2575500011444092
 31
1.2000000476837158
  0
LINE
  8
0
 10
-1.8053900003433228
 20
8.83998966217041
 30
1.2000000476837158
 11
-1.739400029182434
 21
8.801170349121094
 31
1.2000000476837158
  0
LINE
  8
0
 10
-7.602910041809082
 20
1.1815999746322632
 30
1.2000000476837158
 11
-7.669270038604736
 21
1.2251800298690796
 31
1.2000000476837158
  0
LINE
  8
0
 10
-2.793570041656494
 20
-7.099709987640381
 30
1.2000000476837158
 11
-2.820919990539551
 21
-7.02754020690918
 31
1.2000000476837158
  0
LINE
  8
0
 10
6.633190155029297
 20
5.622499942779541
 30
1.2000000476837158
 11
6.075900077819824
 21
4.960020065307617
 31
1.2000000476837158
  0
LINE
  8
0
 10
-7.5453200340271
 20
1.1305500268936157
 30
1.2000000476837158
 11
-7.602910041809082
 21
1.1815999746322632
 31
1.2000000476837158
  0
LINE
  8
0
 10
-2.7736001014709473
 20
7.254370212554932
 30
1.2000000476837158
 11
-2.7818799018859863
 21
7.333449840545654
 31
1.2000000476837158
  0
LINE
  8
0
 10
-0.778186023235321
 20
7.403830051422119
 30
1.2000000476837158
 11
0.778186023235321
 21
7.403830051422119
 31
1.2000000476837158
  0
LINE
  8
0
 10
-7.4964799880981445
 20
1.0707800388336182
 30
1.2000000476837158
 11
-7.5453200340271
 21
1.1305500268936157
 31
1.2000000476837158
  0
LINE
  8
0
 10
-1.9535599946975708
 20
-8.88757038116455
 30
1.2000000476837158
 11
-1.9738800525665283
 21
-8.889189720153809
 31
1.2000000476837158
  0
LINE
  8
0
 10
5.757140159606934
 20
6.714489936828613
 30
1.2000000476837158
 11
5.830780029296875
 21
6.739930152893066
 31
1.2000000476837158
  0
LINE
  8
0
 10
5.830780029296875
 20
6.739930152893066
 30
1.2000000476837158
 11
5.906949996948242
 21
6.752339839935303
 31
1.2000000476837158
  0
LINE
  8
0
 10
-6.742869853973389
 20
6.061079978942871
 30
1.2000000476837158
 11
-6.7200798988342285
 21
6.1356201171875
 31
1.2000000476837158
  0
LINE
  8
0
 10
-7.457670211791992
 20
1.00478994846344
 30
1.2000000476837158
 11
-7.4964799880981445
 21
1.0707800388336182
 31
1.2000000476837158
  0
LINE
  8
0
 10
-1.9738800525665283
 20
-8.889189720153809
 30
1.2000000476837158
 11
-2.3612101078033447
 21
-8.812140464782715
 31
1.2000000476837158
  0
LINE
  8
0
 10
7.7418999671936035
 20
1.2575500011444092
 30
1.2000000476837158
 11
7.669270038604736
 21
1.22393000125885
 31
1.2000000476837158
  0
LINE
  8
0
 10
6.679890155792236
 20
5.686850070953369
 30
1.2000000476837158
 11
6.633190155029297
 21
5.622499942779541
 31
1.2000000476837158
  0
LINE
  8
0
 10
1.8053900003433228
 20
8.83998966217041
 30
1.2000000476837158
 11
1.8776099681854248
 21
8.870039939880371
 31
1.2000000476837158
  0
LINE
  8
0
 10
-8.693490028381348
 20
1.6285899877548218
 30
1.2000000476837158
 11
-8.752340316772461
 21
1.6796400547027588
 31
1.2000000476837158
  0
LINE
  8
0
 10
-0.9338240027427673
 20
-7.427619934082031
 30
1.2000000476837158
 11
-1.00478994846344
 21
-7.457670211791992
 31
1.2000000476837158
  0
LINE
  8
0
 10
-8.555760383605957
 20
1.5526399612426758
 30
1.2000000476837158
 11
-8.628379821777344
 21
1.585010051727295
 31
1.2000000476837158
  0
LINE
  8
0
 10
1.5526399612426758
 20
-8.555760383605957
 30
1.2000000476837158
 11
1.2575500011444092
 21
-7.7418999671936035
 31
1.2000000476837158
  0
LINE
  8
0
 10
7.602910041809082
 20
1.1815999746322632
 30
1.2000000476837158
 11
7.5453200340271
 21
1.1305500268936157
 31
1.2000000476837158
  0
LINE
  8
0
 10
1.585010051727295
 20
-8.628379821777344
 30
1.2000000476837158
 11
1.5526399612426758
 21
-8.555760383605957
 31
1.2000000476837158
  0
LINE
  8
0
 10
5.9935197830200195
 20
4.824749946594238
 30
1.2000000476837158
 11
5.969160079956055
 21
4.751739978790283
 31
1.2000000476837158
  0
LINE
  8
0
 10
2.921560049057007
 20
8.419569969177246
 30
1.2000000476837158
 11
2.936350107192993
 21
8.343079566955566
 31
1.2000000476837158
  0
LINE
  8
0
 10
-7.403830051422119
 20
-0.778186023235321
 30
1.2000000476837158
 11
-7.403830051422119
 21
0.778186023235321
 31
1.2000000476837158
  0
LINE
  8
0
 10
2.8942201137542725
 20
8.491740226745605
 30
1.2000000476837158
 11
2.921560049057007
 21
8.419569969177246
 31
1.2000000476837158
  0
LINE
  8
0
 10
8.870039939880371
 20
1.8776099681854248
 30
1.2000000476837158
 11
8.83998966217041
 21
1.8053900003433228
 31
1.2000000476837158
  0
LINE
  8
0
 10
8.801170349121094
 20
1.739400029182434
 30
1.2000000476837158
 11
8.752340316772461
 21
1.6796400547027588
 31
1.2000000476837158
  0
LINE
  8
0
 10
1.6285899877548218
 20
-8.693490028381348
 30
1.2000000476837158
 11
1.585010051727295
 21
-8.628379821777344
 31
1.2000000476837158
  0
LINE
  8
0
 10
2.8564798831939697
 20
8.558349609375
 30
1.2000000476837158
 11
2.8942201137542725
 21
8.491740226745605
 31
1.2000000476837158
  0
LINE
  8
0
 10
2.8089599609375
 20
8.620479583740234
 30
1.2000000476837158
 11
2.8564798831939697
 21
8.558349609375
 31
1.2000000476837158
  0
LINE
  8
0
 10
-7.427619934082031
 20
0.9338240027427673
 30
1.2000000476837158
 11
-7.457670211791992
 21
1.00478994846344
 31
1.2000000476837158
  0
LINE
  8
0
 10
-8.801170349121094
 20
1.739400029182434
 30
1.2000000476837158
 11
-8.83998966217041
 21
1.8053900003433228
 31
1.2000000476837158
  0
LINE
  8
0
 10
2.7519500255584717
 20
8.673640251159668
 30
1.2000000476837158
 11
2.8089599609375
 21
8.620479583740234
 31
1.2000000476837158
  0
LINE
  8
0
 10
-8.83998966217041
 20
1.8053900003433228
 30
1.2000000476837158
 11
-8.870039939880371
 21
1.8776099681854248
 31
1.2000000476837158
  0
LINE
  8
0
 10
1.6796400547027588
 20
-8.752340316772461
 30
1.2000000476837158
 11
1.6285899877548218
 21
-8.693490028381348
 31
1.2000000476837158
  0
LINE
  8
0
 10
1.1305500268936157
 20
-7.5453200340271
 30
1.2000000476837158
 11
1.0707800388336182
 21
-7.4964799880981445
 31
1.2000000476837158
  0
LINE
  8
0
 10
1.22393000125885
 20
-7.669270038604736
 30
1.2000000476837158
 11
1.1815999746322632
 21
-7.602910041809082
 31
1.2000000476837158
  0
LINE
  8
0
 10
1.739400029182434
 20
-8.801170349121094
 30
1.2000000476837158
 11
1.6796400547027588
 21
-8.752340316772461
 31
1.2000000476837158
  0
LINE
  8
0
 10
2.7818799018859863
 20
7.333449840545654
 30
1.2000000476837158
 11
2.7746798992156982
 21
7.253749847412109
 31
1.2000000476837158
  0
LINE
  8
0
 10
-7.4964799880981445
 20
-1.0707800388336182
 30
1.2000000476837158
 11
-7.457670211791992
 21
-1.00478994846344
 31
1.2000000476837158
  0
LINE
  8
0
 10
-8.628379821777344
 20
1.585010051727295
 30
1.2000000476837158
 11
-8.693490028381348
 21
1.6285899877548218
 31
1.2000000476837158
  0
LINE
  8
0
 10
2.9415299892425537
 20
8.264900207519531
 30
1.2000000476837158
 11
2.933259963989258
 21
8.185819625854492
 31
1.2000000476837158
  0
LINE
  8
0
 10
7.403830051422119
 20
0.778186023235321
 30
1.2000000476837158
 11
7.403830051422119
 21
-0.778186023235321
 31
1.2000000476837158
  0
LINE
  8
0
 10
7.669270038604736
 20
1.22393000125885
 30
1.2000000476837158
 11
7.602910041809082
 21
1.1815999746322632
 31
1.2000000476837158
  0
LINE
  8
0
 10
-8.620479583740234
 20
2.8089599609375
 30
1.2000000476837158
 11
-8.558349609375
 21
2.8564798831939697
 31
1.2000000476837158
  0
LINE
  8
0
 10
-8.889189720153809
 20
1.9738800525665283
 30
1.2000000476837158
 11
-8.812140464782715
 21
2.3612101078033447
 31
1.2000000476837158
  0
LINE
  8
0
 10
7.403830051422119
 20
-0.778186023235321
 30
1.2000000476837158
 11
7.41008996963501
 21
-0.8578730225563049
 31
1.2000000476837158
  0
LINE
  8
0
 10
6.029819965362549
 20
4.894589900970459
 30
1.2000000476837158
 11
5.9935197830200195
 21
4.824749946594238
 31
1.2000000476837158
  0
LINE
  8
0
 10
1.9535599946975708
 20
8.88757038116455
 30
1.2000000476837158
 11
1.9738800525665283
 21
8.889189720153809
 31
1.2000000476837158
  0
LINE
  8
0
 10
1.00478994846344
 20
-7.457670211791992
 30
1.2000000476837158
 11
0.9325780272483826
 21
-7.427619934082031
 31
1.2000000476837158
  0
LINE
  8
0
 10
7.099709987640381
 20
2.793570041656494
 30
1.2000000476837158
 11
7.17510986328125
 21
2.7781600952148438
 31
1.2000000476837158
  0
LINE
  8
0
 10
-7.7418999671936035
 20
-1.2575500011444092
 30
1.2000000476837158
 11
-7.669270038604736
 21
-1.22393000125885
 31
1.2000000476837158
  0
LINE
  8
0
 10
8.83998966217041
 20
1.8053900003433228
 30
1.2000000476837158
 11
8.801170349121094
 21
1.739400029182434
 31
1.2000000476837158
  0
LINE
  8
0
 10
-8.555760383605957
 20
-1.5526399612426758
 30
1.2000000476837158
 11
-7.7418999671936035
 21
-1.2575500011444092
 31
1.2000000476837158
  0
LINE
  8
0
 10
0.9325780272483826
 20
-7.427619934082031
 30
1.2000000476837158
 11
0.8566269874572754
 21
-7.41008996963501
 31
1.2000000476837158
  0
LINE
  8
0
 10
4.375840187072754
 20
6.022809982299805
 30
1.2000000476837158
 11
4.447979927062988
 21
5.98838996887207
 31
1.2000000476837158
  0
LINE
  8
0
 10
2.9631800651550293
 20
6.845640182495117
 30
1.2000000476837158
 11
3.027980089187622
 21
6.801000118255615
 31
1.2000000476837158
  0
LINE
  8
0
 10
1.9738800525665283
 20
-8.889189720153809
 30
1.2000000476837158
 11
1.9535599946975708
 21
-8.88757038116455
 31
1.2000000476837158
  0
LINE
  8
0
 10
6.075900077819824
 20
4.960020065307617
 30
1.2000000476837158
 11
6.029819965362549
 21
4.894589900970459
 31
1.2000000476837158
  0
LINE
  8
0
 10
2.7351698875427246
 20
8.685199737548828
 30
1.2000000476837158
 11
2.7519500255584717
 21
8.673640251159668
 31
1.2000000476837158
  0
LINE
  8
0
 10
7.17510986328125
 20
2.7781600952148438
 30
1.2000000476837158
 11
7.254370212554932
 21
2.7736001014709473
 31
1.2000000476837158
  0
LINE
  8
0
 10
-8.343079566955566
 20
2.936350107192993
 30
1.2000000476837158
 11
-8.264900207519531
 21
2.9415299892425537
 31
1.2000000476837158
  0
LINE
  8
0
 10
1.1815999746322632
 20
-7.602910041809082
 30
1.2000000476837158
 11
1.1305500268936157
 21
-7.5453200340271
 31
1.2000000476837158
  0
LINE
  8
0
 10
5.906949996948242
 20
6.752339839935303
 30
1.2000000476837158
 11
5.9835100173950195
 21
6.752960205078125
 31
1.2000000476837158
  0
LINE
  8
0
 10
1.8053900003433228
 20
-8.83998966217041
 30
1.2000000476837158
 11
1.739400029182434
 21
-8.801170349121094
 31
1.2000000476837158
  0
LINE
  8
0
 10
1.6796400547027588
 20
8.752340316772461
 30
1.2000000476837158
 11
1.739400029182434
 21
8.801170349121094
 31
1.2000000476837158
  0
LINE
  8
0
 10
2.933259963989258
 20
8.185819625854492
 30
1.2000000476837158
 11
2.7818799018859863
 21
7.333449840545654
 31
1.2000000476837158
  0
LINE
  8
0
 10
-7.457670211791992
 20
-1.00478994846344
 30
1.2000000476837158
 11
-7.427619934082031
 21
-0.9325780272483826
 31
1.2000000476837158
  0
LINE
  8
0
 10
-0.778186023235321
 20
-7.403830051422119
 30
1.2000000476837158
 11
-0.8578730225563049
 21
-7.41008996963501
 31
1.2000000476837158
  0
LINE
  8
0
 10
5.9835100173950195
 20
6.752960205078125
 30
1.2000000476837158
 11
6.061079978942871
 21
6.742869853973389
 31
1.2000000476837158
  0
LINE
  8
0
 10
7.5453200340271
 20
-1.1305500268936157
 30
1.2000000476837158
 11
7.602910041809082
 21
-1.1815999746322632
 31
1.2000000476837158
  0
LINE
  8
0
 10
1.8477599620819092
 20
0.7653669714927673
 30
1.2000000476837158
 11
1.4142099618911743
 21
1.4142099618911743
 31
1.2000000476837158
  0
LINE
  8
0
 10
7.4964799880981445
 20
-1.0707800388336182
 30
1.2000000476837158
 11
7.5453200340271
 21
-1.1305500268936157
 31
1.2000000476837158
  0
LINE
  8
0
 10
1.4142099618911743
 20
1.4142099618911743
 30
1.2000000476837158
 11
0.7653669714927673
 21
1.8477599620819092
 31
1.2000000476837158
  0
LINE
  8
0
 10
7.457670211791992
 20
-1.00478994846344
 30
1.2000000476837158
 11
7.4964799880981445
 21
-1.0707800388336182
 31
1.2000000476837158
  0
LINE
  8
0
 10
-7.41008996963501
 20
-0.8566269874572754
 30
1.2000000476837158
 11
-7.403830051422119
 21
-0.778186023235321
 31
1.2000000476837158
  0
LINE
  8
0
 10
-8.628379821777344
 20
-1.585010051727295
 30
1.2000000476837158
 11
-8.555760383605957
 21
-1.5526399612426758
 31
1.2000000476837158
  0
LINE
  8
0
 10
2.8089599609375
 20
-8.620479583740234
 30
1.2000000476837158
 11
2.7519500255584717
 21
-8.673640251159668
 31
1.2000000476837158
  0
LINE
  8
0
 10
-8.185819625854492
 20
2.933259963989258
 30
1.2000000476837158
 11
-7.333449840545654
 21
2.7818799018859863
 31
1.2000000476837158
  0
LINE
  8
0
 10
7.427619934082031
 20
-0.9338240027427673
 30
1.2000000476837158
 11
7.457670211791992
 21
-1.00478994846344
 31
1.2000000476837158
  0
LINE
  8
0
 10
-8.673640251159668
 20
2.7519500255584717
 30
1.2000000476837158
 11
-8.620479583740234
 21
2.8089599609375
 31
1.2000000476837158
  0
LINE
  8
0
 10
-8.812140464782715
 20
2.3612101078033447
 30
1.2000000476837158
 11
-8.685199737548828
 21
2.7351698875427246
 31
1.2000000476837158
  0
LINE
  8
0
 10
-1.0707800388336182
 20
-7.4964799880981445
 30
1.2000000476837158
 11
-1.1305500268936157
 21
-7.5453200340271
 31
1.2000000476837158
  0
LINE
  8
0
 10
7.41008996963501
 20
-0.8578730225563049
 30
1.2000000476837158
 11
7.427619934082031
 21
-0.9338240027427673
 31
1.2000000476837158
  0
LINE
  8
0
 10
1.585010051727295
 20
8.628379821777344
 30
1.2000000476837158
 11
1.6285899877548218
 21
8.693490028381348
 31
1.2000000476837158
  0
LINE
  8
0
 10
-8.88757038116455
 20
-1.9535599946975708
 30
1.2000000476837158
 11
-8.870039939880371
 21
-1.8776099681854248
 31
1.2000000476837158
  0
LINE
  8
0
 10
1.5526399612426758
 20
8.555760383605957
 30
1.2000000476837158
 11
1.585010051727295
 21
8.628379821777344
 31
1.2000000476837158
  0
LINE
  8
0
 10
-1.1815999746322632
 20
-7.602910041809082
 30
1.2000000476837158
 11
-1.2251800298690796
 21
-7.669270038604736
 31
1.2000000476837158
  0
LINE
  8
0
 10
-1.1305500268936157
 20
-7.5453200340271
 30
1.2000000476837158
 11
-1.1815999746322632
 21
-7.602910041809082
 31
1.2000000476837158
  0
LINE
  8
0
 10
3.027980089187622
 20
6.801000118255615
 30
1.2000000476837158
 11
4.375840187072754
 21
6.022809982299805
 31
1.2000000476837158
  0
LINE
  8
0
 10
7.602910041809082
 20
-1.1815999746322632
 30
1.2000000476837158
 11
7.669270038604736
 21
-1.2251800298690796
 31
1.2000000476837158
  0
LINE
  8
0
 10
-8.889189720153809
 20
-1.9738800525665283
 30
1.2000000476837158
 11
-8.88757038116455
 21
-1.9535599946975708
 31
1.2000000476837158
  0
LINE
  8
0
 10
2.8942201137542725
 20
-8.491740226745605
 30
1.2000000476837158
 11
2.8564798831939697
 21
-8.558349609375
 31
1.2000000476837158
  0
LINE
  8
0
 10
1.6285899877548218
 20
8.693490028381348
 30
1.2000000476837158
 11
1.6796400547027588
 21
8.752340316772461
 31
1.2000000476837158
  0
LINE
  8
0
 10
-6.960929870605469
 20
2.8586599826812744
 30
1.2000000476837158
 11
-6.898789882659912
 21
2.906169891357422
 31
1.2000000476837158
  0
LINE
  8
0
 10
2.921560049057007
 20
-8.419569969177246
 30
1.2000000476837158
 11
2.8942201137542725
 21
-8.491740226745605
 31
1.2000000476837158
  0
LINE
  8
0
 10
-1.2251800298690796
 20
-7.669270038604736
 30
1.2000000476837158
 11
-1.2575500011444092
 21
-7.7418999671936035
 31
1.2000000476837158
  0
LINE
  8
0
 10
-6.898789882659912
 20
2.906169891357422
 30
1.2000000476837158
 11
-6.845640182495117
 21
2.9631800651550293
 31
1.2000000476837158
  0
LINE
  8
0
 10
8.558349609375
 20
2.8564798831939697
 30
1.2000000476837158
 11
8.620479583740234
 21
2.8089599609375
 31
1.2000000476837158
  0
LINE
  8
0
 10
8.491740226745605
 20
2.8942201137542725
 30
1.2000000476837158
 11
8.558349609375
 21
2.8564798831939697
 31
1.2000000476837158
  0
LINE
  8
0
 10
0.9338240027427673
 20
7.427619934082031
 30
1.2000000476837158
 11
1.00478994846344
 21
7.457670211791992
 31
1.2000000476837158
  0
LINE
  8
0
 10
-8.752340316772461
 20
1.6796400547027588
 30
1.2000000476837158
 11
-8.801170349121094
 21
1.739400029182434
 31
1.2000000476837158
  0
LINE
  8
0
 10
-7.427619934082031
 20
-0.9325780272483826
 30
1.2000000476837158
 11
-7.41008996963501
 21
-0.8566269874572754
 31
1.2000000476837158
  0
LINE
  8
0
 10
8.419569969177246
 20
2.921560049057007
 30
1.2000000476837158
 11
8.491740226745605
 21
2.8942201137542725
 31
1.2000000476837158
  0
LINE
  8
0
 10
2.8564798831939697
 20
-8.558349609375
 30
1.2000000476837158
 11
2.8089599609375
 21
-8.620479583740234
 31
1.2000000476837158
  0
LINE
  8
0
 10
1.0707800388336182
 20
7.4964799880981445
 30
1.2000000476837158
 11
1.1305500268936157
 21
7.5453200340271
 31
1.2000000476837158
  0
LINE
  8
0
 10
-8.264900207519531
 20
2.9415299892425537
 30
1.2000000476837158
 11
-8.185819625854492
 21
2.933259963989258
 31
1.2000000476837158
  0
LINE
  8
0
 10
2.793570041656494
 20
-7.099709987640381
 30
1.2000000476837158
 11
2.7781600952148438
 21
-7.17510986328125
 31
1.2000000476837158
  0
LINE
  8
0
 10
8.343079566955566
 20
2.936350107192993
 30
1.2000000476837158
 11
8.419569969177246
 21
2.921560049057007
 31
1.2000000476837158
  0
LINE
  8
0
 10
0.8566269874572754
 20
-7.41008996963501
 30
1.2000000476837158
 11
0.778186023235321
 21
-7.403830051422119
 31
1.2000000476837158
  0
LINE
  8
0
 10
8.264900207519531
 20
2.9415299892425537
 30
1.2000000476837158
 11
8.343079566955566
 21
2.936350107192993
 31
1.2000000476837158
  0
LINE
  8
0
 10
-1.6796400547027588
 20
-8.752340316772461
 30
1.2000000476837158
 11
-1.739400029182434
 21
-8.801170349121094
 31
1.2000000476837158
  0
LINE
  8
0
 10
0.778186023235321
 20
-7.403830051422119
 30
1.2000000476837158
 11
-0.778186023235321
 21
-7.403830051422119
 31
1.2000000476837158
  0
LINE
  8
0
 10
2.7736001014709473
 20
-7.254370212554932
 30
1.2000000476837158
 11
2.7818799018859863
 21
-7.333449840545654
 31
1.2000000476837158
  0
LINE
  8
0
 10
-8.685199737548828
 20
2.7351698875427246
 30
1.2000000476837158
 11
-8.673640251159668
 21
2.7519500255584717
 31
1.2000000476837158
  0
LINE
  8
0
 10
1.9738800525665283
 20
8.889189720153809
 30
1.2000000476837158
 11
2.3612101078033447
 21
8.812140464782715
 31
1.2000000476837158
  0
LINE
  8
0
 10
1.8477599620819092
 20
-0.7653669714927673
 30
1.2000000476837158
 11
2.0
 21
0.0
 31
1.2000000476837158
  0
LINE
  8
0
 10
2.3612101078033447
 20
8.812140464782715
 30
1.2000000476837158
 11
2.7351698875427246
 21
8.685199737548828
 31
1.2000000476837158
  0
LINE
  8
0
 10
8.673640251159668
 20
2.7519500255584717
 30
1.2000000476837158
 11
8.685199737548828
 21
2.7351601123809814
 31
1.2000000476837158
  0
LINE
  8
0
 10
-8.419569969177246
 20
-2.921560049057007
 30
1.2000000476837158
 11
-8.491740226745605
 21
-2.8942201137542725
 31
1.2000000476837158
  0
LINE
  8
0
 10
1.9535599946975708
 20
-8.88757038116455
 30
1.2000000476837158
 11
1.8776099681854248
 21
-8.870039939880371
 31
1.2000000476837158
  0
LINE
  8
0
 10
-8.343079566955566
 20
-2.936350107192993
 30
1.2000000476837158
 11
-8.419569969177246
 21
-2.921560049057007
 31
1.2000000476837158
  0
LINE
  8
0
 10
8.88757038116455
 20
-1.9535599946975708
 30
1.2000000476837158
 11
8.889189720153809
 21
-1.9738800525665283
 31
1.2000000476837158
  0
LINE
  8
0
 10
8.628379821777344
 20
1.585010051727295
 30
1.2000000476837158
 11
8.555760383605957
 21
1.5526399612426758
 31
1.2000000476837158
  0
LINE
  8
0
 10
8.693490028381348
 20
1.6285899877548218
 30
1.2000000476837158
 11
8.628379821777344
 21
1.585010051727295
 31
1.2000000476837158
  0
LINE
  8
0
 10
1.8776099681854248
 20
-8.870039939880371
 30
1.2000000476837158
 11
1.8053900003433228
 21
-8.83998966217041
 31
1.2000000476837158
  0
LINE
  8
0
 10
-8.264900207519531
 20
-2.9415299892425537
 30
1.2000000476837158
 11
-8.343079566955566
 21
-2.936350107192993
 31
1.2000000476837158
  0
LINE
  8
0
 10
-8.185819625854492
 20
-2.933259963989258
 30
1.2000000476837158
 11
-8.264900207519531
 21
-2.9415299892425537
 31
1.2000000476837158
  0
LINE
  8
0
 10
0.7653669714927673
 20
1.8477599620819092
 30
1.2000000476837158
 11
9.184549771250198e-16
 21
2.0
 31
1.2000000476837158
  0
LINE
  8
0
 10
8.555760383605957
 20
1.5526399612426758
 30
1.2000000476837158
 11
7.7418999671936035
 21
1.2575500011444092
 31
1.2000000476837158
  0
LINE
  8
0
 10
9.184549771250198e-16
 20
2.0
 30
1.2000000476837158
 11
-0.7653669714927673
 21
1.8477599620819092
 31
1.2000000476837158
  0
LINE
  8
0
 10
7.254370212554932
 20
2.7736001014709473
 30
1.2000000476837158
 11
7.333449840545654
 21
2.7818799018859863
 31
1.2000000476837158
  0
LINE
  8
0
 10
-7.333449840545654
 20
-2.7818799018859863
 30
1.2000000476837158
 11
-8.185819625854492
 21
-2.933259963989258
 31
1.2000000476837158
  0
LINE
  8
0
 10
-1.00478994846344
 20
7.457670211791992
 30
1.2000000476837158
 11
-0.9325780272483826
 21
7.427619934082031
 31
1.2000000476837158
  0
LINE
  8
0
 10
1.00478994846344
 20
7.457670211791992
 30
1.2000000476837158
 11
1.0707800388336182
 21
7.4964799880981445
 31
1.2000000476837158
  0
LINE
  8
0
 10
1.2575500011444092
 20
-7.7418999671936035
 30
1.2000000476837158
 11
1.22393000125885
 21
-7.669270038604736
 31
1.2000000476837158
  0
LINE
  8
0
 10
7.333449840545654
 20
2.7818799018859863
 30
1.2000000476837158
 11
8.185819625854492
 21
2.933259963989258
 31
1.2000000476837158
  0
LINE
  8
0
 10
4.375840187072754
 20
-6.022809982299805
 30
1.2000000476837158
 11
3.027980089187622
 21
-6.801000118255615
 31
1.2000000476837158
  0
LINE
  8
0
 10
2.936350107192993
 20
8.343079566955566
 30
1.2000000476837158
 11
2.9415299892425537
 21
8.264900207519531
 31
1.2000000476837158
  0
LINE
  8
0
 10
2.7781600952148438
 20
-7.17510986328125
 30
1.2000000476837158
 11
2.7736001014709473
 21
-7.254370212554932
 31
1.2000000476837158
  0
LINE
  8
0
 10
7.02754020690918
 20
2.820919990539551
 30
1.2000000476837158
 11
7.099709987640381
 21
2.793570041656494
 31
1.2000000476837158
  0
LINE
  8
0
 10
-1.22393000125885
 20
7.669270038604736
 30
1.2000000476837158
 11
-1.1815999746322632
 21
7.602910041809082
 31
1.2000000476837158
  0
LINE
  8
0
 10
-1.739400029182434
 20
-8.801170349121094
 30
1.2000000476837158
 11
-1.8053900003433228
 21
-8.83998966217041
 31
1.2000000476837158
  0
LINE
  8
0
 10
-1.2575500011444092
 20
7.7418999671936035
 30
1.2000000476837158
 11
-1.22393000125885
 21
7.669270038604736
 31
1.2000000476837158
  0
LINE
  8
0
 10
2.0
 20
0.0
 30
1.2000000476837158
 11
1.8477599620819092
 21
0.7653669714927673
 31
1.2000000476837158
  0
LINE
  8
0
 10
-6.029200077056885
 20
4.895669937133789
 30
1.2000000476837158
 11
-6.075900077819824
 21
4.960020065307617
 31
1.2000000476837158
  0
LINE
  8
0
 10
-5.969160079956055
 20
4.751739978790283
 30
1.2000000476837158
 11
-5.9935197830200195
 21
4.824749946594238
 31
1.2000000476837158
  0
LINE
  8
0
 10
-2.8564798831939697
 20
-8.558349609375
 30
1.2000000476837158
 11
-2.8942201137542725
 21
-8.491740226745605
 31
1.2000000476837158
  0
LINE
  8
0
 10
-2.8089599609375
 20
-8.620479583740234
 30
1.2000000476837158
 11
-2.8564798831939697
 21
-8.558349609375
 31
1.2000000476837158
  0
LINE
  8
0
 10
-8.870039939880371
 20
-1.8776099681854248
 30
1.2000000476837158
 11
-8.83998966217041
 21
-1.8053900003433228
 31
1.2000000476837158
  0
LINE
  8
0
 10
8.685199737548828
 20
-2.7351698875427246
 30
1.2000000476837158
 11
8.673640251159668
 21
-2.7519500255584717
 31
1.2000000476837158
  0
LINE
  8
0
 10
-1.5526399612426758
 20
8.555760383605957
 30
1.2000000476837158
 11
-1.2575500011444092
 21
7.7418999671936035
 31
1.2000000476837158
  0
LINE
  8
0
 10
-7.099709987640381
 20
2.793570041656494
 30
1.2000000476837158
 11
-7.02754020690918
 21
2.820919990539551
 31
1.2000000476837158
  0
LINE
  8
0
 10
-7.02754020690918
 20
2.820919990539551
 30
1.2000000476837158
 11
-6.960929870605469
 21
2.8586599826812744
 31
1.2000000476837158
  0
LINE
  8
0
 10
-1.585010051727295
 20
8.628379821777344
 30
1.2000000476837158
 11
-1.5526399612426758
 21
8.555760383605957
 31
1.2000000476837158
  0
LINE
  8
0
 10
8.620479583740234
 20
2.8089599609375
 30
1.2000000476837158
 11
8.673640251159668
 21
2.7519500255584717
 31
1.2000000476837158
  0
LINE
  8
0
 10
8.889189720153809
 20
-1.9738800525665283
 30
1.2000000476837158
 11
8.812140464782715
 21
-2.3612101078033447
 31
1.2000000476837158
  0
LINE
  8
0
 10
-1.8477599620819092
 20
0.7653669714927673
 30
1.2000000476837158
 11
-2.0
 21
0.0
 31
1.2000000476837158
  0
LINE
  8
0
 10
-7.17510986328125
 20
-2.7781600952148438
 30
1.2000000476837158
 11
-7.254370212554932
 21
-2.7736001014709473
 31
1.2000000476837158
  0
LINE
  8
0
 10
6.714489936828613
 20
-5.757140159606934
 30
1.2000000476837158
 11
6.739930152893066
 21
-5.830780029296875
 31
1.2000000476837158
  0
LINE
  8
0
 10
-7.254370212554932
 20
-2.7736001014709473
 30
1.2000000476837158
 11
-7.333449840545654
 21
-2.7818799018859863
 31
1.2000000476837158
  0
LINE
  8
0
 10
-0.7653669714927673
 20
-1.8477599620819092
 30
1.2000000476837158
 11
9.184549771250198e-16
 21
-2.0
 31
1.2000000476837158
  0
LINE
  8
0
 10
-1.0707800388336182
 20
7.4964799880981445
 30
1.2000000476837158
 11
-1.00478994846344
 21
7.457670211791992
 31
1.2000000476837158
  0
LINE
  8
0
 10
-6.679890155792236
 20
5.686850070953369
 30
1.2000000476837158
 11
-6.714489936828613
 21
5.757140159606934
 31
1.2000000476837158
  0
LINE
  8
0
 10
4.960020065307617
 20
-6.075900077819824
 30
1.2000000476837158
 11
4.894589900970459
 21
-6.029819965362549
 31
1.2000000476837158
  0
LINE
  8
0
 10
3.027980089187622
 20
-6.801000118255615
 30
1.2000000476837158
 11
2.962100028991699
 21
-6.846260070800781
 31
1.2000000476837158
  0
LINE
  8
0
 10
-2.936350107192993
 20
-8.343079566955566
 30
1.2000000476837158
 11
-2.9415299892425537
 21
-8.264900207519531
 31
1.2000000476837158
  0
LINE
  8
0
 10
-2.933259963989258
 20
-8.185819625854492
 30
1.2000000476837158
 11
-2.7818799018859863
 21
-7.333449840545654
 31
1.2000000476837158
  0
LINE
  8
0
 10
0.7653669714927673
 20
-1.8477599620819092
 30
1.2000000476837158
 11
1.4142099618911743
 21
-1.4142099618911743
 31
1.2000000476837158
  0
LINE
  8
0
 10
-7.333449840545654
 20
2.7818799018859863
 30
1.2000000476837158
 11
-7.253749847412109
 21
2.7746798992156982
 31
1.2000000476837158
  0
LINE
  8
0
 10
-1.1815999746322632
 20
7.602910041809082
 30
1.2000000476837158
 11
-1.1305500268936157
 21
7.5453200340271
 31
1.2000000476837158
  0
LINE
  8
0
 10
9.184549771250198e-16
 20
-2.0
 30
1.2000000476837158
 11
0.7653669714927673
 21
-1.8477599620819092
 31
1.2000000476837158
  0
LINE
  8
0
 10
6.960929870605469
 20
2.8586599826812744
 30
1.2000000476837158
 11
7.02754020690918
 21
2.820919990539551
 31
1.2000000476837158
  0
LINE
  8
0
 10
6.846260070800781
 20
2.962100028991699
 30
1.2000000476837158
 11
6.899419784545898
 21
2.905090093612671
 31
1.2000000476837158
  0
LINE
  8
0
 10
-6.633190155029297
 20
5.622499942779541
 30
1.2000000476837158
 11
-6.679890155792236
 21
5.686850070953369
 31
1.2000000476837158
  0
LINE
  8
0
 10
7.02754020690918
 20
-2.820919990539551
 30
1.2000000476837158
 11
6.960929870605469
 21
-2.8586599826812744
 31
1.2000000476837158
  0
LINE
  8
0
 10
-2.8942201137542725
 20
-8.491740226745605
 30
1.2000000476837158
 11
-2.921560049057007
 21
-8.419569969177246
 31
1.2000000476837158
  0
LINE
  8
0
 10
-8.693490028381348
 20
-1.6285899877548218
 30
1.2000000476837158
 11
-8.628379821777344
 21
-1.585010051727295
 31
1.2000000476837158
  0
LINE
  8
0
 10
8.812150001525879
 20
2.3612101078033447
 30
1.2000000476837158
 11
8.685199737548828
 21
2.7351601123809814
 31
1.2000000476837158
  0
LINE
  8
0
 10
5.956130027770996
 20
4.599009990692139
 30
1.2000000476837158
 11
5.966219902038574
 21
4.521450042724609
 31
1.2000000476837158
  0
LINE
  8
0
 10
2.820919990539551
 20
-7.02754020690918
 30
1.2000000476837158
 11
2.793570041656494
 21
-7.099709987640381
 31
1.2000000476837158
  0
LINE
  8
0
 10
5.969160079956055
 20
4.751739978790283
 30
1.2000000476837158
 11
5.95674991607666
 21
4.675570011138916
 31
1.2000000476837158
  0
LINE
  8
0
 10
-5.9935197830200195
 20
4.824749946594238
 30
1.2000000476837158
 11
-6.029200077056885
 21
4.895669937133789
 31
1.2000000476837158
  0
LINE
  8
0
 10
-2.7519500255584717
 20
8.673640251159668
 30
1.2000000476837158
 11
-2.7351601123809814
 21
8.685199737548828
 31
1.2000000476837158
  0
LINE
  8
0
 10
8.812140464782715
 20
-2.3612101078033447
 30
1.2000000476837158
 11
8.685199737548828
 21
-2.7351698875427246
 31
1.2000000476837158
  0
LINE
  8
0
 10
2.962100028991699
 20
-6.846260070800781
 30
1.2000000476837158
 11
2.905090093612671
 21
-6.899419784545898
 31
1.2000000476837158
  0
LINE
  8
0
 10
-1.4142099618911743
 20
1.4142099618911743
 30
1.2000000476837158
 11
-1.8477599620819092
 21
0.7653669714927673
 31
1.2000000476837158
  0
LINE
  8
0
 10
6.679890155792236
 20
-5.686850070953369
 30
1.2000000476837158
 11
6.714489936828613
 21
-5.757140159606934
 31
1.2000000476837158
  0
LINE
  8
0
 10
5.686850070953369
 20
-6.679890155792236
 30
1.2000000476837158
 11
5.622499942779541
 21
-6.633190155029297
 31
1.2000000476837158
  0
LINE
  8
0
 10
6.714489936828613
 20
5.757140159606934
 30
1.2000000476837158
 11
6.679890155792236
 21
5.686850070953369
 31
1.2000000476837158
  0
LINE
  8
0
 10
5.622499942779541
 20
-6.633190155029297
 30
1.2000000476837158
 11
4.960020065307617
 21
-6.075900077819824
 31
1.2000000476837158
  0
LINE
  8
0
 10
-5.95674991607666
 20
-4.675570011138916
 30
1.2000000476837158
 11
-5.956130027770996
 21
-4.599009990692139
 31
1.2000000476837158
  0
LINE
  8
0
 10
1.1305500268936157
 20
7.5453200340271
 30
1.2000000476837158
 11
1.1815999746322632
 21
7.602910041809082
 31
1.2000000476837158
  0
LINE
  8
0
 10
-2.8942201137542725
 20
8.491740226745605
 30
1.2000000476837158
 11
-2.8564798831939697
 21
8.558349609375
 31
1.2000000476837158
  0
LINE
  8
0
 10
-1.1305500268936157
 20
7.5453200340271
 30
1.2000000476837158
 11
-1.0707800388336182
 21
7.4964799880981445
 31
1.2000000476837158
  0
LINE
  8
0
 10
6.022809982299805
 20
-4.375840187072754
 30
1.2000000476837158
 11
5.98838996887207
 21
-4.447979927062988
 31
1.2000000476837158
  0
LINE
  8
0
 10
-2.9415299892425537
 20
-8.264900207519531
 30
1.2000000476837158
 11
-2.933259963989258
 21
-8.185819625854492
 31
1.2000000476837158
  0
LINE
  8
0
 10
6.801000118255615
 20
-3.027980089187622
 30
1.2000000476837158
 11
6.022809982299805
 21
-4.375840187072754
 31
1.2000000476837158
  0
LINE
  8
0
 10
-1.6285899877548218
 20
-8.693490028381348
 30
1.2000000476837158
 11
-1.6796400547027588
 21
-8.752340316772461
 31
1.2000000476837158
  0
LINE
  8
0
 10
8.185819625854492
 20
2.933259963989258
 30
1.2000000476837158
 11
8.264900207519531
 21
2.9415299892425537
 31
1.2000000476837158
  0
LINE
  8
0
 10
-8.83998966217041
 20
-1.8053900003433228
 30
1.2000000476837158
 11
-8.801170349121094
 21
-1.739400029182434
 31
1.2000000476837158
  0
LINE
  8
0
 10
-2.8089599609375
 20
8.620479583740234
 30
1.2000000476837158
 11
-2.7519500255584717
 21
8.673640251159668
 31
1.2000000476837158
  0
LINE
  8
0
 10
1.2575500011444092
 20
7.7418999671936035
 30
1.2000000476837158
 11
1.5526399612426758
 21
8.555760383605957
 31
1.2000000476837158
  0
LINE
  8
0
 10
6.845640182495117
 20
-2.9631800651550293
 30
1.2000000476837158
 11
6.801000118255615
 21
-3.027980089187622
 31
1.2000000476837158
  0
LINE
  8
0
 10
1.2251800298690796
 20
7.669270038604736
 30
1.2000000476837158
 11
1.2575500011444092
 21
7.7418999671936035
 31
1.2000000476837158
  0
LINE
  8
0
 10
-7.253749847412109
 20
2.7746798992156982
 30
1.2000000476837158
 11
-7.17510986328125
 21
2.7781600952148438
 31
1.2000000476837158
  0
LINE
  8
0
 10
6.899419784545898
 20
2.905090093612671
 30
1.2000000476837158
 11
6.960929870605469
 21
2.8586599826812744
 31
1.2000000476837158
  0
LINE
  8
0
 10
-2.8564798831939697
 20
8.558349609375
 30
1.2000000476837158
 11
-2.8089599609375
 21
8.620479583740234
 31
1.2000000476837158
  0
LINE
  8
0
 10
-5.906949996948242
 20
6.752339839935303
 30
1.2000000476837158
 11
-5.830780029296875
 21
6.739930152893066
 31
1.2000000476837158
  0
LINE
  8
0
 10
-6.061079978942871
 20
6.742869853973389
 30
1.2000000476837158
 11
-5.9835100173950195
 21
6.752960205078125
 31
1.2000000476837158
  0
LINE
  8
0
 10
6.898789882659912
 20
-2.906169891357422
 30
1.2000000476837158
 11
6.845640182495117
 21
-2.9631800651550293
 31
1.2000000476837158
  0
LINE
  8
0
 10
-8.752340316772461
 20
-1.6796400547027588
 30
1.2000000476837158
 11
-8.693490028381348
 21
-1.6285899877548218
 31
1.2000000476837158
  0
LINE
  8
0
 10
5.906949996948242
 20
-6.752339839935303
 30
1.2000000476837158
 11
5.830780029296875
 21
-6.739930152893066
 31
1.2000000476837158
  0
LINE
  8
0
 10
-7.403830051422119
 20
0.778186023235321
 30
1.2000000476837158
 11
-7.41008996963501
 21
0.8578730225563049
 31
1.2000000476837158
  0
LINE
  8
0
 10
6.960929870605469
 20
-2.8586599826812744
 30
1.2000000476837158
 11
6.898789882659912
 21
-2.906169891357422
 31
1.2000000476837158
  0
LINE
  8
0
 10
5.95674991607666
 20
4.675570011138916
 30
1.2000000476837158
 11
5.956130027770996
 21
4.599009990692139
 31
1.2000000476837158
  0
LINE
  8
0
 10
-8.870039939880371
 20
1.8776099681854248
 30
1.2000000476837158
 11
-8.88757038116455
 21
1.9535599946975708
 31
1.2000000476837158
  0
LINE
  8
0
 10
-8.88757038116455
 20
1.9535599946975708
 30
1.2000000476837158
 11
-8.889189720153809
 21
1.9738800525665283
 31
1.2000000476837158
  0
LINE
  8
0
 10
-7.41008996963501
 20
0.8578730225563049
 30
1.2000000476837158
 11
-7.427619934082031
 21
0.9338240027427673
 31
1.2000000476837158
  0
LINE
  8
0
 10
-0.7653669714927673
 20
1.8477599620819092
 30
1.2000000476837158
 11
-1.4142099618911743
 21
1.4142099618911743
 31
1.2000000476837158
  0
LINE
  8
0
 10
-4.447979927062988
 20
-5.98838996887207
 30
1.2000000476837158
 11
-4.522520065307617
 21
-5.965590000152588
 31
1.2000000476837158
  0
LINE
  8
0
 10
-4.375840187072754
 20
-6.022809982299805
 30
1.2000000476837158
 11
-4.447979927062988
 21
-5.98838996887207
 31
1.2000000476837158
  0
LINE
  8
0
 10
5.95674991607666
 20
-4.675570011138916
 30
1.2000000476837158
 11
5.969160079956055
 21
-4.751739978790283
 31
1.2000000476837158
  0
LINE
  8
0
 10
6.450940132141113
 20
6.450940132141113
 30
1.2000000476837158
 11
6.7200798988342285
 21
6.1356201171875
 31
1.2000000476837158
  0
LINE
  8
0
 10
-5.9935197830200195
 20
-4.824749946594238
 30
1.2000000476837158
 11
-5.969160079956055
 21
-4.751739978790283
 31
1.2000000476837158
  0
LINE
  8
0
 10
5.965590000152588
 20
-4.522520065307617
 30
1.2000000476837158
 11
5.956130027770996
 21
-4.599009990692139
 31
1.2000000476837158
  0
LINE
  8
0
 10
-1.2575500011444092
 20
-7.7418999671936035
 30
1.2000000476837158
 11
-1.5526399612426758
 21
-8.555760383605957
 31
1.2000000476837158
  0
LINE
  8
0
 10
-4.599009990692139
 20
-5.956130027770996
 30
1.2000000476837158
 11
-4.675570011138916
 21
-5.95674991607666
 31
1.2000000476837158
  0
LINE
  8
0
 10
-4.522520065307617
 20
-5.965590000152588
 30
1.2000000476837158
 11
-4.599009990692139
 21
-5.956130027770996
 31
1.2000000476837158
  0
LINE
  8
0
 10
1.1815999746322632
 20
7.602910041809082
 30
1.2000000476837158
 11
1.2251800298690796
 21
7.669270038604736
 31
1.2000000476837158
  0
LINE
  8
0
 10
6.075900077819824
 20
-4.960020065307617
 30
1.2000000476837158
 11
6.633190155029297
 21
-5.622499942779541
 31
1.2000000476837158
  0
LINE
  8
0
 10
7.17510986328125
 20
-2.7781600952148438
 30
1.2000000476837158
 11
7.099709987640381
 21
-2.793570041656494
 31
1.2000000476837158
  0
LINE
  8
0
 10
6.633190155029297
 20
-5.622499942779541
 30
1.2000000476837158
 11
6.679890155792236
 21
-5.686850070953369
 31
1.2000000476837158
  0
LINE
  8
0
 10
-6.075900077819824
 20
4.960020065307617
 30
1.2000000476837158
 11
-6.633190155029297
 21
5.622499942779541
 31
1.2000000476837158
  0
LINE
  8
0
 10
2.7519500255584717
 20
-8.673640251159668
 30
1.2000000476837158
 11
2.7351601123809814
 21
-8.685199737548828
 31
1.2000000476837158
  0
LINE
  8
0
 10
6.739930152893066
 20
5.830780029296875
 30
1.2000000476837158
 11
6.714489936828613
 21
5.757140159606934
 31
1.2000000476837158
  0
LINE
  8
0
 10
6.752960205078125
 20
5.9835100173950195
 30
1.2000000476837158
 11
6.752339839935303
 21
5.906949996948242
 31
1.2000000476837158
  0
LINE
  8
0
 10
-1.585010051727295
 20
-8.628379821777344
 30
1.2000000476837158
 11
-1.6285899877548218
 21
-8.693490028381348
 31
1.2000000476837158
  0
LINE
  8
0
 10
7.099709987640381
 20
-2.793570041656494
 30
1.2000000476837158
 11
7.02754020690918
 21
-2.820919990539551
 31
1.2000000476837158
  0
LINE
  8
0
 10
-8.801170349121094
 20
-1.739400029182434
 30
1.2000000476837158
 11
-8.752340316772461
 21
-1.6796400547027588
 31
1.2000000476837158
  0
LINE
  8
0
 10
2.3612101078033447
 20
-8.812150001525879
 30
1.2000000476837158
 11
1.9738800525665283
 21
-8.889189720153809
 31
1.2000000476837158
  0
LINE
  8
0
 10
-7.17510986328125
 20
2.7781600952148438
 30
1.2000000476837158
 11
-7.099709987640381
 21
2.793570041656494
 31
1.2000000476837158
  0
LINE
  8
0
 10
-5.9835100173950195
 20
6.752960205078125
 30
1.2000000476837158
 11
-5.906949996948242
 21
6.752339839935303
 31
1.2000000476837158
  0
LINE
  8
0
 10
-3.027980089187622
 20
6.801000118255615
 30
1.2000000476837158
 11
-2.962100028991699
 21
6.846260070800781
 31
1.2000000476837158
  0
LINE
  8
0
 10
2.8586599826812744
 20
-6.960929870605469
 30
1.2000000476837158
 11
2.820919990539551
 21
-7.02754020690918
 31
1.2000000476837158
  0
LINE
  8
0
 10
5.830780029296875
 20
-6.739930152893066
 30
1.2000000476837158
 11
5.757140159606934
 21
-6.714489936828613
 31
1.2000000476837158
  0
LINE
  8
0
 10
5.969160079956055
 20
-4.751739978790283
 30
1.2000000476837158
 11
5.9935197830200195
 21
-4.824749946594238
 31
1.2000000476837158
  0
LINE
  8
0
 10
5.757140159606934
 20
-6.714489936828613
 30
1.2000000476837158
 11
5.686850070953369
 21
-6.679890155792236
 31
1.2000000476837158
  0
LINE
  8
0
 10
-5.969160079956055
 20
-4.751739978790283
 30
1.2000000476837158
 11
-5.95674991607666
 21
-4.675570011138916
 31
1.2000000476837158
  0
LINE
  8
0
 10
2.905090093612671
 20
-6.899419784545898
 30
1.2000000476837158
 11
2.8586599826812744
 21
-6.960929870605469
 31
1.2000000476837158
  0
LINE
  8
0
 10
8.185819625854492
 20
-2.933259963989258
 30
1.2000000476837158
 11
7.333449840545654
 21
-2.7818799018859863
 31
1.2000000476837158
  0
LINE
  8
0
 10
1.0707800388336182
 20
-7.4964799880981445
 30
1.2000000476837158
 11
1.00478994846344
 21
-7.457670211791992
 31
1.2000000476837158
  0
LINE
  8
0
 10
6.7200798988342285
 20
6.1356201171875
 30
1.2000000476837158
 11
6.742869853973389
 21
6.061079978942871
 31
1.2000000476837158
  0
LINE
  8
0
 10
5.98838996887207
 20
-4.447979927062988
 30
1.2000000476837158
 11
5.965590000152588
 21
-4.522520065307617
 31
1.2000000476837158
  0
LINE
  8
0
 10
-6.154029846191406
 20
-6.711319923400879
 30
1.2000000476837158
 11
-6.450940132141113
 21
-6.450940132141113
 31
1.2000000476837158
  0
LINE
  8
0
 10
-6.1356201171875
 20
-6.7200798988342285
 30
1.2000000476837158
 11
-6.154029846191406
 21
-6.711319923400879
 31
1.2000000476837158
  0
LINE
  8
0
 10
-4.521450042724609
 20
5.966219902038574
 30
1.2000000476837158
 11
-4.4469099044799805
 21
5.989009857177734
 31
1.2000000476837158
  0
LINE
  8
0
 10
-4.599009990692139
 20
5.956130027770996
 30
1.2000000476837158
 11
-4.521450042724609
 21
5.966219902038574
 31
1.2000000476837158
  0
LINE
  8
0
 10
8.620479583740234
 20
-2.8089599609375
 30
1.2000000476837158
 11
8.558349609375
 21
-2.8564798831939697
 31
1.2000000476837158
  0
LINE
  8
0
 10
8.673640251159668
 20
-2.7519500255584717
 30
1.2000000476837158
 11
8.620479583740234
 21
-2.8089599609375
 31
1.2000000476837158
  0
LINE
  8
0
 10
-1.5526399612426758
 20
-8.555760383605957
 30
1.2000000476837158
 11
-1.585010051727295
 21
-8.628379821777344
 31
1.2000000476837158
  0
LINE
  8
0
 10
-6.061079978942871
 20
-6.742869853973389
 30
1.2000000476837158
 11
-6.1356201171875
 21
-6.7200798988342285
 31
1.2000000476837158
  0
LINE
  8
0
 10
-2.921560049057007
 20
-8.419569969177246
 30
1.2000000476837158
 11
-2.936350107192993
 21
-8.343079566955566
 31
1.2000000476837158
  0
LINE
  8
0
 10
-5.9835100173950195
 20
-6.752960205078125
 30
1.2000000476837158
 11
-6.061079978942871
 21
-6.742869853973389
 31
1.2000000476837158
  0
LINE
  8
0
 10
-4.675570011138916
 20
5.95674991607666
 30
1.2000000476837158
 11
-4.599009990692139
 21
5.956130027770996
 31
1.2000000476837158
  0
LINE
  8
0
 10
8.491740226745605
 20
-2.8942201137542725
 30
1.2000000476837158
 11
8.419569969177246
 21
-2.921560049057007
 31
1.2000000476837158
  0
LINE
  8
0
 10
2.7351601123809814
 20
-8.685199737548828
 30
1.2000000476837158
 11
2.3612101078033447
 21
-8.812150001525879
 31
1.2000000476837158
  0
LINE
  8
0
 10
6.752339839935303
 20
5.906949996948242
 30
1.2000000476837158
 11
6.739930152893066
 21
5.830780029296875
 31
1.2000000476837158
  0
LINE
  8
0
 10
-5.906949996948242
 20
-6.752339839935303
 30
1.2000000476837158
 11
-5.9835100173950195
 21
-6.752960205078125
 31
1.2000000476837158
  0
LINE
  8
0
 10
-4.751739978790283
 20
5.969160079956055
 30
1.2000000476837158
 11
-4.675570011138916
 21
5.95674991607666
 31
1.2000000476837158
  0
LINE
  8
0
 10
8.558349609375
 20
-2.8564798831939697
 30
1.2000000476837158
 11
8.491740226745605
 21
-2.8942201137542725
 31
1.2000000476837158
  0
LINE
  8
0
 10
-4.824749946594238
 20
5.9935197830200195
 30
1.2000000476837158
 11
-4.751739978790283
 21
5.969160079956055
 31
1.2000000476837158
  0
LINE
  8
0
 10
4.960020065307617
 20
6.075900077819824
 30
1.2000000476837158
 11
5.622499942779541
 21
6.633190155029297
 31
1.2000000476837158
  0
LINE
  8
0
 10
-6.742869853973389
 20
-6.061079978942871
 30
1.2000000476837158
 11
-6.752960205078125
 21
-5.9835100173950195
 31
1.2000000476837158
  0
LINE
  8
0
 10
-6.711319923400879
 20
-6.154029846191406
 30
1.2000000476837158
 11
-6.7200798988342285
 21
-6.1356201171875
 31
1.2000000476837158
  0
LINE
  8
0
 10
-2.962100028991699
 20
6.846260070800781
 30
1.2000000476837158
 11
-2.905090093612671
 21
6.899419784545898
 31
1.2000000476837158
  0
LINE
  8
0
 10
5.989009857177734
 20
4.4469099044799805
 30
1.2000000476837158
 11
6.022809982299805
 21
4.375840187072754
 31
1.2000000476837158
  0
LINE
  8
0
 10
5.966219902038574
 20
4.521450042724609
 30
1.2000000476837158
 11
5.989009857177734
 21
4.4469099044799805
 31
1.2000000476837158
  0
LINE
  8
0
 10
-4.375840187072754
 20
6.022809982299805
 30
1.2000000476837158
 11
-3.027980089187622
 21
6.801000118255615
 31
1.2000000476837158
  0
LINE
  8
0
 10
8.870039939880371
 20
-1.8776099681854248
 30
1.2000000476837158
 11
8.88757038116455
 21
-1.9535599946975708
 31
1.2000000476837158
  0
LINE
  8
0
 10
7.333449840545654
 20
-2.7818799018859863
 30
1.2000000476837158
 11
7.253749847412109
 21
-2.7746798992156982
 31
1.2000000476837158
  0
LINE
  8
0
 10
6.801000118255615
 20
3.027980089187622
 30
1.2000000476837158
 11
6.846260070800781
 21
2.962100028991699
 31
1.2000000476837158
  0
LINE
  8
0
 10
-1.4142099618911743
 20
-1.4142099618911743
 30
1.2000000476837158
 11
-0.7653669714927673
 21
-1.8477599620819092
 31
1.2000000476837158
  0
LINE
  8
0
 10
-6.714489936828613
 20
-5.757140159606934
 30
1.2000000476837158
 11
-6.679890155792236
 21
-5.686850070953369
 31
1.2000000476837158
  0
LINE
  8
0
 10
6.022809982299805
 20
4.375840187072754
 30
1.2000000476837158
 11
6.801000118255615
 21
3.027980089187622
 31
1.2000000476837158
  0
LINE
  8
0
 10
-5.686850070953369
 20
-6.679890155792236
 30
1.2000000476837158
 11
-5.757140159606934
 21
-6.714489936828613
 31
1.2000000476837158
  0
LINE
  8
0
 10
-6.679890155792236
 20
-5.686850070953369
 30
1.2000000476837158
 11
-6.633190155029297
 21
-5.622499942779541
 31
1.2000000476837158
  0
ENDSEC
  0
EOF
