solid Mesh
  facet normal -1.000000 0.000000 0.000000
    outer loop
      vertex -7.000000 -27.000000 0.000000
      vertex -7.000000 -27.000000 14.000000
      vertex -7.000000 -13.000000 14.000000
    endloop
  endfacet
  facet normal -1.000000 0.000000 0.000000
    outer loop
      vertex -7.000000 -13.000000 0.000000
      vertex -7.000000 -27.000000 0.000000
      vertex -7.000000 -13.000000 14.000000
    endloop
  endfacet
  facet normal 0.000000 0.000000 -1.000000
    outer loop
      vertex -7.000000 -13.000000 0.000000
      vertex 7.000000 -27.000000 0.000000
      vertex -7.000000 -27.000000 0.000000
    endloop
  endfacet
  facet normal 0.000000 -0.000000 -1.000000
    outer loop
      vertex 7.000000 7.000000 0.000000
      vertex 7.000000 -27.000000 0.000000
      vertex -7.000000 -13.000000 0.000000
    endloop
  endfacet
  facet normal 0.000000 0.000000 -1.000000
    outer loop
      vertex -13.000000 -7.000000 0.000000
      vertex 7.000000 7.000000 0.000000
      vertex -7.000000 -13.000000 0.000000
    endloop
  endfacet
  facet normal 0.000000 0.000000 -1.000000
    outer loop
      vertex -27.000000 7.000000 0.000000
      vertex -13.000000 -7.000000 0.000000
      vertex -27.000000 -7.000000 0.000000
    endloop
  endfacet
  facet normal 0.000000 0.000000 -1.000000
    outer loop
      vertex -27.000000 7.000000 0.000000
      vertex 7.000000 7.000000 0.000000
      vertex -13.000000 -7.000000 0.000000
    endloop
  endfacet
  facet normal -0.707107 -0.707107 -0.000000
    outer loop
      vertex -13.000000 -7.000000 14.000000
      vertex -13.000000 -7.000000 0.000000
      vertex -7.000000 -13.000000 0.000000
    endloop
  endfacet
  facet normal -0.707107 -0.707107 0.000000
    outer loop
      vertex -13.000000 -7.000000 14.000000
      vertex -7.000000 -13.000000 0.000000
      vertex -7.000000 -13.000000 14.000000
    endloop
  endfacet
  facet normal 0.000000 -1.000000 0.000000
    outer loop
      vertex -7.000000 -27.000000 14.000000
      vertex -5.100000 -27.000000 12.100000
      vertex 7.000000 -27.000000 14.000000
    endloop
  endfacet
  facet normal -0.000000 -1.000000 0.000000
    outer loop
      vertex -5.100000 -27.000000 12.100000
      vertex -7.000000 -27.000000 14.000000
      vertex -7.000000 -27.000000 0.000000
    endloop
  endfacet
  facet normal 0.000000 -1.000000 0.000000
    outer loop
      vertex 7.000000 -27.000000 14.000000
      vertex -5.100000 -27.000000 12.100000
      vertex 5.100000 -27.000000 12.100000
    endloop
  endfacet
  facet normal 0.000000 -1.000000 -0.000000
    outer loop
      vertex -5.100000 -27.000000 12.100000
      vertex -7.000000 -27.000000 0.000000
      vertex -5.100000 -27.000000 1.900000
    endloop
  endfacet
  facet normal 0.000000 -1.000000 -0.000000
    outer loop
      vertex -5.100000 -27.000000 1.900000
      vertex -7.000000 -27.000000 0.000000
      vertex 5.100000 -27.000000 1.900000
    endloop
  endfacet
  facet normal 0.000000 -1.000000 0.000000
    outer loop
      vertex 5.100000 -27.000000 12.100000
      vertex 5.100000 -27.000000 1.900000
      vertex 7.000000 -27.000000 0.000000
    endloop
  endfacet
  facet normal 0.000000 -1.000000 -0.000000
    outer loop
      vertex 7.000000 -27.000000 14.000000
      vertex 5.100000 -27.000000 12.100000
      vertex 7.000000 -27.000000 0.000000
    endloop
  endfacet
  facet normal 0.000000 -1.000000 -0.000000
    outer loop
      vertex 5.100000 -27.000000 1.900000
      vertex -7.000000 -27.000000 0.000000
      vertex 7.000000 -27.000000 0.000000
    endloop
  endfacet
  facet normal 0.000000 0.000000 1.000000
    outer loop
      vertex -7.000000 -27.000000 14.000000
      vertex 7.000000 -27.000000 14.000000
      vertex -7.000000 -13.000000 14.000000
    endloop
  endfacet
  facet normal 0.000000 -0.000000 1.000000
    outer loop
      vertex 7.000000 -27.000000 14.000000
      vertex 7.000000 -13.000000 14.000000
      vertex -7.000000 -13.000000 14.000000
    endloop
  endfacet
  facet normal 0.000000 -1.000000 0.000000
    outer loop
      vertex -27.000000 -7.000000 0.000000
      vertex -13.000000 -7.000000 0.000000
      vertex -13.000000 -7.000000 14.000000
    endloop
  endfacet
  facet normal 0.000000 -1.000000 0.000000
    outer loop
      vertex -27.000000 -7.000000 0.000000
      vertex -13.000000 -7.000000 14.000000
      vertex -27.000000 -7.000000 14.000000
    endloop
  endfacet
  facet normal -1.000000 0.000000 0.000000
    outer loop
      vertex -27.000000 5.100000 12.100000
      vertex -27.000000 -5.100000 12.100000
      vertex -27.000000 -7.000000 14.000000
    endloop
  endfacet
  facet normal -1.000000 -0.000000 0.000000
    outer loop
      vertex -27.000000 7.000000 14.000000
      vertex -27.000000 5.100000 12.100000
      vertex -27.000000 -7.000000 14.000000
    endloop
  endfacet
  facet normal -1.000000 0.000000 0.000000
    outer loop
      vertex -27.000000 5.100000 1.900000
      vertex -27.000000 5.100000 12.100000
      vertex -27.000000 7.000000 0.000000
    endloop
  endfacet
  facet normal -1.000000 0.000000 0.000000
    outer loop
      vertex -27.000000 5.100000 12.100000
      vertex -27.000000 7.000000 14.000000
      vertex -27.000000 7.000000 0.000000
    endloop
  endfacet
  facet normal -1.000000 0.000000 -0.000000
    outer loop
      vertex -27.000000 -5.100000 12.100000
      vertex -27.000000 -5.100000 1.900000
      vertex -27.000000 -7.000000 0.000000
    endloop
  endfacet
  facet normal -1.000000 0.000000 -0.000000
    outer loop
      vertex -27.000000 -5.100000 1.900000
      vertex -27.000000 5.100000 1.900000
      vertex -27.000000 -7.000000 0.000000
    endloop
  endfacet
  facet normal -1.000000 0.000000 0.000000
    outer loop
      vertex -27.000000 -7.000000 14.000000
      vertex -27.000000 -5.100000 12.100000
      vertex -27.000000 -7.000000 0.000000
    endloop
  endfacet
  facet normal -1.000000 0.000000 -0.000000
    outer loop
      vertex -27.000000 5.100000 1.900000
      vertex -27.000000 7.000000 0.000000
      vertex -27.000000 -7.000000 0.000000
    endloop
  endfacet
  facet normal -0.577350 -0.577350 0.577350
    outer loop
      vertex -7.000000 -7.000000 20.000000
      vertex -13.000000 -7.000000 14.000000
      vertex -7.000000 -13.000000 14.000000
    endloop
  endfacet
  facet normal 1.000000 0.000000 0.000000
    outer loop
      vertex -5.100000 -7.000000 12.100000
      vertex -5.100000 -27.000000 12.100000
      vertex -5.100000 -27.000000 1.900000
    endloop
  endfacet
  facet normal 1.000000 0.000000 -0.000000
    outer loop
      vertex -5.100000 -7.000000 1.900000
      vertex -5.100000 -7.000000 12.100000
      vertex -5.100000 -27.000000 1.900000
    endloop
  endfacet
  facet normal 0.000000 -0.000000 -1.000000
    outer loop
      vertex 5.100000 -7.000000 12.100000
      vertex 5.100000 -27.000000 12.100000
      vertex -5.100000 -27.000000 12.100000
    endloop
  endfacet
  facet normal 0.000000 0.000000 -1.000000
    outer loop
      vertex -5.100000 -7.000000 12.100000
      vertex 5.100000 -7.000000 12.100000
      vertex -5.100000 -27.000000 12.100000
    endloop
  endfacet
  facet normal -1.000000 0.000000 -0.000000
    outer loop
      vertex 5.100000 -7.000000 12.100000
      vertex 5.100000 -7.000000 1.900000
      vertex 5.100000 -27.000000 1.900000
    endloop
  endfacet
  facet normal -1.000000 -0.000000 0.000000
    outer loop
      vertex 5.100000 -7.000000 12.100000
      vertex 5.100000 -27.000000 1.900000
      vertex 5.100000 -27.000000 12.100000
    endloop
  endfacet
  facet normal 0.000000 0.000000 1.000000
    outer loop
      vertex -5.100000 -7.000000 1.900000
      vertex -5.100000 -27.000000 1.900000
      vertex 5.100000 -27.000000 1.900000
    endloop
  endfacet
  facet normal 0.000000 0.000000 1.000000
    outer loop
      vertex 5.100000 -7.000000 1.900000
      vertex -5.100000 -7.000000 1.900000
      vertex 5.100000 -27.000000 1.900000
    endloop
  endfacet
  facet normal 0.000000 -0.707107 0.707107
    outer loop
      vertex 7.000000 -13.000000 14.000000
      vertex -7.000000 -7.000000 20.000000
      vertex -7.000000 -13.000000 14.000000
    endloop
  endfacet
  facet normal 0.000000 -0.707107 0.707107
    outer loop
      vertex 7.000000 -7.000000 20.000000
      vertex -7.000000 -7.000000 20.000000
      vertex 7.000000 -13.000000 14.000000
    endloop
  endfacet
  facet normal 0.000000 -0.000000 1.000000
    outer loop
      vertex -13.000000 -7.000000 14.000000
      vertex -13.000000 7.000000 14.000000
      vertex -27.000000 7.000000 14.000000
    endloop
  endfacet
  facet normal 0.000000 0.000000 1.000000
    outer loop
      vertex -27.000000 -7.000000 14.000000
      vertex -13.000000 -7.000000 14.000000
      vertex -27.000000 7.000000 14.000000
    endloop
  endfacet
  facet normal 0.000000 -1.000000 0.000000
    outer loop
      vertex -7.000000 5.100000 1.900000
      vertex -7.000000 5.100000 12.100000
      vertex -27.000000 5.100000 12.100000
    endloop
  endfacet
  facet normal 0.000000 -1.000000 0.000000
    outer loop
      vertex -7.000000 5.100000 1.900000
      vertex -27.000000 5.100000 12.100000
      vertex -27.000000 5.100000 1.900000
    endloop
  endfacet
  facet normal 0.000000 -0.000000 -1.000000
    outer loop
      vertex -7.000000 5.100000 12.100000
      vertex -7.000000 -5.100000 12.100000
      vertex -27.000000 -5.100000 12.100000
    endloop
  endfacet
  facet normal -0.000000 0.000000 -1.000000
    outer loop
      vertex -7.000000 5.100000 12.100000
      vertex -27.000000 -5.100000 12.100000
      vertex -27.000000 5.100000 12.100000
    endloop
  endfacet
  facet normal 0.000000 1.000000 0.000000
    outer loop
      vertex -7.000000 -5.100000 12.100000
      vertex -7.000000 -5.100000 1.900000
      vertex -27.000000 -5.100000 1.900000
    endloop
  endfacet
  facet normal 0.000000 1.000000 0.000000
    outer loop
      vertex -7.000000 -5.100000 12.100000
      vertex -27.000000 -5.100000 1.900000
      vertex -27.000000 -5.100000 12.100000
    endloop
  endfacet
  facet normal 0.000000 -0.000000 1.000000
    outer loop
      vertex -7.000000 -5.100000 1.900000
      vertex -7.000000 5.100000 1.900000
      vertex -27.000000 5.100000 1.900000
    endloop
  endfacet
  facet normal 0.000000 0.000000 1.000000
    outer loop
      vertex -7.000000 -5.100000 1.900000
      vertex -27.000000 5.100000 1.900000
      vertex -27.000000 -5.100000 1.900000
    endloop
  endfacet
  facet normal -0.707107 0.000000 0.707107
    outer loop
      vertex -7.000000 -7.000000 20.000000
      vertex -7.000000 7.000000 20.000000
      vertex -13.000000 7.000000 14.000000
    endloop
  endfacet
  facet normal -0.707107 0.000000 0.707107
    outer loop
      vertex -7.000000 -7.000000 20.000000
      vertex -13.000000 7.000000 14.000000
      vertex -13.000000 -7.000000 14.000000
    endloop
  endfacet
  facet normal 0.000000 -1.000000 0.000000
    outer loop
      vertex -5.100000 -7.000000 1.900000
      vertex 5.100000 -7.000000 1.900000
      vertex 5.100000 -7.000000 12.100000
    endloop
  endfacet
  facet normal 0.000000 -1.000000 0.000000
    outer loop
      vertex -5.100000 -7.000000 12.100000
      vertex -5.100000 -7.000000 1.900000
      vertex 5.100000 -7.000000 12.100000
    endloop
  endfacet
  facet normal 0.000000 -1.000000 0.000000
    outer loop
      vertex -7.000000 -7.000000 34.000000
      vertex -7.000000 -7.000000 20.000000
      vertex 7.000000 -7.000000 20.000000
    endloop
  endfacet
  facet normal -0.000000 -1.000000 -0.000000
    outer loop
      vertex 7.000000 -7.000000 34.000000
      vertex -7.000000 -7.000000 34.000000
      vertex 7.000000 -7.000000 20.000000
    endloop
  endfacet
  facet normal -1.000000 0.000000 0.000000
    outer loop
      vertex -7.000000 5.100000 1.900000
      vertex -7.000000 -5.100000 1.900000
      vertex -7.000000 -5.100000 12.100000
    endloop
  endfacet
  facet normal -1.000000 -0.000000 -0.000000
    outer loop
      vertex -7.000000 5.100000 12.100000
      vertex -7.000000 5.100000 1.900000
      vertex -7.000000 -5.100000 12.100000
    endloop
  endfacet
  facet normal -1.000000 0.000000 -0.000000
    outer loop
      vertex -7.000000 7.000000 34.000000
      vertex -7.000000 7.000000 20.000000
      vertex -7.000000 -7.000000 20.000000
    endloop
  endfacet
  facet normal -1.000000 0.000000 0.000000
    outer loop
      vertex -7.000000 -7.000000 34.000000
      vertex -7.000000 7.000000 34.000000
      vertex -7.000000 -7.000000 20.000000
    endloop
  endfacet
  facet normal -0.000000 0.000000 1.000000
    outer loop
      vertex 5.100000 -5.100000 34.000000
      vertex 7.000000 -7.000000 34.000000
      vertex 5.100000 5.100000 34.000000
    endloop
  endfacet
  facet normal 0.000000 0.000000 1.000000
    outer loop
      vertex 7.000000 -7.000000 34.000000
      vertex 5.100000 -5.100000 34.000000
      vertex -5.100000 -5.100000 34.000000
    endloop
  endfacet
  facet normal -0.000000 0.000000 1.000000
    outer loop
      vertex 5.100000 5.100000 34.000000
      vertex 7.000000 -7.000000 34.000000
      vertex 7.000000 7.000000 34.000000
    endloop
  endfacet
  facet normal 0.000000 0.000000 1.000000
    outer loop
      vertex 7.000000 -7.000000 34.000000
      vertex -5.100000 -5.100000 34.000000
      vertex -7.000000 -7.000000 34.000000
    endloop
  endfacet
  facet normal 0.000000 -0.000000 1.000000
    outer loop
      vertex 5.100000 5.100000 34.000000
      vertex 7.000000 7.000000 34.000000
      vertex -5.100000 5.100000 34.000000
    endloop
  endfacet
  facet normal 0.000000 0.000000 1.000000
    outer loop
      vertex -7.000000 -7.000000 34.000000
      vertex -5.100000 -5.100000 34.000000
      vertex -5.100000 5.100000 34.000000
    endloop
  endfacet
  facet normal 0.000000 0.000000 1.000000
    outer loop
      vertex -7.000000 -7.000000 34.000000
      vertex -5.100000 5.100000 34.000000
      vertex -7.000000 7.000000 34.000000
    endloop
  endfacet
  facet normal 0.000000 -0.000000 1.000000
    outer loop
      vertex -5.100000 5.100000 34.000000
      vertex 7.000000 7.000000 34.000000
      vertex -7.000000 7.000000 34.000000
    endloop
  endfacet
  facet normal 1.000000 0.000000 0.000000
    outer loop
      vertex -5.100000 -5.100000 14.000000
      vertex -5.100000 5.100000 14.000000
      vertex -5.100000 5.100000 34.000000
    endloop
  endfacet
  facet normal 1.000000 0.000000 0.000000
    outer loop
      vertex -5.100000 -5.100000 14.000000
      vertex -5.100000 5.100000 34.000000
      vertex -5.100000 -5.100000 34.000000
    endloop
  endfacet
  facet normal 0.000000 -1.000000 0.000000
    outer loop
      vertex 5.100000 5.100000 14.000000
      vertex 5.100000 5.100000 34.000000
      vertex -5.100000 5.100000 34.000000
    endloop
  endfacet
  facet normal 0.000000 -1.000000 0.000000
    outer loop
      vertex -5.100000 5.100000 14.000000
      vertex 5.100000 5.100000 14.000000
      vertex -5.100000 5.100000 34.000000
    endloop
  endfacet
  facet normal -1.000000 0.000000 0.000000
    outer loop
      vertex 5.100000 5.100000 14.000000
      vertex 5.100000 -5.100000 14.000000
      vertex 5.100000 -5.100000 34.000000
    endloop
  endfacet
  facet normal -1.000000 0.000000 0.000000
    outer loop
      vertex 5.100000 5.100000 14.000000
      vertex 5.100000 -5.100000 34.000000
      vertex 5.100000 5.100000 34.000000
    endloop
  endfacet
  facet normal 0.000000 1.000000 0.000000
    outer loop
      vertex -5.100000 -5.100000 14.000000
      vertex -5.100000 -5.100000 34.000000
      vertex 5.100000 -5.100000 34.000000
    endloop
  endfacet
  facet normal 0.000000 1.000000 -0.000000
    outer loop
      vertex 5.100000 -5.100000 14.000000
      vertex -5.100000 -5.100000 14.000000
      vertex 5.100000 -5.100000 34.000000
    endloop
  endfacet
  facet normal 0.000000 0.000000 1.000000
    outer loop
      vertex -5.100000 -5.100000 14.000000
      vertex 5.100000 -5.100000 14.000000
      vertex 5.100000 5.100000 14.000000
    endloop
  endfacet
  facet normal 0.000000 0.000000 1.000000
    outer loop
      vertex -5.100000 -5.100000 14.000000
      vertex 5.100000 5.100000 14.000000
      vertex -5.100000 5.100000 14.000000
    endloop
  endfacet
  facet normal -0.000000 1.000000 0.000000
    outer loop
      vertex -7.000000 7.000000 34.000000
      vertex 7.000000 7.000000 34.000000
      vertex -7.000000 7.000000 20.000000
    endloop
  endfacet
  facet normal -0.000000 1.000000 0.000000
    outer loop
      vertex -27.000000 7.000000 14.000000
      vertex -13.000000 7.000000 14.000000
      vertex -27.000000 7.000000 0.000000
    endloop
  endfacet
  facet normal -0.000000 1.000000 0.000000
    outer loop
      vertex -13.000000 7.000000 14.000000
      vertex -7.000000 7.000000 20.000000
      vertex 7.000000 7.000000 0.000000
    endloop
  endfacet
  facet normal 0.000000 1.000000 0.000000
    outer loop
      vertex -27.000000 7.000000 0.000000
      vertex -13.000000 7.000000 14.000000
      vertex 7.000000 7.000000 0.000000
    endloop
  endfacet
  facet normal -0.000000 1.000000 0.000000
    outer loop
      vertex -7.000000 7.000000 20.000000
      vertex 7.000000 7.000000 34.000000
      vertex 7.000000 7.000000 0.000000
    endloop
  endfacet
  facet normal 1.000000 -0.000000 0.000000
    outer loop
      vertex 7.000000 -13.000000 14.000000
      vertex 7.000000 7.000000 0.000000
      vertex 7.000000 -7.000000 20.000000
    endloop
  endfacet
  facet normal 1.000000 0.000000 0.000000
    outer loop
      vertex 7.000000 7.000000 34.000000
      vertex 7.000000 -7.000000 20.000000
      vertex 7.000000 7.000000 0.000000
    endloop
  endfacet
  facet normal 1.000000 0.000000 0.000000
    outer loop
      vertex 7.000000 -27.000000 0.000000
      vertex 7.000000 7.000000 0.000000
      vertex 7.000000 -13.000000 14.000000
    endloop
  endfacet
  facet normal 1.000000 -0.000000 0.000000
    outer loop
      vertex 7.000000 -7.000000 34.000000
      vertex 7.000000 -7.000000 20.000000
      vertex 7.000000 7.000000 34.000000
    endloop
  endfacet
  facet normal 1.000000 -0.000000 0.000000
    outer loop
      vertex 7.000000 -27.000000 14.000000
      vertex 7.000000 -27.000000 0.000000
      vertex 7.000000 -13.000000 14.000000
    endloop
  endfacet
endsolid Mesh
