  0
SECTION
  2
HEADER
  9
$ACADVER
  1
AC1009
  9
$INSBASE
 10
0.0
 20
0.0
 30
0.0
  9
$EXTMIN
 10
0.0
 20
0.0
 30
0.0
  9
$EXTMAX
 10
0.0
 20
0.0
 30
0.0
  0
ENDSEC
  0
SECTION
  2
TABLES
  0
TABLE
  2
VPORT
 70
1
  0
VPORT
  2
*ACTIVE
 70
0
 10
0.0
 20
0.0
 11
1.0
 21
1.0
 12
-5.0
 22
1.0
 13
0.0
 23
0.0
 14
0.1
 24
0.1
 15
0.1
 25
0.1
 16
0.0
 26
0.0
 36
1.0
 17
0.0
 27
0.0
 37
0.0
 40
10.0
 41
1.0
 42
50.0
 43
0.0
 44
0.0
 50
0.0
 51
0.0
 71
0
 72
100
 73
1
 74
1
 75
0
 76
0
 77
0
 78
0
  0
ENDTAB
  0
TABLE
  2
LTYPE
 70
8
  0
LTYPE
  2
CONTINUOUS
 70
0
  3
Solid line
 72
65
 73
0
 40
0.0
  0
LTYPE
  2
DOT
 70
0
  3
. . . . . . .
 72
65
 73
2
 40
0.25
 49
0.0
 49
-0.25
  0
LTYPE
  2
DASHED
 70
0
  3
__ __ __ __ __
 72
65
 73
2
 40
0.8
 49
0.5
 49
-0.3
  0
LTYPE
  2
DASHDOT
 70
0
  3
__ . __ . __ .
 72
65
 73
4
 40
1.0
 49
0.5
 49
-0.25
 49
0.0
 49
-0.25
  0
LTYPE
  2
DIVIDE
 70
0
  3
____ . . ____ . . 
 72
65
 73
6
 40
1.25
 49
0.5
 49
-0.25
 49
0.0
 49
-0.25
 49
0.0
 49
-0.25
  0
LTYPE
  2
BORDER
 70
0
  3
__ __ . __ __ . 
 72
65
 73
6
 40
1.75
 49
0.5
 49
-0.25
 49
0.5
 49
-0.25
 49
0.0
 49
-0.25
  0
LTYPE
  2
HIDDEN
 70
0
  3
__ __ __ __ __
 72
65
 73
2
 40
0.4
 49
0.25
 49
-0.25
  0
LTYPE
  2
CENTER
 70
0
  3
____ _ ____ _ __
 72
65
 73
4
 40
2.0
 49
1.25
 49
-0.25
 49
0.25
 49
-0.25
  0
ENDTAB
  0
TABLE
  2
LAYER
 70
1
  0
LAYER
  2
PYDXF
 70
64
 62
7
  6
continuous
  0
ENDTAB
  0
TABLE
  2
STYLE
 70
1
  0
STYLE
  2
STANDARD
 70
0
 40
0
 41
1.0
 50
0.0
 71
0
 42
1
 3
ARIAL.TTF
 4

  0
ENDTAB
  0
TABLE
  2
VIEW
 70
1
  0
VIEW
  2
BF_TOPVIEW
 70
0
 40
120.0
 10
0.0
 20
0.0
 41
200.0
 11
0.0
 21
0.0
 31
1.0
 12
0.0
 22
0.0
 32
0.0
 42
50.0
 43
0.0
 44
0.0
 50
0.0
 71
0
  0
ENDTAB
  0
ENDSEC
  0
SECTION
  2
BLOCKS
  0
ENDSEC
  0
SECTION
  2
ENTITIES
  0
LINE
  8
0
 10
-2.0
 20
0.0
 30
1.2000000476837158
 11
-1.8477599620819092
 21
-0.7653669714927673
 31
1.2000000476837158
  0
LINE
  8
0
 10
-2.568000078201294
 20
-5.674019813537598
 30
1.2000000476837158
 11
-2.5525100231170654
 21
-5.595510005950928
 31
1.2000000476837158
  0
LINE
  8
0
 10
-1.739400029182434
 20
-7.159090042114258
 30
1.2000000476837158
 11
-1.8053900003433228
 21
-7.197909832000732
 31
1.2000000476837158
  0
LINE
  8
0
 10
-2.8241500854492188
 20
6.583680152893066
 30
1.2000000476837158
 11
-2.827159881591797
 21
6.661970138549805
 31
1.2000000476837158
  0
LINE
  8
0
 10
7.34621000289917
 20
-0.5580120086669922
 30
1.2000000476837158
 11
7.281300067901611
 21
-0.5997610092163086
 31
1.2000000476837158
  0
LINE
  8
0
 10
-1.8477599620819092
 20
-0.7653669714927673
 30
1.2000000476837158
 11
-1.4142099618911743
 21
-1.4142099618911743
 31
1.2000000476837158
  0
LINE
  8
0
 10
7.531060218811035
 20
-4.7036499495334283e-07
 30
1.2000000476837158
 11
7.502600193023682
 21
-0.36167100071907043
 31
1.2000000476837158
  0
LINE
  8
0
 10
-4.384469985961914
 20
-4.111299991607666
 30
1.2000000476837158
 11
-4.459619998931885
 21
-4.127890110015869
 31
1.2000000476837158
  0
LINE
  8
0
 10
7.454410076141357
 20
-0.4478510022163391
 30
1.2000000476837158
 11
7.403510093688965
 21
-0.5072460174560547
 31
1.2000000476837158
  0
LINE
  8
0
 10
-4.459619998931885
 20
-4.127890110015869
 30
1.2000000476837158
 11
-4.533880233764648
 21
-4.1559600830078125
 31
1.2000000476837158
  0
LINE
  8
0
 10
-1.8776099681854248
 20
7.227960109710693
 30
1.2000000476837158
 11
-1.8053900003433228
 21
7.197909832000732
 31
1.2000000476837158
  0
LINE
  8
0
 10
-2.547760009765625
 20
5.516940116882324
 30
1.2000000476837158
 11
-2.5515100955963135
 21
5.596240043640137
 31
1.2000000476837158
  0
LINE
  8
0
 10
-1.0707800388336182
 20
5.854400157928467
 30
1.2000000476837158
 11
-1.00478994846344
 21
5.815589904785156
 31
1.2000000476837158
  0
LINE
  8
0
 10
-2.662400007247925
 20
7.023630142211914
 30
1.2000000476837158
 11
-2.3272299766540527
 21
7.162459850311279
 31
1.2000000476837158
  0
LINE
  8
0
 10
-0.7653669714927673
 20
1.8477599620819092
 30
1.2000000476837158
 11
-1.4142099618911743
 21
1.4142099618911743
 31
1.2000000476837158
  0
LINE
  8
0
 10
-1.1815999746322632
 20
-5.960830211639404
 30
1.2000000476837158
 11
-1.2251800298690796
 21
-6.027190208435059
 31
1.2000000476837158
  0
LINE
  8
0
 10
-1.2575500011444092
 20
6.099820137023926
 30
1.2000000476837158
 11
-1.22393000125885
 21
6.027190208435059
 31
1.2000000476837158
  0
LINE
  8
0
 10
7.055089950561523
 20
-0.6597989797592163
 30
1.2000000476837158
 11
6.1898698806762695
 21
-0.688946008682251
 31
1.2000000476837158
  0
LINE
  8
0
 10
6.1898698806762695
 20
-0.688946008682251
 30
1.2000000476837158
 11
6.110420227050781
 21
-0.698477029800415
 31
1.2000000476837158
  0
LINE
  8
0
 10
-0.9325780272483826
 20
5.7855401039123535
 30
1.2000000476837158
 11
-0.8566269874572754
 21
5.768010139465332
 31
1.2000000476837158
  0
LINE
  8
0
 10
-1.00478994846344
 20
5.815589904785156
 30
1.2000000476837158
 11
-0.9325780272483826
 21
5.7855401039123535
 31
1.2000000476837158
  0
LINE
  8
0
 10
1.8477599620819092
 20
-0.7653669714927673
 30
1.2000000476837158
 11
2.0
 21
0.0
 31
1.2000000476837158
  0
LINE
  8
0
 10
7.281300067901611
 20
-0.5997610092163086
 30
1.2000000476837158
 11
7.209549903869629
 21
-0.6301270127296448
 31
1.2000000476837158
  0
LINE
  8
0
 10
1.8477599620819092
 20
0.7653669714927673
 30
1.2000000476837158
 11
1.4142099618911743
 21
1.4142099618911743
 31
1.2000000476837158
  0
LINE
  8
0
 10
2.0
 20
0.0
 30
1.2000000476837158
 11
1.8477599620819092
 21
0.7653669714927673
 31
1.2000000476837158
  0
LINE
  8
0
 10
7.4945502281188965
 20
-0.3810339868068695
 30
1.2000000476837158
 11
7.454410076141357
 21
-0.4478510022163391
 31
1.2000000476837158
  0
LINE
  8
0
 10
-2.6054201126098633
 20
5.2955098152160645
 30
1.2000000476837158
 11
-2.574850082397461
 21
5.365699768066406
 31
1.2000000476837158
  0
LINE
  8
0
 10
-2.5552000999450684
 20
5.440340042114258
 30
1.2000000476837158
 11
-2.547760009765625
 21
5.516940116882324
 31
1.2000000476837158
  0
LINE
  8
0
 10
-5.4622697830200195
 20
-4.74744987487793
 30
1.2000000476837158
 11
-5.5381598472595215
 21
-4.765059947967529
 31
1.2000000476837158
  0
LINE
  8
0
 10
-1.2251800298690796
 20
-6.027190208435059
 30
1.2000000476837158
 11
-1.2575500011444092
 21
-6.099820137023926
 31
1.2000000476837158
  0
LINE
  8
0
 10
-1.5526399612426758
 20
-6.913680076599121
 30
1.2000000476837158
 11
-1.585010051727295
 21
-6.986299991607666
 31
1.2000000476837158
  0
LINE
  8
0
 10
5.963669776916504
 20
-0.7489839792251587
 30
1.2000000476837158
 11
5.898759841918945
 21
-0.7907339930534363
 31
1.2000000476837158
  0
LINE
  8
0
 10
1.00478994846344
 20
5.815589904785156
 30
1.2000000476837158
 11
1.0707800388336182
 21
5.854400157928467
 31
1.2000000476837158
  0
LINE
  8
0
 10
-1.5526399612426758
 20
6.913680076599121
 30
1.2000000476837158
 11
-1.2575500011444092
 21
6.099820137023926
 31
1.2000000476837158
  0
LINE
  8
0
 10
7.209549903869629
 20
0.6301270127296448
 30
1.2000000476837158
 11
7.281300067901611
 21
0.5997610092163086
 31
1.2000000476837158
  0
LINE
  8
0
 10
-5.691420078277588
 20
-4.762050151824951
 30
1.2000000476837158
 11
-5.767499923706055
 21
-4.74390983581543
 31
1.2000000476837158
  0
LINE
  8
0
 10
1.0707800388336182
 20
5.854400157928467
 30
1.2000000476837158
 11
1.1305500268936157
 21
5.903240203857422
 31
1.2000000476837158
  0
LINE
  8
0
 10
5.750410079956055
 20
-0.9677119851112366
 30
1.2000000476837158
 11
5.72022008895874
 21
-1.0403800010681152
 31
1.2000000476837158
  0
LINE
  8
0
 10
-1.4142099618911743
 20
1.4142099618911743
 30
1.2000000476837158
 11
-1.8477599620819092
 21
0.7653669714927673
 31
1.2000000476837158
  0
LINE
  8
0
 10
5.615210056304932
 20
-4.769430160522461
 30
1.2000000476837158
 11
5.5381598472595215
 21
-4.765059947967529
 31
1.2000000476837158
  0
LINE
  8
0
 10
5.2392802238464355
 20
-2.5205800533294678
 30
1.2000000476837158
 11
5.22061014175415
 21
-2.598299980163574
 31
1.2000000476837158
  0
LINE
  8
0
 10
-1.8477599620819092
 20
0.7653669714927673
 30
1.2000000476837158
 11
-2.0
 21
0.0
 31
1.2000000476837158
  0
LINE
  8
0
 10
7.134160041809082
 20
0.6514520049095154
 30
1.2000000476837158
 11
7.209549903869629
 21
0.6301270127296448
 31
1.2000000476837158
  0
LINE
  8
0
 10
1.00478994846344
 20
-5.815589904785156
 30
1.2000000476837158
 11
0.9325780272483826
 21
-5.7855401039123535
 31
1.2000000476837158
  0
LINE
  8
0
 10
-1.6796400547027588
 20
-7.110260009765625
 30
1.2000000476837158
 11
-1.739400029182434
 21
-7.159090042114258
 31
1.2000000476837158
  0
LINE
  8
0
 10
5.72022008895874
 20
-1.0403800010681152
 30
1.2000000476837158
 11
5.2392802238464355
 21
-2.5205800533294678
 31
1.2000000476837158
  0
LINE
  8
0
 10
0.9325780272483826
 20
-5.7855401039123535
 30
1.2000000476837158
 11
0.8566269874572754
 21
-5.768010139465332
 31
1.2000000476837158
  0
LINE
  8
0
 10
-2.827159881591797
 20
6.661970138549805
 30
1.2000000476837158
 11
-2.8204500675201416
 21
6.739590167999268
 31
1.2000000476837158
  0
LINE
  8
0
 10
-4.083380222320557
 20
4.162899971008301
 30
1.2000000476837158
 11
-4.016240119934082
 21
4.203949928283691
 31
1.2000000476837158
  0
LINE
  8
0
 10
-6.2823100090026855
 20
-4.1173200607299805
 30
1.2000000476837158
 11
-6.287189960479736
 21
-4.096920013427734
 31
1.2000000476837158
  0
LINE
  8
0
 10
-1.6285899877548218
 20
-7.05141019821167
 30
1.2000000476837158
 11
-1.6796400547027588
 21
-7.110260009765625
 31
1.2000000476837158
  0
LINE
  8
0
 10
-6.293980121612549
 20
-4.019269943237305
 30
1.2000000476837158
 11
-6.287720203399658
 21
-3.941309928894043
 31
1.2000000476837158
  0
LINE
  8
0
 10
-4.231210231781006
 20
4.114309787750244
 30
1.2000000476837158
 11
-4.155129909515381
 21
4.132440090179443
 31
1.2000000476837158
  0
LINE
  8
0
 10
-1.9744600057601929
 20
7.247159957885742
 30
1.2000000476837158
 11
-1.9535599946975708
 21
7.245490074157715
 31
1.2000000476837158
  0
LINE
  8
0
 10
-5.5381598472595215
 20
-4.765059947967529
 30
1.2000000476837158
 11
-5.615210056304932
 21
-4.769430160522461
 31
1.2000000476837158
  0
LINE
  8
0
 10
-2.574850082397461
 20
5.365699768066406
 30
1.2000000476837158
 11
-2.5552000999450684
 21
5.440340042114258
 31
1.2000000476837158
  0
LINE
  8
0
 10
6.034220218658447
 20
-0.7182319760322571
 30
1.2000000476837158
 11
5.963669776916504
 21
-0.7489839792251587
 31
1.2000000476837158
  0
LINE
  8
0
 10
1.1815999746322632
 20
-5.960830211639404
 30
1.2000000476837158
 11
1.1305500268936157
 21
-5.903240203857422
 31
1.2000000476837158
  0
LINE
  8
0
 10
-1.585010051727295
 20
6.986299991607666
 30
1.2000000476837158
 11
-1.5526399612426758
 21
6.913680076599121
 31
1.2000000476837158
  0
LINE
  8
0
 10
-1.2575500011444092
 20
-6.099820137023926
 30
1.2000000476837158
 11
-1.5526399612426758
 21
-6.913680076599121
 31
1.2000000476837158
  0
LINE
  8
0
 10
5.841450214385986
 20
0.8414999842643738
 30
1.2000000476837158
 11
5.898759841918945
 21
0.7907339930534363
 31
1.2000000476837158
  0
LINE
  8
0
 10
5.3198699951171875
 20
-4.680669784545898
 30
1.2000000476837158
 11
4.602759838104248
 21
-4.195690155029297
 31
1.2000000476837158
  0
LINE
  8
0
 10
-5.3198699951171875
 20
4.680669784545898
 30
1.2000000476837158
 11
-4.602759838104248
 21
4.195690155029297
 31
1.2000000476837158
  0
LINE
  8
0
 10
5.30394983291626
 20
-2.9657700061798096
 30
1.2000000476837158
 11
5.353600025177002
 21
-3.0277199745178223
 31
1.2000000476837158
  0
LINE
  8
0
 10
5.353600025177002
 20
-3.0277199745178223
 30
1.2000000476837158
 11
5.412670135498047
 21
-3.0809500217437744
 31
1.2000000476837158
  0
LINE
  8
0
 10
5.750800132751465
 20
0.966526985168457
 30
1.2000000476837158
 11
5.790939807891846
 21
0.899711012840271
 31
1.2000000476837158
  0
LINE
  8
0
 10
5.72022008895874
 20
1.0403800010681152
 30
1.2000000476837158
 11
5.750800132751465
 21
0.966526985168457
 31
1.2000000476837158
  0
LINE
  8
0
 10
7.403510093688965
 20
-0.5072460174560547
 30
1.2000000476837158
 11
7.34621000289917
 21
-0.5580120086669922
 31
1.2000000476837158
  0
LINE
  8
0
 10
5.2392802238464355
 20
2.5205800533294678
 30
1.2000000476837158
 11
5.72022008895874
 21
1.0403800010681152
 31
1.2000000476837158
  0
LINE
  8
0
 10
-6.287189960479736
 20
-4.096920013427734
 30
1.2000000476837158
 11
-6.293980121612549
 21
-4.019269943237305
 31
1.2000000476837158
  0
LINE
  8
0
 10
1.9535599946975708
 20
7.245490074157715
 30
1.2000000476837158
 11
1.9744600057601929
 21
7.247159957885742
 31
1.2000000476837158
  0
LINE
  8
0
 10
1.8053900003433228
 20
7.197909832000732
 30
1.2000000476837158
 11
1.8776099681854248
 21
7.227960109710693
 31
1.2000000476837158
  0
LINE
  8
0
 10
5.220990180969238
 20
2.5971100330352783
 30
1.2000000476837158
 11
5.2392802238464355
 21
2.5205800533294678
 31
1.2000000476837158
  0
LINE
  8
0
 10
-4.155129909515381
 20
4.132440090179443
 30
1.2000000476837158
 11
-4.083380222320557
 21
4.162899971008301
 31
1.2000000476837158
  0
LINE
  8
0
 10
-5.615210056304932
 20
-4.769430160522461
 30
1.2000000476837158
 11
-5.691420078277588
 21
-4.762050151824951
 31
1.2000000476837158
  0
LINE
  8
0
 10
5.2141900062561035
 20
2.674760103225708
 30
1.2000000476837158
 11
5.220990180969238
 21
2.5971100330352783
 31
1.2000000476837158
  0
LINE
  8
0
 10
1.6796400547027588
 20
7.110260009765625
 30
1.2000000476837158
 11
1.739400029182434
 21
7.159090042114258
 31
1.2000000476837158
  0
LINE
  8
0
 10
6.110420227050781
 20
-0.698477029800415
 30
1.2000000476837158
 11
6.034220218658447
 21
-0.7182319760322571
 31
1.2000000476837158
  0
LINE
  8
0
 10
-2.800800085067749
 20
-6.814219951629639
 30
1.2000000476837158
 11
-2.8204500675201416
 21
-6.739590167999268
 31
1.2000000476837158
  0
LINE
  8
0
 10
-2.827159881591797
 20
-6.661970138549805
 30
1.2000000476837158
 11
-2.8241500854492188
 21
-6.583680152893066
 31
1.2000000476837158
  0
LINE
  8
0
 10
5.5381598472595215
 20
-4.765059947967529
 30
1.2000000476837158
 11
5.4622697830200195
 21
-4.74744987487793
 31
1.2000000476837158
  0
LINE
  8
0
 10
-5.264949798583984
 20
-2.8994200229644775
 30
1.2000000476837158
 11
-5.236979961395264
 21
-2.8274900913238525
 31
1.2000000476837158
  0
LINE
  8
0
 10
-5.30394983291626
 20
-2.9657700061798096
 30
1.2000000476837158
 11
-5.264949798583984
 21
-2.8994200229644775
 31
1.2000000476837158
  0
LINE
  8
0
 10
1.1305500268936157
 20
-5.903240203857422
 30
1.2000000476837158
 11
1.0707800388336182
 21
-5.854400157928467
 31
1.2000000476837158
  0
LINE
  8
0
 10
7.502600193023682
 20
0.3616720139980316
 30
1.2000000476837158
 11
7.4945502281188965
 21
0.3810339868068695
 31
1.2000000476837158
  0
LINE
  8
0
 10
-5.857140064239502
 20
4.702509880065918
 30
1.2000000476837158
 11
-5.839250087738037
 21
4.713449954986572
 31
1.2000000476837158
  0
LINE
  8
0
 10
6.287720203399658
 20
-3.941309928894043
 30
1.2000000476837158
 11
6.293980121612549
 21
-4.019269943237305
 31
1.2000000476837158
  0
LINE
  8
0
 10
5.790939807891846
 20
0.899711012840271
 30
1.2000000476837158
 11
5.841450214385986
 21
0.8414999842643738
 31
1.2000000476837158
  0
LINE
  8
0
 10
5.388750076293945
 20
-4.7203898429870605
 30
1.2000000476837158
 11
5.3198699951171875
 21
-4.680669784545898
 31
1.2000000476837158
  0
LINE
  8
0
 10
6.271200180053711
 20
-3.8665499687194824
 30
1.2000000476837158
 11
6.287720203399658
 21
-3.941309928894043
 31
1.2000000476837158
  0
LINE
  8
0
 10
-6.09276008605957
 20
4.426650047302246
 30
1.2000000476837158
 11
-5.857140064239502
 21
4.702509880065918
 31
1.2000000476837158
  0
LINE
  8
0
 10
-5.353990077972412
 20
-3.0265300273895264
 30
1.2000000476837158
 11
-5.30394983291626
 21
-2.9657700061798096
 31
1.2000000476837158
  0
LINE
  8
0
 10
1.9744600057601929
 20
7.247159957885742
 30
1.2000000476837158
 11
2.3272299766540527
 21
7.162459850311279
 31
1.2000000476837158
  0
LINE
  8
0
 10
-6.2823100090026855
 20
4.1173200607299805
 30
1.2000000476837158
 11
-6.09276008605957
 21
4.426650047302246
 31
1.2000000476837158
  0
LINE
  8
0
 10
-5.412670135498047
 20
-3.0809500217437744
 30
1.2000000476837158
 11
-5.353990077972412
 21
-3.0265300273895264
 31
1.2000000476837158
  0
LINE
  8
0
 10
2.645169973373413
 20
-5.229489803314209
 30
1.2000000476837158
 11
2.6054201126098633
 21
-5.2955098152160645
 31
1.2000000476837158
  0
LINE
  8
0
 10
6.24321985244751
 20
-3.7946200370788574
 30
1.2000000476837158
 11
6.271200180053711
 21
-3.8665499687194824
 31
1.2000000476837158
  0
LINE
  8
0
 10
2.662400007247925
 20
-7.023630142211914
 30
1.2000000476837158
 11
2.3272299766540527
 21
-7.162459850311279
 31
1.2000000476837158
  0
LINE
  8
0
 10
6.203030109405518
 20
-3.7278900146484375
 30
1.2000000476837158
 11
6.24321985244751
 21
-3.7946200370788574
 31
1.2000000476837158
  0
LINE
  8
0
 10
2.3272299766540527
 20
-7.162459850311279
 30
1.2000000476837158
 11
1.9744600057601929
 21
-7.247159957885742
 31
1.2000000476837158
  0
LINE
  8
0
 10
2.6054201126098633
 20
-5.2955098152160645
 30
1.2000000476837158
 11
2.574850082397461
 21
-5.365699768066406
 31
1.2000000476837158
  0
LINE
  8
0
 10
6.15457010269165
 20
-3.6663200855255127
 30
1.2000000476837158
 11
6.203030109405518
 21
-3.7278900146484375
 31
1.2000000476837158
  0
LINE
  8
0
 10
-5.2141900062561035
 20
-2.674760103225708
 30
1.2000000476837158
 11
-5.220990180969238
 21
-2.5971100330352783
 31
1.2000000476837158
  0
LINE
  8
0
 10
-0.8566269874572754
 20
5.768010139465332
 30
1.2000000476837158
 11
-0.778186023235321
 21
5.761750221252441
 31
1.2000000476837158
  0
LINE
  8
0
 10
-1.585010051727295
 20
-6.986299991607666
 30
1.2000000476837158
 11
-1.6285899877548218
 21
-7.05141019821167
 31
1.2000000476837158
  0
LINE
  8
0
 10
1.739400029182434
 20
7.159090042114258
 30
1.2000000476837158
 11
1.8053900003433228
 21
7.197909832000732
 31
1.2000000476837158
  0
LINE
  8
0
 10
-5.236979961395264
 20
-2.8274900913238525
 30
1.2000000476837158
 11
-5.220459938049316
 21
-2.752729892730713
 31
1.2000000476837158
  0
LINE
  8
0
 10
0.9338240027427673
 20
5.7855401039123535
 30
1.2000000476837158
 11
1.00478994846344
 21
5.815589904785156
 31
1.2000000476837158
  0
LINE
  8
0
 10
-6.271200180053711
 20
3.8665499687194824
 30
1.2000000476837158
 11
-6.287720203399658
 21
3.941309928894043
 31
1.2000000476837158
  0
LINE
  8
0
 10
-4.532879829406738
 20
4.1566901206970215
 30
1.2000000476837158
 11
-4.459619998931885
 21
4.127890110015869
 31
1.2000000476837158
  0
LINE
  8
0
 10
6.287720203399658
 20
3.941309928894043
 30
1.2000000476837158
 11
6.271200180053711
 21
3.8665499687194824
 31
1.2000000476837158
  0
LINE
  8
0
 10
-4.156129837036133
 20
-4.131710052490234
 30
1.2000000476837158
 11
-4.231210231781006
 21
-4.114309787750244
 31
1.2000000476837158
  0
LINE
  8
0
 10
-6.287720203399658
 20
3.941309928894043
 30
1.2000000476837158
 11
-6.293980121612549
 21
4.019269943237305
 31
1.2000000476837158
  0
LINE
  8
0
 10
6.293980121612549
 20
4.019269943237305
 30
1.2000000476837158
 11
6.287720203399658
 21
3.941309928894043
 31
1.2000000476837158
  0
LINE
  8
0
 10
2.5525100231170654
 20
5.595510005950928
 30
1.2000000476837158
 11
2.547760009765625
 21
5.516940116882324
 31
1.2000000476837158
  0
LINE
  8
0
 10
-2.8204500675201416
 20
-6.739590167999268
 30
1.2000000476837158
 11
-2.827159881591797
 21
-6.661970138549805
 31
1.2000000476837158
  0
LINE
  8
0
 10
5.4622697830200195
 20
-4.74744987487793
 30
1.2000000476837158
 11
5.388750076293945
 21
-4.7203898429870605
 31
1.2000000476837158
  0
LINE
  8
0
 10
2.568000078201294
 20
5.674019813537598
 30
1.2000000476837158
 11
2.5525100231170654
 21
5.595510005950928
 31
1.2000000476837158
  0
LINE
  8
0
 10
7.281300067901611
 20
0.5997610092163086
 30
1.2000000476837158
 11
7.34621000289917
 21
0.5580120086669922
 31
1.2000000476837158
  0
LINE
  8
0
 10
1.0707800388336182
 20
-5.854400157928467
 30
1.2000000476837158
 11
1.00478994846344
 21
-5.815589904785156
 31
1.2000000476837158
  0
LINE
  8
0
 10
-4.602759838104248
 20
4.195690155029297
 30
1.2000000476837158
 11
-4.532879829406738
 21
4.1566901206970215
 31
1.2000000476837158
  0
LINE
  8
0
 10
6.271200180053711
 20
3.8665499687194824
 30
1.2000000476837158
 11
6.24321985244751
 21
3.7946200370788574
 31
1.2000000476837158
  0
LINE
  8
0
 10
5.412670135498047
 20
-3.0809500217437744
 30
1.2000000476837158
 11
6.095510005950928
 21
-3.6130900382995605
 31
1.2000000476837158
  0
LINE
  8
0
 10
2.547760009765625
 20
5.516940116882324
 30
1.2000000476837158
 11
2.5552000999450684
 21
5.440340042114258
 31
1.2000000476837158
  0
LINE
  8
0
 10
2.807650089263916
 20
-6.505899906158447
 30
1.2000000476837158
 11
2.8241500854492188
 21
-6.583680152893066
 31
1.2000000476837158
  0
LINE
  8
0
 10
6.095510005950928
 20
-3.6130900382995605
 30
1.2000000476837158
 11
6.15457010269165
 21
-3.6663200855255127
 31
1.2000000476837158
  0
LINE
  8
0
 10
2.568000078201294
 20
-5.674019813537598
 30
1.2000000476837158
 11
2.807650089263916
 21
-6.505899906158447
 31
1.2000000476837158
  0
LINE
  8
0
 10
-6.09276008605957
 20
-4.426650047302246
 30
1.2000000476837158
 11
-6.2823100090026855
 21
-4.1173200607299805
 31
1.2000000476837158
  0
LINE
  8
0
 10
2.5515100955963135
 20
-5.596240043640137
 30
1.2000000476837158
 11
2.568000078201294
 21
-5.674019813537598
 31
1.2000000476837158
  0
LINE
  8
0
 10
-0.778186023235321
 20
5.761750221252441
 30
1.2000000476837158
 11
0.778186023235321
 21
5.761750221252441
 31
1.2000000476837158
  0
LINE
  8
0
 10
2.547760009765625
 20
-5.516940116882324
 30
1.2000000476837158
 11
2.5515100955963135
 21
-5.596240043640137
 31
1.2000000476837158
  0
LINE
  8
0
 10
-4.307409763336182
 20
4.106919765472412
 30
1.2000000476837158
 11
-4.231210231781006
 21
4.114309787750244
 31
1.2000000476837158
  0
LINE
  8
0
 10
-5.220459938049316
 20
-2.752729892730713
 30
1.2000000476837158
 11
-5.2141900062561035
 21
-2.674760103225708
 31
1.2000000476837158
  0
LINE
  8
0
 10
0.8578730225563049
 20
5.768010139465332
 30
1.2000000476837158
 11
0.9338240027427673
 21
5.7855401039123535
 31
1.2000000476837158
  0
LINE
  8
0
 10
2.5552000999450684
 20
-5.440340042114258
 30
1.2000000476837158
 11
2.547760009765625
 21
-5.516940116882324
 31
1.2000000476837158
  0
LINE
  8
0
 10
-6.110799789428711
 20
-0.6972929835319519
 30
1.2000000476837158
 11
-6.1898698806762695
 21
-0.688946008682251
 31
1.2000000476837158
  0
LINE
  8
0
 10
-5.767499923706055
 20
-4.74390983581543
 30
1.2000000476837158
 11
-5.839250087738037
 21
-4.713449954986572
 31
1.2000000476837158
  0
LINE
  8
0
 10
-7.134160041809082
 20
-0.6514520049095154
 30
1.2000000476837158
 11
-7.209549903869629
 21
-0.6301270127296448
 31
1.2000000476837158
  0
LINE
  8
0
 10
2.800800085067749
 20
-6.814219951629639
 30
1.2000000476837158
 11
2.7702300548553467
 21
-6.8844099044799805
 31
1.2000000476837158
  0
LINE
  8
0
 10
-2.5515100955963135
 20
5.596240043640137
 30
1.2000000476837158
 11
-2.568000078201294
 21
5.674019813537598
 31
1.2000000476837158
  0
LINE
  8
0
 10
7.454410076141357
 20
0.4478510022163391
 30
1.2000000476837158
 11
7.4945502281188965
 21
0.3810339868068695
 31
1.2000000476837158
  0
LINE
  8
0
 10
-7.055089950561523
 20
-0.6597989797592163
 30
1.2000000476837158
 11
-7.134160041809082
 21
-0.6514520049095154
 31
1.2000000476837158
  0
LINE
  8
0
 10
2.827159881591797
 20
-6.661970138549805
 30
1.2000000476837158
 11
2.8204500675201416
 21
-6.739590167999268
 31
1.2000000476837158
  0
LINE
  8
0
 10
5.790559768676758
 20
-0.9008949995040894
 30
1.2000000476837158
 11
5.750410079956055
 21
-0.9677119851112366
 31
1.2000000476837158
  0
LINE
  8
0
 10
-5.857140064239502
 20
-4.702509880065918
 30
1.2000000476837158
 11
-6.09276008605957
 21
-4.426650047302246
 31
1.2000000476837158
  0
LINE
  8
0
 10
7.34621000289917
 20
0.5580120086669922
 30
1.2000000476837158
 11
7.403510093688965
 21
0.5072460174560547
 31
1.2000000476837158
  0
LINE
  8
0
 10
-2.568000078201294
 20
5.674019813537598
 30
1.2000000476837158
 11
-2.807650089263916
 21
6.505899906158447
 31
1.2000000476837158
  0
LINE
  8
0
 10
2.696320056915283
 20
-5.170660018920898
 30
1.2000000476837158
 11
2.645169973373413
 21
-5.229489803314209
 31
1.2000000476837158
  0
LINE
  8
0
 10
-5.839250087738037
 20
-4.713449954986572
 30
1.2000000476837158
 11
-5.857140064239502
 21
-4.702509880065918
 31
1.2000000476837158
  0
LINE
  8
0
 10
-1.8053900003433228
 20
7.197909832000732
 30
1.2000000476837158
 11
-1.739400029182434
 21
7.159090042114258
 31
1.2000000476837158
  0
LINE
  8
0
 10
-5.2392802238464355
 20
2.5205800533294678
 30
1.2000000476837158
 11
-5.22061014175415
 21
2.598299980163574
 31
1.2000000476837158
  0
LINE
  8
0
 10
-5.213809967041016
 20
2.675950050354004
 30
1.2000000476837158
 11
-5.220459938049316
 21
2.752729892730713
 31
1.2000000476837158
  0
LINE
  8
0
 10
-1.739400029182434
 20
7.159090042114258
 30
1.2000000476837158
 11
-1.6796400547027588
 21
7.110260009765625
 31
1.2000000476837158
  0
LINE
  8
0
 10
0.778186023235321
 20
5.761750221252441
 30
1.2000000476837158
 11
0.8578730225563049
 21
5.768010139465332
 31
1.2000000476837158
  0
LINE
  8
0
 10
2.7294700145721436
 20
-6.951169967651367
 30
1.2000000476837158
 11
2.6783299446105957
 21
-7.010000228881836
 31
1.2000000476837158
  0
LINE
  8
0
 10
-4.384469985961914
 20
4.111299991607666
 30
1.2000000476837158
 11
-4.307409763336182
 21
4.106919765472412
 31
1.2000000476837158
  0
LINE
  8
0
 10
-1.4142099618911743
 20
-1.4142099618911743
 30
1.2000000476837158
 11
-0.7653669714927673
 21
-1.8477599620819092
 31
1.2000000476837158
  0
LINE
  8
0
 10
1.8776099681854248
 20
7.227960109710693
 30
1.2000000476837158
 11
1.9535599946975708
 21
7.245490074157715
 31
1.2000000476837158
  0
LINE
  8
0
 10
2.574850082397461
 20
-5.365699768066406
 30
1.2000000476837158
 11
2.5552000999450684
 21
-5.440340042114258
 31
1.2000000476837158
  0
LINE
  8
0
 10
2.6783299446105957
 20
-7.010000228881836
 30
1.2000000476837158
 11
2.662400007247925
 21
-7.023630142211914
 31
1.2000000476837158
  0
LINE
  8
0
 10
4.533880233764648
 20
4.1559600830078125
 30
1.2000000476837158
 11
4.602759838104248
 21
4.195690155029297
 31
1.2000000476837158
  0
LINE
  8
0
 10
-6.1898698806762695
 20
-0.688946008682251
 30
1.2000000476837158
 11
-7.055089950561523
 21
-0.6597989797592163
 31
1.2000000476837158
  0
LINE
  8
0
 10
1.9744600057601929
 20
-7.247159957885742
 30
1.2000000476837158
 11
1.9535599946975708
 21
-7.245490074157715
 31
1.2000000476837158
  0
LINE
  8
0
 10
1.739400029182434
 20
-7.159090042114258
 30
1.2000000476837158
 11
1.6796400547027588
 21
-7.110260009765625
 31
1.2000000476837158
  0
LINE
  8
0
 10
4.459619998931885
 20
4.127890110015869
 30
1.2000000476837158
 11
4.533880233764648
 21
4.1559600830078125
 31
1.2000000476837158
  0
LINE
  8
0
 10
4.384469985961914
 20
4.111299991607666
 30
1.2000000476837158
 11
4.459619998931885
 21
4.127890110015869
 31
1.2000000476837158
  0
LINE
  8
0
 10
5.898759841918945
 20
-0.7907339930534363
 30
1.2000000476837158
 11
5.841450214385986
 21
-0.8414999842643738
 31
1.2000000476837158
  0
LINE
  8
0
 10
4.155129909515381
 20
-4.132440090179443
 30
1.2000000476837158
 11
4.083380222320557
 21
-4.162899971008301
 31
1.2000000476837158
  0
LINE
  8
0
 10
2.8204500675201416
 20
-6.739590167999268
 30
1.2000000476837158
 11
2.800800085067749
 21
-6.814219951629639
 31
1.2000000476837158
  0
LINE
  8
0
 10
-4.459619998931885
 20
4.127890110015869
 30
1.2000000476837158
 11
-4.384469985961914
 21
4.111299991607666
 31
1.2000000476837158
  0
LINE
  8
0
 10
4.307409763336182
 20
4.106919765472412
 30
1.2000000476837158
 11
4.384469985961914
 21
4.111299991607666
 31
1.2000000476837158
  0
LINE
  8
0
 10
4.231210231781006
 20
4.114309787750244
 30
1.2000000476837158
 11
4.307409763336182
 21
4.106919765472412
 31
1.2000000476837158
  0
LINE
  8
0
 10
-6.293980121612549
 20
4.019269943237305
 30
1.2000000476837158
 11
-6.287189960479736
 21
4.096920013427734
 31
1.2000000476837158
  0
LINE
  8
0
 10
7.403510093688965
 20
0.5072460174560547
 30
1.2000000476837158
 11
7.454410076141357
 21
0.4478510022163391
 31
1.2000000476837158
  0
LINE
  8
0
 10
4.156129837036133
 20
4.131710052490234
 30
1.2000000476837158
 11
4.231210231781006
 21
4.114309787750244
 31
1.2000000476837158
  0
LINE
  8
0
 10
-6.287189960479736
 20
4.096920013427734
 30
1.2000000476837158
 11
-6.2823100090026855
 21
4.1173200607299805
 31
1.2000000476837158
  0
LINE
  8
0
 10
1.5526399612426758
 20
-6.913680076599121
 30
1.2000000476837158
 11
1.2575500011444092
 21
-6.099820137023926
 31
1.2000000476837158
  0
LINE
  8
0
 10
4.459619998931885
 20
-4.127890110015869
 30
1.2000000476837158
 11
4.384469985961914
 21
-4.111299991607666
 31
1.2000000476837158
  0
LINE
  8
0
 10
4.532879829406738
 20
-4.1566901206970215
 30
1.2000000476837158
 11
4.459619998931885
 21
-4.127890110015869
 31
1.2000000476837158
  0
LINE
  8
0
 10
5.388750076293945
 20
4.7203898429870605
 30
1.2000000476837158
 11
5.4622697830200195
 21
4.74744987487793
 31
1.2000000476837158
  0
LINE
  8
0
 10
-5.22061014175415
 20
2.598299980163574
 30
1.2000000476837158
 11
-5.213809967041016
 21
2.675950050354004
 31
1.2000000476837158
  0
LINE
  8
0
 10
4.602759838104248
 20
4.195690155029297
 30
1.2000000476837158
 11
5.3198699951171875
 21
4.680669784545898
 31
1.2000000476837158
  0
LINE
  8
0
 10
-7.134160041809082
 20
0.6514520049095154
 30
1.2000000476837158
 11
-7.055089950561523
 21
0.6597989797592163
 31
1.2000000476837158
  0
LINE
  8
0
 10
1.22393000125885
 20
-6.027190208435059
 30
1.2000000476837158
 11
1.1815999746322632
 21
-5.960830211639404
 31
1.2000000476837158
  0
LINE
  8
0
 10
-7.209549903869629
 20
0.6301270127296448
 30
1.2000000476837158
 11
-7.134160041809082
 21
0.6514520049095154
 31
1.2000000476837158
  0
LINE
  8
0
 10
2.697319984436035
 20
5.1699299812316895
 30
1.2000000476837158
 11
2.7571001052856445
 21
5.118760108947754
 31
1.2000000476837158
  0
LINE
  8
0
 10
5.841450214385986
 20
-0.8414999842643738
 30
1.2000000476837158
 11
5.790559768676758
 21
-0.9008949995040894
 31
1.2000000476837158
  0
LINE
  8
0
 10
4.083380222320557
 20
-4.162899971008301
 30
1.2000000476837158
 11
4.016240119934082
 21
-4.203949928283691
 31
1.2000000476837158
  0
LINE
  8
0
 10
1.9535599946975708
 20
-7.245490074157715
 30
1.2000000476837158
 11
1.8776099681854248
 21
-7.227960109710693
 31
1.2000000476837158
  0
LINE
  8
0
 10
1.8053900003433228
 20
-7.197909832000732
 30
1.2000000476837158
 11
1.739400029182434
 21
-7.159090042114258
 31
1.2000000476837158
  0
LINE
  8
0
 10
-7.281300067901611
 20
0.5997610092163086
 30
1.2000000476837158
 11
-7.209549903869629
 21
0.6301270127296448
 31
1.2000000476837158
  0
LINE
  8
0
 10
4.602759838104248
 20
-4.195690155029297
 30
1.2000000476837158
 11
4.532879829406738
 21
-4.1566901206970215
 31
1.2000000476837158
  0
LINE
  8
0
 10
2.7571001052856445
 20
-5.118760108947754
 30
1.2000000476837158
 11
2.696320056915283
 21
-5.170660018920898
 31
1.2000000476837158
  0
LINE
  8
0
 10
4.084380149841309
 20
4.162169933319092
 30
1.2000000476837158
 11
4.156129837036133
 21
4.131710052490234
 31
1.2000000476837158
  0
LINE
  8
0
 10
5.5381598472595215
 20
4.765059947967529
 30
1.2000000476837158
 11
5.615210056304932
 21
4.769430160522461
 31
1.2000000476837158
  0
LINE
  8
0
 10
5.615210056304932
 20
4.769430160522461
 30
1.2000000476837158
 11
5.691420078277588
 21
4.762050151824951
 31
1.2000000476837158
  0
LINE
  8
0
 10
-7.34621000289917
 20
0.5580120086669922
 30
1.2000000476837158
 11
-7.281300067901611
 21
0.5997610092163086
 31
1.2000000476837158
  0
LINE
  8
0
 10
-6.034220218658447
 20
0.7182319760322571
 30
1.2000000476837158
 11
-5.963669776916504
 21
0.7489839792251587
 31
1.2000000476837158
  0
LINE
  8
0
 10
-6.1898698806762695
 20
0.688946008682251
 30
1.2000000476837158
 11
-6.110420227050781
 21
0.698477029800415
 31
1.2000000476837158
  0
LINE
  8
0
 10
-7.403510093688965
 20
0.5072460174560547
 30
1.2000000476837158
 11
-7.34621000289917
 21
0.5580120086669922
 31
1.2000000476837158
  0
LINE
  8
0
 10
5.691420078277588
 20
-4.762050151824951
 30
1.2000000476837158
 11
5.615210056304932
 21
-4.769430160522461
 31
1.2000000476837158
  0
LINE
  8
0
 10
2.5552000999450684
 20
5.440340042114258
 30
1.2000000476837158
 11
2.574850082397461
 21
5.365699768066406
 31
1.2000000476837158
  0
LINE
  8
0
 10
5.3198699951171875
 20
4.680669784545898
 30
1.2000000476837158
 11
5.388750076293945
 21
4.7203898429870605
 31
1.2000000476837158
  0
LINE
  8
0
 10
0.8566269874572754
 20
-5.768010139465332
 30
1.2000000476837158
 11
0.778186023235321
 21
-5.761750221252441
 31
1.2000000476837158
  0
LINE
  8
0
 10
1.2575500011444092
 20
-6.099820137023926
 30
1.2000000476837158
 11
1.22393000125885
 21
-6.027190208435059
 31
1.2000000476837158
  0
LINE
  8
0
 10
6.287189960479736
 20
4.096920013427734
 30
1.2000000476837158
 11
6.293980121612549
 21
4.019269943237305
 31
1.2000000476837158
  0
LINE
  8
0
 10
5.839250087738037
 20
4.713449954986572
 30
1.2000000476837158
 11
5.857140064239502
 21
4.702509880065918
 31
1.2000000476837158
  0
LINE
  8
0
 10
5.767499923706055
 20
-4.74390983581543
 30
1.2000000476837158
 11
5.691420078277588
 21
-4.762050151824951
 31
1.2000000476837158
  0
LINE
  8
0
 10
0.778186023235321
 20
-5.761750221252441
 30
1.2000000476837158
 11
-0.778186023235321
 21
-5.761750221252441
 31
1.2000000476837158
  0
LINE
  8
0
 10
-5.898759841918945
 20
0.7907339930534363
 30
1.2000000476837158
 11
-5.841450214385986
 21
0.8414999842643738
 31
1.2000000476837158
  0
LINE
  8
0
 10
1.8477599620819092
 20
-0.7653669714927673
 30
1.2000000476837158
 11
1.4142099618911743
 21
-1.4142099618911743
 31
1.2000000476837158
  0
LINE
  8
0
 10
2.807650089263916
 20
6.505899906158447
 30
1.2000000476837158
 11
2.568000078201294
 21
5.674019813537598
 31
1.2000000476837158
  0
LINE
  8
0
 10
2.7702300548553467
 20
-6.8844099044799805
 30
1.2000000476837158
 11
2.7294700145721436
 21
-6.951169967651367
 31
1.2000000476837158
  0
LINE
  8
0
 10
1.8776099681854248
 20
-7.227960109710693
 30
1.2000000476837158
 11
1.8053900003433228
 21
-7.197909832000732
 31
1.2000000476837158
  0
LINE
  8
0
 10
2.8241500854492188
 20
6.583680152893066
 30
1.2000000476837158
 11
2.807650089263916
 21
6.505899906158447
 31
1.2000000476837158
  0
LINE
  8
0
 10
-5.841450214385986
 20
0.8414999842643738
 30
1.2000000476837158
 11
-5.790559768676758
 21
0.9008949995040894
 31
1.2000000476837158
  0
LINE
  8
0
 10
4.016240119934082
 20
-4.203949928283691
 30
1.2000000476837158
 11
2.7571001052856445
 21
-5.118760108947754
 31
1.2000000476837158
  0
LINE
  8
0
 10
-7.531060218811035
 20
4.7036499495334283e-07
 30
1.2000000476837158
 11
-7.502600193023682
 21
0.36167100071907043
 31
1.2000000476837158
  0
LINE
  8
0
 10
6.24321985244751
 20
3.7946200370788574
 30
1.2000000476837158
 11
6.203030109405518
 21
3.7278900146484375
 31
1.2000000476837158
  0
LINE
  8
0
 10
-6.110420227050781
 20
0.698477029800415
 30
1.2000000476837158
 11
-6.034220218658447
 21
0.7182319760322571
 31
1.2000000476837158
  0
LINE
  8
0
 10
-7.454410076141357
 20
0.4478510022163391
 30
1.2000000476837158
 11
-7.403510093688965
 21
0.5072460174560547
 31
1.2000000476837158
  0
LINE
  8
0
 10
2.574850082397461
 20
5.365699768066406
 30
1.2000000476837158
 11
2.6054201126098633
 21
5.2955098152160645
 31
1.2000000476837158
  0
LINE
  8
0
 10
-5.72022008895874
 20
1.0403800010681152
 30
1.2000000476837158
 11
-5.2392802238464355
 21
2.5205800533294678
 31
1.2000000476837158
  0
LINE
  8
0
 10
-1.0707800388336182
 20
-5.854400157928467
 30
1.2000000476837158
 11
-1.1305500268936157
 21
-5.903240203857422
 31
1.2000000476837158
  0
LINE
  8
0
 10
-1.00478994846344
 20
-5.815589904785156
 30
1.2000000476837158
 11
-1.0707800388336182
 21
-5.854400157928467
 31
1.2000000476837158
  0
LINE
  8
0
 10
-0.9338240027427673
 20
-5.7855401039123535
 30
1.2000000476837158
 11
-1.00478994846344
 21
-5.815589904785156
 31
1.2000000476837158
  0
LINE
  8
0
 10
2.6461799144744873
 20
5.228750228881836
 30
1.2000000476837158
 11
2.697319984436035
 21
5.1699299812316895
 31
1.2000000476837158
  0
LINE
  8
0
 10
2.827159881591797
 20
6.661970138549805
 30
1.2000000476837158
 11
2.8241500854492188
 21
6.583680152893066
 31
1.2000000476837158
  0
LINE
  8
0
 10
-7.403510093688965
 20
-0.5072460174560547
 30
1.2000000476837158
 11
-7.454410076141357
 21
-0.4478510022163391
 31
1.2000000476837158
  0
LINE
  8
0
 10
6.15457010269165
 20
3.6663200855255127
 30
1.2000000476837158
 11
6.095510005950928
 21
3.6130900382995605
 31
1.2000000476837158
  0
LINE
  8
0
 10
-0.8578730225563049
 20
-5.768010139465332
 30
1.2000000476837158
 11
-0.9338240027427673
 21
-5.7855401039123535
 31
1.2000000476837158
  0
LINE
  8
0
 10
6.2823100090026855
 20
4.1173200607299805
 30
1.2000000476837158
 11
6.287189960479736
 21
4.096920013427734
 31
1.2000000476837158
  0
LINE
  8
0
 10
5.857140064239502
 20
4.702509880065918
 30
1.2000000476837158
 11
6.09276008605957
 21
4.426650047302246
 31
1.2000000476837158
  0
LINE
  8
0
 10
-5.220459938049316
 20
2.752729892730713
 30
1.2000000476837158
 11
-5.236979961395264
 21
2.8274900913238525
 31
1.2000000476837158
  0
LINE
  8
0
 10
-0.778186023235321
 20
-5.761750221252441
 30
1.2000000476837158
 11
-0.8578730225563049
 21
-5.768010139465332
 31
1.2000000476837158
  0
LINE
  8
0
 10
2.662400007247925
 20
7.023630142211914
 30
1.2000000476837158
 11
2.6783299446105957
 21
7.010000228881836
 31
1.2000000476837158
  0
LINE
  8
0
 10
6.2823100090026855
 20
-4.1173200607299805
 30
1.2000000476837158
 11
6.09276008605957
 21
-4.426650047302246
 31
1.2000000476837158
  0
LINE
  8
0
 10
5.857140064239502
 20
-4.702509880065918
 30
1.2000000476837158
 11
5.839250087738037
 21
-4.713449954986572
 31
1.2000000476837158
  0
LINE
  8
0
 10
-5.264949798583984
 20
2.8994200229644775
 30
1.2000000476837158
 11
-5.30394983291626
 21
2.9657700061798096
 31
1.2000000476837158
  0
LINE
  8
0
 10
-5.236979961395264
 20
2.8274900913238525
 30
1.2000000476837158
 11
-5.264949798583984
 21
2.8994200229644775
 31
1.2000000476837158
  0
LINE
  8
0
 10
6.293980121612549
 20
-4.019269943237305
 30
1.2000000476837158
 11
6.287189960479736
 21
-4.096920013427734
 31
1.2000000476837158
  0
LINE
  8
0
 10
-1.1305500268936157
 20
-5.903240203857422
 30
1.2000000476837158
 11
-1.1815999746322632
 21
-5.960830211639404
 31
1.2000000476837158
  0
LINE
  8
0
 10
2.3272299766540527
 20
7.162459850311279
 30
1.2000000476837158
 11
2.662400007247925
 21
7.023630142211914
 31
1.2000000476837158
  0
LINE
  8
0
 10
-7.281300067901611
 20
-0.5997610092163086
 30
1.2000000476837158
 11
-7.34621000289917
 21
-0.5580120086669922
 31
1.2000000476837158
  0
LINE
  8
0
 10
5.236979961395264
 20
2.8274900913238525
 30
1.2000000476837158
 11
5.220459938049316
 21
2.752729892730713
 31
1.2000000476837158
  0
LINE
  8
0
 10
-7.209549903869629
 20
-0.6301270127296448
 30
1.2000000476837158
 11
-7.281300067901611
 21
-0.5997610092163086
 31
1.2000000476837158
  0
LINE
  8
0
 10
-5.30394983291626
 20
2.9657700061798096
 30
1.2000000476837158
 11
-5.353600025177002
 21
3.0277199745178223
 31
1.2000000476837158
  0
LINE
  8
0
 10
5.220459938049316
 20
2.752729892730713
 30
1.2000000476837158
 11
5.2141900062561035
 21
2.674760103225708
 31
1.2000000476837158
  0
LINE
  8
0
 10
5.4622697830200195
 20
4.74744987487793
 30
1.2000000476837158
 11
5.5381598472595215
 21
4.765059947967529
 31
1.2000000476837158
  0
LINE
  8
0
 10
2.6054201126098633
 20
5.2955098152160645
 30
1.2000000476837158
 11
2.6461799144744873
 21
5.228750228881836
 31
1.2000000476837158
  0
LINE
  8
0
 10
-7.34621000289917
 20
-0.5580120086669922
 30
1.2000000476837158
 11
-7.403510093688965
 21
-0.5072460174560547
 31
1.2000000476837158
  0
LINE
  8
0
 10
6.203030109405518
 20
3.7278900146484375
 30
1.2000000476837158
 11
6.15457010269165
 21
3.6663200855255127
 31
1.2000000476837158
  0
LINE
  8
0
 10
5.839250087738037
 20
-4.713449954986572
 30
1.2000000476837158
 11
5.767499923706055
 21
-4.74390983581543
 31
1.2000000476837158
  0
LINE
  8
0
 10
-5.898759841918945
 20
-0.7907339930534363
 30
1.2000000476837158
 11
-5.963669776916504
 21
-0.7489839792251587
 31
1.2000000476837158
  0
LINE
  8
0
 10
-5.790559768676758
 20
0.9008949995040894
 30
1.2000000476837158
 11
-5.750410079956055
 21
0.9677119851112366
 31
1.2000000476837158
  0
LINE
  8
0
 10
-6.203030109405518
 20
3.7278900146484375
 30
1.2000000476837158
 11
-6.24321985244751
 21
3.7946200370788574
 31
1.2000000476837158
  0
LINE
  8
0
 10
-5.750410079956055
 20
0.9677119851112366
 30
1.2000000476837158
 11
-5.72022008895874
 21
1.0403800010681152
 31
1.2000000476837158
  0
LINE
  8
0
 10
-6.034220218658447
 20
-0.7182319760322571
 30
1.2000000476837158
 11
-6.110799789428711
 21
-0.6972929835319519
 31
1.2000000476837158
  0
LINE
  8
0
 10
6.09276008605957
 20
4.426650047302246
 30
1.2000000476837158
 11
6.2823100090026855
 21
4.1173200607299805
 31
1.2000000476837158
  0
LINE
  8
0
 10
1.6285899877548218
 20
7.05141019821167
 30
1.2000000476837158
 11
1.6796400547027588
 21
7.110260009765625
 31
1.2000000476837158
  0
LINE
  8
0
 10
-7.502600193023682
 20
0.36167100071907043
 30
1.2000000476837158
 11
-7.4945502281188965
 21
0.3810339868068695
 31
1.2000000476837158
  0
LINE
  8
0
 10
1.585010051727295
 20
6.986299991607666
 30
1.2000000476837158
 11
1.6285899877548218
 21
7.05141019821167
 31
1.2000000476837158
  0
LINE
  8
0
 10
-1.8776099681854248
 20
-7.227960109710693
 30
1.2000000476837158
 11
-1.9535599946975708
 21
-7.245490074157715
 31
1.2000000476837158
  0
LINE
  8
0
 10
1.6285899877548218
 20
-7.05141019821167
 30
1.2000000476837158
 11
1.585010051727295
 21
-6.986299991607666
 31
1.2000000476837158
  0
LINE
  8
0
 10
6.287189960479736
 20
-4.096920013427734
 30
1.2000000476837158
 11
6.2823100090026855
 21
-4.1173200607299805
 31
1.2000000476837158
  0
LINE
  8
0
 10
1.6796400547027588
 20
-7.110260009765625
 30
1.2000000476837158
 11
1.6285899877548218
 21
-7.05141019821167
 31
1.2000000476837158
  0
LINE
  8
0
 10
-7.4945502281188965
 20
0.3810339868068695
 30
1.2000000476837158
 11
-7.454410076141357
 21
0.4478510022163391
 31
1.2000000476837158
  0
LINE
  8
0
 10
1.5526399612426758
 20
6.913680076599121
 30
1.2000000476837158
 11
1.585010051727295
 21
6.986299991607666
 31
1.2000000476837158
  0
LINE
  8
0
 10
1.2575500011444092
 20
6.099820137023926
 30
1.2000000476837158
 11
1.5526399612426758
 21
6.913680076599121
 31
1.2000000476837158
  0
LINE
  8
0
 10
1.585010051727295
 20
-6.986299991607666
 30
1.2000000476837158
 11
1.5526399612426758
 21
-6.913680076599121
 31
1.2000000476837158
  0
LINE
  8
0
 10
1.2251800298690796
 20
6.027190208435059
 30
1.2000000476837158
 11
1.2575500011444092
 21
6.099820137023926
 31
1.2000000476837158
  0
LINE
  8
0
 10
4.307409763336182
 20
-4.106919765472412
 30
1.2000000476837158
 11
4.231210231781006
 21
-4.114309787750244
 31
1.2000000476837158
  0
LINE
  8
0
 10
-7.055089950561523
 20
0.6597989797592163
 30
1.2000000476837158
 11
-6.1898698806762695
 21
0.688946008682251
 31
1.2000000476837158
  0
LINE
  8
0
 10
-5.220990180969238
 20
-2.5971100330352783
 30
1.2000000476837158
 11
-5.2392802238464355
 21
-2.5205800533294678
 31
1.2000000476837158
  0
LINE
  8
0
 10
4.384469985961914
 20
-4.111299991607666
 30
1.2000000476837158
 11
4.307409763336182
 21
-4.106919765472412
 31
1.2000000476837158
  0
LINE
  8
0
 10
-5.963669776916504
 20
-0.7489839792251587
 30
1.2000000476837158
 11
-6.034220218658447
 21
-0.7182319760322571
 31
1.2000000476837158
  0
LINE
  8
0
 10
-6.24321985244751
 20
3.7946200370788574
 30
1.2000000476837158
 11
-6.271200180053711
 21
3.8665499687194824
 31
1.2000000476837158
  0
LINE
  8
0
 10
4.231210231781006
 20
-4.114309787750244
 30
1.2000000476837158
 11
4.155129909515381
 21
-4.132440090179443
 31
1.2000000476837158
  0
LINE
  8
0
 10
6.034220218658447
 20
0.7182319760322571
 30
1.2000000476837158
 11
6.110799789428711
 21
0.6972929835319519
 31
1.2000000476837158
  0
LINE
  8
0
 10
5.898759841918945
 20
0.7907339930534363
 30
1.2000000476837158
 11
5.963669776916504
 21
0.7489839792251587
 31
1.2000000476837158
  0
LINE
  8
0
 10
-5.767499923706055
 20
4.74390983581543
 30
1.2000000476837158
 11
-5.691420078277588
 21
4.762050151824951
 31
1.2000000476837158
  0
LINE
  8
0
 10
-5.839250087738037
 20
4.713449954986572
 30
1.2000000476837158
 11
-5.767499923706055
 21
4.74390983581543
 31
1.2000000476837158
  0
LINE
  8
0
 10
2.6783299446105957
 20
7.010000228881836
 30
1.2000000476837158
 11
2.7294700145721436
 21
6.951169967651367
 31
1.2000000476837158
  0
LINE
  8
0
 10
-2.3272299766540527
 20
-7.162459850311279
 30
1.2000000476837158
 11
-2.662400007247925
 21
-7.023630142211914
 31
1.2000000476837158
  0
LINE
  8
0
 10
5.30394983291626
 20
2.9657700061798096
 30
1.2000000476837158
 11
5.264949798583984
 21
2.8994200229644775
 31
1.2000000476837158
  0
LINE
  8
0
 10
5.264949798583984
 20
2.8994200229644775
 30
1.2000000476837158
 11
5.236979961395264
 21
2.8274900913238525
 31
1.2000000476837158
  0
LINE
  8
0
 10
-1.9535599946975708
 20
-7.245490074157715
 30
1.2000000476837158
 11
-1.9744600057601929
 21
-7.247159957885742
 31
1.2000000476837158
  0
LINE
  8
0
 10
1.1305500268936157
 20
5.903240203857422
 30
1.2000000476837158
 11
1.1815999746322632
 21
5.960830211639404
 31
1.2000000476837158
  0
LINE
  8
0
 10
-5.388750076293945
 20
-4.7203898429870605
 30
1.2000000476837158
 11
-5.4622697830200195
 21
-4.74744987487793
 31
1.2000000476837158
  0
LINE
  8
0
 10
1.1815999746322632
 20
5.960830211639404
 30
1.2000000476837158
 11
1.2251800298690796
 21
6.027190208435059
 31
1.2000000476837158
  0
LINE
  8
0
 10
7.055089950561523
 20
0.6597989797592163
 30
1.2000000476837158
 11
7.134160041809082
 21
0.6514520049095154
 31
1.2000000476837158
  0
LINE
  8
0
 10
-6.095510005950928
 20
-3.6130900382995605
 30
1.2000000476837158
 11
-5.412670135498047
 21
-3.0809500217437744
 31
1.2000000476837158
  0
LINE
  8
0
 10
-5.2392802238464355
 20
-2.5205800533294678
 30
1.2000000476837158
 11
-5.72022008895874
 21
-1.0403800010681152
 31
1.2000000476837158
  0
LINE
  8
0
 10
-5.5381598472595215
 20
4.765059947967529
 30
1.2000000476837158
 11
-5.4622697830200195
 21
4.74744987487793
 31
1.2000000476837158
  0
LINE
  8
0
 10
-5.388750076293945
 20
4.7203898429870605
 30
1.2000000476837158
 11
-5.3198699951171875
 21
4.680669784545898
 31
1.2000000476837158
  0
LINE
  8
0
 10
6.095510005950928
 20
3.6130900382995605
 30
1.2000000476837158
 11
5.412670135498047
 21
3.0809500217437744
 31
1.2000000476837158
  0
LINE
  8
0
 10
6.1898698806762695
 20
0.688946008682251
 30
1.2000000476837158
 11
7.055089950561523
 21
0.6597989797592163
 31
1.2000000476837158
  0
LINE
  8
0
 10
-2.5552000999450684
 20
-5.440340042114258
 30
1.2000000476837158
 11
-2.574850082397461
 21
-5.365699768066406
 31
1.2000000476837158
  0
LINE
  8
0
 10
-5.691420078277588
 20
4.762050151824951
 30
1.2000000476837158
 11
-5.615210056304932
 21
4.769430160522461
 31
1.2000000476837158
  0
LINE
  8
0
 10
2.8204500675201416
 20
6.739590167999268
 30
1.2000000476837158
 11
2.827159881591797
 21
6.661970138549805
 31
1.2000000476837158
  0
LINE
  8
0
 10
-5.841450214385986
 20
-0.8414999842643738
 30
1.2000000476837158
 11
-5.898759841918945
 21
-0.7907339930534363
 31
1.2000000476837158
  0
LINE
  8
0
 10
5.963669776916504
 20
0.7489839792251587
 30
1.2000000476837158
 11
6.034220218658447
 21
0.7182319760322571
 31
1.2000000476837158
  0
LINE
  8
0
 10
6.09276008605957
 20
-4.426650047302246
 30
1.2000000476837158
 11
5.857140064239502
 21
-4.702509880065918
 31
1.2000000476837158
  0
LINE
  8
0
 10
-1.9744600057601929
 20
-7.247159957885742
 30
1.2000000476837158
 11
-2.3272299766540527
 21
-7.162459850311279
 31
1.2000000476837158
  0
LINE
  8
0
 10
-5.72022008895874
 20
-1.0403800010681152
 30
1.2000000476837158
 11
-5.750800132751465
 21
-0.966526985168457
 31
1.2000000476837158
  0
LINE
  8
0
 10
2.8241500854492188
 20
-6.583680152893066
 30
1.2000000476837158
 11
2.827159881591797
 21
-6.661970138549805
 31
1.2000000476837158
  0
LINE
  8
0
 10
-5.3198699951171875
 20
-4.680669784545898
 30
1.2000000476837158
 11
-5.388750076293945
 21
-4.7203898429870605
 31
1.2000000476837158
  0
LINE
  8
0
 10
-6.203030109405518
 20
-3.7278900146484375
 30
1.2000000476837158
 11
-6.15457010269165
 21
-3.6663200855255127
 31
1.2000000476837158
  0
LINE
  8
0
 10
-6.15457010269165
 20
-3.6663200855255127
 30
1.2000000476837158
 11
-6.095510005950928
 21
-3.6130900382995605
 31
1.2000000476837158
  0
LINE
  8
0
 10
-1.1305500268936157
 20
5.903240203857422
 30
1.2000000476837158
 11
-1.0707800388336182
 21
5.854400157928467
 31
1.2000000476837158
  0
LINE
  8
0
 10
-2.7571001052856445
 20
-5.118760108947754
 30
1.2000000476837158
 11
-4.016240119934082
 21
-4.203949928283691
 31
1.2000000476837158
  0
LINE
  8
0
 10
-5.4622697830200195
 20
4.74744987487793
 30
1.2000000476837158
 11
-5.388750076293945
 21
4.7203898429870605
 31
1.2000000476837158
  0
LINE
  8
0
 10
-2.697319984436035
 20
-5.1699299812316895
 30
1.2000000476837158
 11
-2.7571001052856445
 21
-5.118760108947754
 31
1.2000000476837158
  0
LINE
  8
0
 10
-6.15457010269165
 20
3.6663200855255127
 30
1.2000000476837158
 11
-6.203030109405518
 21
3.7278900146484375
 31
1.2000000476837158
  0
LINE
  8
0
 10
2.7294700145721436
 20
6.951169967651367
 30
1.2000000476837158
 11
2.7702300548553467
 21
6.8844099044799805
 31
1.2000000476837158
  0
LINE
  8
0
 10
5.22061014175415
 20
-2.598299980163574
 30
1.2000000476837158
 11
5.213809967041016
 21
-2.675950050354004
 31
1.2000000476837158
  0
LINE
  8
0
 10
-2.6461799144744873
 20
-5.228750228881836
 30
1.2000000476837158
 11
-2.697319984436035
 21
-5.1699299812316895
 31
1.2000000476837158
  0
LINE
  8
0
 10
5.412670135498047
 20
3.0809500217437744
 30
1.2000000476837158
 11
5.353990077972412
 21
3.0265300273895264
 31
1.2000000476837158
  0
LINE
  8
0
 10
9.184549771250198e-16
 20
2.0
 30
1.2000000476837158
 11
-0.7653669714927673
 21
1.8477599620819092
 31
1.2000000476837158
  0
LINE
  8
0
 10
1.4142099618911743
 20
1.4142099618911743
 30
1.2000000476837158
 11
0.7653669714927673
 21
1.8477599620819092
 31
1.2000000476837158
  0
LINE
  8
0
 10
-2.6054201126098633
 20
-5.2955098152160645
 30
1.2000000476837158
 11
-2.6461799144744873
 21
-5.228750228881836
 31
1.2000000476837158
  0
LINE
  8
0
 10
2.800800085067749
 20
6.814219951629639
 30
1.2000000476837158
 11
2.8204500675201416
 21
6.739590167999268
 31
1.2000000476837158
  0
LINE
  8
0
 10
-6.287720203399658
 20
-3.941309928894043
 30
1.2000000476837158
 11
-6.271200180053711
 21
-3.8665499687194824
 31
1.2000000476837158
  0
LINE
  8
0
 10
2.7571001052856445
 20
5.118760108947754
 30
1.2000000476837158
 11
4.016240119934082
 21
4.203949928283691
 31
1.2000000476837158
  0
LINE
  8
0
 10
-2.574850082397461
 20
-5.365699768066406
 30
1.2000000476837158
 11
-2.6054201126098633
 21
-5.2955098152160645
 31
1.2000000476837158
  0
LINE
  8
0
 10
5.264949798583984
 20
-2.8994200229644775
 30
1.2000000476837158
 11
5.30394983291626
 21
-2.9657700061798096
 31
1.2000000476837158
  0
LINE
  8
0
 10
5.691420078277588
 20
4.762050151824951
 30
1.2000000476837158
 11
5.767499923706055
 21
4.74390983581543
 31
1.2000000476837158
  0
LINE
  8
0
 10
5.767499923706055
 20
4.74390983581543
 30
1.2000000476837158
 11
5.839250087738037
 21
4.713449954986572
 31
1.2000000476837158
  0
LINE
  8
0
 10
4.016240119934082
 20
4.203949928283691
 30
1.2000000476837158
 11
4.084380149841309
 21
4.162169933319092
 31
1.2000000476837158
  0
LINE
  8
0
 10
-2.7571001052856445
 20
5.118760108947754
 30
1.2000000476837158
 11
-2.696320056915283
 21
5.170660018920898
 31
1.2000000476837158
  0
LINE
  8
0
 10
-4.016240119934082
 20
4.203949928283691
 30
1.2000000476837158
 11
-2.7571001052856445
 21
5.118760108947754
 31
1.2000000476837158
  0
LINE
  8
0
 10
-4.231210231781006
 20
-4.114309787750244
 30
1.2000000476837158
 11
-4.307409763336182
 21
-4.106919765472412
 31
1.2000000476837158
  0
LINE
  8
0
 10
-1.22393000125885
 20
6.027190208435059
 30
1.2000000476837158
 11
-1.1815999746322632
 21
5.960830211639404
 31
1.2000000476837158
  0
LINE
  8
0
 10
-4.084380149841309
 20
-4.162169933319092
 30
1.2000000476837158
 11
-4.156129837036133
 21
-4.131710052490234
 31
1.2000000476837158
  0
LINE
  8
0
 10
-5.353600025177002
 20
3.0277199745178223
 30
1.2000000476837158
 11
-5.412670135498047
 21
3.0809500217437744
 31
1.2000000476837158
  0
LINE
  8
0
 10
-2.645169973373413
 20
5.229489803314209
 30
1.2000000476837158
 11
-2.6054201126098633
 21
5.2955098152160645
 31
1.2000000476837158
  0
LINE
  8
0
 10
-2.696320056915283
 20
5.170660018920898
 30
1.2000000476837158
 11
-2.645169973373413
 21
5.229489803314209
 31
1.2000000476837158
  0
LINE
  8
0
 10
-4.533880233764648
 20
-4.1559600830078125
 30
1.2000000476837158
 11
-4.602759838104248
 21
-4.195690155029297
 31
1.2000000476837158
  0
LINE
  8
0
 10
-2.5525100231170654
 20
-5.595510005950928
 30
1.2000000476837158
 11
-2.547760009765625
 21
-5.516940116882324
 31
1.2000000476837158
  0
LINE
  8
0
 10
-4.602759838104248
 20
-4.195690155029297
 30
1.2000000476837158
 11
-5.3198699951171875
 21
-4.680669784545898
 31
1.2000000476837158
  0
LINE
  8
0
 10
6.110799789428711
 20
0.6972929835319519
 30
1.2000000476837158
 11
6.1898698806762695
 21
0.688946008682251
 31
1.2000000476837158
  0
LINE
  8
0
 10
-7.454410076141357
 20
-0.4478510022163391
 30
1.2000000476837158
 11
-7.4945502281188965
 21
-0.3810339868068695
 31
1.2000000476837158
  0
LINE
  8
0
 10
-6.095510005950928
 20
3.6130900382995605
 30
1.2000000476837158
 11
-6.15457010269165
 21
3.6663200855255127
 31
1.2000000476837158
  0
LINE
  8
0
 10
-2.547760009765625
 20
-5.516940116882324
 30
1.2000000476837158
 11
-2.5552000999450684
 21
-5.440340042114258
 31
1.2000000476837158
  0
LINE
  8
0
 10
2.7702300548553467
 20
6.8844099044799805
 30
1.2000000476837158
 11
2.800800085067749
 21
6.814219951629639
 31
1.2000000476837158
  0
LINE
  8
0
 10
5.213809967041016
 20
-2.675950050354004
 30
1.2000000476837158
 11
5.220459938049316
 21
-2.752729892730713
 31
1.2000000476837158
  0
LINE
  8
0
 10
-7.502600193023682
 20
-0.3616720139980316
 30
1.2000000476837158
 11
-7.531060218811035
 21
4.7036499495334283e-07
 31
1.2000000476837158
  0
LINE
  8
0
 10
5.353990077972412
 20
3.0265300273895264
 30
1.2000000476837158
 11
5.30394983291626
 21
2.9657700061798096
 31
1.2000000476837158
  0
LINE
  8
0
 10
5.236979961395264
 20
-2.8274900913238525
 30
1.2000000476837158
 11
5.264949798583984
 21
-2.8994200229644775
 31
1.2000000476837158
  0
LINE
  8
0
 10
0.7653669714927673
 20
1.8477599620819092
 30
1.2000000476837158
 11
9.184549771250198e-16
 21
2.0
 31
1.2000000476837158
  0
LINE
  8
0
 10
-5.790939807891846
 20
-0.899711012840271
 30
1.2000000476837158
 11
-5.841450214385986
 21
-0.8414999842643738
 31
1.2000000476837158
  0
LINE
  8
0
 10
-6.271200180053711
 20
-3.8665499687194824
 30
1.2000000476837158
 11
-6.24321985244751
 21
-3.7946200370788574
 31
1.2000000476837158
  0
LINE
  8
0
 10
-4.307409763336182
 20
-4.106919765472412
 30
1.2000000476837158
 11
-4.384469985961914
 21
-4.111299991607666
 31
1.2000000476837158
  0
LINE
  8
0
 10
-1.1815999746322632
 20
5.960830211639404
 30
1.2000000476837158
 11
-1.1305500268936157
 21
5.903240203857422
 31
1.2000000476837158
  0
LINE
  8
0
 10
-6.24321985244751
 20
-3.7946200370788574
 30
1.2000000476837158
 11
-6.203030109405518
 21
-3.7278900146484375
 31
1.2000000476837158
  0
LINE
  8
0
 10
-5.750800132751465
 20
-0.966526985168457
 30
1.2000000476837158
 11
-5.790939807891846
 21
-0.899711012840271
 31
1.2000000476837158
  0
LINE
  8
0
 10
-2.8241500854492188
 20
-6.583680152893066
 30
1.2000000476837158
 11
-2.807650089263916
 21
-6.505899906158447
 31
1.2000000476837158
  0
LINE
  8
0
 10
7.209549903869629
 20
-0.6301270127296448
 30
1.2000000476837158
 11
7.134160041809082
 21
-0.6514520049095154
 31
1.2000000476837158
  0
LINE
  8
0
 10
-5.963669776916504
 20
0.7489839792251587
 30
1.2000000476837158
 11
-5.898759841918945
 21
0.7907339930534363
 31
1.2000000476837158
  0
LINE
  8
0
 10
-4.016240119934082
 20
-4.203949928283691
 30
1.2000000476837158
 11
-4.084380149841309
 21
-4.162169933319092
 31
1.2000000476837158
  0
LINE
  8
0
 10
7.134160041809082
 20
-0.6514520049095154
 30
1.2000000476837158
 11
7.055089950561523
 21
-0.6597989797592163
 31
1.2000000476837158
  0
LINE
  8
0
 10
-2.6783299446105957
 20
7.010000228881836
 30
1.2000000476837158
 11
-2.662400007247925
 21
7.023630142211914
 31
1.2000000476837158
  0
LINE
  8
0
 10
-2.7294700145721436
 20
6.951169967651367
 30
1.2000000476837158
 11
-2.6783299446105957
 21
7.010000228881836
 31
1.2000000476837158
  0
LINE
  8
0
 10
-2.6783299446105957
 20
-7.010000228881836
 30
1.2000000476837158
 11
-2.7294700145721436
 21
-6.951169967651367
 31
1.2000000476837158
  0
LINE
  8
0
 10
-2.662400007247925
 20
-7.023630142211914
 30
1.2000000476837158
 11
-2.6783299446105957
 21
-7.010000228881836
 31
1.2000000476837158
  0
LINE
  8
0
 10
-5.412670135498047
 20
3.0809500217437744
 30
1.2000000476837158
 11
-6.095510005950928
 21
3.6130900382995605
 31
1.2000000476837158
  0
LINE
  8
0
 10
-2.7702300548553467
 20
6.8844099044799805
 30
1.2000000476837158
 11
-2.7294700145721436
 21
6.951169967651367
 31
1.2000000476837158
  0
LINE
  8
0
 10
-5.615210056304932
 20
4.769430160522461
 30
1.2000000476837158
 11
-5.5381598472595215
 21
4.765059947967529
 31
1.2000000476837158
  0
LINE
  8
0
 10
-2.800800085067749
 20
6.814219951629639
 30
1.2000000476837158
 11
-2.7702300548553467
 21
6.8844099044799805
 31
1.2000000476837158
  0
LINE
  8
0
 10
0.7653669714927673
 20
-1.8477599620819092
 30
1.2000000476837158
 11
1.4142099618911743
 21
-1.4142099618911743
 31
1.2000000476837158
  0
LINE
  8
0
 10
5.220459938049316
 20
-2.752729892730713
 30
1.2000000476837158
 11
5.236979961395264
 21
-2.8274900913238525
 31
1.2000000476837158
  0
LINE
  8
0
 10
-2.7702300548553467
 20
-6.8844099044799805
 30
1.2000000476837158
 11
-2.800800085067749
 21
-6.814219951629639
 31
1.2000000476837158
  0
LINE
  8
0
 10
-7.4945502281188965
 20
-0.3810339868068695
 30
1.2000000476837158
 11
-7.502600193023682
 21
-0.3616720139980316
 31
1.2000000476837158
  0
LINE
  8
0
 10
-2.8204500675201416
 20
6.739590167999268
 30
1.2000000476837158
 11
-2.800800085067749
 21
6.814219951629639
 31
1.2000000476837158
  0
LINE
  8
0
 10
9.184549771250198e-16
 20
-2.0
 30
1.2000000476837158
 11
0.7653669714927673
 21
-1.8477599620819092
 31
1.2000000476837158
  0
LINE
  8
0
 10
-2.7294700145721436
 20
-6.951169967651367
 30
1.2000000476837158
 11
-2.7702300548553467
 21
-6.8844099044799805
 31
1.2000000476837158
  0
LINE
  8
0
 10
-0.7653669714927673
 20
-1.8477599620819092
 30
1.2000000476837158
 11
9.184549771250198e-16
 21
-2.0
 31
1.2000000476837158
  0
LINE
  8
0
 10
-1.9535599946975708
 20
7.245490074157715
 30
1.2000000476837158
 11
-1.8776099681854248
 21
7.227960109710693
 31
1.2000000476837158
  0
LINE
  8
0
 10
7.502600193023682
 20
-0.36167100071907043
 30
1.2000000476837158
 11
7.4945502281188965
 21
-0.3810339868068695
 31
1.2000000476837158
  0
LINE
  8
0
 10
-2.3272299766540527
 20
7.162459850311279
 30
1.2000000476837158
 11
-1.9744600057601929
 21
7.247159957885742
 31
1.2000000476837158
  0
LINE
  8
0
 10
-1.8053900003433228
 20
-7.197909832000732
 30
1.2000000476837158
 11
-1.8776099681854248
 21
-7.227960109710693
 31
1.2000000476837158
  0
LINE
  8
0
 10
7.531060218811035
 20
-4.7036499495334283e-07
 30
1.2000000476837158
 11
7.502600193023682
 21
0.3616720139980316
 31
1.2000000476837158
  0
LINE
  8
0
 10
-2.807650089263916
 20
-6.505899906158447
 30
1.2000000476837158
 11
-2.568000078201294
 21
-5.674019813537598
 31
1.2000000476837158
  0
LINE
  8
0
 10
-1.6796400547027588
 20
7.110260009765625
 30
1.2000000476837158
 11
-1.6285899877548218
 21
7.05141019821167
 31
1.2000000476837158
  0
LINE
  8
0
 10
-1.6285899877548218
 20
7.05141019821167
 30
1.2000000476837158
 11
-1.585010051727295
 21
6.986299991607666
 31
1.2000000476837158
  0
LINE
  8
0
 10
-2.807650089263916
 20
6.505899906158447
 30
1.2000000476837158
 11
-2.8241500854492188
 21
6.583680152893066
 31
1.2000000476837158
  0
ENDSEC
  0
EOF
