<?xml version="1.0" encoding="UTF-8" standalone="no"?>
<!-- Created with Inkscape (http://www.inkscape.org/) -->

<svg
   xmlns:dc="http://purl.org/dc/elements/1.1/"
   xmlns:cc="http://creativecommons.org/ns#"
   xmlns:rdf="http://www.w3.org/1999/02/22-rdf-syntax-ns#"
   xmlns:svg="http://www.w3.org/2000/svg"
   xmlns="http://www.w3.org/2000/svg"
   xmlns:sodipodi="http://sodipodi.sourceforge.net/DTD/sodipodi-0.dtd"
   xmlns:inkscape="http://www.inkscape.org/namespaces/inkscape"
   id="svg2"
   version="1.1"
   inkscape:version="0.48.4 r9939"
   width="137.225"
   height="26.3875"
   xml:space="preserve"
   sodipodi:docname="logo A150.svg"><metadata
     id="metadata8"><rdf:RDF><cc:Work
         rdf:about=""><dc:format>image/svg+xml</dc:format><dc:type
           rdf:resource="http://purl.org/dc/dcmitype/StillImage" /><dc:title></dc:title></cc:Work></rdf:RDF></metadata><defs
     id="defs6" /><sodipodi:namedview
     pagecolor="#ffffff"
     bordercolor="#666666"
     borderopacity="1"
     objecttolerance="10"
     gridtolerance="10"
     guidetolerance="10"
     inkscape:pageopacity="0"
     inkscape:pageshadow="2"
     inkscape:window-width="640"
     inkscape:window-height="480"
     id="namedview4"
     showgrid="false"
     inkscape:zoom="2.5797047"
     inkscape:cx="71.358295"
     inkscape:cy="13.19375"
     inkscape:window-x="672"
     inkscape:window-y="265"
     inkscape:window-maximized="0"
     inkscape:current-layer="g10" /><g
     id="g10"
     inkscape:groupmode="layer"
     inkscape:label="ink_ext_XXXXXX"
     transform="matrix(1.25,0,0,-1.25,0,26.3875)"><g
       id="g3127"><path
         d="m 4.81367,12.0676 1.37227,4.4832 1.37969,-4.4832 -2.75196,0 z M 5.16563,20.9016 0,4.36523 l 2.50938,0 1.62773,5.30665 4.1,0 1.61992,-5.30665 2.53787,0 -5.1781,16.53637 -2.05117,0"
         style="fill:#070605;fill-opacity:1;fill-rule:nonzero;stroke:none"
         id="path14"
         inkscape:connector-curvature="0" /><path
         d="m 17.4508,16.7297 c -1.0469,0 -1.9086,-0.2688 -2.577,-0.8027 l -0.0183,0.6523 -2.102,0 0,-12.21016 2.3649,0 0,7.41526 c 0,2.6269 1.5746,2.6679 2.1371,2.6844 0.307,0.0324 0.666,-0.0125 1.1324,-0.1387 l 0.6476,-0.1746 0.1426,2.2605 -0.4054,0.1301 c -0.3727,0.123 -0.8043,0.1836 -1.3219,0.1836"
         style="fill:#070605;fill-opacity:1;fill-rule:nonzero;stroke:none"
         id="path16"
         inkscape:connector-curvature="0" /><path
         d="m 23.4293,6.52813 c -1.0246,0.33046 -1.5234,1.23476 -1.5234,2.76289 l 0,4.95628 2.6621,0 0,2.2644 -2.6621,0 0,2.677 -2.3711,0 0,-10.10198 c 0,-2.55234 1.2625,-4.29961 3.4601,-4.79258 0.4344,-0.10156 0.8989,-0.15273 1.3836,-0.15273 0.1039,0 0.2078,0.00234 0.3113,0.00781 l 0.5235,0.02266 0,2.26289 -0.8309,-0.03243 c -0.3707,0 -0.682,0.04102 -0.9531,0.12579"
         style="fill:#070605;fill-opacity:1;fill-rule:nonzero;stroke:none"
         id="path18"
         inkscape:connector-curvature="0" /><path
         d="m 27.3461,21.1133 c -0.7371,0 -1.2707,-0.5535 -1.2707,-1.3203 0,-0.7617 0.5457,-1.334 1.2707,-1.334 0.723,0 1.2469,0.5605 1.2469,1.334 0,0.7668 -0.5239,1.3203 -1.2469,1.3203"
         style="fill:#070605;fill-opacity:1;fill-rule:nonzero;stroke:none"
         id="path20"
         inkscape:connector-curvature="0" /><path
         d="m 26.1527,4.36523 2.36289,0 0,12.1426 -2.36289,0 0,-12.1426 z"
         style="fill:#070605;fill-opacity:1;fill-rule:nonzero;stroke:none"
         id="path22"
         inkscape:connector-curvature="0" /><path
         d="m 31.9254,12.4316 c 0.0078,1.6809 1.2226,2.0332 2.241,2.0332 0.668,0 1.3566,-0.1464 1.9348,-0.4101 l 0,-7.14767 C 35.568,6.70391 34.8102,6.52656 34.0727,6.52656 c -1.4852,0 -2.1473,0.67852 -2.1473,2.20391 l 0,3.70113 z m 4.4453,3.8118 c -0.7238,0.2871 -1.5383,0.4414 -2.3672,0.4414 -2.1476,0 -4.441,-1.1203 -4.441,-4.2735 l 0,-3.77067 c 0,-2.71094 1.5582,-4.26758 4.2758,-4.27149 0.7824,0 1.5781,0.12188 2.2629,0.34258 l 0,-0.69688 C 36.0875,2.70898 35.5492,2.20039 34.182,2.20039 c -0.8347,0 -1.6269,0.25195 -2.4199,0.77149 L 31.2984,3.27539 30.1898,1.54609 30.6254,1.24414 C 31.8012,0.429688 33.1391,0 34.4957,0 c 2.4891,0 3.9746,1.54023 3.9746,4.11914 l 0,12.38676 -2.0859,0 -0.0137,-0.2625"
         style="fill:#070605;fill-opacity:1;fill-rule:nonzero;stroke:none"
         id="path24"
         inkscape:connector-curvature="0" /><path
         d="m 39.9613,4.36523 2.36523,0 0,12.1426 -2.36523,0 0,-12.1426 z"
         style="fill:#070605;fill-opacity:1;fill-rule:nonzero;stroke:none"
         id="path26"
         inkscape:connector-curvature="0" /><path
         d="m 41.1527,21.1133 c -0.7332,0 -1.2644,-0.5535 -1.2644,-1.3203 0,-0.7617 0.5437,-1.334 1.2644,-1.334 0.7258,0 1.2512,0.5605 1.2512,1.334 0,0.7668 -0.5254,1.3203 -1.2512,1.3203"
         style="fill:#070605;fill-opacity:1;fill-rule:nonzero;stroke:none"
         id="path28"
         inkscape:connector-curvature="0" /><path
         d="m 45.5063,8.51289 c 0,1.50271 0.8261,2.14261 2.7597,2.14261 0.5403,0 1.1203,-0.0567 1.6621,-0.1223 l 0,-3.75195 C 49.3539,6.51289 48.6617,6.35742 48.0152,6.35742 c -2.248,0 -2.5089,1.23047 -2.5089,2.15547 z m 2.0058,8.18241 c -1.4355,0 -2.6074,-0.4012 -3.4793,-1.1961 l -0.3965,-0.3605 1.3321,-1.536 0.4031,0.2793 c 0.5254,0.3621 1.2043,0.5477 2.0148,0.5477 1.7723,0 2.3465,-0.6395 2.4969,-1.7715 -0.5926,0.0715 -1.2156,0.1281 -1.7879,0.1281 -4.0273,0 -4.8711,-2.3246 -4.8711,-4.27341 0,-2.74023 1.6278,-4.29805 4.584,-4.38984 l 0.0156,0 c 0.8289,0 1.6426,0.15625 2.3633,0.44843 l 0.0098,-0.25117 2.0984,0 0,7.19449 c 0,1.5489 0,5.1805 -4.7832,5.1805"
         style="fill:#070605;fill-opacity:1;fill-rule:nonzero;stroke:none"
         id="path30"
         inkscape:connector-curvature="0" /><path
         d="m 58.0023,16.6992 c -0.8203,0 -1.6414,-0.157 -2.3808,-0.45 l -0.0098,0.2625 -2.0984,0 0,-12.14647 2.3633,0 0,9.70427 c 0.5906,0.2606 1.2871,0.4071 1.9589,0.4071 1.4727,0 2.2208,-0.7168 2.2208,-2.1348 l 0,-7.97657 2.3632,0 0,8.04027 c 0,3.1648 -2.2824,4.2937 -4.4172,4.2937"
         style="fill:#070605;fill-opacity:1;fill-rule:nonzero;stroke:none"
         id="path32"
         inkscape:connector-curvature="0" /><path
         d="m 65.65,12.2102 c 0,1.8738 1.1277,2.2664 2.073,2.2664 0.9004,0 1.9758,-0.3828 1.9758,-2.2157 l 0,-0.7746 -4.0488,0 0,0.7239 z m 2.0996,4.4949 c -2.7558,0 -4.4668,-1.7391 -4.4668,-4.5418 l 0,-3.89455 c 0,-2.55703 1.5906,-4.1457 4.1512,-4.1457 1.5293,0 2.8437,0.48242 3.9055,1.43359 L 71.7691,5.94141 70.3324,7.38789 69.9516,7.10742 C 69.2555,6.59375 68.4398,6.33281 67.5277,6.33281 c -1.3203,0 -1.9089,0.55782 -1.9089,1.8125 l 0,1.2793 6.3738,0 0,2.78559 c 0,2.8144 -1.5848,4.4949 -4.243,4.4949"
         style="fill:#070605;fill-opacity:1;fill-rule:nonzero;stroke:none"
         id="path34"
         inkscape:connector-curvature="0" /><path
         d="m 72.9586,4.36523 2.37109,0 0,16.5324 -2.37109,0 0,-16.5324 z"
         style="fill:#070605;fill-opacity:1;fill-rule:nonzero;stroke:none"
         id="path36"
         inkscape:connector-curvature="0" /><path
         d="m 76.6332,4.36523 2.36055,0 0,16.5324 -2.36055,0 0,-16.5324 z"
         style="fill:#070605;fill-opacity:1;fill-rule:nonzero;stroke:none"
         id="path38"
         inkscape:connector-curvature="0" /><path
         d="m 81.5621,21.1133 c -0.7324,0 -1.2629,-0.5535 -1.2629,-1.3203 0,-0.7617 0.5422,-1.334 1.2629,-1.334 0.7274,0 1.2527,0.5605 1.2527,1.334 0,0.7668 -0.5253,1.3203 -1.2527,1.3203"
         style="fill:#070605;fill-opacity:1;fill-rule:nonzero;stroke:none"
         id="path40"
         inkscape:connector-curvature="0" /><path
         d="m 80.3727,4.36523 2.36523,0 0,12.1426 -2.36523,0 0,-12.1426 z"
         style="fill:#070605;fill-opacity:1;fill-rule:nonzero;stroke:none"
         id="path42"
         inkscape:connector-curvature="0" /><path
         d="M 85.6488,18.7383 C 85.1371,18.4004 84.5484,18.1797 83.9664,18.084 l 0.3113,-1.3152 c 0.4465,0.0546 1.0039,0.2031 1.5293,0.4746 0.4082,0.2343 0.791,0.5312 1.1125,0.9304 l 0,-13.25857 1.2039,0 0,15.43637 -1.0859,0 c -0.3074,-0.7051 -0.8066,-1.2344 -1.3887,-1.6133"
         style="fill:#070605;fill-opacity:1;fill-rule:nonzero;stroke:none"
         id="path44"
         inkscape:connector-curvature="0" /><path
         d="m 94.3383,14.4055 -1.8574,0 0.466,4.6445 4.6894,0 0,1.3016 -5.6691,0 -0.7469,-7.243 3.0059,0 c 2.0254,0 3.2636,-1.7481 3.2754,-3.56172 -0.0118,-1.85547 -1.2969,-3.58907 -3.3078,-3.58907 -1.127,0 -2.2958,0.66055 -2.8309,1.63594 L 90.3707,6.89531 C 91.0055,5.75 92.4438,4.6543 94.1938,4.6543 c 2.7031,0 4.5792,2.21484 4.5792,4.9375 0,2.6934 -1.9863,4.7754 -4.4347,4.8137"
         style="fill:#070605;fill-opacity:1;fill-rule:nonzero;stroke:none"
         id="path46"
         inkscape:connector-curvature="0" /><path
         d="m 108.509,9.20117 c 0,-2.42578 -1.587,-3.22265 -3.129,-3.22265 -1.537,0 -3.163,0.79687 -3.163,3.22265 l 0,6.71013 c 0,2.3789 1.214,3.4785 3.18,3.4785 2.037,0 3.112,-1.3117 3.112,-3.4992 l 0,-6.68943 z m -3.112,11.48833 c -2.65,0 -4.448,-1.5809 -4.448,-4.7481 l 0,-6.77734 c 0,-3.3582 2.399,-4.49297 4.431,-4.49297 2.06,0 4.395,1.13633 4.395,4.49297 l 0,6.75704 c 0,2.8828 -1.551,4.7684 -4.378,4.7684"
         style="fill:#070605;fill-opacity:1;fill-rule:nonzero;stroke:none"
         id="path48"
         inkscape:connector-curvature="0" /></g></g></svg>