solid OpenSCAD_Model
  facet normal -1 0 0
    outer loop
      vertex -17.375 -15.5 15
      vertex -17.375 -15.5 20
      vertex -17.375 -10.5 15
    endloop
  endfacet
  facet normal -1 0 0
    outer loop
      vertex -17.375 -10.5 15
      vertex -17.375 -15.5 20
      vertex -17.375 -10.5 20
    endloop
  endfacet
  facet normal 0 -1 0
    outer loop
      vertex -17.375 -15.5 20
      vertex -17.375 -15.5 15
      vertex -17.3301 -15.5 15
    endloop
  endfacet
  facet normal 0 -1 0
    outer loop
      vertex -17.3301 -15.5 20
      vertex -17.375 -15.5 20
      vertex -17.3301 -15.5 15
    endloop
  endfacet
  facet normal 0 0 -1
    outer loop
      vertex -17.375 -15.5 15
      vertex -17.375 -10.5 15
      vertex -17.3301 -15.5 15
    endloop
  endfacet
  facet normal 0 0 -1
    outer loop
      vertex -17.3301 -15.5 15
      vertex -17.375 -10.5 15
      vertex -17.3301 -10.5 15
    endloop
  endfacet
  facet normal 0 0 -1
    outer loop
      vertex -17.3301 -10.5 15
      vertex -17.3526 -10.4611 15
      vertex -13.0224 -7.96114 15
    endloop
  endfacet
  facet normal 0 0 -1
    outer loop
      vertex -17.3301 -10.5 15
      vertex -13.0224 -7.96114 15
      vertex -17.3301 -15.5 15
    endloop
  endfacet
  facet normal 0 0 -1
    outer loop
      vertex -17.3301 -15.5 15
      vertex -13.0224 -7.96114 15
      vertex -13 -8 15
    endloop
  endfacet
  facet normal 0 0 -1
    outer loop
      vertex -13 -8 15
      vertex -12.9776 -7.96114 15
      vertex -8.64744 -10.4611 15
    endloop
  endfacet
  facet normal 0 0 -1
    outer loop
      vertex -12.5365 -11.5734 15
      vertex -8.625 -10.5 15
      vertex -11.5 -13 15
    endloop
  endfacet
  facet normal 0 0 -1
    outer loop
      vertex -8.66987 -15.5 15
      vertex -8.625 -10.5 15
      vertex -8.625 -15.5 15
    endloop
  endfacet
  facet normal 0 0 -1
    outer loop
      vertex -11.5 -13 15
      vertex -8.625 -10.5 15
      vertex -8.66987 -15.5 15
    endloop
  endfacet
  facet normal 0 0 -1
    outer loop
      vertex -13.0224 -18.0389 15
      vertex -17.3301 -15.5 15
      vertex -13 -18 15
    endloop
  endfacet
  facet normal 0 0 -1
    outer loop
      vertex -8.66987 -15.5 15
      vertex -8.64744 -15.5389 15
      vertex -17.3301 -15.5 15
    endloop
  endfacet
  facet normal 0 0 -1
    outer loop
      vertex -8.64744 -15.5389 15
      vertex -12.9776 -18.0389 15
      vertex -13 -18 15
    endloop
  endfacet
  facet normal 0 0 -1
    outer loop
      vertex -13 -8 15
      vertex -14.2135 -12.1183 15
      vertex -17.3301 -15.5 15
    endloop
  endfacet
  facet normal 0 0 -1
    outer loop
      vertex -11.5 -13 15
      vertex -8.66987 -15.5 15
      vertex -12.5365 -14.4266 15
    endloop
  endfacet
  facet normal 0 0 -1
    outer loop
      vertex -12.5365 -11.5734 15
      vertex -8.66987 -10.5 15
      vertex -8.625 -10.5 15
    endloop
  endfacet
  facet normal 0 0 -1
    outer loop
      vertex -17.3301 -15.5 15
      vertex -14.2135 -13.8817 15
      vertex -12.5365 -14.4266 15
    endloop
  endfacet
  facet normal 0 0 -1
    outer loop
      vertex -17.3301 -15.5 15
      vertex -12.5365 -14.4266 15
      vertex -8.66987 -15.5 15
    endloop
  endfacet
  facet normal 0 0 -1
    outer loop
      vertex -12.5365 -11.5734 15
      vertex -8.64744 -10.4611 15
      vertex -8.66987 -10.5 15
    endloop
  endfacet
  facet normal 0 0 -1
    outer loop
      vertex -13 -8 15
      vertex -8.64744 -10.4611 15
      vertex -12.5365 -11.5734 15
    endloop
  endfacet
  facet normal 0 0 -1
    outer loop
      vertex -13 -8 15
      vertex -12.5365 -11.5734 15
      vertex -14.2135 -12.1183 15
    endloop
  endfacet
  facet normal 0 0 -1
    outer loop
      vertex -17.3301 -15.5 15
      vertex -8.64744 -15.5389 15
      vertex -13 -18 15
    endloop
  endfacet
  facet normal 0 0 -1
    outer loop
      vertex -14.2135 -13.8817 15
      vertex -17.3301 -15.5 15
      vertex -14.2135 -12.1183 15
    endloop
  endfacet
  facet normal 0 0 -1
    outer loop
      vertex -17.3301 -15.5 15
      vertex -13.0224 -18.0389 15
      vertex -17.3526 -15.5389 15
    endloop
  endfacet
  facet normal 0 1 0
    outer loop
      vertex -17.375 -10.5 15
      vertex -17.375 -10.5 20
      vertex -17.3301 -10.5 15
    endloop
  endfacet
  facet normal 0 1 0
    outer loop
      vertex -17.3301 -10.5 15
      vertex -17.375 -10.5 20
      vertex -17.3301 -10.5 20
    endloop
  endfacet
  facet normal 0 0 1
    outer loop
      vertex -13 -18 20
      vertex -8.64744 -15.5389 20
      vertex -17.375 -10.5 20
    endloop
  endfacet
  facet normal 0 0 1
    outer loop
      vertex -17.375 -10.5 20
      vertex -17.375 -15.5 20
      vertex -17.3301 -15.5 20
    endloop
  endfacet
  facet normal 0 0 1
    outer loop
      vertex -13.0224 -18.0389 20
      vertex -17.375 -10.5 20
      vertex -17.3301 -15.5 20
    endloop
  endfacet
  facet normal 0 0 1
    outer loop
      vertex -17.3526 -15.5389 20
      vertex -13.0224 -18.0389 20
      vertex -17.3301 -15.5 20
    endloop
  endfacet
  facet normal 0 0 1
    outer loop
      vertex -13.0224 -18.0389 20
      vertex -13 -18 20
      vertex -17.375 -10.5 20
    endloop
  endfacet
  facet normal 0 0 1
    outer loop
      vertex -8.66987 -15.5 20
      vertex -8.625 -15.5 20
      vertex -17.375 -10.5 20
    endloop
  endfacet
  facet normal 0 0 1
    outer loop
      vertex -12.9776 -18.0389 20
      vertex -8.64744 -15.5389 20
      vertex -13 -18 20
    endloop
  endfacet
  facet normal 0 0 1
    outer loop
      vertex -8.64744 -15.5389 20
      vertex -8.66987 -15.5 20
      vertex -17.375 -10.5 20
    endloop
  endfacet
  facet normal 0 0 1
    outer loop
      vertex -8.625 -15.5 20
      vertex -8.66987 -10.5 20
      vertex -17.3301 -10.5 20
    endloop
  endfacet
  facet normal 0 0 1
    outer loop
      vertex -8.625 -15.5 20
      vertex -8.625 -10.5 20
      vertex -8.66987 -10.5 20
    endloop
  endfacet
  facet normal 0 0 1
    outer loop
      vertex -13 -8 20
      vertex -8.64744 -10.4611 20
      vertex -12.9776 -7.96114 20
    endloop
  endfacet
  facet normal 0 0 1
    outer loop
      vertex -17.3526 -10.4611 20
      vertex -13 -8 20
      vertex -13.0224 -7.96114 20
    endloop
  endfacet
  facet normal 0 0 1
    outer loop
      vertex -8.625 -15.5 20
      vertex -17.3301 -10.5 20
      vertex -17.375 -10.5 20
    endloop
  endfacet
  facet normal 0 0 1
    outer loop
      vertex -8.66987 -10.5 20
      vertex -8.64744 -10.4611 20
      vertex -17.3301 -10.5 20
    endloop
  endfacet
  facet normal 0 0 1
    outer loop
      vertex -17.3526 -10.4611 20
      vertex -8.64744 -10.4611 20
      vertex -13 -8 20
    endloop
  endfacet
  facet normal 0 0 1
    outer loop
      vertex -17.3526 -10.4611 20
      vertex -17.3301 -10.5 20
      vertex -8.64744 -10.4611 20
    endloop
  endfacet
  facet normal -0.866025 0.5 0
    outer loop
      vertex -17.3526 -15.5389 15
      vertex -17.3526 -15.5389 20
      vertex -17.3301 -15.5 15
    endloop
  endfacet
  facet normal -0.866025 0.5 0
    outer loop
      vertex -17.3301 -15.5 15
      vertex -17.3526 -15.5389 20
      vertex -17.3301 -15.5 20
    endloop
  endfacet
  facet normal -0.5 -0.866025 0
    outer loop
      vertex -17.3526 -15.5389 20
      vertex -17.3526 -15.5389 15
      vertex -13.0224 -18.0389 15
    endloop
  endfacet
  facet normal -0.5 -0.866025 0
    outer loop
      vertex -13.0224 -18.0389 20
      vertex -17.3526 -15.5389 20
      vertex -13.0224 -18.0389 15
    endloop
  endfacet
  facet normal 0.866025 -0.5 0
    outer loop
      vertex -13.0224 -18.0389 20
      vertex -13.0224 -18.0389 15
      vertex -13 -18 15
    endloop
  endfacet
  facet normal 0.866025 -0.5 0
    outer loop
      vertex -13 -18 20
      vertex -13.0224 -18.0389 20
      vertex -13 -18 15
    endloop
  endfacet
  facet normal -0.866025 -0.5 0
    outer loop
      vertex -13 -18 15
      vertex -12.9776 -18.0389 15
      vertex -13 -18 20
    endloop
  endfacet
  facet normal -0.866025 -0.5 0
    outer loop
      vertex -13 -18 20
      vertex -12.9776 -18.0389 15
      vertex -12.9776 -18.0389 20
    endloop
  endfacet
  facet normal 0.5 -0.866025 0
    outer loop
      vertex -12.9776 -18.0389 20
      vertex -12.9776 -18.0389 15
      vertex -8.64744 -15.5389 15
    endloop
  endfacet
  facet normal 0.5 -0.866025 0
    outer loop
      vertex -8.64744 -15.5389 20
      vertex -12.9776 -18.0389 20
      vertex -8.64744 -15.5389 15
    endloop
  endfacet
  facet normal 0.866025 0.5 0
    outer loop
      vertex -8.64744 -15.5389 15
      vertex -8.66987 -15.5 15
      vertex -8.66987 -15.5 20
    endloop
  endfacet
  facet normal 0.866025 0.5 0
    outer loop
      vertex -8.64744 -15.5389 20
      vertex -8.64744 -15.5389 15
      vertex -8.66987 -15.5 20
    endloop
  endfacet
  facet normal 0 -1 0
    outer loop
      vertex -8.66987 -15.5 20
      vertex -8.66987 -15.5 15
      vertex -8.625 -15.5 15
    endloop
  endfacet
  facet normal 0 -1 0
    outer loop
      vertex -8.625 -15.5 20
      vertex -8.66987 -15.5 20
      vertex -8.625 -15.5 15
    endloop
  endfacet
  facet normal 1 0 0
    outer loop
      vertex -8.625 -15.5 20
      vertex -8.625 -15.5 15
      vertex -8.625 -10.5 15
    endloop
  endfacet
  facet normal 1 0 0
    outer loop
      vertex -8.625 -10.5 20
      vertex -8.625 -15.5 20
      vertex -8.625 -10.5 15
    endloop
  endfacet
  facet normal 0 1 0
    outer loop
      vertex -8.66987 -10.5 15
      vertex -8.66987 -10.5 20
      vertex -8.625 -10.5 15
    endloop
  endfacet
  facet normal 0 1 0
    outer loop
      vertex -8.625 -10.5 15
      vertex -8.66987 -10.5 20
      vertex -8.625 -10.5 20
    endloop
  endfacet
  facet normal 0.866025 -0.5 0
    outer loop
      vertex -8.66987 -10.5 20
      vertex -8.66987 -10.5 15
      vertex -8.64744 -10.4611 15
    endloop
  endfacet
  facet normal 0.866025 -0.5 0
    outer loop
      vertex -8.64744 -10.4611 20
      vertex -8.66987 -10.5 20
      vertex -8.64744 -10.4611 15
    endloop
  endfacet
  facet normal 0.5 0.866025 0
    outer loop
      vertex -12.9776 -7.96114 15
      vertex -12.9776 -7.96114 20
      vertex -8.64744 -10.4611 15
    endloop
  endfacet
  facet normal 0.5 0.866025 0
    outer loop
      vertex -8.64744 -10.4611 15
      vertex -12.9776 -7.96114 20
      vertex -8.64744 -10.4611 20
    endloop
  endfacet
  facet normal -0.866025 0.5 0
    outer loop
      vertex -13 -8 15
      vertex -13 -8 20
      vertex -12.9776 -7.96114 15
    endloop
  endfacet
  facet normal -0.866025 0.5 0
    outer loop
      vertex -12.9776 -7.96114 15
      vertex -13 -8 20
      vertex -12.9776 -7.96114 20
    endloop
  endfacet
  facet normal 0.866025 0.5 0
    outer loop
      vertex -13 -8 15
      vertex -13.0224 -7.96114 15
      vertex -13.0224 -7.96114 20
    endloop
  endfacet
  facet normal 0.866025 0.5 0
    outer loop
      vertex -13 -8 20
      vertex -13 -8 15
      vertex -13.0224 -7.96114 20
    endloop
  endfacet
  facet normal -0.5 0.866025 0
    outer loop
      vertex -17.3526 -10.4611 15
      vertex -17.3526 -10.4611 20
      vertex -13.0224 -7.96114 15
    endloop
  endfacet
  facet normal -0.5 0.866025 0
    outer loop
      vertex -13.0224 -7.96114 15
      vertex -17.3526 -10.4611 20
      vertex -13.0224 -7.96114 20
    endloop
  endfacet
  facet normal -0.866025 -0.5 0
    outer loop
      vertex -17.3526 -10.4611 15
      vertex -17.3301 -10.5 15
      vertex -17.3526 -10.4611 20
    endloop
  endfacet
  facet normal -0.866025 -0.5 0
    outer loop
      vertex -17.3526 -10.4611 20
      vertex -17.3301 -10.5 15
      vertex -17.3301 -10.5 20
    endloop
  endfacet
  facet normal -0.309017 0.951056 0
    outer loop
      vertex -14.2135 -12.1183 -0.1
      vertex -14.2135 -12.1183 15
      vertex -12.5365 -11.5734 -0.1
    endloop
  endfacet
  facet normal -0.309017 0.951056 0
    outer loop
      vertex -12.5365 -11.5734 -0.1
      vertex -14.2135 -12.1183 15
      vertex -12.5365 -11.5734 15
    endloop
  endfacet
  facet normal -1 0 0
    outer loop
      vertex -14.2135 -13.8817 -0.1
      vertex -14.2135 -13.8817 15
      vertex -14.2135 -12.1183 -0.1
    endloop
  endfacet
  facet normal -1 0 0
    outer loop
      vertex -14.2135 -12.1183 -0.1
      vertex -14.2135 -13.8817 15
      vertex -14.2135 -12.1183 15
    endloop
  endfacet
  facet normal 0.809017 0.587785 0
    outer loop
      vertex -11.5 -13 -0.1
      vertex -12.5365 -11.5734 -0.1
      vertex -12.5365 -11.5734 15
    endloop
  endfacet
  facet normal 0.809017 0.587785 0
    outer loop
      vertex -11.5 -13 15
      vertex -11.5 -13 -0.1
      vertex -12.5365 -11.5734 15
    endloop
  endfacet
  facet normal 0.809017 -0.587785 0
    outer loop
      vertex -12.5365 -14.4266 15
      vertex -12.5365 -14.4266 -0.1
      vertex -11.5 -13 -0.1
    endloop
  endfacet
  facet normal 0.809017 -0.587785 0
    outer loop
      vertex -11.5 -13 15
      vertex -12.5365 -14.4266 15
      vertex -11.5 -13 -0.1
    endloop
  endfacet
  facet normal -0.309017 -0.951056 0
    outer loop
      vertex -14.2135 -13.8817 15
      vertex -14.2135 -13.8817 -0.1
      vertex -12.5365 -14.4266 -0.1
    endloop
  endfacet
  facet normal -0.309017 -0.951056 0
    outer loop
      vertex -12.5365 -14.4266 15
      vertex -14.2135 -13.8817 15
      vertex -12.5365 -14.4266 -0.1
    endloop
  endfacet
  facet normal 0 0 -1
    outer loop
      vertex -14.2135 -13.8817 -0.1
      vertex -14.2135 -12.1183 -0.1
      vertex -12.5365 -14.4266 -0.1
    endloop
  endfacet
  facet normal 0 0 -1
    outer loop
      vertex -12.5365 -14.4266 -0.1
      vertex -14.2135 -12.1183 -0.1
      vertex -12.5365 -11.5734 -0.1
    endloop
  endfacet
  facet normal 0 0 -1
    outer loop
      vertex -12.5365 -14.4266 -0.1
      vertex -12.5365 -11.5734 -0.1
      vertex -11.5 -13 -0.1
    endloop
  endfacet
  facet normal -1 0 0
    outer loop
      vertex -17.375 10.5 15
      vertex -17.375 10.5 20
      vertex -17.375 15.5 15
    endloop
  endfacet
  facet normal -1 0 0
    outer loop
      vertex -17.375 15.5 15
      vertex -17.375 10.5 20
      vertex -17.375 15.5 20
    endloop
  endfacet
  facet normal 0 -1 0
    outer loop
      vertex -17.375 10.5 20
      vertex -17.375 10.5 15
      vertex -17.3301 10.5 15
    endloop
  endfacet
  facet normal 0 -1 0
    outer loop
      vertex -17.3301 10.5 20
      vertex -17.375 10.5 20
      vertex -17.3301 10.5 15
    endloop
  endfacet
  facet normal 0 0 -1
    outer loop
      vertex -17.375 10.5 15
      vertex -17.375 15.5 15
      vertex -17.3301 10.5 15
    endloop
  endfacet
  facet normal 0 0 -1
    outer loop
      vertex -17.3301 10.5 15
      vertex -17.375 15.5 15
      vertex -17.3301 15.5 15
    endloop
  endfacet
  facet normal 0 0 -1
    outer loop
      vertex -17.3301 15.5 15
      vertex -17.3526 15.5389 15
      vertex -13.0224 18.0389 15
    endloop
  endfacet
  facet normal 0 0 -1
    outer loop
      vertex -17.3301 15.5 15
      vertex -13.0224 18.0389 15
      vertex -17.3301 10.5 15
    endloop
  endfacet
  facet normal 0 0 -1
    outer loop
      vertex -17.3301 10.5 15
      vertex -13.0224 18.0389 15
      vertex -13 18 15
    endloop
  endfacet
  facet normal 0 0 -1
    outer loop
      vertex -13 18 15
      vertex -12.9776 18.0389 15
      vertex -8.64744 15.5389 15
    endloop
  endfacet
  facet normal 0 0 -1
    outer loop
      vertex -12.5365 14.4266 15
      vertex -8.625 15.5 15
      vertex -11.5 13 15
    endloop
  endfacet
  facet normal 0 0 -1
    outer loop
      vertex -8.66987 10.5 15
      vertex -8.625 15.5 15
      vertex -8.625 10.5 15
    endloop
  endfacet
  facet normal 0 0 -1
    outer loop
      vertex -11.5 13 15
      vertex -8.625 15.5 15
      vertex -8.66987 10.5 15
    endloop
  endfacet
  facet normal 0 0 -1
    outer loop
      vertex -13.0224 7.96114 15
      vertex -17.3301 10.5 15
      vertex -13 8 15
    endloop
  endfacet
  facet normal 0 0 -1
    outer loop
      vertex -8.66987 10.5 15
      vertex -8.64744 10.4611 15
      vertex -17.3301 10.5 15
    endloop
  endfacet
  facet normal 0 0 -1
    outer loop
      vertex -8.64744 10.4611 15
      vertex -12.9776 7.96114 15
      vertex -13 8 15
    endloop
  endfacet
  facet normal 0 0 -1
    outer loop
      vertex -13 18 15
      vertex -14.2135 13.8817 15
      vertex -17.3301 10.5 15
    endloop
  endfacet
  facet normal 0 0 -1
    outer loop
      vertex -11.5 13 15
      vertex -8.66987 10.5 15
      vertex -12.5365 11.5734 15
    endloop
  endfacet
  facet normal 0 0 -1
    outer loop
      vertex -12.5365 14.4266 15
      vertex -8.66987 15.5 15
      vertex -8.625 15.5 15
    endloop
  endfacet
  facet normal 0 0 -1
    outer loop
      vertex -17.3301 10.5 15
      vertex -14.2135 12.1183 15
      vertex -12.5365 11.5734 15
    endloop
  endfacet
  facet normal 0 0 -1
    outer loop
      vertex -17.3301 10.5 15
      vertex -12.5365 11.5734 15
      vertex -8.66987 10.5 15
    endloop
  endfacet
  facet normal 0 0 -1
    outer loop
      vertex -12.5365 14.4266 15
      vertex -8.64744 15.5389 15
      vertex -8.66987 15.5 15
    endloop
  endfacet
  facet normal 0 0 -1
    outer loop
      vertex -13 18 15
      vertex -8.64744 15.5389 15
      vertex -12.5365 14.4266 15
    endloop
  endfacet
  facet normal 0 0 -1
    outer loop
      vertex -13 18 15
      vertex -12.5365 14.4266 15
      vertex -14.2135 13.8817 15
    endloop
  endfacet
  facet normal 0 0 -1
    outer loop
      vertex -17.3301 10.5 15
      vertex -8.64744 10.4611 15
      vertex -13 8 15
    endloop
  endfacet
  facet normal 0 0 -1
    outer loop
      vertex -14.2135 12.1183 15
      vertex -17.3301 10.5 15
      vertex -14.2135 13.8817 15
    endloop
  endfacet
  facet normal 0 0 -1
    outer loop
      vertex -17.3301 10.5 15
      vertex -13.0224 7.96114 15
      vertex -17.3526 10.4611 15
    endloop
  endfacet
  facet normal 0 1 0
    outer loop
      vertex -17.375 15.5 15
      vertex -17.375 15.5 20
      vertex -17.3301 15.5 15
    endloop
  endfacet
  facet normal 0 1 0
    outer loop
      vertex -17.3301 15.5 15
      vertex -17.375 15.5 20
      vertex -17.3301 15.5 20
    endloop
  endfacet
  facet normal 0 0 1
    outer loop
      vertex -13 8 20
      vertex -8.64744 10.4611 20
      vertex -17.375 15.5 20
    endloop
  endfacet
  facet normal 0 0 1
    outer loop
      vertex -17.375 15.5 20
      vertex -17.375 10.5 20
      vertex -17.3301 10.5 20
    endloop
  endfacet
  facet normal 0 0 1
    outer loop
      vertex -13.0224 7.96114 20
      vertex -17.375 15.5 20
      vertex -17.3301 10.5 20
    endloop
  endfacet
  facet normal 0 0 1
    outer loop
      vertex -17.3526 10.4611 20
      vertex -13.0224 7.96114 20
      vertex -17.3301 10.5 20
    endloop
  endfacet
  facet normal 0 0 1
    outer loop
      vertex -13.0224 7.96114 20
      vertex -13 8 20
      vertex -17.375 15.5 20
    endloop
  endfacet
  facet normal 0 0 1
    outer loop
      vertex -8.66987 10.5 20
      vertex -8.625 10.5 20
      vertex -17.375 15.5 20
    endloop
  endfacet
  facet normal 0 0 1
    outer loop
      vertex -12.9776 7.96114 20
      vertex -8.64744 10.4611 20
      vertex -13 8 20
    endloop
  endfacet
  facet normal 0 0 1
    outer loop
      vertex -8.64744 10.4611 20
      vertex -8.66987 10.5 20
      vertex -17.375 15.5 20
    endloop
  endfacet
  facet normal 0 0 1
    outer loop
      vertex -8.625 10.5 20
      vertex -8.66987 15.5 20
      vertex -17.3301 15.5 20
    endloop
  endfacet
  facet normal 0 0 1
    outer loop
      vertex -8.625 10.5 20
      vertex -8.625 15.5 20
      vertex -8.66987 15.5 20
    endloop
  endfacet
  facet normal 0 0 1
    outer loop
      vertex -13 18 20
      vertex -8.64744 15.5389 20
      vertex -12.9776 18.0389 20
    endloop
  endfacet
  facet normal 0 0 1
    outer loop
      vertex -17.3526 15.5389 20
      vertex -13 18 20
      vertex -13.0224 18.0389 20
    endloop
  endfacet
  facet normal 0 0 1
    outer loop
      vertex -8.625 10.5 20
      vertex -17.3301 15.5 20
      vertex -17.375 15.5 20
    endloop
  endfacet
  facet normal 0 0 1
    outer loop
      vertex -8.66987 15.5 20
      vertex -8.64744 15.5389 20
      vertex -17.3301 15.5 20
    endloop
  endfacet
  facet normal 0 0 1
    outer loop
      vertex -17.3526 15.5389 20
      vertex -8.64744 15.5389 20
      vertex -13 18 20
    endloop
  endfacet
  facet normal 0 0 1
    outer loop
      vertex -17.3526 15.5389 20
      vertex -17.3301 15.5 20
      vertex -8.64744 15.5389 20
    endloop
  endfacet
  facet normal -0.866025 0.5 0
    outer loop
      vertex -17.3526 10.4611 15
      vertex -17.3526 10.4611 20
      vertex -17.3301 10.5 15
    endloop
  endfacet
  facet normal -0.866025 0.5 0
    outer loop
      vertex -17.3301 10.5 15
      vertex -17.3526 10.4611 20
      vertex -17.3301 10.5 20
    endloop
  endfacet
  facet normal -0.5 -0.866025 0
    outer loop
      vertex -17.3526 10.4611 20
      vertex -17.3526 10.4611 15
      vertex -13.0224 7.96114 15
    endloop
  endfacet
  facet normal -0.5 -0.866025 0
    outer loop
      vertex -13.0224 7.96114 20
      vertex -17.3526 10.4611 20
      vertex -13.0224 7.96114 15
    endloop
  endfacet
  facet normal 0.866025 -0.5 0
    outer loop
      vertex -13.0224 7.96114 20
      vertex -13.0224 7.96114 15
      vertex -13 8 15
    endloop
  endfacet
  facet normal 0.866025 -0.5 0
    outer loop
      vertex -13 8 20
      vertex -13.0224 7.96114 20
      vertex -13 8 15
    endloop
  endfacet
  facet normal -0.866025 -0.5 0
    outer loop
      vertex -13 8 15
      vertex -12.9776 7.96114 15
      vertex -13 8 20
    endloop
  endfacet
  facet normal -0.866025 -0.5 0
    outer loop
      vertex -13 8 20
      vertex -12.9776 7.96114 15
      vertex -12.9776 7.96114 20
    endloop
  endfacet
  facet normal 0.5 -0.866025 0
    outer loop
      vertex -12.9776 7.96114 20
      vertex -12.9776 7.96114 15
      vertex -8.64744 10.4611 15
    endloop
  endfacet
  facet normal 0.5 -0.866025 0
    outer loop
      vertex -8.64744 10.4611 20
      vertex -12.9776 7.96114 20
      vertex -8.64744 10.4611 15
    endloop
  endfacet
  facet normal 0.866025 0.5 0
    outer loop
      vertex -8.64744 10.4611 15
      vertex -8.66987 10.5 15
      vertex -8.66987 10.5 20
    endloop
  endfacet
  facet normal 0.866025 0.5 0
    outer loop
      vertex -8.64744 10.4611 20
      vertex -8.64744 10.4611 15
      vertex -8.66987 10.5 20
    endloop
  endfacet
  facet normal 0 -1 0
    outer loop
      vertex -8.66987 10.5 20
      vertex -8.66987 10.5 15
      vertex -8.625 10.5 15
    endloop
  endfacet
  facet normal 0 -1 0
    outer loop
      vertex -8.625 10.5 20
      vertex -8.66987 10.5 20
      vertex -8.625 10.5 15
    endloop
  endfacet
  facet normal 1 0 0
    outer loop
      vertex -8.625 10.5 20
      vertex -8.625 10.5 15
      vertex -8.625 15.5 15
    endloop
  endfacet
  facet normal 1 0 0
    outer loop
      vertex -8.625 15.5 20
      vertex -8.625 10.5 20
      vertex -8.625 15.5 15
    endloop
  endfacet
  facet normal 0 1 0
    outer loop
      vertex -8.66987 15.5 15
      vertex -8.66987 15.5 20
      vertex -8.625 15.5 15
    endloop
  endfacet
  facet normal 0 1 0
    outer loop
      vertex -8.625 15.5 15
      vertex -8.66987 15.5 20
      vertex -8.625 15.5 20
    endloop
  endfacet
  facet normal 0.866025 -0.5 0
    outer loop
      vertex -8.66987 15.5 20
      vertex -8.66987 15.5 15
      vertex -8.64744 15.5389 15
    endloop
  endfacet
  facet normal 0.866025 -0.5 0
    outer loop
      vertex -8.64744 15.5389 20
      vertex -8.66987 15.5 20
      vertex -8.64744 15.5389 15
    endloop
  endfacet
  facet normal 0.5 0.866025 0
    outer loop
      vertex -12.9776 18.0389 15
      vertex -12.9776 18.0389 20
      vertex -8.64744 15.5389 15
    endloop
  endfacet
  facet normal 0.5 0.866025 0
    outer loop
      vertex -8.64744 15.5389 15
      vertex -12.9776 18.0389 20
      vertex -8.64744 15.5389 20
    endloop
  endfacet
  facet normal -0.866025 0.5 0
    outer loop
      vertex -13 18 15
      vertex -13 18 20
      vertex -12.9776 18.0389 15
    endloop
  endfacet
  facet normal -0.866025 0.5 0
    outer loop
      vertex -12.9776 18.0389 15
      vertex -13 18 20
      vertex -12.9776 18.0389 20
    endloop
  endfacet
  facet normal 0.866025 0.5 0
    outer loop
      vertex -13 18 15
      vertex -13.0224 18.0389 15
      vertex -13.0224 18.0389 20
    endloop
  endfacet
  facet normal 0.866025 0.5 0
    outer loop
      vertex -13 18 20
      vertex -13 18 15
      vertex -13.0224 18.0389 20
    endloop
  endfacet
  facet normal -0.5 0.866025 0
    outer loop
      vertex -17.3526 15.5389 15
      vertex -17.3526 15.5389 20
      vertex -13.0224 18.0389 15
    endloop
  endfacet
  facet normal -0.5 0.866025 0
    outer loop
      vertex -13.0224 18.0389 15
      vertex -17.3526 15.5389 20
      vertex -13.0224 18.0389 20
    endloop
  endfacet
  facet normal -0.866025 -0.5 0
    outer loop
      vertex -17.3526 15.5389 15
      vertex -17.3301 15.5 15
      vertex -17.3526 15.5389 20
    endloop
  endfacet
  facet normal -0.866025 -0.5 0
    outer loop
      vertex -17.3526 15.5389 20
      vertex -17.3301 15.5 15
      vertex -17.3301 15.5 20
    endloop
  endfacet
  facet normal -0.309017 0.951056 0
    outer loop
      vertex -14.2135 13.8817 -0.1
      vertex -14.2135 13.8817 15
      vertex -12.5365 14.4266 -0.1
    endloop
  endfacet
  facet normal -0.309017 0.951056 0
    outer loop
      vertex -12.5365 14.4266 -0.1
      vertex -14.2135 13.8817 15
      vertex -12.5365 14.4266 15
    endloop
  endfacet
  facet normal -1 0 0
    outer loop
      vertex -14.2135 12.1183 -0.1
      vertex -14.2135 12.1183 15
      vertex -14.2135 13.8817 -0.1
    endloop
  endfacet
  facet normal -1 0 0
    outer loop
      vertex -14.2135 13.8817 -0.1
      vertex -14.2135 12.1183 15
      vertex -14.2135 13.8817 15
    endloop
  endfacet
  facet normal 0.809017 0.587785 0
    outer loop
      vertex -11.5 13 -0.1
      vertex -12.5365 14.4266 -0.1
      vertex -12.5365 14.4266 15
    endloop
  endfacet
  facet normal 0.809017 0.587785 0
    outer loop
      vertex -11.5 13 15
      vertex -11.5 13 -0.1
      vertex -12.5365 14.4266 15
    endloop
  endfacet
  facet normal 0.809017 -0.587785 0
    outer loop
      vertex -12.5365 11.5734 15
      vertex -12.5365 11.5734 -0.1
      vertex -11.5 13 -0.1
    endloop
  endfacet
  facet normal 0.809017 -0.587785 0
    outer loop
      vertex -11.5 13 15
      vertex -12.5365 11.5734 15
      vertex -11.5 13 -0.1
    endloop
  endfacet
  facet normal -0.309017 -0.951056 0
    outer loop
      vertex -14.2135 12.1183 15
      vertex -14.2135 12.1183 -0.1
      vertex -12.5365 11.5734 -0.1
    endloop
  endfacet
  facet normal -0.309017 -0.951056 0
    outer loop
      vertex -12.5365 11.5734 15
      vertex -14.2135 12.1183 15
      vertex -12.5365 11.5734 -0.1
    endloop
  endfacet
  facet normal 0 0 -1
    outer loop
      vertex -14.2135 12.1183 -0.1
      vertex -14.2135 13.8817 -0.1
      vertex -12.5365 11.5734 -0.1
    endloop
  endfacet
  facet normal 0 0 -1
    outer loop
      vertex -12.5365 11.5734 -0.1
      vertex -14.2135 13.8817 -0.1
      vertex -12.5365 14.4266 -0.1
    endloop
  endfacet
  facet normal 0 0 -1
    outer loop
      vertex -12.5365 11.5734 -0.1
      vertex -12.5365 14.4266 -0.1
      vertex -11.5 13 -0.1
    endloop
  endfacet
  facet normal -1 0 0
    outer loop
      vertex 8.625 -15.5 15
      vertex 8.625 -15.5 20
      vertex 8.625 -10.5 15
    endloop
  endfacet
  facet normal -1 0 0
    outer loop
      vertex 8.625 -10.5 15
      vertex 8.625 -15.5 20
      vertex 8.625 -10.5 20
    endloop
  endfacet
  facet normal 0 -1 0
    outer loop
      vertex 8.625 -15.5 20
      vertex 8.625 -15.5 15
      vertex 8.66987 -15.5 15
    endloop
  endfacet
  facet normal 0 -1 0
    outer loop
      vertex 8.66987 -15.5 20
      vertex 8.625 -15.5 20
      vertex 8.66987 -15.5 15
    endloop
  endfacet
  facet normal 0 0 -1
    outer loop
      vertex 8.625 -15.5 15
      vertex 8.625 -10.5 15
      vertex 8.66987 -15.5 15
    endloop
  endfacet
  facet normal 0 0 -1
    outer loop
      vertex 8.66987 -15.5 15
      vertex 8.625 -10.5 15
      vertex 8.66987 -10.5 15
    endloop
  endfacet
  facet normal 0 0 -1
    outer loop
      vertex 8.66987 -10.5 15
      vertex 8.64744 -10.4611 15
      vertex 12.9776 -7.96114 15
    endloop
  endfacet
  facet normal 0 0 -1
    outer loop
      vertex 8.66987 -10.5 15
      vertex 12.9776 -7.96114 15
      vertex 8.66987 -15.5 15
    endloop
  endfacet
  facet normal 0 0 -1
    outer loop
      vertex 8.66987 -15.5 15
      vertex 12.9776 -7.96114 15
      vertex 13 -8 15
    endloop
  endfacet
  facet normal 0 0 -1
    outer loop
      vertex 13 -8 15
      vertex 13.0224 -7.96114 15
      vertex 17.3526 -10.4611 15
    endloop
  endfacet
  facet normal 0 0 -1
    outer loop
      vertex 13.4635 -11.5734 15
      vertex 17.375 -10.5 15
      vertex 14.5 -13 15
    endloop
  endfacet
  facet normal 0 0 -1
    outer loop
      vertex 17.3301 -15.5 15
      vertex 17.375 -10.5 15
      vertex 17.375 -15.5 15
    endloop
  endfacet
  facet normal 0 0 -1
    outer loop
      vertex 14.5 -13 15
      vertex 17.375 -10.5 15
      vertex 17.3301 -15.5 15
    endloop
  endfacet
  facet normal 0 0 -1
    outer loop
      vertex 12.9776 -18.0389 15
      vertex 8.66987 -15.5 15
      vertex 13 -18 15
    endloop
  endfacet
  facet normal 0 0 -1
    outer loop
      vertex 17.3301 -15.5 15
      vertex 17.3526 -15.5389 15
      vertex 8.66987 -15.5 15
    endloop
  endfacet
  facet normal 0 0 -1
    outer loop
      vertex 17.3526 -15.5389 15
      vertex 13.0224 -18.0389 15
      vertex 13 -18 15
    endloop
  endfacet
  facet normal 0 0 -1
    outer loop
      vertex 13 -8 15
      vertex 11.7865 -12.1183 15
      vertex 8.66987 -15.5 15
    endloop
  endfacet
  facet normal 0 0 -1
    outer loop
      vertex 14.5 -13 15
      vertex 17.3301 -15.5 15
      vertex 13.4635 -14.4266 15
    endloop
  endfacet
  facet normal 0 0 -1
    outer loop
      vertex 13.4635 -11.5734 15
      vertex 17.3301 -10.5 15
      vertex 17.375 -10.5 15
    endloop
  endfacet
  facet normal 0 0 -1
    outer loop
      vertex 8.66987 -15.5 15
      vertex 11.7865 -13.8817 15
      vertex 13.4635 -14.4266 15
    endloop
  endfacet
  facet normal 0 0 -1
    outer loop
      vertex 8.66987 -15.5 15
      vertex 13.4635 -14.4266 15
      vertex 17.3301 -15.5 15
    endloop
  endfacet
  facet normal 0 0 -1
    outer loop
      vertex 13.4635 -11.5734 15
      vertex 17.3526 -10.4611 15
      vertex 17.3301 -10.5 15
    endloop
  endfacet
  facet normal 0 0 -1
    outer loop
      vertex 13 -8 15
      vertex 17.3526 -10.4611 15
      vertex 13.4635 -11.5734 15
    endloop
  endfacet
  facet normal 0 0 -1
    outer loop
      vertex 13 -8 15
      vertex 13.4635 -11.5734 15
      vertex 11.7865 -12.1183 15
    endloop
  endfacet
  facet normal 0 0 -1
    outer loop
      vertex 8.66987 -15.5 15
      vertex 17.3526 -15.5389 15
      vertex 13 -18 15
    endloop
  endfacet
  facet normal 0 0 -1
    outer loop
      vertex 11.7865 -13.8817 15
      vertex 8.66987 -15.5 15
      vertex 11.7865 -12.1183 15
    endloop
  endfacet
  facet normal 0 0 -1
    outer loop
      vertex 8.66987 -15.5 15
      vertex 12.9776 -18.0389 15
      vertex 8.64744 -15.5389 15
    endloop
  endfacet
  facet normal 0 1 0
    outer loop
      vertex 8.625 -10.5 15
      vertex 8.625 -10.5 20
      vertex 8.66987 -10.5 15
    endloop
  endfacet
  facet normal 0 1 0
    outer loop
      vertex 8.66987 -10.5 15
      vertex 8.625 -10.5 20
      vertex 8.66987 -10.5 20
    endloop
  endfacet
  facet normal 0 0 1
    outer loop
      vertex 13 -18 20
      vertex 17.3526 -15.5389 20
      vertex 8.625 -10.5 20
    endloop
  endfacet
  facet normal 0 0 1
    outer loop
      vertex 8.625 -10.5 20
      vertex 8.625 -15.5 20
      vertex 8.66987 -15.5 20
    endloop
  endfacet
  facet normal 0 0 1
    outer loop
      vertex 12.9776 -18.0389 20
      vertex 8.625 -10.5 20
      vertex 8.66987 -15.5 20
    endloop
  endfacet
  facet normal 0 0 1
    outer loop
      vertex 8.64744 -15.5389 20
      vertex 12.9776 -18.0389 20
      vertex 8.66987 -15.5 20
    endloop
  endfacet
  facet normal 0 0 1
    outer loop
      vertex 12.9776 -18.0389 20
      vertex 13 -18 20
      vertex 8.625 -10.5 20
    endloop
  endfacet
  facet normal 0 0 1
    outer loop
      vertex 17.3301 -15.5 20
      vertex 17.375 -15.5 20
      vertex 8.625 -10.5 20
    endloop
  endfacet
  facet normal 0 0 1
    outer loop
      vertex 13.0224 -18.0389 20
      vertex 17.3526 -15.5389 20
      vertex 13 -18 20
    endloop
  endfacet
  facet normal 0 0 1
    outer loop
      vertex 17.3526 -15.5389 20
      vertex 17.3301 -15.5 20
      vertex 8.625 -10.5 20
    endloop
  endfacet
  facet normal 0 0 1
    outer loop
      vertex 17.375 -15.5 20
      vertex 17.3301 -10.5 20
      vertex 8.66987 -10.5 20
    endloop
  endfacet
  facet normal 0 0 1
    outer loop
      vertex 17.375 -15.5 20
      vertex 17.375 -10.5 20
      vertex 17.3301 -10.5 20
    endloop
  endfacet
  facet normal 0 0 1
    outer loop
      vertex 13 -8 20
      vertex 17.3526 -10.4611 20
      vertex 13.0224 -7.96114 20
    endloop
  endfacet
  facet normal 0 0 1
    outer loop
      vertex 8.64744 -10.4611 20
      vertex 13 -8 20
      vertex 12.9776 -7.96114 20
    endloop
  endfacet
  facet normal 0 0 1
    outer loop
      vertex 17.375 -15.5 20
      vertex 8.66987 -10.5 20
      vertex 8.625 -10.5 20
    endloop
  endfacet
  facet normal 0 0 1
    outer loop
      vertex 17.3301 -10.5 20
      vertex 17.3526 -10.4611 20
      vertex 8.66987 -10.5 20
    endloop
  endfacet
  facet normal 0 0 1
    outer loop
      vertex 8.64744 -10.4611 20
      vertex 17.3526 -10.4611 20
      vertex 13 -8 20
    endloop
  endfacet
  facet normal 0 0 1
    outer loop
      vertex 8.64744 -10.4611 20
      vertex 8.66987 -10.5 20
      vertex 17.3526 -10.4611 20
    endloop
  endfacet
  facet normal -0.866025 0.5 0
    outer loop
      vertex 8.64744 -15.5389 15
      vertex 8.64744 -15.5389 20
      vertex 8.66987 -15.5 15
    endloop
  endfacet
  facet normal -0.866025 0.5 0
    outer loop
      vertex 8.66987 -15.5 15
      vertex 8.64744 -15.5389 20
      vertex 8.66987 -15.5 20
    endloop
  endfacet
  facet normal -0.5 -0.866025 0
    outer loop
      vertex 8.64744 -15.5389 20
      vertex 8.64744 -15.5389 15
      vertex 12.9776 -18.0389 15
    endloop
  endfacet
  facet normal -0.5 -0.866025 0
    outer loop
      vertex 12.9776 -18.0389 20
      vertex 8.64744 -15.5389 20
      vertex 12.9776 -18.0389 15
    endloop
  endfacet
  facet normal 0.866025 -0.5 0
    outer loop
      vertex 12.9776 -18.0389 20
      vertex 12.9776 -18.0389 15
      vertex 13 -18 15
    endloop
  endfacet
  facet normal 0.866025 -0.5 0
    outer loop
      vertex 13 -18 20
      vertex 12.9776 -18.0389 20
      vertex 13 -18 15
    endloop
  endfacet
  facet normal -0.866025 -0.5 0
    outer loop
      vertex 13 -18 15
      vertex 13.0224 -18.0389 15
      vertex 13 -18 20
    endloop
  endfacet
  facet normal -0.866025 -0.5 0
    outer loop
      vertex 13 -18 20
      vertex 13.0224 -18.0389 15
      vertex 13.0224 -18.0389 20
    endloop
  endfacet
  facet normal 0.5 -0.866025 0
    outer loop
      vertex 13.0224 -18.0389 20
      vertex 13.0224 -18.0389 15
      vertex 17.3526 -15.5389 15
    endloop
  endfacet
  facet normal 0.5 -0.866025 0
    outer loop
      vertex 17.3526 -15.5389 20
      vertex 13.0224 -18.0389 20
      vertex 17.3526 -15.5389 15
    endloop
  endfacet
  facet normal 0.866025 0.5 0
    outer loop
      vertex 17.3526 -15.5389 15
      vertex 17.3301 -15.5 15
      vertex 17.3301 -15.5 20
    endloop
  endfacet
  facet normal 0.866025 0.5 0
    outer loop
      vertex 17.3526 -15.5389 20
      vertex 17.3526 -15.5389 15
      vertex 17.3301 -15.5 20
    endloop
  endfacet
  facet normal 0 -1 0
    outer loop
      vertex 17.3301 -15.5 20
      vertex 17.3301 -15.5 15
      vertex 17.375 -15.5 15
    endloop
  endfacet
  facet normal 0 -1 0
    outer loop
      vertex 17.375 -15.5 20
      vertex 17.3301 -15.5 20
      vertex 17.375 -15.5 15
    endloop
  endfacet
  facet normal 1 0 0
    outer loop
      vertex 17.375 -15.5 20
      vertex 17.375 -15.5 15
      vertex 17.375 -10.5 15
    endloop
  endfacet
  facet normal 1 0 0
    outer loop
      vertex 17.375 -10.5 20
      vertex 17.375 -15.5 20
      vertex 17.375 -10.5 15
    endloop
  endfacet
  facet normal 0 1 0
    outer loop
      vertex 17.3301 -10.5 15
      vertex 17.3301 -10.5 20
      vertex 17.375 -10.5 15
    endloop
  endfacet
  facet normal 0 1 0
    outer loop
      vertex 17.375 -10.5 15
      vertex 17.3301 -10.5 20
      vertex 17.375 -10.5 20
    endloop
  endfacet
  facet normal 0.866025 -0.5 0
    outer loop
      vertex 17.3301 -10.5 20
      vertex 17.3301 -10.5 15
      vertex 17.3526 -10.4611 15
    endloop
  endfacet
  facet normal 0.866025 -0.5 0
    outer loop
      vertex 17.3526 -10.4611 20
      vertex 17.3301 -10.5 20
      vertex 17.3526 -10.4611 15
    endloop
  endfacet
  facet normal 0.5 0.866025 0
    outer loop
      vertex 13.0224 -7.96114 15
      vertex 13.0224 -7.96114 20
      vertex 17.3526 -10.4611 15
    endloop
  endfacet
  facet normal 0.5 0.866025 0
    outer loop
      vertex 17.3526 -10.4611 15
      vertex 13.0224 -7.96114 20
      vertex 17.3526 -10.4611 20
    endloop
  endfacet
  facet normal -0.866025 0.5 0
    outer loop
      vertex 13 -8 15
      vertex 13 -8 20
      vertex 13.0224 -7.96114 15
    endloop
  endfacet
  facet normal -0.866025 0.5 0
    outer loop
      vertex 13.0224 -7.96114 15
      vertex 13 -8 20
      vertex 13.0224 -7.96114 20
    endloop
  endfacet
  facet normal 0.866025 0.5 0
    outer loop
      vertex 13 -8 15
      vertex 12.9776 -7.96114 15
      vertex 12.9776 -7.96114 20
    endloop
  endfacet
  facet normal 0.866025 0.5 0
    outer loop
      vertex 13 -8 20
      vertex 13 -8 15
      vertex 12.9776 -7.96114 20
    endloop
  endfacet
  facet normal -0.5 0.866025 0
    outer loop
      vertex 8.64744 -10.4611 15
      vertex 8.64744 -10.4611 20
      vertex 12.9776 -7.96114 15
    endloop
  endfacet
  facet normal -0.5 0.866025 0
    outer loop
      vertex 12.9776 -7.96114 15
      vertex 8.64744 -10.4611 20
      vertex 12.9776 -7.96114 20
    endloop
  endfacet
  facet normal -0.866025 -0.5 0
    outer loop
      vertex 8.64744 -10.4611 15
      vertex 8.66987 -10.5 15
      vertex 8.64744 -10.4611 20
    endloop
  endfacet
  facet normal -0.866025 -0.5 0
    outer loop
      vertex 8.64744 -10.4611 20
      vertex 8.66987 -10.5 15
      vertex 8.66987 -10.5 20
    endloop
  endfacet
  facet normal -0.309017 0.951056 0
    outer loop
      vertex 11.7865 -12.1183 -0.1
      vertex 11.7865 -12.1183 15
      vertex 13.4635 -11.5734 -0.1
    endloop
  endfacet
  facet normal -0.309017 0.951056 0
    outer loop
      vertex 13.4635 -11.5734 -0.1
      vertex 11.7865 -12.1183 15
      vertex 13.4635 -11.5734 15
    endloop
  endfacet
  facet normal -1 0 0
    outer loop
      vertex 11.7865 -13.8817 -0.1
      vertex 11.7865 -13.8817 15
      vertex 11.7865 -12.1183 -0.1
    endloop
  endfacet
  facet normal -1 0 0
    outer loop
      vertex 11.7865 -12.1183 -0.1
      vertex 11.7865 -13.8817 15
      vertex 11.7865 -12.1183 15
    endloop
  endfacet
  facet normal 0.809017 0.587785 0
    outer loop
      vertex 14.5 -13 -0.1
      vertex 13.4635 -11.5734 -0.1
      vertex 13.4635 -11.5734 15
    endloop
  endfacet
  facet normal 0.809017 0.587785 0
    outer loop
      vertex 14.5 -13 15
      vertex 14.5 -13 -0.1
      vertex 13.4635 -11.5734 15
    endloop
  endfacet
  facet normal 0.809017 -0.587785 0
    outer loop
      vertex 13.4635 -14.4266 15
      vertex 13.4635 -14.4266 -0.1
      vertex 14.5 -13 -0.1
    endloop
  endfacet
  facet normal 0.809017 -0.587785 0
    outer loop
      vertex 14.5 -13 15
      vertex 13.4635 -14.4266 15
      vertex 14.5 -13 -0.1
    endloop
  endfacet
  facet normal -0.309017 -0.951056 0
    outer loop
      vertex 11.7865 -13.8817 15
      vertex 11.7865 -13.8817 -0.1
      vertex 13.4635 -14.4266 -0.1
    endloop
  endfacet
  facet normal -0.309017 -0.951056 0
    outer loop
      vertex 13.4635 -14.4266 15
      vertex 11.7865 -13.8817 15
      vertex 13.4635 -14.4266 -0.1
    endloop
  endfacet
  facet normal 0 0 -1
    outer loop
      vertex 11.7865 -13.8817 -0.1
      vertex 11.7865 -12.1183 -0.1
      vertex 13.4635 -14.4266 -0.1
    endloop
  endfacet
  facet normal 0 0 -1
    outer loop
      vertex 13.4635 -14.4266 -0.1
      vertex 11.7865 -12.1183 -0.1
      vertex 13.4635 -11.5734 -0.1
    endloop
  endfacet
  facet normal 0 0 -1
    outer loop
      vertex 13.4635 -14.4266 -0.1
      vertex 13.4635 -11.5734 -0.1
      vertex 14.5 -13 -0.1
    endloop
  endfacet
  facet normal -1 0 0
    outer loop
      vertex 8.625 10.5 15
      vertex 8.625 10.5 20
      vertex 8.625 15.5 15
    endloop
  endfacet
  facet normal -1 0 0
    outer loop
      vertex 8.625 15.5 15
      vertex 8.625 10.5 20
      vertex 8.625 15.5 20
    endloop
  endfacet
  facet normal 0 -1 0
    outer loop
      vertex 8.625 10.5 20
      vertex 8.625 10.5 15
      vertex 8.66987 10.5 15
    endloop
  endfacet
  facet normal 0 -1 0
    outer loop
      vertex 8.66987 10.5 20
      vertex 8.625 10.5 20
      vertex 8.66987 10.5 15
    endloop
  endfacet
  facet normal 0 0 -1
    outer loop
      vertex 8.625 10.5 15
      vertex 8.625 15.5 15
      vertex 8.66987 10.5 15
    endloop
  endfacet
  facet normal 0 0 -1
    outer loop
      vertex 8.66987 10.5 15
      vertex 8.625 15.5 15
      vertex 8.66987 15.5 15
    endloop
  endfacet
  facet normal 0 0 -1
    outer loop
      vertex 8.66987 15.5 15
      vertex 8.64744 15.5389 15
      vertex 12.9776 18.0389 15
    endloop
  endfacet
  facet normal 0 0 -1
    outer loop
      vertex 8.66987 15.5 15
      vertex 12.9776 18.0389 15
      vertex 8.66987 10.5 15
    endloop
  endfacet
  facet normal 0 0 -1
    outer loop
      vertex 8.66987 10.5 15
      vertex 12.9776 18.0389 15
      vertex 13 18 15
    endloop
  endfacet
  facet normal 0 0 -1
    outer loop
      vertex 13 18 15
      vertex 13.0224 18.0389 15
      vertex 17.3526 15.5389 15
    endloop
  endfacet
  facet normal 0 0 -1
    outer loop
      vertex 13.4635 14.4266 15
      vertex 17.375 15.5 15
      vertex 14.5 13 15
    endloop
  endfacet
  facet normal 0 0 -1
    outer loop
      vertex 17.3301 10.5 15
      vertex 17.375 15.5 15
      vertex 17.375 10.5 15
    endloop
  endfacet
  facet normal 0 0 -1
    outer loop
      vertex 14.5 13 15
      vertex 17.375 15.5 15
      vertex 17.3301 10.5 15
    endloop
  endfacet
  facet normal 0 0 -1
    outer loop
      vertex 12.9776 7.96114 15
      vertex 8.66987 10.5 15
      vertex 13 8 15
    endloop
  endfacet
  facet normal 0 0 -1
    outer loop
      vertex 17.3301 10.5 15
      vertex 17.3526 10.4611 15
      vertex 8.66987 10.5 15
    endloop
  endfacet
  facet normal 0 0 -1
    outer loop
      vertex 17.3526 10.4611 15
      vertex 13.0224 7.96114 15
      vertex 13 8 15
    endloop
  endfacet
  facet normal 0 0 -1
    outer loop
      vertex 13 18 15
      vertex 11.7865 13.8817 15
      vertex 8.66987 10.5 15
    endloop
  endfacet
  facet normal 0 0 -1
    outer loop
      vertex 14.5 13 15
      vertex 17.3301 10.5 15
      vertex 13.4635 11.5734 15
    endloop
  endfacet
  facet normal 0 0 -1
    outer loop
      vertex 13.4635 14.4266 15
      vertex 17.3301 15.5 15
      vertex 17.375 15.5 15
    endloop
  endfacet
  facet normal 0 0 -1
    outer loop
      vertex 8.66987 10.5 15
      vertex 11.7865 12.1183 15
      vertex 13.4635 11.5734 15
    endloop
  endfacet
  facet normal 0 0 -1
    outer loop
      vertex 8.66987 10.5 15
      vertex 13.4635 11.5734 15
      vertex 17.3301 10.5 15
    endloop
  endfacet
  facet normal 0 0 -1
    outer loop
      vertex 13.4635 14.4266 15
      vertex 17.3526 15.5389 15
      vertex 17.3301 15.5 15
    endloop
  endfacet
  facet normal 0 0 -1
    outer loop
      vertex 13 18 15
      vertex 17.3526 15.5389 15
      vertex 13.4635 14.4266 15
    endloop
  endfacet
  facet normal 0 0 -1
    outer loop
      vertex 13 18 15
      vertex 13.4635 14.4266 15
      vertex 11.7865 13.8817 15
    endloop
  endfacet
  facet normal 0 0 -1
    outer loop
      vertex 8.66987 10.5 15
      vertex 17.3526 10.4611 15
      vertex 13 8 15
    endloop
  endfacet
  facet normal 0 0 -1
    outer loop
      vertex 11.7865 12.1183 15
      vertex 8.66987 10.5 15
      vertex 11.7865 13.8817 15
    endloop
  endfacet
  facet normal 0 0 -1
    outer loop
      vertex 8.66987 10.5 15
      vertex 12.9776 7.96114 15
      vertex 8.64744 10.4611 15
    endloop
  endfacet
  facet normal 0 1 0
    outer loop
      vertex 8.625 15.5 15
      vertex 8.625 15.5 20
      vertex 8.66987 15.5 15
    endloop
  endfacet
  facet normal 0 1 0
    outer loop
      vertex 8.66987 15.5 15
      vertex 8.625 15.5 20
      vertex 8.66987 15.5 20
    endloop
  endfacet
  facet normal 0 0 1
    outer loop
      vertex 13 8 20
      vertex 17.3526 10.4611 20
      vertex 8.625 15.5 20
    endloop
  endfacet
  facet normal 0 0 1
    outer loop
      vertex 8.625 15.5 20
      vertex 8.625 10.5 20
      vertex 8.66987 10.5 20
    endloop
  endfacet
  facet normal 0 0 1
    outer loop
      vertex 12.9776 7.96114 20
      vertex 8.625 15.5 20
      vertex 8.66987 10.5 20
    endloop
  endfacet
  facet normal 0 0 1
    outer loop
      vertex 8.64744 10.4611 20
      vertex 12.9776 7.96114 20
      vertex 8.66987 10.5 20
    endloop
  endfacet
  facet normal 0 0 1
    outer loop
      vertex 12.9776 7.96114 20
      vertex 13 8 20
      vertex 8.625 15.5 20
    endloop
  endfacet
  facet normal 0 0 1
    outer loop
      vertex 17.3301 10.5 20
      vertex 17.375 10.5 20
      vertex 8.625 15.5 20
    endloop
  endfacet
  facet normal 0 0 1
    outer loop
      vertex 13.0224 7.96114 20
      vertex 17.3526 10.4611 20
      vertex 13 8 20
    endloop
  endfacet
  facet normal 0 0 1
    outer loop
      vertex 17.3526 10.4611 20
      vertex 17.3301 10.5 20
      vertex 8.625 15.5 20
    endloop
  endfacet
  facet normal 0 0 1
    outer loop
      vertex 17.375 10.5 20
      vertex 17.3301 15.5 20
      vertex 8.66987 15.5 20
    endloop
  endfacet
  facet normal 0 0 1
    outer loop
      vertex 17.375 10.5 20
      vertex 17.375 15.5 20
      vertex 17.3301 15.5 20
    endloop
  endfacet
  facet normal 0 0 1
    outer loop
      vertex 13 18 20
      vertex 17.3526 15.5389 20
      vertex 13.0224 18.0389 20
    endloop
  endfacet
  facet normal 0 0 1
    outer loop
      vertex 8.64744 15.5389 20
      vertex 13 18 20
      vertex 12.9776 18.0389 20
    endloop
  endfacet
  facet normal 0 0 1
    outer loop
      vertex 17.375 10.5 20
      vertex 8.66987 15.5 20
      vertex 8.625 15.5 20
    endloop
  endfacet
  facet normal 0 0 1
    outer loop
      vertex 17.3301 15.5 20
      vertex 17.3526 15.5389 20
      vertex 8.66987 15.5 20
    endloop
  endfacet
  facet normal 0 0 1
    outer loop
      vertex 8.64744 15.5389 20
      vertex 17.3526 15.5389 20
      vertex 13 18 20
    endloop
  endfacet
  facet normal 0 0 1
    outer loop
      vertex 8.64744 15.5389 20
      vertex 8.66987 15.5 20
      vertex 17.3526 15.5389 20
    endloop
  endfacet
  facet normal -0.866025 0.5 0
    outer loop
      vertex 8.64744 10.4611 15
      vertex 8.64744 10.4611 20
      vertex 8.66987 10.5 15
    endloop
  endfacet
  facet normal -0.866025 0.5 0
    outer loop
      vertex 8.66987 10.5 15
      vertex 8.64744 10.4611 20
      vertex 8.66987 10.5 20
    endloop
  endfacet
  facet normal -0.5 -0.866025 0
    outer loop
      vertex 8.64744 10.4611 20
      vertex 8.64744 10.4611 15
      vertex 12.9776 7.96114 15
    endloop
  endfacet
  facet normal -0.5 -0.866025 0
    outer loop
      vertex 12.9776 7.96114 20
      vertex 8.64744 10.4611 20
      vertex 12.9776 7.96114 15
    endloop
  endfacet
  facet normal 0.866025 -0.5 0
    outer loop
      vertex 12.9776 7.96114 20
      vertex 12.9776 7.96114 15
      vertex 13 8 15
    endloop
  endfacet
  facet normal 0.866025 -0.5 0
    outer loop
      vertex 13 8 20
      vertex 12.9776 7.96114 20
      vertex 13 8 15
    endloop
  endfacet
  facet normal -0.866025 -0.5 0
    outer loop
      vertex 13 8 15
      vertex 13.0224 7.96114 15
      vertex 13 8 20
    endloop
  endfacet
  facet normal -0.866025 -0.5 0
    outer loop
      vertex 13 8 20
      vertex 13.0224 7.96114 15
      vertex 13.0224 7.96114 20
    endloop
  endfacet
  facet normal 0.5 -0.866025 0
    outer loop
      vertex 13.0224 7.96114 20
      vertex 13.0224 7.96114 15
      vertex 17.3526 10.4611 15
    endloop
  endfacet
  facet normal 0.5 -0.866025 0
    outer loop
      vertex 17.3526 10.4611 20
      vertex 13.0224 7.96114 20
      vertex 17.3526 10.4611 15
    endloop
  endfacet
  facet normal 0.866025 0.5 0
    outer loop
      vertex 17.3526 10.4611 15
      vertex 17.3301 10.5 15
      vertex 17.3301 10.5 20
    endloop
  endfacet
  facet normal 0.866025 0.5 0
    outer loop
      vertex 17.3526 10.4611 20
      vertex 17.3526 10.4611 15
      vertex 17.3301 10.5 20
    endloop
  endfacet
  facet normal 0 -1 0
    outer loop
      vertex 17.3301 10.5 20
      vertex 17.3301 10.5 15
      vertex 17.375 10.5 15
    endloop
  endfacet
  facet normal 0 -1 0
    outer loop
      vertex 17.375 10.5 20
      vertex 17.3301 10.5 20
      vertex 17.375 10.5 15
    endloop
  endfacet
  facet normal 1 0 0
    outer loop
      vertex 17.375 10.5 20
      vertex 17.375 10.5 15
      vertex 17.375 15.5 15
    endloop
  endfacet
  facet normal 1 0 0
    outer loop
      vertex 17.375 15.5 20
      vertex 17.375 10.5 20
      vertex 17.375 15.5 15
    endloop
  endfacet
  facet normal 0 1 0
    outer loop
      vertex 17.3301 15.5 15
      vertex 17.3301 15.5 20
      vertex 17.375 15.5 15
    endloop
  endfacet
  facet normal 0 1 0
    outer loop
      vertex 17.375 15.5 15
      vertex 17.3301 15.5 20
      vertex 17.375 15.5 20
    endloop
  endfacet
  facet normal 0.866025 -0.5 0
    outer loop
      vertex 17.3301 15.5 20
      vertex 17.3301 15.5 15
      vertex 17.3526 15.5389 15
    endloop
  endfacet
  facet normal 0.866025 -0.5 0
    outer loop
      vertex 17.3526 15.5389 20
      vertex 17.3301 15.5 20
      vertex 17.3526 15.5389 15
    endloop
  endfacet
  facet normal 0.5 0.866025 0
    outer loop
      vertex 13.0224 18.0389 15
      vertex 13.0224 18.0389 20
      vertex 17.3526 15.5389 15
    endloop
  endfacet
  facet normal 0.5 0.866025 0
    outer loop
      vertex 17.3526 15.5389 15
      vertex 13.0224 18.0389 20
      vertex 17.3526 15.5389 20
    endloop
  endfacet
  facet normal -0.866025 0.5 0
    outer loop
      vertex 13 18 15
      vertex 13 18 20
      vertex 13.0224 18.0389 15
    endloop
  endfacet
  facet normal -0.866025 0.5 0
    outer loop
      vertex 13.0224 18.0389 15
      vertex 13 18 20
      vertex 13.0224 18.0389 20
    endloop
  endfacet
  facet normal 0.866025 0.5 0
    outer loop
      vertex 13 18 15
      vertex 12.9776 18.0389 15
      vertex 12.9776 18.0389 20
    endloop
  endfacet
  facet normal 0.866025 0.5 0
    outer loop
      vertex 13 18 20
      vertex 13 18 15
      vertex 12.9776 18.0389 20
    endloop
  endfacet
  facet normal -0.5 0.866025 0
    outer loop
      vertex 8.64744 15.5389 15
      vertex 8.64744 15.5389 20
      vertex 12.9776 18.0389 15
    endloop
  endfacet
  facet normal -0.5 0.866025 0
    outer loop
      vertex 12.9776 18.0389 15
      vertex 8.64744 15.5389 20
      vertex 12.9776 18.0389 20
    endloop
  endfacet
  facet normal -0.866025 -0.5 0
    outer loop
      vertex 8.64744 15.5389 15
      vertex 8.66987 15.5 15
      vertex 8.64744 15.5389 20
    endloop
  endfacet
  facet normal -0.866025 -0.5 0
    outer loop
      vertex 8.64744 15.5389 20
      vertex 8.66987 15.5 15
      vertex 8.66987 15.5 20
    endloop
  endfacet
  facet normal -0.309017 0.951056 0
    outer loop
      vertex 11.7865 13.8817 -0.1
      vertex 11.7865 13.8817 15
      vertex 13.4635 14.4266 -0.1
    endloop
  endfacet
  facet normal -0.309017 0.951056 0
    outer loop
      vertex 13.4635 14.4266 -0.1
      vertex 11.7865 13.8817 15
      vertex 13.4635 14.4266 15
    endloop
  endfacet
  facet normal -1 0 0
    outer loop
      vertex 11.7865 12.1183 -0.1
      vertex 11.7865 12.1183 15
      vertex 11.7865 13.8817 -0.1
    endloop
  endfacet
  facet normal -1 0 0
    outer loop
      vertex 11.7865 13.8817 -0.1
      vertex 11.7865 12.1183 15
      vertex 11.7865 13.8817 15
    endloop
  endfacet
  facet normal 0.809017 0.587785 0
    outer loop
      vertex 14.5 13 -0.1
      vertex 13.4635 14.4266 -0.1
      vertex 13.4635 14.4266 15
    endloop
  endfacet
  facet normal 0.809017 0.587785 0
    outer loop
      vertex 14.5 13 15
      vertex 14.5 13 -0.1
      vertex 13.4635 14.4266 15
    endloop
  endfacet
  facet normal 0.809017 -0.587785 0
    outer loop
      vertex 13.4635 11.5734 15
      vertex 13.4635 11.5734 -0.1
      vertex 14.5 13 -0.1
    endloop
  endfacet
  facet normal 0.809017 -0.587785 0
    outer loop
      vertex 14.5 13 15
      vertex 13.4635 11.5734 15
      vertex 14.5 13 -0.1
    endloop
  endfacet
  facet normal -0.309017 -0.951056 0
    outer loop
      vertex 11.7865 12.1183 15
      vertex 11.7865 12.1183 -0.1
      vertex 13.4635 11.5734 -0.1
    endloop
  endfacet
  facet normal -0.309017 -0.951056 0
    outer loop
      vertex 13.4635 11.5734 15
      vertex 11.7865 12.1183 15
      vertex 13.4635 11.5734 -0.1
    endloop
  endfacet
  facet normal 0 0 -1
    outer loop
      vertex 11.7865 12.1183 -0.1
      vertex 11.7865 13.8817 -0.1
      vertex 13.4635 11.5734 -0.1
    endloop
  endfacet
  facet normal 0 0 -1
    outer loop
      vertex 13.4635 11.5734 -0.1
      vertex 11.7865 13.8817 -0.1
      vertex 13.4635 14.4266 -0.1
    endloop
  endfacet
  facet normal 0 0 -1
    outer loop
      vertex 13.4635 11.5734 -0.1
      vertex 13.4635 14.4266 -0.1
      vertex 14.5 13 -0.1
    endloop
  endfacet
  facet normal 0 0 -1
    outer loop
      vertex -12 0 -0.1
      vertex -11.7378 2.49494 -0.1
      vertex -11.7378 -2.49494 -0.1
    endloop
  endfacet
  facet normal 0 0 -1
    outer loop
      vertex -11.7378 -2.49494 -0.1
      vertex -11.7378 2.49494 -0.1
      vertex -10.9625 4.88084 -0.1
    endloop
  endfacet
  facet normal 0 0 -1
    outer loop
      vertex -11.7378 -2.49494 -0.1
      vertex -10.9625 4.88084 -0.1
      vertex -9.7082 7.05342 -0.1
    endloop
  endfacet
  facet normal 0 0 -1
    outer loop
      vertex -11.7378 -2.49494 -0.1
      vertex -9.7082 7.05342 -0.1
      vertex -8.02957 8.91774 -0.1
    endloop
  endfacet
  facet normal 0 0 -1
    outer loop
      vertex -11.7378 -2.49494 -0.1
      vertex -8.02957 8.91774 -0.1
      vertex -6 10.3923 -0.1
    endloop
  endfacet
  facet normal 0 0 -1
    outer loop
      vertex -11.7378 -2.49494 -0.1
      vertex -6 10.3923 -0.1
      vertex -3.7082 11.4127 -0.1
    endloop
  endfacet
  facet normal 0 0 -1
    outer loop
      vertex -11.7378 -2.49494 -0.1
      vertex -3.7082 11.4127 -0.1
      vertex -1.25434 11.9343 -0.1
    endloop
  endfacet
  facet normal 0 0 -1
    outer loop
      vertex -11.7378 -2.49494 -0.1
      vertex -1.25434 11.9343 -0.1
      vertex 1.25434 11.9343 -0.1
    endloop
  endfacet
  facet normal 0 0 -1
    outer loop
      vertex -11.7378 -2.49494 -0.1
      vertex 1.25434 11.9343 -0.1
      vertex 3.7082 11.4127 -0.1
    endloop
  endfacet
  facet normal 0 0 -1
    outer loop
      vertex -11.7378 -2.49494 -0.1
      vertex 3.7082 11.4127 -0.1
      vertex 6 10.3923 -0.1
    endloop
  endfacet
  facet normal 0 0 -1
    outer loop
      vertex -11.7378 -2.49494 -0.1
      vertex 6 10.3923 -0.1
      vertex 8.02957 8.91774 -0.1
    endloop
  endfacet
  facet normal 0 0 -1
    outer loop
      vertex -11.7378 -2.49494 -0.1
      vertex 8.02957 8.91774 -0.1
      vertex 9.7082 7.05342 -0.1
    endloop
  endfacet
  facet normal 0 0 -1
    outer loop
      vertex -11.7378 -2.49494 -0.1
      vertex 9.7082 7.05342 -0.1
      vertex 10.9625 4.88084 -0.1
    endloop
  endfacet
  facet normal 0 0 -1
    outer loop
      vertex -11.7378 -2.49494 -0.1
      vertex 10.9625 4.88084 -0.1
      vertex 11.7378 2.49494 -0.1
    endloop
  endfacet
  facet normal 0 0 -1
    outer loop
      vertex -11.7378 -2.49494 -0.1
      vertex 11.7378 2.49494 -0.1
      vertex 12 0 -0.1
    endloop
  endfacet
  facet normal 0 0 -1
    outer loop
      vertex -11.7378 -2.49494 -0.1
      vertex 12 0 -0.1
      vertex 11.7378 -2.49494 -0.1
    endloop
  endfacet
  facet normal 0 0 -1
    outer loop
      vertex -11.7378 -2.49494 -0.1
      vertex 11.7378 -2.49494 -0.1
      vertex 10.9625 -4.88084 -0.1
    endloop
  endfacet
  facet normal 0 0 -1
    outer loop
      vertex -11.7378 -2.49494 -0.1
      vertex 10.9625 -4.88084 -0.1
      vertex 9.7082 -7.05342 -0.1
    endloop
  endfacet
  facet normal 0 0 -1
    outer loop
      vertex -11.7378 -2.49494 -0.1
      vertex 9.7082 -7.05342 -0.1
      vertex 8.02957 -8.91774 -0.1
    endloop
  endfacet
  facet normal 0 0 -1
    outer loop
      vertex -11.7378 -2.49494 -0.1
      vertex 8.02957 -8.91774 -0.1
      vertex 6 -10.3923 -0.1
    endloop
  endfacet
  facet normal 0 0 -1
    outer loop
      vertex -11.7378 -2.49494 -0.1
      vertex 6 -10.3923 -0.1
      vertex 3.7082 -11.4127 -0.1
    endloop
  endfacet
  facet normal 0 0 -1
    outer loop
      vertex -11.7378 -2.49494 -0.1
      vertex 3.7082 -11.4127 -0.1
      vertex 1.25434 -11.9343 -0.1
    endloop
  endfacet
  facet normal 0 0 -1
    outer loop
      vertex -11.7378 -2.49494 -0.1
      vertex 1.25434 -11.9343 -0.1
      vertex -1.25434 -11.9343 -0.1
    endloop
  endfacet
  facet normal 0 0 -1
    outer loop
      vertex -11.7378 -2.49494 -0.1
      vertex -1.25434 -11.9343 -0.1
      vertex -3.7082 -11.4127 -0.1
    endloop
  endfacet
  facet normal 0 0 -1
    outer loop
      vertex -11.7378 -2.49494 -0.1
      vertex -3.7082 -11.4127 -0.1
      vertex -6 -10.3923 -0.1
    endloop
  endfacet
  facet normal 0 0 -1
    outer loop
      vertex -11.7378 -2.49494 -0.1
      vertex -6 -10.3923 -0.1
      vertex -8.02957 -8.91774 -0.1
    endloop
  endfacet
  facet normal 0 0 -1
    outer loop
      vertex -11.7378 -2.49494 -0.1
      vertex -8.02957 -8.91774 -0.1
      vertex -9.7082 -7.05342 -0.1
    endloop
  endfacet
  facet normal 0 0 -1
    outer loop
      vertex -11.7378 -2.49494 -0.1
      vertex -9.7082 -7.05342 -0.1
      vertex -10.9625 -4.88084 -0.1
    endloop
  endfacet
  facet normal -0.994522 0.104529 0
    outer loop
      vertex -12 0 -0.1
      vertex -12 0 1.9
      vertex -11.7378 2.49494 -0.1
    endloop
  endfacet
  facet normal -0.994522 0.104529 0
    outer loop
      vertex -11.7378 2.49494 -0.1
      vertex -12 0 1.9
      vertex -11.7378 2.49494 1.9
    endloop
  endfacet
  facet normal -0.994522 -0.104529 0
    outer loop
      vertex -12 0 -0.1
      vertex -11.7378 -2.49494 -0.1
      vertex -12 0 1.9
    endloop
  endfacet
  facet normal -0.994522 -0.104529 0
    outer loop
      vertex -12 0 1.9
      vertex -11.7378 -2.49494 -0.1
      vertex -11.7378 -2.49494 1.9
    endloop
  endfacet
  facet normal -0.951057 -0.309017 0
    outer loop
      vertex -11.7378 -2.49494 -0.1
      vertex -10.9625 -4.88084 -0.1
      vertex -11.7378 -2.49494 1.9
    endloop
  endfacet
  facet normal -0.951057 -0.309017 0
    outer loop
      vertex -11.7378 -2.49494 1.9
      vertex -10.9625 -4.88084 -0.1
      vertex -10.9625 -4.88084 1.9
    endloop
  endfacet
  facet normal -0.866025 -0.5 0
    outer loop
      vertex -10.9625 -4.88084 -0.1
      vertex -9.7082 -7.05342 -0.1
      vertex -10.9625 -4.88084 1.9
    endloop
  endfacet
  facet normal -0.866025 -0.5 0
    outer loop
      vertex -10.9625 -4.88084 1.9
      vertex -9.7082 -7.05342 -0.1
      vertex -9.7082 -7.05342 1.9
    endloop
  endfacet
  facet normal -0.743145 -0.669131 0
    outer loop
      vertex -9.7082 -7.05342 -0.1
      vertex -8.02957 -8.91774 -0.1
      vertex -9.7082 -7.05342 1.9
    endloop
  endfacet
  facet normal -0.743145 -0.669131 0
    outer loop
      vertex -9.7082 -7.05342 1.9
      vertex -8.02957 -8.91774 -0.1
      vertex -8.02957 -8.91774 1.9
    endloop
  endfacet
  facet normal -0.587785 -0.809017 0
    outer loop
      vertex -8.02957 -8.91774 1.9
      vertex -8.02957 -8.91774 -0.1
      vertex -6 -10.3923 -0.1
    endloop
  endfacet
  facet normal -0.587785 -0.809017 0
    outer loop
      vertex -6 -10.3923 1.9
      vertex -8.02957 -8.91774 1.9
      vertex -6 -10.3923 -0.1
    endloop
  endfacet
  facet normal -0.406737 -0.913546 0
    outer loop
      vertex -6 -10.3923 1.9
      vertex -6 -10.3923 -0.1
      vertex -3.7082 -11.4127 -0.1
    endloop
  endfacet
  facet normal -0.406737 -0.913546 0
    outer loop
      vertex -3.7082 -11.4127 1.9
      vertex -6 -10.3923 1.9
      vertex -3.7082 -11.4127 -0.1
    endloop
  endfacet
  facet normal -0.207912 -0.978148 0
    outer loop
      vertex -3.7082 -11.4127 1.9
      vertex -3.7082 -11.4127 -0.1
      vertex -1.25434 -11.9343 -0.1
    endloop
  endfacet
  facet normal -0.207912 -0.978148 0
    outer loop
      vertex -1.25434 -11.9343 1.9
      vertex -3.7082 -11.4127 1.9
      vertex -1.25434 -11.9343 -0.1
    endloop
  endfacet
  facet normal 0 -1 0
    outer loop
      vertex -1.25434 -11.9343 1.9
      vertex -1.25434 -11.9343 -0.1
      vertex 1.25434 -11.9343 -0.1
    endloop
  endfacet
  facet normal 0 -1 0
    outer loop
      vertex 1.25434 -11.9343 1.9
      vertex -1.25434 -11.9343 1.9
      vertex 1.25434 -11.9343 -0.1
    endloop
  endfacet
  facet normal 0.207912 -0.978148 0
    outer loop
      vertex 1.25434 -11.9343 1.9
      vertex 1.25434 -11.9343 -0.1
      vertex 3.7082 -11.4127 -0.1
    endloop
  endfacet
  facet normal 0.207912 -0.978148 0
    outer loop
      vertex 3.7082 -11.4127 1.9
      vertex 1.25434 -11.9343 1.9
      vertex 3.7082 -11.4127 -0.1
    endloop
  endfacet
  facet normal 0.406737 -0.913546 0
    outer loop
      vertex 3.7082 -11.4127 1.9
      vertex 3.7082 -11.4127 -0.1
      vertex 6 -10.3923 -0.1
    endloop
  endfacet
  facet normal 0.406737 -0.913546 0
    outer loop
      vertex 6 -10.3923 1.9
      vertex 3.7082 -11.4127 1.9
      vertex 6 -10.3923 -0.1
    endloop
  endfacet
  facet normal 0.587785 -0.809017 0
    outer loop
      vertex 6 -10.3923 1.9
      vertex 6 -10.3923 -0.1
      vertex 8.02957 -8.91774 -0.1
    endloop
  endfacet
  facet normal 0.587785 -0.809017 0
    outer loop
      vertex 8.02957 -8.91774 1.9
      vertex 6 -10.3923 1.9
      vertex 8.02957 -8.91774 -0.1
    endloop
  endfacet
  facet normal 0.743145 -0.669131 0
    outer loop
      vertex 8.02957 -8.91774 1.9
      vertex 8.02957 -8.91774 -0.1
      vertex 9.7082 -7.05342 -0.1
    endloop
  endfacet
  facet normal 0.743145 -0.669131 0
    outer loop
      vertex 9.7082 -7.05342 1.9
      vertex 8.02957 -8.91774 1.9
      vertex 9.7082 -7.05342 -0.1
    endloop
  endfacet
  facet normal 0.866025 -0.5 0
    outer loop
      vertex 9.7082 -7.05342 1.9
      vertex 9.7082 -7.05342 -0.1
      vertex 10.9625 -4.88084 -0.1
    endloop
  endfacet
  facet normal 0.866025 -0.5 0
    outer loop
      vertex 10.9625 -4.88084 1.9
      vertex 9.7082 -7.05342 1.9
      vertex 10.9625 -4.88084 -0.1
    endloop
  endfacet
  facet normal 0.951057 -0.309017 0
    outer loop
      vertex 10.9625 -4.88084 1.9
      vertex 10.9625 -4.88084 -0.1
      vertex 11.7378 -2.49494 -0.1
    endloop
  endfacet
  facet normal 0.951057 -0.309017 0
    outer loop
      vertex 11.7378 -2.49494 1.9
      vertex 10.9625 -4.88084 1.9
      vertex 11.7378 -2.49494 -0.1
    endloop
  endfacet
  facet normal 0.994522 -0.104529 0
    outer loop
      vertex 11.7378 -2.49494 1.9
      vertex 11.7378 -2.49494 -0.1
      vertex 12 0 -0.1
    endloop
  endfacet
  facet normal 0.994522 -0.104529 0
    outer loop
      vertex 12 0 1.9
      vertex 11.7378 -2.49494 1.9
      vertex 12 0 -0.1
    endloop
  endfacet
  facet normal 0.994522 0.104529 0
    outer loop
      vertex 12 0 -0.1
      vertex 11.7378 2.49494 -0.1
      vertex 11.7378 2.49494 1.9
    endloop
  endfacet
  facet normal 0.994522 0.104529 0
    outer loop
      vertex 12 0 1.9
      vertex 12 0 -0.1
      vertex 11.7378 2.49494 1.9
    endloop
  endfacet
  facet normal 0.951057 0.309017 0
    outer loop
      vertex 11.7378 2.49494 -0.1
      vertex 10.9625 4.88084 -0.1
      vertex 10.9625 4.88084 1.9
    endloop
  endfacet
  facet normal 0.951057 0.309017 0
    outer loop
      vertex 11.7378 2.49494 1.9
      vertex 11.7378 2.49494 -0.1
      vertex 10.9625 4.88084 1.9
    endloop
  endfacet
  facet normal 0.866025 0.5 0
    outer loop
      vertex 10.9625 4.88084 -0.1
      vertex 9.7082 7.05342 -0.1
      vertex 9.7082 7.05342 1.9
    endloop
  endfacet
  facet normal 0.866025 0.5 0
    outer loop
      vertex 10.9625 4.88084 1.9
      vertex 10.9625 4.88084 -0.1
      vertex 9.7082 7.05342 1.9
    endloop
  endfacet
  facet normal 0.743145 0.669131 0
    outer loop
      vertex 9.7082 7.05342 -0.1
      vertex 8.02957 8.91774 -0.1
      vertex 8.02957 8.91774 1.9
    endloop
  endfacet
  facet normal 0.743145 0.669131 0
    outer loop
      vertex 9.7082 7.05342 1.9
      vertex 9.7082 7.05342 -0.1
      vertex 8.02957 8.91774 1.9
    endloop
  endfacet
  facet normal 0.587785 0.809017 0
    outer loop
      vertex 6 10.3923 -0.1
      vertex 6 10.3923 1.9
      vertex 8.02957 8.91774 -0.1
    endloop
  endfacet
  facet normal 0.587785 0.809017 0
    outer loop
      vertex 8.02957 8.91774 -0.1
      vertex 6 10.3923 1.9
      vertex 8.02957 8.91774 1.9
    endloop
  endfacet
  facet normal 0.406737 0.913546 0
    outer loop
      vertex 3.7082 11.4127 -0.1
      vertex 3.7082 11.4127 1.9
      vertex 6 10.3923 -0.1
    endloop
  endfacet
  facet normal 0.406737 0.913546 0
    outer loop
      vertex 6 10.3923 -0.1
      vertex 3.7082 11.4127 1.9
      vertex 6 10.3923 1.9
    endloop
  endfacet
  facet normal 0.207912 0.978148 0
    outer loop
      vertex 1.25434 11.9343 -0.1
      vertex 1.25434 11.9343 1.9
      vertex 3.7082 11.4127 -0.1
    endloop
  endfacet
  facet normal 0.207912 0.978148 0
    outer loop
      vertex 3.7082 11.4127 -0.1
      vertex 1.25434 11.9343 1.9
      vertex 3.7082 11.4127 1.9
    endloop
  endfacet
  facet normal 0 1 0
    outer loop
      vertex -1.25434 11.9343 -0.1
      vertex -1.25434 11.9343 1.9
      vertex 1.25434 11.9343 -0.1
    endloop
  endfacet
  facet normal 0 1 0
    outer loop
      vertex 1.25434 11.9343 -0.1
      vertex -1.25434 11.9343 1.9
      vertex 1.25434 11.9343 1.9
    endloop
  endfacet
  facet normal -0.207912 0.978148 0
    outer loop
      vertex -3.7082 11.4127 -0.1
      vertex -3.7082 11.4127 1.9
      vertex -1.25434 11.9343 -0.1
    endloop
  endfacet
  facet normal -0.207912 0.978148 0
    outer loop
      vertex -1.25434 11.9343 -0.1
      vertex -3.7082 11.4127 1.9
      vertex -1.25434 11.9343 1.9
    endloop
  endfacet
  facet normal -0.406737 0.913546 0
    outer loop
      vertex -6 10.3923 -0.1
      vertex -6 10.3923 1.9
      vertex -3.7082 11.4127 -0.1
    endloop
  endfacet
  facet normal -0.406737 0.913546 0
    outer loop
      vertex -3.7082 11.4127 -0.1
      vertex -6 10.3923 1.9
      vertex -3.7082 11.4127 1.9
    endloop
  endfacet
  facet normal -0.587785 0.809017 0
    outer loop
      vertex -8.02957 8.91774 -0.1
      vertex -8.02957 8.91774 1.9
      vertex -6 10.3923 -0.1
    endloop
  endfacet
  facet normal -0.587785 0.809017 0
    outer loop
      vertex -6 10.3923 -0.1
      vertex -8.02957 8.91774 1.9
      vertex -6 10.3923 1.9
    endloop
  endfacet
  facet normal -0.743145 0.669131 0
    outer loop
      vertex -9.7082 7.05342 -0.1
      vertex -9.7082 7.05342 1.9
      vertex -8.02957 8.91774 -0.1
    endloop
  endfacet
  facet normal -0.743145 0.669131 0
    outer loop
      vertex -8.02957 8.91774 -0.1
      vertex -9.7082 7.05342 1.9
      vertex -8.02957 8.91774 1.9
    endloop
  endfacet
  facet normal -0.866025 0.5 0
    outer loop
      vertex -10.9625 4.88084 -0.1
      vertex -10.9625 4.88084 1.9
      vertex -9.7082 7.05342 -0.1
    endloop
  endfacet
  facet normal -0.866025 0.5 0
    outer loop
      vertex -9.7082 7.05342 -0.1
      vertex -10.9625 4.88084 1.9
      vertex -9.7082 7.05342 1.9
    endloop
  endfacet
  facet normal -0.951057 0.309017 0
    outer loop
      vertex -11.7378 2.49494 -0.1
      vertex -11.7378 2.49494 1.9
      vertex -10.9625 4.88084 -0.1
    endloop
  endfacet
  facet normal -0.951057 0.309017 0
    outer loop
      vertex -10.9625 4.88084 -0.1
      vertex -11.7378 2.49494 1.9
      vertex -10.9625 4.88084 1.9
    endloop
  endfacet
  facet normal 0 0 1
    outer loop
      vertex -11.7378 2.49494 1.9
      vertex -12 0 1.9
      vertex -11.7378 -2.49494 1.9
    endloop
  endfacet
  facet normal 0 0 1
    outer loop
      vertex -9.7082 -7.05342 1.9
      vertex -11.7378 2.49494 1.9
      vertex -10.9625 -4.88084 1.9
    endloop
  endfacet
  facet normal 0 0 1
    outer loop
      vertex -10.9625 -4.88084 1.9
      vertex -11.7378 2.49494 1.9
      vertex -11.7378 -2.49494 1.9
    endloop
  endfacet
  facet normal 0 0 1
    outer loop
      vertex -8.02957 -8.91774 1.9
      vertex -11.7378 2.49494 1.9
      vertex -9.7082 -7.05342 1.9
    endloop
  endfacet
  facet normal 0 0 1
    outer loop
      vertex -6 -10.3923 1.9
      vertex -11.7378 2.49494 1.9
      vertex -8.02957 -8.91774 1.9
    endloop
  endfacet
  facet normal 0 0 1
    outer loop
      vertex -3.7082 -11.4127 1.9
      vertex -11.7378 2.49494 1.9
      vertex -6 -10.3923 1.9
    endloop
  endfacet
  facet normal 0 0 1
    outer loop
      vertex -1.25434 -11.9343 1.9
      vertex -11.7378 2.49494 1.9
      vertex -3.7082 -11.4127 1.9
    endloop
  endfacet
  facet normal 0 0 1
    outer loop
      vertex 1.25434 -11.9343 1.9
      vertex -11.7378 2.49494 1.9
      vertex -1.25434 -11.9343 1.9
    endloop
  endfacet
  facet normal 0 0 1
    outer loop
      vertex 3.7082 -11.4127 1.9
      vertex -11.7378 2.49494 1.9
      vertex 1.25434 -11.9343 1.9
    endloop
  endfacet
  facet normal 0 0 1
    outer loop
      vertex 6 -10.3923 1.9
      vertex -11.7378 2.49494 1.9
      vertex 3.7082 -11.4127 1.9
    endloop
  endfacet
  facet normal 0 0 1
    outer loop
      vertex 8.02957 -8.91774 1.9
      vertex -11.7378 2.49494 1.9
      vertex 6 -10.3923 1.9
    endloop
  endfacet
  facet normal 0 0 1
    outer loop
      vertex -2.29201 -2.64512 1.9
      vertex -11.7378 2.49494 1.9
      vertex 8.02957 -8.91774 1.9
    endloop
  endfacet
  facet normal 0 0 1
    outer loop
      vertex 3.5 0 1.9
      vertex 2.94439 -1.89224 1.9
      vertex 11.7378 -2.49494 1.9
    endloop
  endfacet
  facet normal 0 0 1
    outer loop
      vertex 2.94439 1.89224 1.9
      vertex 3.5 0 1.9
      vertex 12 0 1.9
    endloop
  endfacet
  facet normal 0 0 1
    outer loop
      vertex 9.7082 7.05342 1.9
      vertex -11.7378 2.49494 1.9
      vertex 10.9625 4.88084 1.9
    endloop
  endfacet
  facet normal 0 0 1
    outer loop
      vertex 8.02957 8.91774 1.9
      vertex -11.7378 2.49494 1.9
      vertex 9.7082 7.05342 1.9
    endloop
  endfacet
  facet normal 0 0 1
    outer loop
      vertex 6 10.3923 1.9
      vertex -11.7378 2.49494 1.9
      vertex 8.02957 8.91774 1.9
    endloop
  endfacet
  facet normal 0 0 1
    outer loop
      vertex 3.7082 11.4127 1.9
      vertex -11.7378 2.49494 1.9
      vertex 6 10.3923 1.9
    endloop
  endfacet
  facet normal 0 0 1
    outer loop
      vertex 1.25434 11.9343 1.9
      vertex -11.7378 2.49494 1.9
      vertex 3.7082 11.4127 1.9
    endloop
  endfacet
  facet normal 0 0 1
    outer loop
      vertex -1.25434 11.9343 1.9
      vertex -11.7378 2.49494 1.9
      vertex 1.25434 11.9343 1.9
    endloop
  endfacet
  facet normal 0 0 1
    outer loop
      vertex -3.7082 11.4127 1.9
      vertex -11.7378 2.49494 1.9
      vertex -1.25434 11.9343 1.9
    endloop
  endfacet
  facet normal 0 0 1
    outer loop
      vertex -6 10.3923 1.9
      vertex -11.7378 2.49494 1.9
      vertex -3.7082 11.4127 1.9
    endloop
  endfacet
  facet normal 0 0 1
    outer loop
      vertex -8.02957 8.91774 1.9
      vertex -11.7378 2.49494 1.9
      vertex -6 10.3923 1.9
    endloop
  endfacet
  facet normal 0 0 1
    outer loop
      vertex -9.7082 7.05342 1.9
      vertex -11.7378 2.49494 1.9
      vertex -8.02957 8.91774 1.9
    endloop
  endfacet
  facet normal 0 0 1
    outer loop
      vertex -10.9625 4.88084 1.9
      vertex -11.7378 2.49494 1.9
      vertex -9.7082 7.05342 1.9
    endloop
  endfacet
  facet normal 0 0 1
    outer loop
      vertex -3.35823 0.986064 1.9
      vertex -2.29201 2.64512 1.9
      vertex -11.7378 2.49494 1.9
    endloop
  endfacet
  facet normal 0 0 1
    outer loop
      vertex 2.94439 -1.89224 1.9
      vertex 1.45395 -3.18371 1.9
      vertex 10.9625 -4.88084 1.9
    endloop
  endfacet
  facet normal 0 0 1
    outer loop
      vertex -0.498102 3.46437 1.9
      vertex -11.7378 2.49494 1.9
      vertex -2.29201 2.64512 1.9
    endloop
  endfacet
  facet normal 0 0 1
    outer loop
      vertex 1.45395 3.18371 1.9
      vertex 2.94439 1.89224 1.9
      vertex 11.7378 2.49494 1.9
    endloop
  endfacet
  facet normal 0 0 1
    outer loop
      vertex 10.9625 4.88084 1.9
      vertex -11.7378 2.49494 1.9
      vertex -0.498102 3.46437 1.9
    endloop
  endfacet
  facet normal 0 0 1
    outer loop
      vertex 10.9625 4.88084 1.9
      vertex 1.45395 3.18371 1.9
      vertex 11.7378 2.49494 1.9
    endloop
  endfacet
  facet normal 0 0 1
    outer loop
      vertex 11.7378 2.49494 1.9
      vertex 2.94439 1.89224 1.9
      vertex 12 0 1.9
    endloop
  endfacet
  facet normal 0 0 1
    outer loop
      vertex -0.498102 3.46437 1.9
      vertex 1.45395 3.18371 1.9
      vertex 10.9625 4.88084 1.9
    endloop
  endfacet
  facet normal 0 0 1
    outer loop
      vertex 12 0 1.9
      vertex 3.5 0 1.9
      vertex 11.7378 -2.49494 1.9
    endloop
  endfacet
  facet normal 0 0 1
    outer loop
      vertex 11.7378 -2.49494 1.9
      vertex 2.94439 -1.89224 1.9
      vertex 10.9625 -4.88084 1.9
    endloop
  endfacet
  facet normal 0 0 1
    outer loop
      vertex 10.9625 -4.88084 1.9
      vertex 1.45395 -3.18371 1.9
      vertex 9.7082 -7.05342 1.9
    endloop
  endfacet
  facet normal 0 0 1
    outer loop
      vertex 9.7082 -7.05342 1.9
      vertex -0.498102 -3.46437 1.9
      vertex 8.02957 -8.91774 1.9
    endloop
  endfacet
  facet normal 0 0 1
    outer loop
      vertex 1.45395 -3.18371 1.9
      vertex -0.498102 -3.46437 1.9
      vertex 9.7082 -7.05342 1.9
    endloop
  endfacet
  facet normal 0 0 1
    outer loop
      vertex -0.498102 -3.46437 1.9
      vertex -2.29201 -2.64512 1.9
      vertex 8.02957 -8.91774 1.9
    endloop
  endfacet
  facet normal 0 0 1
    outer loop
      vertex -2.29201 -2.64512 1.9
      vertex -3.35823 -0.986064 1.9
      vertex -11.7378 2.49494 1.9
    endloop
  endfacet
  facet normal 0 0 1
    outer loop
      vertex -3.35823 -0.986064 1.9
      vertex -3.35823 0.986064 1.9
      vertex -11.7378 2.49494 1.9
    endloop
  endfacet
  facet normal -0.841254 -0.54064 0
    outer loop
      vertex -3.35823 -0.986064 1.9
      vertex -2.29201 -2.64512 1.9
      vertex -3.35823 -0.986064 19.9
    endloop
  endfacet
  facet normal -0.841254 -0.54064 0
    outer loop
      vertex -3.35823 -0.986064 19.9
      vertex -2.29201 -2.64512 1.9
      vertex -2.29201 -2.64512 19.9
    endloop
  endfacet
  facet normal -1 0 0
    outer loop
      vertex -3.35823 -0.986064 1.9
      vertex -3.35823 -0.986064 19.9
      vertex -3.35823 0.986064 1.9
    endloop
  endfacet
  facet normal -1 0 0
    outer loop
      vertex -3.35823 0.986064 1.9
      vertex -3.35823 -0.986064 19.9
      vertex -3.35823 0.986064 19.9
    endloop
  endfacet
  facet normal -0.415415 -0.909632 0
    outer loop
      vertex -2.29201 -2.64512 19.9
      vertex -2.29201 -2.64512 1.9
      vertex -0.498102 -3.46437 1.9
    endloop
  endfacet
  facet normal -0.415415 -0.909632 0
    outer loop
      vertex -0.498102 -3.46437 19.9
      vertex -2.29201 -2.64512 19.9
      vertex -0.498102 -3.46437 1.9
    endloop
  endfacet
  facet normal 0.142315 -0.989821 0
    outer loop
      vertex -0.498102 -3.46437 19.9
      vertex -0.498102 -3.46437 1.9
      vertex 1.45395 -3.18371 1.9
    endloop
  endfacet
  facet normal 0.142315 -0.989821 0
    outer loop
      vertex 1.45395 -3.18371 19.9
      vertex -0.498102 -3.46437 19.9
      vertex 1.45395 -3.18371 1.9
    endloop
  endfacet
  facet normal 0.654861 -0.755749 0
    outer loop
      vertex 1.45395 -3.18371 19.9
      vertex 1.45395 -3.18371 1.9
      vertex 2.94439 -1.89224 1.9
    endloop
  endfacet
  facet normal 0.654861 -0.755749 0
    outer loop
      vertex 2.94439 -1.89224 19.9
      vertex 1.45395 -3.18371 19.9
      vertex 2.94439 -1.89224 1.9
    endloop
  endfacet
  facet normal 0.959493 -0.281733 0
    outer loop
      vertex 2.94439 -1.89224 19.9
      vertex 2.94439 -1.89224 1.9
      vertex 3.5 0 1.9
    endloop
  endfacet
  facet normal 0.959493 -0.281733 0
    outer loop
      vertex 3.5 0 19.9
      vertex 2.94439 -1.89224 19.9
      vertex 3.5 0 1.9
    endloop
  endfacet
  facet normal 0.959493 0.281733 0
    outer loop
      vertex 3.5 0 1.9
      vertex 2.94439 1.89224 1.9
      vertex 2.94439 1.89224 19.9
    endloop
  endfacet
  facet normal 0.959493 0.281733 0
    outer loop
      vertex 3.5 0 19.9
      vertex 3.5 0 1.9
      vertex 2.94439 1.89224 19.9
    endloop
  endfacet
  facet normal 0.654861 0.755749 0
    outer loop
      vertex 1.45395 3.18371 1.9
      vertex 1.45395 3.18371 19.9
      vertex 2.94439 1.89224 1.9
    endloop
  endfacet
  facet normal 0.654861 0.755749 0
    outer loop
      vertex 2.94439 1.89224 1.9
      vertex 1.45395 3.18371 19.9
      vertex 2.94439 1.89224 19.9
    endloop
  endfacet
  facet normal 0.142315 0.989821 0
    outer loop
      vertex -0.498102 3.46437 1.9
      vertex -0.498102 3.46437 19.9
      vertex 1.45395 3.18371 1.9
    endloop
  endfacet
  facet normal 0.142315 0.989821 0
    outer loop
      vertex 1.45395 3.18371 1.9
      vertex -0.498102 3.46437 19.9
      vertex 1.45395 3.18371 19.9
    endloop
  endfacet
  facet normal -0.415415 0.909632 0
    outer loop
      vertex -2.29201 2.64512 1.9
      vertex -2.29201 2.64512 19.9
      vertex -0.498102 3.46437 1.9
    endloop
  endfacet
  facet normal -0.415415 0.909632 0
    outer loop
      vertex -0.498102 3.46437 1.9
      vertex -2.29201 2.64512 19.9
      vertex -0.498102 3.46437 19.9
    endloop
  endfacet
  facet normal -0.841254 0.54064 0
    outer loop
      vertex -3.35823 0.986064 1.9
      vertex -3.35823 0.986064 19.9
      vertex -2.29201 2.64512 1.9
    endloop
  endfacet
  facet normal -0.841254 0.54064 0
    outer loop
      vertex -2.29201 2.64512 1.9
      vertex -3.35823 0.986064 19.9
      vertex -2.29201 2.64512 19.9
    endloop
  endfacet
  facet normal 0 0 1
    outer loop
      vertex -3.35823 0.986064 19.9
      vertex -3.35823 -0.986064 19.9
      vertex -2.29201 -2.64512 19.9
    endloop
  endfacet
  facet normal 0 0 1
    outer loop
      vertex 1.45395 -3.18371 19.9
      vertex -3.35823 0.986064 19.9
      vertex -0.498102 -3.46437 19.9
    endloop
  endfacet
  facet normal 0 0 1
    outer loop
      vertex -0.498102 -3.46437 19.9
      vertex -3.35823 0.986064 19.9
      vertex -2.29201 -2.64512 19.9
    endloop
  endfacet
  facet normal 0 0 1
    outer loop
      vertex 2.94439 -1.89224 19.9
      vertex -3.35823 0.986064 19.9
      vertex 1.45395 -3.18371 19.9
    endloop
  endfacet
  facet normal 0 0 1
    outer loop
      vertex 3.5 0 19.9
      vertex -3.35823 0.986064 19.9
      vertex 2.94439 -1.89224 19.9
    endloop
  endfacet
  facet normal 0 0 1
    outer loop
      vertex 2.94439 1.89224 19.9
      vertex -3.35823 0.986064 19.9
      vertex 3.5 0 19.9
    endloop
  endfacet
  facet normal 0 0 1
    outer loop
      vertex 1.45395 3.18371 19.9
      vertex -3.35823 0.986064 19.9
      vertex 2.94439 1.89224 19.9
    endloop
  endfacet
  facet normal 0 0 1
    outer loop
      vertex -0.498102 3.46437 19.9
      vertex -3.35823 0.986064 19.9
      vertex 1.45395 3.18371 19.9
    endloop
  endfacet
  facet normal 0 0 1
    outer loop
      vertex -2.29201 2.64512 19.9
      vertex -3.35823 0.986064 19.9
      vertex -0.498102 3.46437 19.9
    endloop
  endfacet
endsolid OpenSCAD_Model
