  0
SECTION
  2
HEADER
  9
$ACADVER
  1
AC1009
  9
$INSBASE
 10
0.0
 20
0.0
 30
0.0
  9
$EXTMIN
 10
0.0
 20
0.0
 30
0.0
  9
$EXTMAX
 10
0.0
 20
0.0
 30
0.0
  0
ENDSEC
  0
SECTION
  2
TABLES
  0
TABLE
  2
VPORT
 70
1
  0
VPORT
  2
*ACTIVE
 70
0
 10
0.0
 20
0.0
 11
1.0
 21
1.0
 12
-5.0
 22
1.0
 13
0.0
 23
0.0
 14
0.1
 24
0.1
 15
0.1
 25
0.1
 16
0.0
 26
0.0
 36
1.0
 17
0.0
 27
0.0
 37
0.0
 40
10.0
 41
1.0
 42
50.0
 43
0.0
 44
0.0
 50
0.0
 51
0.0
 71
0
 72
100
 73
1
 74
1
 75
0
 76
0
 77
0
 78
0
  0
ENDTAB
  0
TABLE
  2
LTYPE
 70
8
  0
LTYPE
  2
CONTINUOUS
 70
0
  3
Solid line
 72
65
 73
0
 40
0.0
  0
LTYPE
  2
DOT
 70
0
  3
. . . . . . .
 72
65
 73
2
 40
0.25
 49
0.0
 49
-0.25
  0
LTYPE
  2
DASHED
 70
0
  3
__ __ __ __ __
 72
65
 73
2
 40
0.8
 49
0.5
 49
-0.3
  0
LTYPE
  2
DASHDOT
 70
0
  3
__ . __ . __ .
 72
65
 73
4
 40
1.0
 49
0.5
 49
-0.25
 49
0.0
 49
-0.25
  0
LTYPE
  2
DIVIDE
 70
0
  3
____ . . ____ . . 
 72
65
 73
6
 40
1.25
 49
0.5
 49
-0.25
 49
0.0
 49
-0.25
 49
0.0
 49
-0.25
  0
LTYPE
  2
BORDER
 70
0
  3
__ __ . __ __ . 
 72
65
 73
6
 40
1.75
 49
0.5
 49
-0.25
 49
0.5
 49
-0.25
 49
0.0
 49
-0.25
  0
LTYPE
  2
HIDDEN
 70
0
  3
__ __ __ __ __
 72
65
 73
2
 40
0.4
 49
0.25
 49
-0.25
  0
LTYPE
  2
CENTER
 70
0
  3
____ _ ____ _ __
 72
65
 73
4
 40
2.0
 49
1.25
 49
-0.25
 49
0.25
 49
-0.25
  0
ENDTAB
  0
TABLE
  2
LAYER
 70
1
  0
LAYER
  2
PYDXF
 70
64
 62
7
  6
continuous
  0
ENDTAB
  0
TABLE
  2
STYLE
 70
1
  0
STYLE
  2
STANDARD
 70
0
 40
0
 41
1.0
 50
0.0
 71
0
 42
1
 3
ARIAL.TTF
 4

  0
ENDTAB
  0
TABLE
  2
VIEW
 70
1
  0
VIEW
  2
BF_TOPVIEW
 70
0
 40
120.0
 10
0.0
 20
0.0
 41
200.0
 11
0.0
 21
0.0
 31
1.0
 12
0.0
 22
0.0
 32
0.0
 42
50.0
 43
0.0
 44
0.0
 50
0.0
 71
0
  0
ENDTAB
  0
ENDSEC
  0
SECTION
  2
BLOCKS
  0
ENDSEC
  0
SECTION
  2
ENTITIES
  0
LINE
  8
0
 10
-0.8826919794082642
 20
4.933430194854736
 30
4.5
 11
-0.8500044941902161
 21
4.954655170440674
 31
4.5
  0
LINE
  8
0
 10
-5.977590084075928
 20
-3.048379898071289
 30
4.5
 11
-5.97859001159668
 21
-3.0378799438476562
 31
4.5
  0
LINE
  8
0
 10
-3.8280999660491943
 20
3.5155999660491943
 30
4.5
 11
-3.840280055999756
 21
3.552104949951172
 31
4.5
  0
LINE
  8
0
 10
4.6118998527526855
 20
4.747369766235352
 30
4.5
 11
4.6115899085998535
 21
4.709090232849121
 31
4.5
  0
LINE
  8
0
 10
0.9196469783782959
 20
4.916645050048828
 30
4.5
 11
0.9554319977760315
 21
4.900290012359619
 31
4.5
  0
LINE
  8
0
 10
5.041989803314209
 20
0.05792560055851936
 30
4.5
 11
5.026764869689941
 21
0.02204905077815056
 31
4.5
  0
LINE
  8
0
 10
2.7245900630950928
 20
4.3549699783325195
 30
4.5
 11
2.7610201835632324
 21
4.367694854736328
 31
4.5
  0
LINE
  8
0
 10
-1.585010051727295
 20
-6.156099796295166
 30
4.5
 11
-1.6068000793457031
 21
-6.188654899597168
 31
4.5
  0
LINE
  8
0
 10
-1.6796400547027588
 20
-6.280059814453125
 30
4.5
 11
-1.7095201015472412
 21
-6.304474830627441
 31
4.5
  0
LINE
  8
0
 10
-6.0843000411987305
 20
1.701254963874817
 30
4.5
 11
-6.044760227203369
 21
1.697119951248169
 31
4.5
  0
LINE
  8
0
 10
5.868434906005859
 20
-2.714395046234131
 30
4.5
 11
5.892980098724365
 21
-2.7446401119232178
 31
4.5
  0
LINE
  8
0
 10
6.538564682006836
 20
1.5071250200271606
 30
4.5
 11
6.538879871368408
 21
1.5066649913787842
 31
4.5
  0
LINE
  8
0
 10
-0.6353124976158142
 20
5.263975143432617
 30
4.5
 11
-0.6261860132217407
 21
5.302609920501709
 31
4.5
  0
LINE
  8
0
 10
1.00478994846344
 20
-4.9853901863098145
 30
4.5
 11
0.9686839580535889
 21
-4.970359802246094
 31
4.5
  0
LINE
  8
0
 10
-6.534780025482178
 20
0.613976001739502
 30
4.5
 11
-6.559624671936035
 21
0.6431000232696533
 31
4.5
  0
LINE
  8
0
 10
2.3036301136016846
 20
-6.329179763793945
 30
4.5
 11
2.139665126800537
 21
-6.373114585876465
 31
4.5
  0
LINE
  8
0
 10
-4.040070056915283
 20
5.3574299812316895
 30
4.5
 11
-4.029900074005127
 21
5.3602399826049805
 31
4.5
  0
LINE
  8
0
 10
-2.4179399013519287
 20
4.367980003356934
 30
4.5
 11
-1.6866859197616577
 21
4.6341352462768555
 31
4.5
  0
LINE
  8
0
 10
1.0377850532531738
 20
-5.004795074462891
 30
4.5
 11
1.00478994846344
 21
-4.9853901863098145
 31
4.5
  0
LINE
  8
0
 10
2.4348299503326416
 20
-4.464900016784668
 30
4.5
 11
2.422029972076416
 21
-4.500974655151367
 31
4.5
  0
LINE
  8
0
 10
5.084129810333252
 20
0.12382599711418152
 30
4.5
 11
5.0630598068237305
 21
0.09087580442428589
 31
4.5
  0
LINE
  8
0
 10
4.682569980621338
 20
1.7588999271392822
 30
4.5
 11
4.7052001953125
 21
1.7259600162506104
 31
4.5
  0
LINE
  8
0
 10
2.457479953765869
 20
-6.257439613342285
 30
4.5
 11
2.3036301136016846
 21
-6.329179763793945
 31
4.5
  0
LINE
  8
0
 10
5.32342004776001
 20
-3.731149911880493
 30
4.5
 11
5.284955024719238
 21
-3.725019931793213
 31
4.5
  0
LINE
  8
0
 10
4.6068549156188965
 20
4.786149978637695
 30
4.5
 11
4.6118998527526855
 21
4.747369766235352
 31
4.5
  0
LINE
  8
0
 10
0.4813689887523651
 20
6.601170063018799
 30
4.5
 11
0.5057364702224731
 21
6.5716447830200195
 31
4.5
  0
LINE
  8
0
 10
-5.930699825286865
 20
-2.8119800090789795
 30
4.5
 11
-5.911839962005615
 21
-2.7783100605010986
 31
4.5
  0
LINE
  8
0
 10
-2.751339912414551
 20
-5.812560081481934
 30
4.5
 11
-2.747109889984131
 21
-5.773614883422852
 31
4.5
  0
LINE
  8
0
 10
2.452354907989502
 20
-4.430580139160156
 30
4.5
 11
2.4348299503326416
 21
-4.464900016784668
 31
4.5
  0
LINE
  8
0
 10
5.550730228424072
 20
-3.6940600872039795
 30
4.5
 11
5.5134100914001465
 21
-3.7057600021362305
 31
4.5
  0
LINE
  8
0
 10
3.5672998428344727
 20
5.214155197143555
 30
4.5
 11
3.5949299335479736
 21
5.242740154266357
 31
4.5
  0
LINE
  8
0
 10
-4.049759864807129
 20
-3.1604700088500977
 30
4.5
 11
-4.088345050811768
 21
-3.1599700450897217
 31
4.5
  0
LINE
  8
0
 10
-6.123839855194092
 20
1.7053899765014648
 30
4.5
 11
-6.0843000411987305
 21
1.701254963874817
 31
4.5
  0
LINE
  8
0
 10
5.362005233764648
 20
-3.730644941329956
 30
4.5
 11
5.32342004776001
 21
-3.731149911880493
 31
4.5
  0
LINE
  8
0
 10
6.5325798988342285
 20
1.5158100128173828
 30
4.5
 11
6.538564682006836
 21
1.5071250200271606
 31
4.5
  0
LINE
  8
0
 10
0.45257800817489624
 20
6.6276350021362305
 30
4.5
 11
0.4813689887523651
 21
6.601170063018799
 31
4.5
  0
LINE
  8
0
 10
-6.505549907684326
 20
0.5887874960899353
 30
4.5
 11
-6.534780025482178
 21
0.613976001739502
 31
4.5
  0
LINE
  8
0
 10
2.611724853515625
 20
-6.185309886932373
 30
4.5
 11
2.611330032348633
 21
-6.185699939727783
 31
4.5
  0
LINE
  8
0
 10
-4.040605068206787
 20
5.357285022735596
 30
4.5
 11
-4.040070056915283
 21
5.3574299812316895
 31
4.5
  0
LINE
  8
0
 10
4.601809978485107
 20
4.824930191040039
 30
4.5
 11
4.6068549156188965
 21
4.786149978637695
 31
4.5
  0
LINE
  8
0
 10
-2.4558699131011963
 20
4.357510089874268
 30
4.5
 11
-2.4179399013519287
 21
4.367980003356934
 31
4.5
  0
LINE
  8
0
 10
-4.213484764099121
 20
4.05511999130249
 30
4.5
 11
-4.492129802703857
 21
4.386360168457031
 31
4.5
  0
LINE
  8
0
 10
-4.515480041503906
 20
4.418535232543945
 30
4.5
 11
-4.538829803466797
 21
4.450709819793701
 31
4.5
  0
LINE
  8
0
 10
-5.6373701095581055
 20
-3.646440029144287
 30
4.5
 11
-5.637820243835449
 21
-3.6461150646209717
 31
4.5
  0
LINE
  8
0
 10
4.659939765930176
 20
1.7918399572372437
 30
4.5
 11
4.682569980621338
 21
1.7588999271392822
 31
4.5
  0
LINE
  8
0
 10
5.976554870605469
 20
-2.998960018157959
 30
4.5
 11
5.97859001159668
 21
-3.0378799438476562
 31
4.5
  0
LINE
  8
0
 10
1.0707800388336182
 20
-5.024199962615967
 30
4.5
 11
1.0377850532531738
 21
-5.004795074462891
 31
4.5
  0
LINE
  8
0
 10
-5.637820243835449
 20
-3.6461150646209717
 30
4.5
 11
-5.638269901275635
 21
-3.6457901000976562
 31
4.5
  0
LINE
  8
0
 10
-2.7507050037384033
 20
-5.851505279541016
 30
4.5
 11
-2.751339912414551
 21
-5.812560081481934
 31
4.5
  0
LINE
  8
0
 10
-4.012010097503662
 20
-3.1668150424957275
 30
4.5
 11
-4.049759864807129
 21
-3.1604700088500977
 31
4.5
  0
LINE
  8
0
 10
4.88647985458374
 20
1.5847699642181396
 30
4.5
 11
4.92256498336792
 21
1.5710999965667725
 31
4.5
  0
LINE
  8
0
 10
-0.6206039786338806
 20
5.381919860839844
 30
4.5
 11
-0.6211370229721069
 21
5.814774990081787
 31
4.5
  0
LINE
  8
0
 10
-4.780785083770752
 20
-1.960629940032959
 30
4.5
 11
-4.761929988861084
 21
-1.9269599914550781
 31
4.5
  0
LINE
  8
0
 10
2.6121199131011963
 20
-6.184919834136963
 30
4.5
 11
2.611724853515625
 21
-6.185309886932373
 31
4.5
  0
LINE
  8
0
 10
2.611330032348633
 20
-6.185699939727783
 30
4.5
 11
2.457479953765869
 21
-6.257439613342285
 31
4.5
  0
LINE
  8
0
 10
6.662500381469727
 20
0.8308345079421997
 30
4.5
 11
6.662360191345215
 21
0.830295979976654
 31
4.5
  0
LINE
  8
0
 10
6.647845268249512
 20
1.0004814863204956
 30
4.5
 11
6.66264009475708
 21
0.8313729763031006
 31
4.5
  0
LINE
  8
0
 10
4.5561299324035645
 20
4.4858551025390625
 30
4.5
 11
4.538829803466797
 21
4.450709819793701
 31
4.5
  0
LINE
  8
0
 10
-2.493799924850464
 20
4.347040176391602
 30
4.5
 11
-2.4558699131011963
 21
4.357510089874268
 31
4.5
  0
LINE
  8
0
 10
2.4698801040649414
 20
-4.396259784698486
 30
4.5
 11
2.452354907989502
 21
-4.430580139160156
 31
4.5
  0
LINE
  8
0
 10
-0.6233949661254883
 20
5.3422651290893555
 30
4.5
 11
-0.6206039786338806
 21
5.381919860839844
 31
4.5
  0
LINE
  8
0
 10
5.400589942932129
 20
-3.730139970779419
 30
4.5
 11
5.362005233764648
 21
-3.730644941329956
 31
4.5
  0
LINE
  8
0
 10
1.1006650924682617
 20
-5.048614978790283
 30
4.5
 11
1.0707800388336182
 21
-5.024199962615967
 31
4.5
  0
LINE
  8
0
 10
-2.750070095062256
 20
-5.8904500007629395
 30
4.5
 11
-2.7507050037384033
 21
-5.851505279541016
 31
4.5
  0
LINE
  8
0
 10
4.8198699951171875
 20
1.6225199699401855
 30
4.5
 11
4.853175163269043
 21
1.6036449670791626
 31
4.5
  0
LINE
  8
0
 10
0.5301039814949036
 20
6.542119979858398
 30
4.5
 11
0.5498334765434265
 21
6.508955001831055
 31
4.5
  0
LINE
  8
0
 10
-3.974260091781616
 20
-3.1731600761413574
 30
4.5
 11
-4.012010097503662
 21
-3.1668150424957275
 31
4.5
  0
LINE
  8
0
 10
-6.476319789886475
 20
0.5635989904403687
 30
4.5
 11
-6.505549907684326
 21
0.5887874960899353
 31
4.5
  0
LINE
  8
0
 10
2.4949700832366943
 20
4.346610069274902
 30
4.5
 11
2.5336499214172363
 21
4.341855049133301
 31
4.5
  0
LINE
  8
0
 10
4.586150169372559
 20
4.557819843292236
 30
4.5
 11
4.573430061340332
 21
4.520999908447266
 31
4.5
  0
LINE
  8
0
 10
2.5167899131774902
 20
-4.334010124206543
 30
4.5
 11
2.493335008621216
 21
-4.365135192871094
 31
4.5
  0
LINE
  8
0
 10
2.493335008621216
 20
-4.365135192871094
 30
4.5
 11
2.4698801040649414
 21
-4.396259784698486
 31
4.5
  0
LINE
  8
0
 10
-0.9292410016059875
 20
-1.6094900369644165
 30
4.5
 11
-0.5871319770812988
 21
-1.8070100545883179
 31
4.5
  0
LINE
  8
0
 10
2.4564549922943115
 20
4.357295036315918
 30
4.5
 11
2.4949700832366943
 21
4.346610069274902
 31
4.5
  0
LINE
  8
0
 10
-5.034049987792969
 20
1.5420199632644653
 30
4.5
 11
-4.996350288391113
 21
1.54972505569458
 31
4.5
  0
LINE
  8
0
 10
5.438340187072754
 20
-3.72379994392395
 30
4.5
 11
5.400589942932129
 21
-3.730139970779419
 31
4.5
  0
LINE
  8
0
 10
0.5057364702224731
 20
6.5716447830200195
 30
4.5
 11
0.5301039814949036
 21
6.542119979858398
 31
4.5
  0
LINE
  8
0
 10
-5.944079875946045
 20
-2.847839832305908
 30
4.5
 11
-5.930699825286865
 21
-2.8119800090789795
 31
4.5
  0
LINE
  8
0
 10
-6.641824722290039
 20
0.7740005254745483
 30
4.5
 11
-6.657050132751465
 21
0.8098769783973694
 31
4.5
  0
LINE
  8
0
 10
1.1305500268936157
 20
-5.0730299949646
 30
4.5
 11
1.1006650924682617
 21
-5.048614978790283
 31
4.5
  0
LINE
  8
0
 10
-0.5871319770812988
 20
1.8070100545883179
 30
4.5
 11
-0.9292410016059875
 21
1.6094900369644165
 31
4.5
  0
LINE
  8
0
 10
4.9917497634887695
 20
-0.08998990058898926
 30
4.5
 11
4.856619834899902
 21
-0.8563549518585205
 31
4.5
  0
LINE
  8
0
 10
-3.799109935760498
 20
5.35230016708374
 30
4.5
 11
-3.7626800537109375
 21
5.339574813842773
 31
4.5
  0
LINE
  8
0
 10
-4.761929988861084
 20
-1.9269599914550781
 30
4.5
 11
-4.748549938201904
 21
-1.8910949230194092
 31
4.5
  0
LINE
  8
0
 10
4.971179962158203
 20
-2.1535000801086426
 30
4.5
 11
5.346309661865234
 21
-2.369464874267578
 31
4.5
  0
LINE
  8
0
 10
-0.6216700077056885
 20
6.2476301193237305
 30
4.5
 11
-0.618878960609436
 21
6.287290096282959
 31
4.5
  0
LINE
  8
0
 10
-2.413439989089966
 20
-4.806469917297363
 30
4.5
 11
-2.402980089187622
 21
-4.767849922180176
 31
4.5
  0
LINE
  8
0
 10
-2.5724449157714844
 20
-5.251659870147705
 30
4.5
 11
-2.4238998889923096
 21
-4.845089912414551
 31
4.5
  0
LINE
  8
0
 10
-3.911489963531494
 20
3.6917049884796143
 30
4.5
 11
-3.934839963912964
 21
3.7238800525665283
 31
4.5
  0
LINE
  8
0
 10
4.856619834899902
 20
-0.8563549518585205
 30
4.5
 11
4.721489906311035
 21
-1.6227200031280518
 31
4.5
  0
LINE
  8
0
 10
5.369250297546387
 20
0.3131375014781952
 30
4.5
 11
5.330570220947266
 21
0.30288898944854736
 31
4.5
  0
LINE
  8
0
 10
-5.112689971923828
 20
1.538540005683899
 30
4.5
 11
-5.073369979858398
 21
1.5402799844741821
 31
4.5
  0
LINE
  8
0
 10
5.957459926605225
 20
-2.883699893951416
 30
4.5
 11
5.96599006652832
 21
-2.921869993209839
 31
4.5
  0
LINE
  8
0
 10
-0.5871319770812988
 20
-1.8070100545883179
 30
4.5
 11
-0.1942639946937561
 21
-1.8482999801635742
 31
4.5
  0
LINE
  8
0
 10
-3.8743999004364014
 20
5.366199970245361
 30
4.5
 11
-3.83675479888916
 21
5.359250068664551
 31
4.5
  0
LINE
  8
0
 10
5.476089954376221
 20
-3.7174599170684814
 30
4.5
 11
5.438340187072754
 21
-3.72379994392395
 31
4.5
  0
LINE
  8
0
 10
-6.65970516204834
 20
0.8200864791870117
 30
4.5
 11
-6.662360191345215
 21
0.830295979976654
 31
4.5
  0
LINE
  8
0
 10
5.346309661865234
 20
-2.369464874267578
 30
4.5
 11
5.721439838409424
 21
-2.5854299068450928
 31
4.5
  0
LINE
  8
0
 10
6.589115142822266
 20
1.333554983139038
 30
4.5
 11
6.633049964904785
 21
1.1695899963378906
 31
4.5
  0
LINE
  8
0
 10
-0.6211370229721069
 20
5.814774990081787
 30
4.5
 11
-0.6216700077056885
 21
6.2476301193237305
 31
4.5
  0
LINE
  8
0
 10
2.5723299980163574
 20
4.337100028991699
 30
4.5
 11
2.6108150482177734
 21
4.339085102081299
 31
4.5
  0
LINE
  8
0
 10
2.3937900066375732
 20
-4.651340007781982
 30
4.5
 11
2.3927500247955322
 21
-4.689809799194336
 31
4.5
  0
LINE
  8
0
 10
0.8946025371551514
 20
-4.946569919586182
 30
4.5
 11
0.8566269874572754
 21
-4.937809944152832
 31
4.5
  0
LINE
  8
0
 10
0.8174065351486206
 20
-4.934675216674805
 30
4.5
 11
0.778186023235321
 21
-4.931540012359619
 31
4.5
  0
LINE
  8
0
 10
5.330570220947266
 20
0.30288898944854736
 30
4.5
 11
5.294219970703125
 21
0.28780597448349
 31
4.5
  0
LINE
  8
0
 10
-4.9917497634887695
 20
-0.08998990058898926
 30
4.5
 11
-5.0017547607421875
 21
-0.051295600831508636
 31
4.5
  0
LINE
  8
0
 10
4.605074882507324
 20
4.632724761962891
 30
4.5
 11
4.598869800567627
 21
4.594639778137207
 31
4.5
  0
LINE
  8
0
 10
2.4020299911499023
 20
-4.574959754943848
 30
4.5
 11
2.3948299884796143
 21
-4.612870216369629
 31
4.5
  0
LINE
  8
0
 10
-3.8150699138641357
 20
3.36286997795105
 30
4.5
 11
-3.815380096435547
 21
3.4011499881744385
 31
4.5
  0
LINE
  8
0
 10
2.5336499214172363
 20
4.341855049133301
 30
4.5
 11
2.5723299980163574
 21
4.337100028991699
 31
4.5
  0
LINE
  8
0
 10
-4.279099941253662
 20
-3.1935999393463135
 30
4.5
 11
-4.314840316772461
 21
-3.211009979248047
 31
4.5
  0
LINE
  8
0
 10
-6.605534553527832
 20
0.7051739692687988
 30
4.5
 11
-6.6265997886657715
 21
0.7381240129470825
 31
4.5
  0
LINE
  8
0
 10
-0.778186023235321
 20
-4.931540012359619
 30
4.5
 11
-0.818029522895813
 21
-4.934675216674805
 31
4.5
  0
LINE
  8
0
 10
-3.815380096435547
 20
3.4011499881744385
 30
4.5
 11
-3.815690040588379
 21
3.439429998397827
 31
4.5
  0
LINE
  8
0
 10
-1.8053900003433228
 20
-6.367700099945068
 30
4.5
 11
-1.8415000438690186
 21
-6.382724761962891
 31
4.5
  0
LINE
  8
0
 10
-2.7319350242614746
 20
-5.696450233459473
 30
4.5
 11
-2.720989942550659
 21
-5.658229827880859
 31
4.5
  0
LINE
  8
0
 10
-4.573430061340332
 20
4.520999908447266
 30
4.5
 11
-4.586150169372559
 21
4.557819843292236
 31
4.5
  0
LINE
  8
0
 10
-1.4050949811935425
 20
-5.676545143127441
 30
4.5
 11
-1.5526399612426758
 21
-6.083479881286621
 31
4.5
  0
LINE
  8
0
 10
1.9745899438858032
 20
-6.416959762573242
 30
4.5
 11
1.964074969291687
 21
-6.416119575500488
 31
4.5
  0
LINE
  8
0
 10
-4.203060150146484
 20
-3.1707699298858643
 30
4.5
 11
-4.241080284118652
 21
-3.182184934616089
 31
4.5
  0
LINE
  8
0
 10
-5.585454940795898
 20
-3.6763648986816406
 30
4.5
 11
-5.620180130004883
 21
-3.658669948577881
 31
4.5
  0
LINE
  8
0
 10
-1.7357399463653564
 20
-0.7728000283241272
 30
4.5
 11
-1.5035450458526611
 21
-1.0923850536346436
 31
4.5
  0
LINE
  8
0
 10
5.171249866485596
 20
-3.6970200538635254
 30
4.5
 11
5.135509967803955
 21
-3.679610013961792
 31
4.5
  0
LINE
  8
0
 10
-1.739400029182434
 20
-6.328889846801758
 30
4.5
 11
-1.7723950147628784
 21
-6.348295211791992
 31
4.5
  0
LINE
  8
0
 10
-5.974520206451416
 20
-2.9600400924682617
 30
4.5
 11
-5.96599006652832
 21
-2.921869993209839
 31
4.5
  0
LINE
  8
0
 10
5.6373701095581055
 20
-3.646440029144287
 30
4.5
 11
5.628775119781494
 21
-3.652554988861084
 31
4.5
  0
LINE
  8
0
 10
0.5695629715919495
 20
6.475790023803711
 30
4.5
 11
0.5834845304489136
 21
6.439410209655762
 31
4.5
  0
LINE
  8
0
 10
-6.278510093688965
 20
1.685420036315918
 30
4.5
 11
-6.240264892578125
 21
1.6928150653839111
 31
4.5
  0
LINE
  8
0
 10
1.9757000207901
 20
-6.417049884796143
 30
4.5
 11
1.9751449823379517
 21
-6.417004585266113
 31
4.5
  0
LINE
  8
0
 10
0.949999988079071
 20
1.6454499959945679
 30
4.5
 11
0.5743020176887512
 21
1.7675199508666992
 31
4.5
  0
LINE
  8
0
 10
6.657050132751465
 20
0.8098769783973694
 30
4.5
 11
6.641824722290039
 21
0.7740005254745483
 31
4.5
  0
LINE
  8
0
 10
6.417290210723877
 20
1.6203399896621704
 30
4.5
 11
6.448355197906494
 21
1.5965800285339355
 31
4.5
  0
LINE
  8
0
 10
4.213484764099121
 20
4.05511999130249
 30
4.5
 11
3.934839963912964
 21
3.7238800525665283
 31
4.5
  0
LINE
  8
0
 10
-0.618878960609436
 20
6.287290096282959
 30
4.5
 11
-0.6160879731178284
 21
6.3269500732421875
 31
4.5
  0
LINE
  8
0
 10
-0.606747031211853
 20
6.364990234375
 30
4.5
 11
-0.5974060297012329
 21
6.403029918670654
 31
4.5
  0
LINE
  8
0
 10
5.246490001678467
 20
-3.7188899517059326
 30
4.5
 11
5.208869934082031
 21
-3.7079548835754395
 31
4.5
  0
LINE
  8
0
 10
4.780785083770752
 20
-1.960629940032959
 30
4.5
 11
4.79964017868042
 21
-1.9943000078201294
 31
4.5
  0
LINE
  8
0
 10
6.448355197906494
 20
1.5965800285339355
 30
4.5
 11
6.479420185089111
 21
1.5728199481964111
 31
4.5
  0
LINE
  8
0
 10
4.9586501121521
 20
1.5574300289154053
 30
4.5
 11
4.996350288391113
 21
1.54972505569458
 31
4.5
  0
LINE
  8
0
 10
3.847949981689453
 20
3.2107601165771484
 30
4.5
 11
3.8648500442504883
 21
3.175230026245117
 31
4.5
  0
LINE
  8
0
 10
-4.190364837646484
 20
5.256964683532715
 30
4.5
 11
-4.051310062408447
 21
5.354330062866211
 31
4.5
  0
LINE
  8
0
 10
0.9686839580535889
 20
-4.970359802246094
 30
4.5
 11
0.9325780272483826
 21
-4.955329895019531
 31
4.5
  0
LINE
  8
0
 10
-1.5526399612426758
 20
-6.083479881286621
 30
4.5
 11
-1.5688250064849854
 21
-6.119790077209473
 31
4.5
  0
LINE
  8
0
 10
2.6869449615478516
 20
4.348020076751709
 30
4.5
 11
2.7245900630950928
 21
4.3549699783325195
 31
4.5
  0
LINE
  8
0
 10
2.6108150482177734
 20
4.339085102081299
 30
4.5
 11
2.6493000984191895
 21
4.341070175170898
 31
4.5
  0
LINE
  8
0
 10
2.422029972076416
 20
-4.500974655151367
 30
4.5
 11
2.4092299938201904
 21
-4.537049770355225
 31
4.5
  0
LINE
  8
0
 10
1.6978049278259277
 20
-0.7559109926223755
 30
4.5
 11
1.8584799766540527
 21
-0.39503198862075806
 31
4.5
  0
LINE
  8
0
 10
0.5743020176887512
 20
-1.7675199508666992
 30
4.5
 11
0.949999988079071
 21
-1.6454499959945679
 31
4.5
  0
LINE
  8
0
 10
2.674069881439209
 20
-6.107870101928711
 30
4.5
 11
2.6506099700927734
 21
-6.138995170593262
 31
4.5
  0
LINE
  8
0
 10
-4.9586501121521
 20
1.5574300289154053
 30
4.5
 11
-4.92256498336792
 21
1.5710999965667725
 31
4.5
  0
LINE
  8
0
 10
-2.3937900066375732
 20
-4.651340007781982
 30
4.5
 11
-2.3948299884796143
 21
-4.612870216369629
 31
4.5
  0
LINE
  8
0
 10
4.996350288391113
 20
1.54972505569458
 30
4.5
 11
5.034049987792969
 21
1.5420199632644653
 31
4.5
  0
LINE
  8
0
 10
0.3910995125770569
 20
6.6753249168396
 30
4.5
 11
0.423786997795105
 21
6.654099941253662
 31
4.5
  0
LINE
  8
0
 10
0.34881800413131714
 20
6.700934886932373
 30
4.5
 11
0.3584119975566864
 21
6.696549892425537
 31
4.5
  0
LINE
  8
0
 10
-3.6581499576568604
 20
5.289010047912598
 30
4.5
 11
-3.626539945602417
 21
5.265874862670898
 31
4.5
  0
LINE
  8
0
 10
-4.847499847412109
 20
-2.054569959640503
 30
4.5
 11
-4.823570251464844
 21
-2.024435043334961
 31
4.5
  0
LINE
  8
0
 10
4.538829803466797
 20
4.450709819793701
 30
4.5
 11
4.515480041503906
 21
4.418535232543945
 31
4.5
  0
LINE
  8
0
 10
2.4179399013519287
 20
4.367980003356934
 30
4.5
 11
2.4564549922943115
 21
4.357295036315918
 31
4.5
  0
LINE
  8
0
 10
0.0
 20
-4.931540012359619
 30
4.5
 11
-0.778186023235321
 21
-4.931540012359619
 31
4.5
  0
LINE
  8
0
 10
5.026764869689941
 20
0.02204905077815056
 30
4.5
 11
5.011539936065674
 21
-0.013827499933540821
 31
4.5
  0
LINE
  8
0
 10
-0.6261860132217407
 20
5.302609920501709
 30
4.5
 11
-0.6233949661254883
 21
5.3422651290893555
 31
4.5
  0
LINE
  8
0
 10
-3.626539945602417
 20
5.265874862670898
 30
4.5
 11
-3.5949299335479736
 21
5.242740154266357
 31
4.5
  0
LINE
  8
0
 10
-3.831130027770996
 20
-3.231149911880493
 30
4.5
 11
-3.8658549785614014
 21
-3.2134549617767334
 31
4.5
  0
LINE
  8
0
 10
5.9765400886535645
 20
-3.0594348907470703
 30
4.5
 11
5.976490020751953
 21
-3.0599899291992188
 31
4.5
  0
LINE
  8
0
 10
5.892980098724365
 20
-2.7446401119232178
 30
4.5
 11
5.911839962005615
 21
-2.7783100605010986
 31
4.5
  0
LINE
  8
0
 10
-0.6727110147476196
 20
5.153759956359863
 30
4.5
 11
-0.6585749983787537
 21
5.189549922943115
 31
4.5
  0
LINE
  8
0
 10
-4.5561299324035645
 20
4.4858551025390625
 30
4.5
 11
-4.573430061340332
 21
4.520999908447266
 31
4.5
  0
LINE
  8
0
 10
-4.051310062408447
 20
5.354330062866211
 30
4.5
 11
-4.050775051116943
 21
5.354475021362305
 31
4.5
  0
LINE
  8
0
 10
-4.92256498336792
 20
1.5710999965667725
 30
4.5
 11
-4.88647985458374
 21
1.5847699642181396
 31
4.5
  0
LINE
  8
0
 10
-5.042210102081299
 20
0.059151798486709595
 30
4.5
 11
-5.063169956207275
 21
0.09148889780044556
 31
4.5
  0
LINE
  8
0
 10
4.579020023345947
 20
4.89946985244751
 30
4.5
 11
4.590415000915527
 21
4.862199783325195
 31
4.5
  0
LINE
  8
0
 10
-5.868434906005859
 20
-2.714395046234131
 30
4.5
 11
-5.843890190124512
 21
-2.684149980545044
 31
4.5
  0
LINE
  8
0
 10
-6.647845268249512
 20
1.0004814863204956
 30
4.5
 11
-6.633049964904785
 21
1.1695899963378906
 31
4.5
  0
LINE
  8
0
 10
-4.717764854431152
 20
-1.6618850231170654
 30
4.5
 11
-4.721489906311035
 21
-1.6227200031280518
 31
4.5
  0
LINE
  8
0
 10
-5.063169956207275
 20
0.09148889780044556
 30
4.5
 11
-5.084129810333252
 21
0.12382599711418152
 31
4.5
  0
LINE
  8
0
 10
0.5974060297012329
 20
6.403029918670654
 30
4.5
 11
0.606747031211853
 21
6.364990234375
 31
4.5
  0
LINE
  8
0
 10
1.22393000125885
 20
-5.196990013122559
 30
4.5
 11
1.2027649879455566
 21
-5.163809776306152
 31
4.5
  0
LINE
  8
0
 10
0.8838620185852051
 20
4.933000087738037
 30
4.5
 11
0.9196469783782959
 21
4.916645050048828
 31
4.5
  0
LINE
  8
0
 10
-0.5834845304489136
 20
6.439410209655762
 30
4.5
 11
-0.5695629715919495
 21
6.475790023803711
 31
4.5
  0
LINE
  8
0
 10
-6.162930011749268
 20
1.7028000354766846
 30
4.5
 11
-6.123839855194092
 21
1.7053899765014648
 31
4.5
  0
LINE
  8
0
 10
-1.9535599946975708
 20
-6.415279865264893
 30
4.5
 11
-1.964074969291687
 21
-6.416119575500488
 31
4.5
  0
LINE
  8
0
 10
4.876395225524902
 20
-2.081789970397949
 30
4.5
 11
4.905290126800537
 21
-2.1090099811553955
 31
4.5
  0
LINE
  8
0
 10
6.65970516204834
 20
0.8200864791870117
 30
4.5
 11
6.657050132751465
 21
0.8098769783973694
 31
4.5
  0
LINE
  8
0
 10
1.2027649879455566
 20
-5.163809776306152
 30
4.5
 11
1.1815999746322632
 21
-5.130630016326904
 31
4.5
  0
LINE
  8
0
 10
-0.1942639946937561
 20
1.8482999801635742
 30
4.5
 11
0.19860400259494781
 21
1.8895900249481201
 31
4.5
  0
LINE
  8
0
 10
-1.964074969291687
 20
-6.416119575500488
 30
4.5
 11
-1.9745899438858032
 21
-6.416959762573242
 31
4.5
  0
LINE
  8
0
 10
4.590415000915527
 20
4.862199783325195
 30
4.5
 11
4.601809978485107
 21
4.824930191040039
 31
4.5
  0
LINE
  8
0
 10
-2.571160078048706
 20
4.337530136108398
 30
4.5
 11
-2.532480001449585
 21
4.34228515625
 31
4.5
  0
LINE
  8
0
 10
2.4129600524902344
 20
-4.806869983673096
 30
4.5
 11
2.4238998889923096
 21
-4.845089912414551
 31
4.5
  0
LINE
  8
0
 10
-2.402980089187622
 20
-4.767849922180176
 30
4.5
 11
-2.397865056991577
 21
-4.728829860687256
 31
4.5
  0
LINE
  8
0
 10
6.260670185089111
 20
0.4726639986038208
 30
4.5
 11
5.8343000411987305
 21
0.3980250060558319
 31
4.5
  0
LINE
  8
0
 10
4.27084493637085
 20
2.4657700061798096
 30
4.5
 11
4.659939765930176
 21
1.7918399572372437
 31
4.5
  0
LINE
  8
0
 10
4.350580215454102
 20
-3.2284200191497803
 30
4.5
 11
4.314365386962891
 21
-3.2114100456237793
 31
4.5
  0
LINE
  8
0
 10
0.9554319977760315
 20
4.900290012359619
 30
4.5
 11
1.6866860389709473
 21
4.6341352462768555
 31
4.5
  0
LINE
  8
0
 10
-2.7356700897216797
 20
-5.966279983520508
 30
4.5
 11
-2.7428700923919678
 21
-5.9283647537231445
 31
4.5
  0
LINE
  8
0
 10
2.7610201835632324
 20
4.367694854736328
 30
4.5
 11
2.797450065612793
 21
4.380420207977295
 31
4.5
  0
LINE
  8
0
 10
4.314365386962891
 20
-3.2114100456237793
 30
4.5
 11
4.2781500816345215
 21
-3.1944000720977783
 31
4.5
  0
LINE
  8
0
 10
3.9134697914123535
 20
5.367969989776611
 30
4.5
 11
3.9525399208068848
 21
5.369740009307861
 31
4.5
  0
LINE
  8
0
 10
-0.6444389820098877
 20
5.225339889526367
 30
4.5
 11
-0.6353124976158142
 21
5.263975143432617
 31
4.5
  0
LINE
  8
0
 10
-6.4095001220703125
 20
0.5235450267791748
 30
4.5
 11
-6.442910194396973
 21
0.5435720086097717
 31
4.5
  0
LINE
  8
0
 10
-6.662360191345215
 20
0.830295979976654
 30
4.5
 11
-6.662500381469727
 21
0.8308345079421997
 31
4.5
  0
LINE
  8
0
 10
4.853175163269043
 20
1.6036449670791626
 30
4.5
 11
4.88647985458374
 21
1.5847699642181396
 31
4.5
  0
LINE
  8
0
 10
2.6196351051330566
 20
-6.177519798278809
 30
4.5
 11
2.6121199131011963
 21
-6.184919834136963
 31
4.5
  0
LINE
  8
0
 10
-2.532480001449585
 20
4.34228515625
 30
4.5
 11
-2.493799924850464
 21
4.347040176391602
 31
4.5
  0
LINE
  8
0
 10
-3.8359298706054688
 20
3.249109983444214
 30
4.5
 11
-3.8245298862457275
 21
3.2863800525665283
 31
4.5
  0
LINE
  8
0
 10
2.57381010055542
 20
-4.277989864349365
 30
4.5
 11
2.545300006866455
 21
-4.305999755859375
 31
4.5
  0
LINE
  8
0
 10
5.833000183105469
 20
-3.367690086364746
 30
4.5
 11
5.735634803771973
 21
-3.506740093231201
 31
4.5
  0
LINE
  8
0
 10
5.108969688415527
 20
0.1529494971036911
 30
4.5
 11
5.084129810333252
 21
0.12382599711418152
 31
4.5
  0
LINE
  8
0
 10
-4.350580215454102
 20
-3.2284200191497803
 30
4.5
 11
-4.725174903869629
 21
-3.445310115814209
 31
4.5
  0
LINE
  8
0
 10
1.8584799766540527
 20
0.0
 30
4.5
 11
1.8584799766540527
 21
0.39503198862075806
 31
4.5
  0
LINE
  8
0
 10
-5.400589942932129
 20
-3.730139970779419
 30
4.5
 11
-5.438340187072754
 21
-3.72379994392395
 31
4.5
  0
LINE
  8
0
 10
-2.7428700923919678
 20
-5.9283647537231445
 30
4.5
 11
-2.750070095062256
 21
-5.8904500007629395
 31
4.5
  0
LINE
  8
0
 10
5.904745101928711
 20
-3.2138400077819824
 30
4.5
 11
5.833000183105469
 21
-3.367690086364746
 31
4.5
  0
LINE
  8
0
 10
-5.721439838409424
 20
-2.5854299068450928
 30
4.5
 11
-5.346309661865234
 21
-2.369464874267578
 31
4.5
  0
LINE
  8
0
 10
-3.937419891357422
 20
-3.184460163116455
 30
4.5
 11
-3.974260091781616
 21
-3.1731600761413574
 31
4.5
  0
LINE
  8
0
 10
1.8584799766540527
 20
-0.39503198862075806
 30
4.5
 11
1.8584799766540527
 21
0.0
 31
4.5
  0
LINE
  8
0
 10
2.3927500247955322
 20
-4.689809799194336
 30
4.5
 11
2.3973851203918457
 21
-4.729229927062988
 31
4.5
  0
LINE
  8
0
 10
-5.362005233764648
 20
-3.730644941329956
 30
4.5
 11
-5.400589942932129
 21
-3.730139970779419
 31
4.5
  0
LINE
  8
0
 10
-6.442910194396973
 20
0.5435720086097717
 30
4.5
 11
-6.476319789886475
 21
0.5635989904403687
 31
4.5
  0
LINE
  8
0
 10
1.9535599946975708
 20
-6.415279865264893
 30
4.5
 11
1.9155850410461426
 21
-6.406515121459961
 31
4.5
  0
LINE
  8
0
 10
-5.754389762878418
 20
-2.607679843902588
 30
4.5
 11
-5.721439838409424
 21
-2.5854299068450928
 31
4.5
  0
LINE
  8
0
 10
-4.492129802703857
 20
4.386360168457031
 30
4.5
 11
-4.515480041503906
 21
4.418535232543945
 31
4.5
  0
LINE
  8
0
 10
2.545300006866455
 20
-4.305999755859375
 30
4.5
 11
2.5167899131774902
 21
-4.334010124206543
 31
4.5
  0
LINE
  8
0
 10
4.735169887542725
 20
-1.8552299737930298
 30
4.5
 11
4.748549938201904
 21
-1.8910949230194092
 31
4.5
  0
LINE
  8
0
 10
4.713819980621338
 20
-1.702280044555664
 30
4.5
 11
4.715859889984131
 21
-1.7411999702453613
 31
4.5
  0
LINE
  8
0
 10
-5.073369979858398
 20
1.5402799844741821
 30
4.5
 11
-5.034049987792969
 21
1.5420199632644653
 31
4.5
  0
LINE
  8
0
 10
-4.725174903869629
 20
-3.445310115814209
 30
4.5
 11
-5.0997700691223145
 21
-3.6621999740600586
 31
4.5
  0
LINE
  8
0
 10
-0.5498334765434265
 20
6.508955001831055
 30
4.5
 11
-0.5301039814949036
 21
6.542119979858398
 31
4.5
  0
LINE
  8
0
 10
5.113309860229492
 20
1.5374599695205688
 30
4.5
 11
5.152850151062012
 21
1.541599988937378
 31
4.5
  0
LINE
  8
0
 10
-0.7121700048446655
 20
5.087430000305176
 30
4.5
 11
-0.6924405097961426
 21
5.1205949783325195
 31
4.5
  0
LINE
  8
0
 10
-3.7626800537109375
 20
5.339574813842773
 30
4.5
 11
-3.726249933242798
 21
5.326849937438965
 31
4.5
  0
LINE
  8
0
 10
5.638269901275635
 20
-3.6457901000976562
 30
4.5
 11
5.637820243835449
 21
-3.6461150646209717
 31
4.5
  0
LINE
  8
0
 10
6.3145952224731445
 20
1.6717500686645508
 30
4.5
 11
6.350679874420166
 21
1.658079981803894
 31
4.5
  0
LINE
  8
0
 10
0.3382129967212677
 20
6.705780029296875
 30
4.5
 11
0.3387185037136078
 21
6.705550193786621
 31
4.5
  0
LINE
  8
0
 10
2.797450065612793
 20
4.380420207977295
 30
4.5
 11
2.831284999847412
 21
4.398750305175781
 31
4.5
  0
LINE
  8
0
 10
-1.2251800298690796
 20
-5.196990013122559
 30
4.5
 11
-1.2413649559020996
 21
-5.23330020904541
 31
4.5
  0
LINE
  8
0
 10
1.9155850410461426
 20
-6.406515121459961
 30
4.5
 11
1.8776099681854248
 21
-6.397749900817871
 31
4.5
  0
LINE
  8
0
 10
6.66264009475708
 20
0.8313729763031006
 30
4.5
 11
6.662500381469727
 21
0.8308345079421997
 31
4.5
  0
LINE
  8
0
 10
4.190360069274902
 20
5.256964683532715
 30
4.5
 11
4.329410076141357
 21
5.159599781036377
 31
4.5
  0
LINE
  8
0
 10
0.3387185037136078
 20
6.705550193786621
 30
4.5
 11
0.34831249713897705
 21
6.701165199279785
 31
4.5
  0
LINE
  8
0
 10
0.8511744737625122
 20
4.954225063323975
 30
4.5
 11
0.8838620185852051
 21
4.933000087738037
 31
4.5
  0
LINE
  8
0
 10
-4.8198699951171875
 20
1.6225199699401855
 30
4.5
 11
-4.788800239562988
 21
1.6462750434875488
 31
4.5
  0
LINE
  8
0
 10
-4.704579830169678
 20
1.7270400524139404
 30
4.5
 11
-4.682259559631348
 21
1.7594399452209473
 31
4.5
  0
LINE
  8
0
 10
-5.476089954376221
 20
-3.7174599170684814
 30
4.5
 11
-5.5134100914001465
 21
-3.7057600021362305
 31
4.5
  0
LINE
  8
0
 10
-2.831284999847412
 20
4.398750305175781
 30
4.5
 11
-2.797450065612793
 21
4.380420207977295
 31
4.5
  0
LINE
  8
0
 10
-4.971179962158203
 20
-2.1535000801086426
 30
4.5
 11
-4.938340187072754
 21
-2.1306400299072266
 31
4.5
  0
LINE
  8
0
 10
5.735634803771973
 20
-3.506740093231201
 30
4.5
 11
5.638269901275635
 21
-3.6457901000976562
 31
4.5
  0
LINE
  8
0
 10
-0.8958485126495361
 20
-4.946569919586182
 30
4.5
 11
-0.9338240027427673
 21
-4.955329895019531
 31
4.5
  0
LINE
  8
0
 10
1.6978049278259277
 20
0.7559109926223755
 30
4.5
 11
1.5371299982070923
 21
1.1167900562286377
 31
4.5
  0
LINE
  8
0
 10
3.8150699138641357
 20
3.36286997795105
 30
4.5
 11
3.820115089416504
 21
3.324084997177124
 31
4.5
  0
LINE
  8
0
 10
4.726534843444824
 20
-1.817674994468689
 30
4.5
 11
4.735169887542725
 21
-1.8552299737930298
 31
4.5
  0
LINE
  8
0
 10
-0.5301039814949036
 20
6.542119979858398
 30
4.5
 11
-0.5057364702224731
 21
6.5716447830200195
 31
4.5
  0
LINE
  8
0
 10
-4.605074882507324
 20
4.632724761962891
 30
4.5
 11
-4.6112799644470215
 21
4.670810222625732
 31
4.5
  0
LINE
  8
0
 10
-5.369359970092773
 20
0.3137505054473877
 30
4.5
 11
-5.40792989730835
 21
0.323386013507843
 31
4.5
  0
LINE
  8
0
 10
4.761929988861084
 20
-1.9269599914550781
 30
4.5
 11
4.780785083770752
 21
-1.960629940032959
 31
4.5
  0
LINE
  8
0
 10
-4.569479942321777
 20
4.919529914855957
 30
4.5
 11
-4.4494500160217285
 21
5.039565086364746
 31
4.5
  0
LINE
  8
0
 10
1.8584799766540527
 20
0.39503198862075806
 30
4.5
 11
1.6978049278259277
 21
0.7559109926223755
 31
4.5
  0
LINE
  8
0
 10
-5.438340187072754
 20
-3.72379994392395
 30
4.5
 11
-5.476089954376221
 21
-3.7174599170684814
 31
4.5
  0
LINE
  8
0
 10
6.044760227203369
 20
1.697119951248169
 30
4.5
 11
6.0843000411987305
 21
1.701254963874817
 31
4.5
  0
LINE
  8
0
 10
0.6216700077056885
 20
6.2476301193237305
 30
4.5
 11
0.6211370229721069
 21
5.814774990081787
 31
4.5
  0
LINE
  8
0
 10
-5.346309661865234
 20
-2.369464874267578
 30
4.5
 11
-4.971179962158203
 21
-2.1535000801086426
 31
4.5
  0
LINE
  8
0
 10
-5.0017547607421875
 20
-0.051295600831508636
 30
4.5
 11
-5.011760234832764
 21
-0.01260130014270544
 31
4.5
  0
LINE
  8
0
 10
2.7356700897216797
 20
-5.966279983520508
 30
4.5
 11
2.722869873046875
 21
-6.002355098724365
 31
4.5
  0
LINE
  8
0
 10
4.598869800567627
 20
4.594639778137207
 30
4.5
 11
4.586150169372559
 21
4.557819843292236
 31
4.5
  0
LINE
  8
0
 10
0.7609050273895264
 20
5.028389930725098
 30
4.5
 11
0.7896959781646729
 21
5.001919746398926
 31
4.5
  0
LINE
  8
0
 10
1.4050949811935425
 20
-5.676545143127441
 30
4.5
 11
1.2575500011444092
 21
-5.2696099281311035
 31
4.5
  0
LINE
  8
0
 10
3.726249933242798
 20
5.326849937438965
 30
4.5
 11
3.7626800537109375
 21
5.339574813842773
 31
4.5
  0
LINE
  8
0
 10
-4.241080284118652
 20
-3.182184934616089
 30
4.5
 11
-4.279099941253662
 21
-3.1935999393463135
 31
4.5
  0
LINE
  8
0
 10
6.605534553527832
 20
0.7051739692687988
 30
4.5
 11
6.584469795227051
 21
0.6722239851951599
 31
4.5
  0
LINE
  8
0
 10
-2.6196351051330566
 20
-6.177519798278809
 30
4.5
 11
-2.627150058746338
 21
-6.170119762420654
 31
4.5
  0
LINE
  8
0
 10
-6.6265997886657715
 20
0.7381240129470825
 30
4.5
 11
-6.641824722290039
 21
0.7740005254745483
 31
4.5
  0
LINE
  8
0
 10
4.748549938201904
 20
-1.8910949230194092
 30
4.5
 11
4.761929988861084
 21
-1.9269599914550781
 31
4.5
  0
LINE
  8
0
 10
-1.8415000438690186
 20
-6.382724761962891
 30
4.5
 11
-1.8776099681854248
 21
-6.397749900817871
 31
4.5
  0
LINE
  8
0
 10
-2.57381010055542
 20
-4.277989864349365
 30
4.5
 11
-3.1699352264404297
 21
-3.777780055999756
 31
4.5
  0
LINE
  8
0
 10
-6.417290210723877
 20
1.6203399896621704
 30
4.5
 11
-6.3839850425720215
 21
1.6392099857330322
 31
4.5
  0
LINE
  8
0
 10
-3.9134697914123535
 20
5.367969989776611
 30
4.5
 11
-3.8743999004364014
 21
5.366199970245361
 31
4.5
  0
LINE
  8
0
 10
4.569720268249512
 20
4.91903018951416
 30
4.5
 11
4.574250221252441
 21
4.9095001220703125
 31
4.5
  0
LINE
  8
0
 10
2.896939992904663
 20
4.440810203552246
 30
4.5
 11
2.928760051727295
 21
4.464540004730225
 31
4.5
  0
LINE
  8
0
 10
-2.720989942550659
 20
-5.658229827880859
 30
4.5
 11
-2.5724449157714844
 21
-5.251659870147705
 31
4.5
  0
LINE
  8
0
 10
0.6211370229721069
 20
5.814774990081787
 30
4.5
 11
0.6206039786338806
 21
5.381919860839844
 31
4.5
  0
LINE
  8
0
 10
-0.736537516117096
 20
5.057909965515137
 30
4.5
 11
-0.7121700048446655
 21
5.087430000305176
 31
4.5
  0
LINE
  8
0
 10
1.9751449823379517
 20
-6.417004585266113
 30
4.5
 11
1.9745899438858032
 21
-6.416959762573242
 31
4.5
  0
LINE
  8
0
 10
3.870609998703003
 20
3.6235299110412598
 30
4.5
 11
3.8524599075317383
 21
3.5886099338531494
 31
4.5
  0
LINE
  8
0
 10
3.9369401931762695
 20
-3.1848599910736084
 30
4.5
 11
3.8996200561523438
 21
-3.1965599060058594
 31
4.5
  0
LINE
  8
0
 10
-1.0707800388336182
 20
-5.024199962615967
 30
4.5
 11
-1.1006650924682617
 21
-5.048614978790283
 31
4.5
  0
LINE
  8
0
 10
3.7626800537109375
 20
5.339574813842773
 30
4.5
 11
3.799109935760498
 21
5.35230016708374
 31
4.5
  0
LINE
  8
0
 10
5.135509967803955
 20
-3.679610013961792
 30
4.5
 11
5.0997700691223145
 21
-3.6621999740600586
 31
4.5
  0
LINE
  8
0
 10
-2.6869449615478516
 20
4.348020076751709
 30
4.5
 11
-2.6493000984191895
 21
4.341070175170898
 31
4.5
  0
LINE
  8
0
 10
-1.0377850532531738
 20
-5.004795074462891
 30
4.5
 11
-1.0707800388336182
 21
-5.024199962615967
 31
4.5
  0
LINE
  8
0
 10
-2.422029972076416
 20
-4.500974655151367
 30
4.5
 11
-2.4348299503326416
 21
-4.464900016784668
 31
4.5
  0
LINE
  8
0
 10
5.628775119781494
 20
-3.652554988861084
 30
4.5
 11
5.620180130004883
 21
-3.658669948577881
 31
4.5
  0
LINE
  8
0
 10
0.5498334765434265
 20
6.508955001831055
 30
4.5
 11
0.5695629715919495
 21
6.475790023803711
 31
4.5
  0
LINE
  8
0
 10
5.637820243835449
 20
-3.6461150646209717
 30
4.5
 11
5.6373701095581055
 21
-3.646440029144287
 31
4.5
  0
LINE
  8
0
 10
0.8566269874572754
 20
-4.937809944152832
 30
4.5
 11
0.8174065351486206
 21
-4.934675216674805
 31
4.5
  0
LINE
  8
0
 10
-4.659939765930176
 20
1.7918399572372437
 30
4.5
 11
-4.27084493637085
 21
2.4657700061798096
 31
4.5
  0
LINE
  8
0
 10
1.6796400547027588
 20
-6.280059814453125
 30
4.5
 11
1.6541149616241455
 21
-6.250635147094727
 31
4.5
  0
LINE
  8
0
 10
-5.171249866485596
 20
-3.6970200538635254
 30
4.5
 11
-5.208869934082031
 21
-3.7079548835754395
 31
4.5
  0
LINE
  8
0
 10
-5.32342004776001
 20
-3.731149911880493
 30
4.5
 11
-5.362005233764648
 21
-3.730644941329956
 31
4.5
  0
LINE
  8
0
 10
-4.938340187072754
 20
-2.1306400299072266
 30
4.5
 11
-4.9054999351501465
 21
-2.1077799797058105
 31
4.5
  0
LINE
  8
0
 10
-4.876500129699707
 20
-2.081174850463867
 30
4.5
 11
-4.847499847412109
 21
-2.054569959640503
 31
4.5
  0
LINE
  8
0
 10
-6.544864654541016
 20
1.497979998588562
 30
4.5
 11
-6.538879871368408
 21
1.5066649913787842
 31
4.5
  0
LINE
  8
0
 10
3.9525399208068848
 20
5.369740009307861
 30
4.5
 11
3.991219997406006
 21
5.364990234375
 31
4.5
  0
LINE
  8
0
 10
-4.682259559631348
 20
1.7594399452209473
 30
4.5
 11
-4.659939765930176
 21
1.7918399572372437
 31
4.5
  0
LINE
  8
0
 10
-6.2992401123046875
 20
0.4822995066642761
 30
4.5
 11
-6.337810039520264
 21
0.49193501472473145
 31
4.5
  0
LINE
  8
0
 10
1.8053900003433228
 20
-6.367700099945068
 30
4.5
 11
1.7723950147628784
 21
-6.348295211791992
 31
4.5
  0
LINE
  8
0
 10
2.4092299938201904
 20
-4.537049770355225
 30
4.5
 11
2.4020299911499023
 21
-4.574959754943848
 31
4.5
  0
LINE
  8
0
 10
3.7981150150299072
 20
-3.2547600269317627
 30
4.5
 11
3.7660601139068604
 21
-3.2775700092315674
 31
4.5
  0
LINE
  8
0
 10
-4.601809978485107
 20
4.824930191040039
 30
4.5
 11
-4.590415000915527
 21
4.862199783325195
 31
4.5
  0
LINE
  8
0
 10
-3.539669990539551
 20
5.185569763183594
 30
4.5
 11
-3.261845111846924
 21
4.853639602661133
 31
4.5
  0
LINE
  8
0
 10
6.476319789886475
 20
0.5635989904403687
 30
4.5
 11
6.442910194396973
 21
0.5435720086097717
 31
4.5
  0
LINE
  8
0
 10
-1.1305500268936157
 20
-5.0730299949646
 30
4.5
 11
-1.1560750007629395
 21
-5.101830005645752
 31
4.5
  0
LINE
  8
0
 10
-2.6920700073242188
 20
-6.073150157928467
 30
4.5
 11
-2.7100698947906494
 21
-6.038430213928223
 31
4.5
  0
LINE
  8
0
 10
-4.6068549156188965
 20
4.786149978637695
 30
4.5
 11
-4.601809978485107
 21
4.824930191040039
 31
4.5
  0
LINE
  8
0
 10
6.123839855194092
 20
1.7053899765014648
 30
4.5
 11
6.162930011749268
 21
1.7028000354766846
 31
4.5
  0
LINE
  8
0
 10
-1.7095201015472412
 20
-6.304474830627441
 30
4.5
 11
-1.739400029182434
 21
-6.328889846801758
 31
4.5
  0
LINE
  8
0
 10
-5.550730228424072
 20
-3.6940600872039795
 30
4.5
 11
-5.585454940795898
 21
-3.6763648986816406
 31
4.5
  0
LINE
  8
0
 10
6.505549907684326
 20
0.5887874960899353
 30
4.5
 11
6.476319789886475
 21
0.5635989904403687
 31
4.5
  0
LINE
  8
0
 10
3.8280999660491943
 20
3.5155999660491943
 30
4.5
 11
3.821895122528076
 21
3.4775149822235107
 31
4.5
  0
LINE
  8
0
 10
4.040605068206787
 20
5.357285022735596
 30
4.5
 11
4.050775051116943
 21
5.354475021362305
 31
4.5
  0
LINE
  8
0
 10
-3.8817501068115234
 20
3.139699935913086
 30
4.5
 11
-3.8645401000976562
 21
3.175769805908203
 31
4.5
  0
LINE
  8
0
 10
6.0843000411987305
 20
1.701254963874817
 30
4.5
 11
6.123839855194092
 21
1.7053899765014648
 31
4.5
  0
LINE
  8
0
 10
-0.16910633444786072
 20
6.720575332641602
 30
4.5
 11
3.2176998843169713e-07
 21
6.73537015914917
 31
4.5
  0
LINE
  8
0
 10
-5.133810043334961
 20
0.18207299709320068
 30
4.5
 11
-5.1630449295043945
 21
0.20726200938224792
 31
4.5
  0
LINE
  8
0
 10
5.97859001159668
 20
-3.0378799438476562
 30
4.5
 11
5.977590084075928
 21
-3.048379898071289
 31
4.5
  0
LINE
  8
0
 10
3.840280055999756
 20
3.552104949951172
 30
4.5
 11
3.8280999660491943
 21
3.5155999660491943
 31
4.5
  0
LINE
  8
0
 10
3.626539945602417
 20
5.265874862670898
 30
4.5
 11
3.6581499576568604
 21
5.289010047912598
 31
4.5
  0
LINE
  8
0
 10
2.7319350242614746
 20
-5.696450233459473
 30
4.5
 11
2.74288010597229
 21
-5.734670162200928
 31
4.5
  0
LINE
  8
0
 10
-5.620180130004883
 20
-3.658669948577881
 30
4.5
 11
-5.628775119781494
 21
-3.652554988861084
 31
4.5
  0
LINE
  8
0
 10
1.2435649633407593
 20
1.381119966506958
 30
4.5
 11
0.949999988079071
 21
1.6454499959945679
 31
4.5
  0
LINE
  8
0
 10
5.976490020751953
 20
-3.0599899291992188
 30
4.5
 11
5.904745101928711
 21
-3.2138400077819824
 31
4.5
  0
LINE
  8
0
 10
4.040070056915283
 20
5.3574299812316895
 30
4.5
 11
4.040605068206787
 21
5.357285022735596
 31
4.5
  0
LINE
  8
0
 10
5.284955024719238
 20
-3.725019931793213
 30
4.5
 11
5.246490001678467
 21
-3.7188899517059326
 31
4.5
  0
LINE
  8
0
 10
-2.470829963684082
 20
-4.39546012878418
 30
4.5
 11
-2.4942898750305176
 21
-4.364335060119629
 31
4.5
  0
LINE
  8
0
 10
4.79964017868042
 20
-1.9943000078201294
 30
4.5
 11
4.823570251464844
 21
-2.024435043334961
 31
4.5
  0
LINE
  8
0
 10
-5.78734016418457
 20
-2.629930019378662
 30
4.5
 11
-5.754389762878418
 21
-2.607679843902588
 31
4.5
  0
LINE
  8
0
 10
-1.1006650924682617
 20
-5.048614978790283
 30
4.5
 11
-1.1305500268936157
 21
-5.0730299949646
 31
4.5
  0
LINE
  8
0
 10
5.585454940795898
 20
-3.6763648986816406
 30
4.5
 11
5.550730228424072
 21
-3.6940600872039795
 31
4.5
  0
LINE
  8
0
 10
-2.9275898933410645
 20
4.464960098266602
 30
4.5
 11
-2.896354913711548
 21
4.4410200119018555
 31
4.5
  0
LINE
  8
0
 10
-5.892980098724365
 20
-2.7446401119232178
 30
4.5
 11
-5.868434906005859
 21
-2.714395046234131
 31
4.5
  0
LINE
  8
0
 10
-1.9757000207901
 20
-6.417049884796143
 30
4.5
 11
-2.139665126800537
 21
-6.373114585876465
 31
4.5
  0
LINE
  8
0
 10
-2.4528298377990723
 20
-4.430180072784424
 30
4.5
 11
-2.470829963684082
 21
-4.39546012878418
 31
4.5
  0
LINE
  8
0
 10
0.5743020176887512
 20
1.7675199508666992
 30
4.5
 11
0.19860400259494781
 21
1.8895900249481201
 31
4.5
  0
LINE
  8
0
 10
-0.817317008972168
 20
4.975880146026611
 30
4.5
 11
-0.7891110181808472
 21
5.002135276794434
 31
4.5
  0
LINE
  8
0
 10
-2.9558048248291016
 20
4.493334770202637
 30
4.5
 11
-2.9275898933410645
 21
4.464960098266602
 31
4.5
  0
LINE
  8
0
 10
-5.257870197296143
 20
0.272722989320755
 30
4.5
 11
-5.29433012008667
 21
0.2884190082550049
 31
4.5
  0
LINE
  8
0
 10
-6.5325798988342285
 20
1.5158100128173828
 30
4.5
 11
-6.50600004196167
 21
1.544314980506897
 31
4.5
  0
LINE
  8
0
 10
6.2992401123046875
 20
0.4822995066642761
 30
4.5
 11
6.260670185089111
 21
0.4726639986038208
 31
4.5
  0
LINE
  8
0
 10
6.373655319213867
 20
0.5077400207519531
 30
4.5
 11
6.337810039520264
 21
0.49193501472473145
 31
4.5
  0
LINE
  8
0
 10
-0.5974060297012329
 20
6.403029918670654
 30
4.5
 11
-0.5834845304489136
 21
6.439410209655762
 31
4.5
  0
LINE
  8
0
 10
4.847499847412109
 20
-2.054569959640503
 30
4.5
 11
4.876395225524902
 21
-2.081789970397949
 31
4.5
  0
LINE
  8
0
 10
2.6493000984191895
 20
4.341070175170898
 30
4.5
 11
2.6869449615478516
 21
4.348020076751709
 31
4.5
  0
LINE
  8
0
 10
-6.538564682006836
 20
1.5071250200271606
 30
4.5
 11
-6.5325798988342285
 21
1.5158100128173828
 31
4.5
  0
LINE
  8
0
 10
-4.579020023345947
 20
4.89946985244751
 30
4.5
 11
-4.574490070343018
 21
4.908999919891357
 31
4.5
  0
LINE
  8
0
 10
1.5371299982070923
 20
-1.1167900562286377
 30
4.5
 11
1.6978049278259277
 21
-0.7559109926223755
 31
4.5
  0
LINE
  8
0
 10
0.949999988079071
 20
-1.6454499959945679
 30
4.5
 11
1.2435649633407593
 21
-1.381119966506958
 31
4.5
  0
LINE
  8
0
 10
-4.27084493637085
 20
2.4657700061798096
 30
4.5
 11
-3.8817501068115234
 21
3.139699935913086
 31
4.5
  0
LINE
  8
0
 10
4.203060150146484
 20
-3.1707699298858643
 30
4.5
 11
4.164995193481445
 21
-3.1651201248168945
 31
4.5
  0
LINE
  8
0
 10
6.4095001220703125
 20
0.5235450267791748
 30
4.5
 11
6.373655319213867
 21
0.5077400207519531
 31
4.5
  0
LINE
  8
0
 10
6.202020168304443
 20
1.7002099752426147
 30
4.5
 11
6.240264892578125
 21
1.6928150653839111
 31
4.5
  0
LINE
  8
0
 10
3.815690040588379
 20
3.439429998397827
 30
4.5
 11
3.815380096435547
 21
3.4011499881744385
 31
4.5
  0
LINE
  8
0
 10
0.3584119975566864
 20
6.696549892425537
 30
4.5
 11
0.3910995125770569
 21
6.6753249168396
 31
4.5
  0
LINE
  8
0
 10
-4.823570251464844
 20
-2.024435043334961
 30
4.5
 11
-4.79964017868042
 21
-1.9943000078201294
 31
4.5
  0
LINE
  8
0
 10
1.6285899877548218
 20
-6.22121000289917
 30
4.5
 11
1.6068000793457031
 21
-6.188654899597168
 31
4.5
  0
LINE
  8
0
 10
-5.225074768066406
 20
0.2525869905948639
 30
4.5
 11
-5.257870197296143
 21
0.272722989320755
 31
4.5
  0
LINE
  8
0
 10
4.051310062408447
 20
5.354330062866211
 30
4.5
 11
4.190360069274902
 21
5.256964683532715
 31
4.5
  0
LINE
  8
0
 10
1.6866860389709473
 20
4.6341352462768555
 30
4.5
 11
2.4179399013519287
 21
4.367980003356934
 31
4.5
  0
LINE
  8
0
 10
-2.457479953765869
 20
-6.257439613342285
 30
4.5
 11
-2.611330032348633
 21
-6.185699939727783
 31
4.5
  0
LINE
  8
0
 10
0.6727110147476196
 20
5.153759956359863
 30
4.5
 11
0.6924405097961426
 21
5.1205949783325195
 31
4.5
  0
LINE
  8
0
 10
-2.611330032348633
 20
-6.185699939727783
 30
4.5
 11
-2.611724853515625
 21
-6.185309886932373
 31
4.5
  0
LINE
  8
0
 10
1.6541149616241455
 20
-6.250635147094727
 30
4.5
 11
1.6285899877548218
 21
-6.22121000289917
 31
4.5
  0
LINE
  8
0
 10
5.976590156555176
 20
-3.058880090713501
 30
4.5
 11
5.9765400886535645
 21
-3.0594348907470703
 31
4.5
  0
LINE
  8
0
 10
3.8743999004364014
 20
5.366199970245361
 30
4.5
 11
3.9134697914123535
 21
5.367969989776611
 31
4.5
  0
LINE
  8
0
 10
-0.6585749983787537
 20
5.189549922943115
 30
4.5
 11
-0.6444389820098877
 21
5.225339889526367
 31
4.5
  0
LINE
  8
0
 10
-4.590415000915527
 20
4.862199783325195
 30
4.5
 11
-4.579020023345947
 21
4.89946985244751
 31
4.5
  0
LINE
  8
0
 10
2.750070095062256
 20
-5.8904500007629395
 30
4.5
 11
2.7428700923919678
 21
-5.9283647537231445
 31
4.5
  0
LINE
  8
0
 10
6.442910194396973
 20
0.5435720086097717
 30
4.5
 11
6.4095001220703125
 21
0.5235450267791748
 31
4.5
  0
LINE
  8
0
 10
-0.34881800413131714
 20
6.700934886932373
 30
4.5
 11
-0.34831249713897705
 21
6.701165199279785
 31
4.5
  0
LINE
  8
0
 10
4.049759864807129
 20
-3.1604700088500977
 30
4.5
 11
4.012010097503662
 21
-3.1668150424957275
 31
4.499999523162842
  0
LINE
  8
0
 10
2.751339912414551
 20
-5.812560081481934
 30
4.5
 11
2.7507050037384033
 21
-5.851505279541016
 31
4.5
  0
LINE
  8
0
 10
-5.843890190124512
 20
-2.684149980545044
 30
4.5
 11
-5.815615177154541
 21
-2.6570401191711426
 31
4.5
  0
LINE
  8
0
 10
-2.5177500247955322
 20
-4.333209991455078
 30
4.5
 11
-2.5457801818847656
 21
-4.305600166320801
 31
4.5
  0
LINE
  8
0
 10
6.162930011749268
 20
1.7028000354766846
 30
4.5
 11
6.202020168304443
 21
1.7002099752426147
 31
4.5
  0
LINE
  8
0
 10
3.821895122528076
 20
3.4775149822235107
 30
4.5
 11
3.815690040588379
 21
3.439429998397827
 31
4.5
  0
LINE
  8
0
 10
-2.8651199340820312
 20
4.417079925537109
 30
4.5
 11
-2.831284999847412
 21
4.398750305175781
 31
4.5
  0
LINE
  8
0
 10
4.050775051116943
 20
5.354475021362305
 30
4.5
 11
4.051310062408447
 21
5.354330062866211
 31
4.5
  0
LINE
  8
0
 10
0.606747031211853
 20
6.364990234375
 30
4.5
 11
0.6160879731178284
 21
6.3269500732421875
 31
4.5
  0
LINE
  8
0
 10
-5.330790042877197
 20
0.3041149973869324
 30
4.5
 11
-5.369359970092773
 21
0.3137505054473877
 31
4.5
  0
LINE
  8
0
 10
2.747109889984131
 20
-5.773614883422852
 30
4.5
 11
2.751339912414551
 21
-5.812560081481934
 31
4.5
  0
LINE
  8
0
 10
-6.479420185089111
 20
1.5728199481964111
 30
4.5
 11
-6.448355197906494
 21
1.5965800285339355
 31
4.5
  0
LINE
  8
0
 10
4.088345050811768
 20
-3.1599700450897217
 30
4.5
 11
4.049759864807129
 21
-3.1604700088500977
 31
4.5
  0
LINE
  8
0
 10
2.7507050037384033
 20
-5.851505279541016
 30
4.5
 11
2.750070095062256
 21
-5.8904500007629395
 31
4.5
  0
LINE
  8
0
 10
-0.1942639946937561
 20
-1.8482999801635742
 30
4.5
 11
0.19860400259494781
 21
-1.8895900249481201
 31
4.5
  0
LINE
  8
0
 10
5.8343000411987305
 20
0.3980250060558319
 30
4.5
 11
5.40792989730835
 21
0.323386013507843
 31
4.5
  0
LINE
  8
0
 10
1.585010051727295
 20
-6.156099796295166
 30
4.5
 11
1.5688250064849854
 21
-6.119790077209473
 31
4.5
  0
LINE
  8
0
 10
-2.4942898750305176
 20
-4.364335060119629
 30
4.5
 11
-2.5177500247955322
 21
-4.333209991455078
 31
4.5
  0
LINE
  8
0
 10
5.974520206451416
 20
-2.9600400924682617
 30
4.5
 11
5.976554870605469
 21
-2.998960018157959
 31
4.5
  0
LINE
  8
0
 10
4.717655181884766
 20
-1.662500023841858
 30
4.5
 11
4.713819980621338
 21
-1.702280044555664
 31
4.5
  0
LINE
  8
0
 10
-2.896354913711548
 20
4.4410200119018555
 30
4.5
 11
-2.8651199340820312
 21
4.417079925537109
 31
4.5
  0
LINE
  8
0
 10
-1.2033900022506714
 20
-5.163809776306152
 30
4.5
 11
-1.2251800298690796
 21
-5.196990013122559
 31
4.5
  0
LINE
  8
0
 10
-1.1560750007629395
 20
-5.101830005645752
 30
4.5
 11
-1.1815999746322632
 21
-5.130630016326904
 31
4.5
  0
LINE
  8
0
 10
0.19860400259494781
 20
-1.8895900249481201
 30
4.5
 11
0.5743020176887512
 21
-1.7675199508666992
 31
4.5
  0
LINE
  8
0
 10
4.715859889984131
 20
-1.7411999702453613
 30
4.5
 11
4.717899799346924
 21
-1.7801200151443481
 31
4.5
  0
LINE
  8
0
 10
-5.29433012008667
 20
0.2884190082550049
 30
4.5
 11
-5.330790042877197
 21
0.3041149973869324
 31
4.5
  0
LINE
  8
0
 10
5.476089954376221
 20
-3.7174599170684814
 30
4.5
 11
5.5134100914001465
 21
-3.7057600021362305
 31
4.5
  0
LINE
  8
0
 10
-4.79964017868042
 20
-1.9943000078201294
 30
4.5
 11
-4.780785083770752
 21
-1.960629940032959
 31
4.5
  0
LINE
  8
0
 10
-2.6121199131011963
 20
-6.184919834136963
 30
4.5
 11
-2.6196351051330566
 21
-6.177519798278809
 31
4.5
  0
LINE
  8
0
 10
-6.50600004196167
 20
1.544314980506897
 30
4.5
 11
-6.479420185089111
 21
1.5728199481964111
 31
4.5
  0
LINE
  8
0
 10
-5.911839962005615
 20
-2.7783100605010986
 30
4.5
 11
-5.892980098724365
 21
-2.7446401119232178
 31
4.5
  0
LINE
  8
0
 10
3.974260091781616
 20
-3.1731600761413574
 30
4.5
 11
3.9369401931762695
 21
-3.1848599910736084
 31
4.5
  0
LINE
  8
0
 10
-3.847330093383789
 20
3.2118399143218994
 30
4.5
 11
-3.8359298706054688
 21
3.249109983444214
 31
4.5
  0
LINE
  8
0
 10
4.905290126800537
 20
-2.1090099811553955
 30
4.5
 11
4.938235282897949
 21
-2.1312551498413086
 31
4.5
  0
LINE
  8
0
 10
1.6068000793457031
 20
-6.188654899597168
 30
4.5
 11
1.585010051727295
 21
-6.156099796295166
 31
4.5
  0
LINE
  8
0
 10
-0.1942639946937561
 20
1.8482999801635742
 30
4.5
 11
-0.5871319770812988
 21
1.8070100545883179
 31
4.5
  0
LINE
  8
0
 10
-5.957459926605225
 20
-2.883699893951416
 30
4.5
 11
-5.944079875946045
 21
-2.847839832305908
 31
4.5
  0
LINE
  8
0
 10
4.938235282897949
 20
-2.1312551498413086
 30
4.5
 11
4.971179962158203
 21
-2.1535000801086426
 31
4.5
  0
LINE
  8
0
 10
0.6444389820098877
 20
5.225339889526367
 30
4.5
 11
0.6585749983787537
 21
5.189549922943115
 31
4.5
  0
LINE
  8
0
 10
-3.8245298862457275
 20
3.2863800525665283
 30
4.5
 11
-3.8197999000549316
 21
3.324625015258789
 31
4.5
  0
LINE
  8
0
 10
-2.611724853515625
 20
-6.185309886932373
 30
4.5
 11
-2.6121199131011963
 21
-6.184919834136963
 31
4.5
  0
LINE
  8
0
 10
-4.574490070343018
 20
4.908999919891357
 30
4.5
 11
-4.574250221252441
 21
4.9095001220703125
 31
4.5
  0
LINE
  8
0
 10
-4.569720268249512
 20
4.91903018951416
 30
4.5
 11
-4.569479942321777
 21
4.919529914855957
 31
4.5
  0
LINE
  8
0
 10
3.820115089416504
 20
3.324084997177124
 30
4.5
 11
3.825160026550293
 21
3.2853000164031982
 31
4.5
  0
LINE
  8
0
 10
-0.3584119975566864
 20
6.696549892425537
 30
4.5
 11
-0.34881800413131714
 21
6.700934886932373
 31
4.5
  0
LINE
  8
0
 10
-0.8578730225563049
 20
-4.937809944152832
 30
4.5
 11
-0.8958485126495361
 21
-4.946569919586182
 31
4.5
  0
LINE
  8
0
 10
3.815380096435547
 20
3.4011499881744385
 30
4.5
 11
3.8150699138641357
 21
3.36286997795105
 31
4.5
  0
LINE
  8
0
 10
0.6358975172042847
 20
5.263759613037109
 30
4.5
 11
0.6444389820098877
 21
5.225339889526367
 31
4.5
  0
LINE
  8
0
 10
-1.00478994846344
 20
-4.9853901863098145
 30
4.5
 11
-1.0377850532531738
 21
-5.004795074462891
 31
4.5
  0
LINE
  8
0
 10
3.539669990539551
 20
5.185569763183594
 30
4.5
 11
3.5672998428344727
 21
5.214155197143555
 31
4.5
  0
LINE
  8
0
 10
-0.3910995125770569
 20
6.6753249168396
 30
4.5
 11
-0.3584119975566864
 21
6.696549892425537
 31
4.5
  0
LINE
  8
0
 10
-4.598869800567627
 20
4.594639778137207
 30
4.5
 11
-4.605074882507324
 21
4.632724761962891
 31
4.5
  0
LINE
  8
0
 10
4.012010097503662
 20
-3.1668150424957275
 30
4.499999523162842
 11
3.974260091781616
 21
-3.1731600761413574
 31
4.5
  0
LINE
  8
0
 10
-5.638269901275635
 20
-3.6457901000976562
 30
4.5
 11
-5.735640048980713
 21
-3.506740093231201
 31
4.5
  0
LINE
  8
0
 10
5.40792989730835
 20
0.323386013507843
 30
4.5
 11
5.369250297546387
 21
0.3131375014781952
 31
4.5
  0
LINE
  8
0
 10
3.261845111846924
 20
4.853639602661133
 30
4.5
 11
3.539669990539551
 21
5.185569763183594
 31
4.5
  0
LINE
  8
0
 10
2.722869873046875
 20
-6.002355098724365
 30
4.5
 11
2.7100698947906494
 21
-6.038430213928223
 31
4.5
  0
LINE
  8
0
 10
2.7428700923919678
 20
-5.9283647537231445
 30
4.5
 11
2.7356700897216797
 21
-5.966279983520508
 31
4.5
  0
LINE
  8
0
 10
6.278510093688965
 20
1.685420036315918
 30
4.5
 11
6.3145952224731445
 21
1.6717500686645508
 31
4.5
  0
LINE
  8
0
 10
5.618575096130371
 20
1.6214299201965332
 30
4.5
 11
6.044760227203369
 21
1.697119951248169
 31
4.5
  0
LINE
  8
0
 10
5.152850151062012
 20
1.541599988937378
 30
4.5
 11
5.192389965057373
 21
1.545740008354187
 31
4.5
  0
LINE
  8
0
 10
-2.5457801818847656
 20
-4.305600166320801
 30
4.5
 11
-2.57381010055542
 21
-4.277989864349365
 31
4.5
  0
LINE
  8
0
 10
-1.2413649559020996
 20
-5.23330020904541
 30
4.5
 11
-1.2575500011444092
 21
-5.2696099281311035
 31
4.5
  0
LINE
  8
0
 10
3.934839963912964
 20
3.7238800525665283
 30
4.5
 11
3.911799907684326
 21
3.691164970397949
 31
4.5
  0
LINE
  8
0
 10
6.6265997886657715
 20
0.7381240129470825
 30
4.5
 11
6.605534553527832
 21
0.7051739692687988
 31
4.5
  0
LINE
  8
0
 10
-4.788800239562988
 20
1.6462750434875488
 30
4.5
 11
-4.757730007171631
 21
1.6700299978256226
 31
4.5
  0
LINE
  8
0
 10
-4.731154918670654
 20
1.6985349655151367
 30
4.5
 11
-4.704579830169678
 21
1.7270400524139404
 31
4.5
  0
LINE
  8
0
 10
5.96599006652832
 20
-2.921869993209839
 30
4.5
 11
5.974520206451416
 21
-2.9600400924682617
 31
4.5
  0
LINE
  8
0
 10
6.534780025482178
 20
0.613976001739502
 30
4.5
 11
6.505549907684326
 21
0.5887874960899353
 31
4.5
  0
LINE
  8
0
 10
4.329410076141357
 20
5.159599781036377
 30
4.5
 11
4.449444770812988
 21
5.039565086364746
 31
4.5
  0
LINE
  8
0
 10
-3.1699352264404297
 20
-3.777780055999756
 30
4.5
 11
-3.7660601139068604
 21
-3.2775700092315674
 31
4.5
  0
LINE
  8
0
 10
-6.448355197906494
 20
1.5965800285339355
 30
4.5
 11
-6.417290210723877
 21
1.6203399896621704
 31
4.5
  0
LINE
  8
0
 10
-4.6118998527526855
 20
4.747369766235352
 30
4.5
 11
-4.6068549156188965
 21
4.786149978637695
 31
4.5
  0
LINE
  8
0
 10
-5.735640048980713
 20
-3.506740093231201
 30
4.5
 11
-5.833010196685791
 21
-3.367690086364746
 31
4.5
  0
LINE
  8
0
 10
-2.797450065612793
 20
4.380420207977295
 30
4.5
 11
-2.7610201835632324
 21
4.367694854736328
 31
4.5
  0
LINE
  8
0
 10
-6.3839850425720215
 20
1.6392099857330322
 30
4.5
 11
-6.350679874420166
 21
1.658079981803894
 31
4.5
  0
LINE
  8
0
 10
-4.748549938201904
 20
-1.8910949230194092
 30
4.5
 11
-4.735169887542725
 21
-1.8552299737930298
 31
4.5
  0
LINE
  8
0
 10
6.350679874420166
 20
1.658079981803894
 30
4.5
 11
6.3839850425720215
 21
1.6392099857330322
 31
4.5
  0
LINE
  8
0
 10
0.6273559927940369
 20
5.30217981338501
 30
4.5
 11
0.6358975172042847
 21
5.263759613037109
 31
4.5
  0
LINE
  8
0
 10
3.8524599075317383
 20
3.5886099338531494
 30
4.5
 11
3.840280055999756
 21
3.552104949951172
 31
4.5
  0
LINE
  8
0
 10
-0.423786997795105
 20
6.654099941253662
 30
4.5
 11
-0.3910995125770569
 21
6.6753249168396
 31
4.5
  0
LINE
  8
0
 10
-4.4494500160217285
 20
5.039565086364746
 30
4.5
 11
-4.32942008972168
 21
5.159599781036377
 31
4.5
  0
LINE
  8
0
 10
4.569479942321777
 20
4.919529914855957
 30
4.5
 11
4.569720268249512
 21
4.91903018951416
 31
4.5
  0
LINE
  8
0
 10
-0.9338240027427673
 20
-4.955329895019531
 30
4.5
 11
-0.9693069458007812
 21
-4.970359802246094
 31
4.5
  0
LINE
  8
0
 10
2.9840199947357178
 20
4.52170991897583
 30
4.5
 11
3.261845111846924
 21
4.853639602661133
 31
4.5
  0
LINE
  8
0
 10
-2.7245900630950928
 20
4.3549699783325195
 30
4.5
 11
-2.6869449615478516
 21
4.348020076751709
 31
4.5
  0
LINE
  8
0
 10
-2.3948299884796143
 20
-4.612870216369629
 30
4.5
 11
-2.4020299911499023
 21
-4.574959754943848
 31
4.5
  0
LINE
  8
0
 10
-2.4348299503326416
 20
-4.464900016784668
 30
4.5
 11
-2.4528298377990723
 21
-4.430180072784424
 31
4.5
  0
LINE
  8
0
 10
5.011539936065674
 20
-0.013827499933540821
 30
4.5
 11
5.001645088195801
 21
-0.0519087016582489
 31
4.5
  0
LINE
  8
0
 10
3.836555004119873
 20
3.248030185699463
 30
4.5
 11
3.847949981689453
 21
3.2107601165771484
 31
4.5
  0
LINE
  8
0
 10
0.6239799857139587
 20
5.342049598693848
 30
4.5
 11
0.6273559927940369
 21
5.30217981338501
 31
4.5
  0
LINE
  8
0
 10
-5.40792989730835
 20
0.323386013507843
 30
4.5
 11
-5.8343000411987305
 21
0.3980250060558319
 31
4.5
  0
LINE
  8
0
 10
-0.45257800817489624
 20
6.6276350021362305
 30
4.5
 11
-0.423786997795105
 21
6.654099941253662
 31
4.5
  0
LINE
  8
0
 10
-6.538879871368408
 20
1.5066649913787842
 30
4.5
 11
-6.538564682006836
 21
1.5071250200271606
 31
4.5
  0
LINE
  8
0
 10
1.5526399612426758
 20
-6.083479881286621
 30
4.5
 11
1.4050949811935425
 21
-5.676545143127441
 31
4.5
  0
LINE
  8
0
 10
5.034049987792969
 20
1.5420199632644653
 30
4.5
 11
5.0736799240112305
 21
1.539739966392517
 31
4.5
  0
LINE
  8
0
 10
3.8887600898742676
 20
3.65844988822937
 30
4.5
 11
3.870609998703003
 21
3.6235299110412598
 31
4.5
  0
LINE
  8
0
 10
3.991219997406006
 20
5.364990234375
 30
4.5
 11
4.029900074005127
 21
5.3602399826049805
 31
4.5
  0
LINE
  8
0
 10
-6.633049964904785
 20
1.1695899963378906
 30
4.5
 11
-6.589115142822266
 21
1.333554983139038
 31
4.5
  0
LINE
  8
0
 10
2.956389904022217
 20
4.493124961853027
 30
4.5
 11
2.9840199947357178
 21
4.52170991897583
 31
4.5
  0
LINE
  8
0
 10
2.6920700073242188
 20
-6.073150157928467
 30
4.5
 11
2.674069881439209
 21
-6.107870101928711
 31
4.5
  0
LINE
  8
0
 10
-1.2575500011444092
 20
-5.2696099281311035
 30
4.5
 11
-1.4050949811935425
 21
-5.676545143127441
 31
4.5
  0
LINE
  8
0
 10
-2.627150058746338
 20
-6.170119762420654
 30
4.5
 11
-2.6506099700927734
 21
-6.138995170593262
 31
4.5
  0
LINE
  8
0
 10
6.584469795227051
 20
0.6722239851951599
 30
4.5
 11
6.559624671936035
 21
0.6431000232696533
 31
4.5
  0
LINE
  8
0
 10
5.0736799240112305
 20
1.539739966392517
 30
4.5
 11
5.113309860229492
 21
1.5374599695205688
 31
4.5
  0
LINE
  8
0
 10
-4.6112799644470215
 20
4.670810222625732
 30
4.5
 11
-4.6115899085998535
 21
4.709090232849121
 31
4.5
  0
LINE
  8
0
 10
-6.260670185089111
 20
0.4726639986038208
 30
4.5
 11
-6.2992401123046875
 21
0.4822995066642761
 31
4.5
  0
LINE
  8
0
 10
5.001645088195801
 20
-0.0519087016582489
 30
4.5
 11
4.9917497634887695
 21
-0.08998990058898926
 31
4.5
  0
LINE
  8
0
 10
-3.261845111846924
 20
4.853639602661133
 30
4.5
 11
-2.9840199947357178
 21
4.52170991897583
 31
4.5
  0
LINE
  8
0
 10
-0.818029522895813
 20
-4.934675216674805
 30
4.5
 11
-0.8578730225563049
 21
-4.937809944152832
 31
4.5
  0
LINE
  8
0
 10
5.294219970703125
 20
0.28780597448349
 30
4.5
 11
5.257870197296143
 21
0.272722989320755
 31
4.5
  0
LINE
  8
0
 10
0.6206039786338806
 20
5.381919860839844
 30
4.5
 11
0.6239799857139587
 21
5.342049598693848
 31
4.5
  0
LINE
  8
0
 10
-3.5672998428344727
 20
5.214155197143555
 30
4.5
 11
-3.539669990539551
 21
5.185569763183594
 31
4.5
  0
LINE
  8
0
 10
-4.88647985458374
 20
1.5847699642181396
 30
4.5
 11
-4.853175163269043
 21
1.6036449670791626
 31
4.5
  0
LINE
  8
0
 10
1.2575500011444092
 20
-5.2696099281311035
 30
4.5
 11
1.2407400608062744
 21
-5.23330020904541
 31
4.5
  0
LINE
  8
0
 10
-0.4813689887523651
 20
6.601170063018799
 30
4.5
 11
-0.45257800817489624
 21
6.6276350021362305
 31
4.5
  0
LINE
  8
0
 10
-4.586150169372559
 20
4.557819843292236
 30
4.5
 11
-4.598869800567627
 21
4.594639778137207
 31
4.5
  0
LINE
  8
0
 10
-2.674069881439209
 20
-6.107870101928711
 30
4.5
 11
-2.6920700073242188
 21
-6.073150157928467
 31
4.5
  0
LINE
  8
0
 10
-1.2713500261306763
 20
-1.4119700193405151
 30
4.5
 11
-0.9292410016059875
 21
-1.6094900369644165
 31
4.5
  0
LINE
  8
0
 10
-3.7985949516296387
 20
-3.2543599605560303
 30
4.5
 11
-3.831130027770996
 21
-3.231149911880493
 31
4.5
  0
LINE
  8
0
 10
-4.853175163269043
 20
1.6036449670791626
 30
4.5
 11
-4.8198699951171875
 21
1.6225199699401855
 31
4.5
  0
LINE
  8
0
 10
3.8996200561523438
 20
-3.1965599060058594
 30
4.5
 11
3.8648948669433594
 21
-3.214254856109619
 31
4.5
  0
LINE
  8
0
 10
-5.5134100914001465
 20
-3.7057600021362305
 30
4.5
 11
-5.550730228424072
 21
-3.6940600872039795
 31
4.5
  0
LINE
  8
0
 10
4.492129802703857
 20
4.386360168457031
 30
4.5
 11
4.213484764099121
 21
4.05511999130249
 31
4.5
  0
LINE
  8
0
 10
2.928760051727295
 20
4.464540004730225
 30
4.5
 11
2.956389904022217
 21
4.493124961853027
 31
4.5
  0
LINE
  8
0
 10
-2.4092299938201904
 20
-4.537049770355225
 30
4.5
 11
-2.422029972076416
 21
-4.500974655151367
 31
4.5
  0
LINE
  8
0
 10
-4.32942008972168
 20
5.159599781036377
 30
4.5
 11
-4.190364837646484
 21
5.256964683532715
 31
4.5
  0
LINE
  8
0
 10
-5.108969688415527
 20
0.1529494971036911
 30
4.5
 11
-5.133810043334961
 21
0.18207299709320068
 31
4.5
  0
LINE
  8
0
 10
-6.3145952224731445
 20
1.6717500686645508
 30
4.5
 11
-6.278510093688965
 21
1.685420036315918
 31
4.5
  0
LINE
  8
0
 10
2.4238998889923096
 20
-4.845089912414551
 30
4.5
 11
2.5724449157714844
 21
-5.251659870147705
 31
4.5
  0
LINE
  8
0
 10
-5.1630449295043945
 20
0.20726200938224792
 30
4.5
 11
-5.192279815673828
 21
0.23245100677013397
 31
4.5
  0
LINE
  8
0
 10
2.74288010597229
 20
-5.734670162200928
 30
4.5
 11
2.747109889984131
 21
-5.773614883422852
 31
4.5
  0
LINE
  8
0
 10
-4.856619834899902
 20
-0.8563549518585205
 30
4.5
 11
-4.9917497634887695
 21
-0.08998990058898926
 31
4.5
  0
LINE
  8
0
 10
-2.139665126800537
 20
-6.373114585876465
 30
4.5
 11
-2.3036301136016846
 21
-6.329179763793945
 31
4.5
  0
LINE
  8
0
 10
1.5371299982070923
 20
1.1167900562286377
 30
4.5
 11
1.2435649633407593
 21
1.381119966506958
 31
4.5
  0
LINE
  8
0
 10
-6.240264892578125
 20
1.6928150653839111
 30
4.5
 11
-6.202020168304443
 21
1.7002099752426147
 31
4.5
  0
LINE
  8
0
 10
3.830169916152954
 20
-3.231950044631958
 30
4.5
 11
3.7981150150299072
 21
-3.2547600269317627
 31
4.5
  0
LINE
  8
0
 10
-5.208869934082031
 20
-3.7079548835754395
 30
4.5
 11
-5.246490001678467
 21
-3.7188899517059326
 31
4.5
  0
LINE
  8
0
 10
-5.284955024719238
 20
-3.725019931793213
 30
4.5
 11
-5.32342004776001
 21
-3.731149911880493
 31
4.5
  0
LINE
  8
0
 10
4.823570251464844
 20
-2.024435043334961
 30
4.5
 11
4.847499847412109
 21
-2.054569959640503
 31
4.5
  0
LINE
  8
0
 10
6.641824722290039
 20
0.7740005254745483
 30
4.5
 11
6.6265997886657715
 21
0.7381240129470825
 31
4.5
  0
LINE
  8
0
 10
4.574250221252441
 20
4.9095001220703125
 30
4.5
 11
4.574490070343018
 21
4.908999919891357
 31
4.5
  0
LINE
  8
0
 10
-3.815690040588379
 20
3.439429998397827
 30
4.5
 11
-3.821895122528076
 21
3.4775149822235107
 31
4.5
  0
LINE
  8
0
 10
1.7723950147628784
 20
-6.348295211791992
 30
4.5
 11
1.739400029182434
 21
-6.328889846801758
 31
4.5
  0
LINE
  8
0
 10
1.7095201015472412
 20
-6.304474830627441
 30
4.5
 11
1.6796400547027588
 21
-6.280059814453125
 31
4.5
  0
LINE
  8
0
 10
-4.9054999351501465
 20
-2.1077799797058105
 30
4.5
 11
-4.876500129699707
 21
-2.081174850463867
 31
4.5
  0
LINE
  8
0
 10
5.620180130004883
 20
-3.658669948577881
 30
4.5
 11
5.585454940795898
 21
-3.6763648986816406
 31
4.5
  0
LINE
  8
0
 10
-1.9751449823379517
 20
-6.417004585266113
 30
4.5
 11
-1.9757000207901
 21
-6.417049884796143
 31
4.5
  0
LINE
  8
0
 10
-6.545179843902588
 20
1.4975199699401855
 30
4.5
 11
-6.544864654541016
 21
1.497979998588562
 31
4.5
  0
LINE
  8
0
 10
4.574490070343018
 20
4.908999919891357
 30
4.5
 11
4.579020023345947
 21
4.89946985244751
 31
4.5
  0
LINE
  8
0
 10
4.240605354309082
 20
-3.1825850009918213
 30
4.5
 11
4.203060150146484
 21
-3.1707699298858643
 31
4.5
  0
LINE
  8
0
 10
3.8648500442504883
 20
3.175230026245117
 30
4.5
 11
3.8817501068115234
 21
3.139699935913086
 31
4.5
  0
LINE
  8
0
 10
-0.7891110181808472
 20
5.002135276794434
 30
4.5
 11
-0.7609050273895264
 21
5.028389930725098
 31
4.5
  0
LINE
  8
0
 10
-0.8500044941902161
 20
4.954655170440674
 30
4.5
 11
-0.817317008972168
 21
4.975880146026611
 31
4.5
  0
LINE
  8
0
 10
0.778186023235321
 20
-4.931540012359619
 30
4.5
 11
0.0
 21
-4.931540012359619
 31
4.5
  0
LINE
  8
0
 10
-4.538829803466797
 20
4.450709819793701
 30
4.5
 11
-4.5561299324035645
 21
4.4858551025390625
 31
4.5
  0
LINE
  8
0
 10
0.736537516117096
 20
5.057909965515137
 30
4.5
 11
0.7609050273895264
 21
5.028389930725098
 31
4.5
  0
LINE
  8
0
 10
0.6924405097961426
 20
5.1205949783325195
 30
4.5
 11
0.7121700048446655
 21
5.087430000305176
 31
4.5
  0
LINE
  8
0
 10
-2.3927500247955322
 20
-4.689809799194336
 30
4.5
 11
-2.3937900066375732
 21
-4.651340007781982
 31
4.5
  0
LINE
  8
0
 10
4.164995193481445
 20
-3.1651201248168945
 30
4.5
 11
4.126930236816406
 21
-3.1594700813293457
 31
4.5
  0
LINE
  8
0
 10
5.930699825286865
 20
-2.8119800090789795
 30
4.5
 11
5.944079875946045
 21
-2.847839832305908
 31
4.5
  0
LINE
  8
0
 10
-3.821895122528076
 20
3.4775149822235107
 30
4.5
 11
-3.8280999660491943
 21
3.5155999660491943
 31
4.5
  0
LINE
  8
0
 10
-2.6493000984191895
 20
4.341070175170898
 30
4.5
 11
-2.610229969024658
 21
4.339300155639648
 31
4.5
  0
LINE
  8
0
 10
2.6506099700927734
 20
-6.138995170593262
 30
4.5
 11
2.627150058746338
 21
-6.170119762420654
 31
4.5
  0
LINE
  8
0
 10
-5.97859001159668
 20
-3.0378799438476562
 30
4.5
 11
-5.976554870605469
 21
-2.998960018157959
 31
4.5
  0
LINE
  8
0
 10
5.0630598068237305
 20
0.09087580442428589
 30
4.5
 11
5.041989803314209
 21
0.05792560055851936
 31
4.5
  0
LINE
  8
0
 10
-2.610229969024658
 20
4.339300155639648
 30
4.5
 11
-2.571160078048706
 21
4.337530136108398
 31
4.5
  0
LINE
  8
0
 10
-6.202020168304443
 20
1.7002099752426147
 30
4.5
 11
-6.162930011749268
 21
1.7028000354766846
 31
4.5
  0
LINE
  8
0
 10
-1.5688250064849854
 20
-6.119790077209473
 30
4.5
 11
-1.585010051727295
 21
-6.156099796295166
 31
4.5
  0
LINE
  8
0
 10
2.720989942550659
 20
-5.658229827880859
 30
4.5
 11
2.7319350242614746
 21
-5.696450233459473
 31
4.5
  0
LINE
  8
0
 10
5.977590084075928
 20
-3.048379898071289
 30
4.5
 11
5.976590156555176
 21
-3.058880090713501
 31
4.5
  0
LINE
  8
0
 10
6.479420185089111
 20
1.5728199481964111
 30
4.5
 11
6.50600004196167
 21
1.544314980506897
 31
4.5
  0
LINE
  8
0
 10
-0.3382129967212677
 20
6.705780029296875
 30
4.5
 11
-0.16910633444786072
 21
6.720575332641602
 31
4.5
  0
LINE
  8
0
 10
-5.628775119781494
 20
-3.652554988861084
 30
4.5
 11
-5.6373701095581055
 21
-3.646440029144287
 31
4.5
  0
LINE
  8
0
 10
-6.337810039520264
 20
0.49193501472473145
 30
4.5
 11
-6.373655319213867
 21
0.5077400207519531
 31
4.5
  0
LINE
  8
0
 10
-6.66264009475708
 20
0.8313729763031006
 30
4.5
 11
-6.647845268249512
 21
1.0004814863204956
 31
4.5
  0
LINE
  8
0
 10
-3.8658549785614014
 20
-3.2134549617767334
 30
4.5
 11
-3.9005799293518066
 21
-3.1957600116729736
 31
4.5
  0
LINE
  8
0
 10
6.662360191345215
 20
0.830295979976654
 30
4.5
 11
6.65970516204834
 21
0.8200864791870117
 31
4.5
  0
LINE
  8
0
 10
-1.899999976158142
 20
0.0
 30
4.5
 11
-1.8178699016571045
 21
-0.3864000141620636
 31
4.5
  0
LINE
  8
0
 10
3.6581499576568604
 20
5.289010047912598
 30
4.5
 11
3.692199945449829
 21
5.307929992675781
 31
4.5
  0
LINE
  8
0
 10
-3.726249933242798
 20
5.326849937438965
 30
4.5
 11
-3.692199945449829
 21
5.307929992675781
 31
4.5
  0
LINE
  8
0
 10
-5.815615177154541
 20
-2.6570401191711426
 30
4.5
 11
-5.78734016418457
 21
-2.629930019378662
 31
4.5
  0
LINE
  8
0
 10
3.7660601139068604
 20
-3.2775700092315674
 30
4.5
 11
3.1699352264404297
 21
-3.777780055999756
 31
4.5
  0
LINE
  8
0
 10
-5.0997700691223145
 20
-3.6621999740600586
 30
4.5
 11
-5.135509967803955
 21
-3.679610013961792
 31
4.5
  0
LINE
  8
0
 10
-6.373655319213867
 20
0.5077400207519531
 30
4.5
 11
-6.4095001220703125
 21
0.5235450267791748
 31
4.5
  0
LINE
  8
0
 10
3.8817501068115234
 20
3.139699935913086
 30
4.5
 11
4.27084493637085
 21
2.4657700061798096
 31
4.5
  0
LINE
  8
0
 10
4.515480041503906
 20
4.418535232543945
 30
4.5
 11
4.492129802703857
 21
4.386360168457031
 31
4.5
  0
LINE
  8
0
 10
-0.34831249713897705
 20
6.701165199279785
 30
4.5
 11
-0.3387185037136078
 21
6.705550193786621
 31
4.5
  0
LINE
  8
0
 10
3.1699352264404297
 20
-3.777780055999756
 30
4.5
 11
2.57381010055542
 21
-4.277989864349365
 31
4.5
  0
LINE
  8
0
 10
-5.135509967803955
 20
-3.679610013961792
 30
4.5
 11
-5.171249866485596
 21
-3.6970200538635254
 31
4.5
  0
LINE
  8
0
 10
6.337810039520264
 20
0.49193501472473145
 30
4.5
 11
6.2992401123046875
 21
0.4822995066642761
 31
4.5
  0
LINE
  8
0
 10
-2.7100698947906494
 20
-6.038430213928223
 30
4.5
 11
-2.722869873046875
 21
-6.002355098724365
 31
4.5
  0
LINE
  8
0
 10
6.50600004196167
 20
1.544314980506897
 30
4.5
 11
6.5325798988342285
 21
1.5158100128173828
 31
4.5
  0
LINE
  8
0
 10
3.5949299335479736
 20
5.242740154266357
 30
4.5
 11
3.626539945602417
 21
5.265874862670898
 31
4.5
  0
LINE
  8
0
 10
2.40201997756958
 20
-4.768650054931641
 30
4.5
 11
2.4129600524902344
 21
-4.806869983673096
 31
4.5
  0
LINE
  8
0
 10
1.2435649633407593
 20
-1.381119966506958
 30
4.5
 11
1.5371299982070923
 21
-1.1167900562286377
 31
4.5
  0
LINE
  8
0
 10
2.627150058746338
 20
-6.170119762420654
 30
4.5
 11
2.6196351051330566
 21
-6.177519798278809
 31
4.5
  0
LINE
  8
0
 10
-4.050775051116943
 20
5.354475021362305
 30
4.5
 11
-4.040605068206787
 21
5.357285022735596
 31
4.5
  0
LINE
  8
0
 10
1.8776099681854248
 20
-6.397749900817871
 30
4.5
 11
1.8415000438690186
 21
-6.382724761962891
 31
4.5
  0
LINE
  8
0
 10
-2.722869873046875
 20
-6.002355098724365
 30
4.5
 11
-2.7356700897216797
 21
-5.966279983520508
 31
4.5
  0
LINE
  8
0
 10
-3.692199945449829
 20
5.307929992675781
 30
4.5
 11
-3.6581499576568604
 21
5.289010047912598
 31
4.5
  0
LINE
  8
0
 10
4.721489906311035
 20
-1.6227200031280518
 30
4.5
 11
4.717655181884766
 21
-1.662500023841858
 31
4.5
  0
LINE
  8
0
 10
0.6585749983787537
 20
5.189549922943115
 30
4.5
 11
0.6727110147476196
 21
5.153759956359863
 31
4.5
  0
LINE
  8
0
 10
-0.9190620183944702
 20
4.916860103607178
 30
4.5
 11
-0.8826919794082642
 21
4.933430194854736
 31
4.5
  0
LINE
  8
0
 10
1.8415000438690186
 20
-6.382724761962891
 30
4.5
 11
1.8053900003433228
 21
-6.367700099945068
 31
4.5
  0
LINE
  8
0
 10
4.717899799346924
 20
-1.7801200151443481
 30
4.5
 11
4.726534843444824
 21
-1.817674994468689
 31
4.5
  0
LINE
  8
0
 10
-3.9005799293518066
 20
-3.1957600116729736
 30
4.5
 11
-3.937419891357422
 21
-3.184460163116455
 31
4.5
  0
LINE
  8
0
 10
-1.8178699016571045
 20
0.3864000141620636
 30
4.5
 11
-1.899999976158142
 21
0.0
 31
4.5
  0
LINE
  8
0
 10
4.92256498336792
 20
1.5710999965667725
 30
4.5
 11
4.9586501121521
 21
1.5574300289154053
 31
4.5
  0
LINE
  8
0
 10
-5.011760234832764
 20
-0.01260130014270544
 30
4.5
 11
-5.026985168457031
 21
0.02327524870634079
 31
4.5
  0
LINE
  8
0
 10
-2.397865056991577
 20
-4.728829860687256
 30
4.5
 11
-2.3927500247955322
 21
-4.689809799194336
 31
4.5
  0
LINE
  8
0
 10
-1.7357399463653564
 20
0.7728000283241272
 30
4.5
 11
-1.8178699016571045
 21
0.3864000141620636
 31
4.5
  0
LINE
  8
0
 10
-3.8645401000976562
 20
3.175769805908203
 30
4.5
 11
-3.847330093383789
 21
3.2118399143218994
 31
4.5
  0
LINE
  8
0
 10
-1.8776099681854248
 20
-6.397749900817871
 30
4.5
 11
-1.9155850410461426
 21
-6.406515121459961
 31
4.5
  0
LINE
  8
0
 10
1.1815999746322632
 20
-5.130630016326904
 30
4.5
 11
1.1560750007629395
 21
-5.101830005645752
 31
4.5
  0
LINE
  8
0
 10
-5.976590156555176
 20
-3.058880090713501
 30
4.5
 11
-5.977590084075928
 21
-3.048379898071289
 31
4.5
  0
LINE
  8
0
 10
-4.7140398025512695
 20
-1.701050043106079
 30
4.5
 11
-4.717764854431152
 21
-1.6618850231170654
 31
4.5
  0
LINE
  8
0
 10
-6.662500381469727
 20
0.8308345079421997
 30
4.5
 11
-6.66264009475708
 21
0.8313729763031006
 31
4.5
  0
LINE
  8
0
 10
5.843890190124512
 20
-2.684149980545044
 30
4.5
 11
5.868434906005859
 21
-2.714395046234131
 31
4.5
  0
LINE
  8
0
 10
-5.9765400886535645
 20
-3.0594348907470703
 30
4.5
 11
-5.976590156555176
 21
-3.058880090713501
 31
4.5
  0
LINE
  8
0
 10
-5.026985168457031
 20
0.02327524870634079
 30
4.5
 11
-5.042210102081299
 21
0.059151798486709595
 31
4.5
  0
LINE
  8
0
 10
-0.5695629715919495
 20
6.475790023803711
 30
4.5
 11
-0.5498334765434265
 21
6.508955001831055
 31
4.5
  0
LINE
  8
0
 10
-4.7160749435424805
 20
-1.7399749755859375
 30
4.5
 11
-4.7140398025512695
 21
-1.701050043106079
 31
4.5
  0
LINE
  8
0
 10
5.815615177154541
 20
-2.6570401191711426
 30
4.5
 11
5.843890190124512
 21
-2.684149980545044
 31
4.5
  0
LINE
  8
0
 10
5.0997700691223145
 20
-3.6621999740600586
 30
4.5
 11
4.725174903869629
 21
-3.445310115814209
 31
4.5
  0
LINE
  8
0
 10
-1.1815999746322632
 20
-5.130630016326904
 30
4.5
 11
-1.2033900022506714
 21
-5.163809776306152
 31
4.5
  0
LINE
  8
0
 10
-4.996350288391113
 20
1.54972505569458
 30
4.5
 11
-4.9586501121521
 21
1.5574300289154053
 31
4.5
  0
LINE
  8
0
 10
-1.9155850410461426
 20
-6.406515121459961
 30
4.5
 11
-1.9535599946975708
 21
-6.415279865264893
 31
4.5
  0
LINE
  8
0
 10
1.1560750007629395
 20
-5.101830005645752
 30
4.5
 11
1.1305500268936157
 21
-5.0730299949646
 31
4.5
  0
LINE
  8
0
 10
-0.6924405097961426
 20
5.1205949783325195
 30
4.5
 11
-0.6727110147476196
 21
5.153759956359863
 31
4.5
  0
LINE
  8
0
 10
-3.83675479888916
 20
5.359250068664551
 30
4.5
 11
-3.799109935760498
 21
5.35230016708374
 31
4.5
  0
LINE
  8
0
 10
-1.5035450458526611
 20
1.0923850536346436
 30
4.5
 11
-1.7357399463653564
 21
0.7728000283241272
 31
4.5
  0
LINE
  8
0
 10
6.240264892578125
 20
1.6928150653839111
 30
4.5
 11
6.278510093688965
 21
1.685420036315918
 31
4.5
  0
LINE
  8
0
 10
-3.934839963912964
 20
3.7238800525665283
 30
4.5
 11
-4.213484764099121
 21
4.05511999130249
 31
4.5
  0
LINE
  8
0
 10
2.3973851203918457
 20
-4.729229927062988
 30
4.5
 11
2.40201997756958
 21
-4.768650054931641
 31
4.5
  0
LINE
  8
0
 10
0.8184869885444641
 20
4.975450038909912
 30
4.5
 11
0.8511744737625122
 21
4.954225063323975
 31
4.5
  0
LINE
  8
0
 10
0.6160879731178284
 20
6.3269500732421875
 30
4.5
 11
0.618878960609436
 21
6.287290096282959
 31
4.5
  0
LINE
  8
0
 10
3.799109935760498
 20
5.35230016708374
 30
4.5
 11
3.83675479888916
 21
5.359250068664551
 31
4.5
  0
LINE
  8
0
 10
4.573430061340332
 20
4.520999908447266
 30
4.5
 11
4.5561299324035645
 21
4.4858551025390625
 31
4.5
  0
LINE
  8
0
 10
4.449444770812988
 20
5.039565086364746
 30
4.5
 11
4.569479942321777
 21
4.919529914855957
 31
4.5
  0
LINE
  8
0
 10
0.618878960609436
 20
6.287290096282959
 30
4.5
 11
0.6216700077056885
 21
6.2476301193237305
 31
4.5
  0
LINE
  8
0
 10
4.725174903869629
 20
-3.445310115814209
 30
4.5
 11
4.350580215454102
 21
-3.2284200191497803
 31
4.5
  0
LINE
  8
0
 10
3.83675479888916
 20
5.359250068664551
 30
4.5
 11
3.8743999004364014
 21
5.366199970245361
 31
4.5
  0
LINE
  8
0
 10
2.831284999847412
 20
4.398750305175781
 30
4.5
 11
2.8651199340820312
 21
4.417079925537109
 31
4.5
  0
LINE
  8
0
 10
-2.7610201835632324
 20
4.367694854736328
 30
4.5
 11
-2.7245900630950928
 21
4.3549699783325195
 31
4.5
  0
LINE
  8
0
 10
4.789114952087402
 20
1.6457350254058838
 30
4.5
 11
4.8198699951171875
 21
1.6225199699401855
 31
4.5
  0
LINE
  8
0
 10
-4.574250221252441
 20
4.9095001220703125
 30
4.5
 11
-4.569720268249512
 21
4.91903018951416
 31
4.5
  0
LINE
  8
0
 10
-5.976490020751953
 20
-3.0599899291992188
 30
4.5
 11
-5.9765400886535645
 21
-3.0594348907470703
 31
4.5
  0
LINE
  8
0
 10
-3.8197999000549316
 20
3.324625015258789
 30
4.5
 11
-3.8150699138641357
 21
3.36286997795105
 31
4.5
  0
LINE
  8
0
 10
-1.2713500261306763
 20
1.4119700193405151
 30
4.5
 11
-1.5035450458526611
 21
1.0923850536346436
 31
4.5
  0
LINE
  8
0
 10
5.133810043334961
 20
0.18207299709320068
 30
4.5
 11
5.108969688415527
 21
0.1529494971036911
 31
4.5
  0
LINE
  8
0
 10
6.633049964904785
 20
1.1695899963378906
 30
4.5
 11
6.647845268249512
 21
1.0004814863204956
 31
4.5
  0
LINE
  8
0
 10
-4.718110084533691
 20
-1.7789000272750854
 30
4.5
 11
-4.7160749435424805
 21
-1.7399749755859375
 31
4.5
  0
LINE
  8
0
 10
5.78734016418457
 20
-2.629930019378662
 30
4.5
 11
5.815615177154541
 21
-2.6570401191711426
 31
4.5
  0
LINE
  8
0
 10
-0.9693069458007812
 20
-4.970359802246094
 30
4.5
 11
-1.00478994846344
 21
-4.9853901863098145
 31
4.5
  0
LINE
  8
0
 10
5.1630449295043945
 20
0.20726200938224792
 30
4.5
 11
5.133810043334961
 21
0.18207299709320068
 31
4.5
  0
LINE
  8
0
 10
3.825160026550293
 20
3.2853000164031982
 30
4.5
 11
3.836555004119873
 21
3.248030185699463
 31
4.5
  0
LINE
  8
0
 10
-0.7609050273895264
 20
5.028389930725098
 30
4.5
 11
-0.736537516117096
 21
5.057909965515137
 31
4.5
  0
LINE
  8
0
 10
-5.904749870300293
 20
-3.2138400077819824
 30
4.5
 11
-5.976490020751953
 21
-3.0599899291992188
 31
4.5
  0
LINE
  8
0
 10
-5.8343000411987305
 20
0.3980250060558319
 30
4.5
 11
-6.260670185089111
 21
0.4726639986038208
 31
4.5
  0
LINE
  8
0
 10
-6.657050132751465
 20
0.8098769783973694
 30
4.5
 11
-6.65970516204834
 21
0.8200864791870117
 31
4.5
  0
LINE
  8
0
 10
-0.9292410016059875
 20
1.6094900369644165
 30
4.5
 11
-1.2713500261306763
 21
1.4119700193405151
 31
4.5
  0
LINE
  8
0
 10
5.192389965057373
 20
1.545740008354187
 30
4.5
 11
5.618575096130371
 21
1.6214299201965332
 31
4.5
  0
LINE
  8
0
 10
3.2176998843169713e-07
 20
6.73537015914917
 30
4.5
 11
0.16910666227340698
 21
6.720575332641602
 31
4.5
  0
LINE
  8
0
 10
-4.726639747619629
 20
-1.8170650005340576
 30
4.5
 11
-4.718110084533691
 21
-1.7789000272750854
 31
4.5
  0
LINE
  8
0
 10
1.5688250064849854
 20
-6.119790077209473
 30
4.5
 11
1.5526399612426758
 21
-6.083479881286621
 31
4.5
  0
LINE
  8
0
 10
-2.4238998889923096
 20
-4.845089912414551
 30
4.5
 11
-2.413439989089966
 21
-4.806469917297363
 31
4.5
  0
LINE
  8
0
 10
5.754389762878418
 20
-2.607679843902588
 30
4.5
 11
5.78734016418457
 21
-2.629930019378662
 31
4.5
  0
LINE
  8
0
 10
3.911799907684326
 20
3.691164970397949
 30
4.5
 11
3.8887600898742676
 21
3.65844988822937
 31
4.5
  0
LINE
  8
0
 10
4.029900074005127
 20
5.3602399826049805
 30
4.5
 11
4.040070056915283
 21
5.3574299812316895
 31
4.5
  0
LINE
  8
0
 10
-5.15254020690918
 20
1.542140007019043
 30
4.5
 11
-5.112689971923828
 21
1.538540005683899
 31
4.5
  0
LINE
  8
0
 10
-4.314840316772461
 20
-3.211009979248047
 30
4.5
 11
-4.350580215454102
 21
-3.2284200191497803
 31
4.5
  0
LINE
  8
0
 10
2.8651199340820312
 20
4.417079925537109
 30
4.5
 11
2.896939992904663
 21
4.440810203552246
 31
4.5
  0
LINE
  8
0
 10
-4.757730007171631
 20
1.6700299978256226
 30
4.5
 11
-4.731154918670654
 21
1.6985349655151367
 31
4.5
  0
LINE
  8
0
 10
-2.6506099700927734
 20
-6.138995170593262
 30
4.5
 11
-2.674069881439209
 21
-6.107870101928711
 31
4.5
  0
LINE
  8
0
 10
2.7100698947906494
 20
-6.038430213928223
 30
4.5
 11
2.6920700073242188
 21
-6.073150157928467
 31
4.5
  0
LINE
  8
0
 10
6.559624671936035
 20
0.6431000232696533
 30
4.5
 11
6.534780025482178
 21
0.613976001739502
 31
4.5
  0
LINE
  8
0
 10
-4.6115899085998535
 20
4.709090232849121
 30
4.5
 11
-4.6118998527526855
 21
4.747369766235352
 31
4.5
  0
LINE
  8
0
 10
-1.7723950147628784
 20
-6.348295211791992
 30
4.5
 11
-1.8053900003433228
 21
-6.367700099945068
 31
4.5
  0
LINE
  8
0
 10
-2.9840199947357178
 20
4.52170991897583
 30
4.5
 11
-2.9558048248291016
 21
4.493334770202637
 31
4.5
  0
LINE
  8
0
 10
1.964074969291687
 20
-6.416119575500488
 30
4.5
 11
1.9535599946975708
 21
-6.415279865264893
 31
4.5
  0
LINE
  8
0
 10
6.3839850425720215
 20
1.6392099857330322
 30
4.5
 11
6.417290210723877
 21
1.6203399896621704
 31
4.5
  0
LINE
  8
0
 10
-3.5949299335479736
 20
5.242740154266357
 30
4.5
 11
-3.5672998428344727
 21
5.214155197143555
 31
4.5
  0
LINE
  8
0
 10
-5.833010196685791
 20
-3.367690086364746
 30
4.5
 11
-5.904749870300293
 21
-3.2138400077819824
 31
4.5
  0
LINE
  8
0
 10
5.192279815673828
 20
0.23245100677013397
 30
4.5
 11
5.1630449295043945
 21
0.20726200938224792
 31
4.5
  0
LINE
  8
0
 10
0.16910666227340698
 20
6.720575332641602
 30
4.5
 11
0.3382129967212677
 21
6.705780029296875
 31
4.5
  0
LINE
  8
0
 10
-0.5057364702224731
 20
6.5716447830200195
 30
4.5
 11
-0.4813689887523651
 21
6.601170063018799
 31
4.5
  0
LINE
  8
0
 10
5.208869934082031
 20
-3.7079548835754395
 30
4.5
 11
5.171249866485596
 21
-3.6970200538635254
 31
4.5
  0
LINE
  8
0
 10
-4.735169887542725
 20
-1.8552299737930298
 30
4.5
 11
-4.726639747619629
 21
-1.8170650005340576
 31
4.5
  0
LINE
  8
0
 10
5.721439838409424
 20
-2.5854299068450928
 30
4.5
 11
5.754389762878418
 21
-2.607679843902588
 31
4.5
  0
LINE
  8
0
 10
0.7896959781646729
 20
5.001919746398926
 30
4.5
 11
0.8184869885444641
 21
4.975450038909912
 31
4.5
  0
LINE
  8
0
 10
3.8648948669433594
 20
-3.214254856109619
 30
4.5
 11
3.830169916152954
 21
-3.231950044631958
 31
4.5
  0
LINE
  8
0
 10
-3.7660601139068604
 20
-3.2775700092315674
 30
4.5
 11
-3.7985949516296387
 21
-3.2543599605560303
 31
4.5
  0
LINE
  8
0
 10
4.758359909057617
 20
1.6689499616622925
 30
4.5
 11
4.789114952087402
 21
1.6457350254058838
 31
4.5
  0
LINE
  8
0
 10
-5.084129810333252
 20
0.12382599711418152
 30
4.5
 11
-5.108969688415527
 21
0.1529494971036911
 31
4.5
  0
LINE
  8
0
 10
-6.350679874420166
 20
1.658079981803894
 30
4.5
 11
-6.3145952224731445
 21
1.6717500686645508
 31
4.5
  0
LINE
  8
0
 10
-2.4020299911499023
 20
-4.574959754943848
 30
4.5
 11
-2.4092299938201904
 21
-4.537049770355225
 31
4.5
  0
LINE
  8
0
 10
-3.8881399631500244
 20
3.6595299243927
 30
4.5
 11
-3.911489963531494
 21
3.6917049884796143
 31
4.5
  0
LINE
  8
0
 10
-5.192279815673828
 20
0.23245100677013397
 30
4.5
 11
-5.225074768066406
 21
0.2525869905948639
 31
4.5
  0
LINE
  8
0
 10
-5.976554870605469
 20
-2.998960018157959
 30
4.5
 11
-5.974520206451416
 21
-2.9600400924682617
 31
4.5
  0
LINE
  8
0
 10
-5.96599006652832
 20
-2.921869993209839
 30
4.5
 11
-5.957459926605225
 21
-2.883699893951416
 31
4.5
  0
LINE
  8
0
 10
4.731780052185059
 20
1.6974549293518066
 30
4.5
 11
4.758359909057617
 21
1.6689499616622925
 31
4.5
  0
LINE
  8
0
 10
-2.3036301136016846
 20
-6.329179763793945
 30
4.5
 11
-2.457479953765869
 21
-6.257439613342285
 31
4.5
  0
LINE
  8
0
 10
-3.870299816131592
 20
3.624069929122925
 30
4.5
 11
-3.8881399631500244
 21
3.6595299243927
 31
4.5
  0
LINE
  8
0
 10
2.3948299884796143
 20
-4.612870216369629
 30
4.5
 11
2.3937900066375732
 21
-4.651340007781982
 31
4.5
  0
LINE
  8
0
 10
5.225074768066406
 20
0.2525869905948639
 30
4.5
 11
5.192279815673828
 21
0.23245100677013397
 31
4.5
  0
LINE
  8
0
 10
-1.6541149616241455
 20
-6.250635147094727
 30
4.5
 11
-1.6796400547027588
 21
-6.280059814453125
 31
4.5
  0
LINE
  8
0
 10
-1.9745899438858032
 20
-6.416959762573242
 30
4.5
 11
-1.9751449823379517
 21
-6.417004585266113
 31
4.5
  0
LINE
  8
0
 10
-6.589115142822266
 20
1.333554983139038
 30
4.5
 11
-6.545179843902588
 21
1.4975199699401855
 31
4.5
  0
LINE
  8
0
 10
4.2781500816345215
 20
-3.1944000720977783
 30
4.5
 11
4.240605354309082
 21
-3.1825850009918213
 31
4.5
  0
LINE
  8
0
 10
0.9325780272483826
 20
-4.955329895019531
 30
4.5
 11
0.8946025371551514
 21
-4.946569919586182
 31
4.5
  0
LINE
  8
0
 10
-4.164995193481445
 20
-3.1651201248168945
 30
4.5
 11
-4.203060150146484
 21
-3.1707699298858643
 31
4.5
  0
LINE
  8
0
 10
6.545179843902588
 20
1.4975199699401855
 30
4.5
 11
6.589115142822266
 21
1.333554983139038
 31
4.5
  0
LINE
  8
0
 10
-5.192389965057373
 20
1.545740008354187
 30
4.5
 11
-5.15254020690918
 21
1.542140007019043
 31
4.5
  0
LINE
  8
0
 10
6.544864654541016
 20
1.497979998588562
 30
4.5
 11
6.545179843902588
 21
1.4975199699401855
 31
4.5
  0
LINE
  8
0
 10
4.126930236816406
 20
-3.1594700813293457
 30
4.5
 11
4.088345050811768
 21
-3.1599700450897217
 31
4.5
  0
LINE
  8
0
 10
1.2407400608062744
 20
-5.23330020904541
 30
4.5
 11
1.22393000125885
 21
-5.196990013122559
 31
4.5
  0
LINE
  8
0
 10
5.257870197296143
 20
0.272722989320755
 30
4.5
 11
5.225074768066406
 21
0.2525869905948639
 31
4.5
  0
LINE
  8
0
 10
-3.9525399208068848
 20
5.369740009307861
 30
4.5
 11
-3.9134697914123535
 21
5.367969989776611
 31
4.5
  0
LINE
  8
0
 10
-5.618575096130371
 20
1.6214299201965332
 30
4.5
 11
-5.192389965057373
 21
1.545740008354187
 31
4.5
  0
LINE
  8
0
 10
5.944079875946045
 20
-2.847839832305908
 30
4.5
 11
5.957459926605225
 21
-2.883699893951416
 31
4.5
  0
LINE
  8
0
 10
5.911839962005615
 20
-2.7783100605010986
 30
4.5
 11
5.930699825286865
 21
-2.8119800090789795
 31
4.5
  0
LINE
  8
0
 10
-3.8524599075317383
 20
3.5886099338531494
 30
4.5
 11
-3.870299816131592
 21
3.624069929122925
 31
4.5
  0
LINE
  8
0
 10
-1.5035450458526611
 20
-1.0923850536346436
 30
4.5
 11
-1.2713500261306763
 21
-1.4119700193405151
 31
4.5
  0
LINE
  8
0
 10
4.7052001953125
 20
1.7259600162506104
 30
4.5
 11
4.731780052185059
 21
1.6974549293518066
 31
4.5
  0
LINE
  8
0
 10
0.423786997795105
 20
6.654099941253662
 30
4.5
 11
0.45257800817489624
 21
6.6276350021362305
 31
4.5
  0
LINE
  8
0
 10
0.34831249713897705
 20
6.701165199279785
 30
4.5
 11
0.34881800413131714
 21
6.700934886932373
 31
4.5
  0
LINE
  8
0
 10
-3.991219997406006
 20
5.364990234375
 30
4.5
 11
-3.9525399208068848
 21
5.369740009307861
 31
4.5
  0
LINE
  8
0
 10
4.6112799644470215
 20
4.670810222625732
 30
4.5
 11
4.605074882507324
 21
4.632724761962891
 31
4.5
  0
LINE
  8
0
 10
2.5724449157714844
 20
-5.251659870147705
 30
4.5
 11
2.720989942550659
 21
-5.658229827880859
 31
4.5
  0
LINE
  8
0
 10
2.139665126800537
 20
-6.373114585876465
 30
4.5
 11
1.9757000207901
 21
-6.417049884796143
 31
4.5
  0
LINE
  8
0
 10
-0.3387185037136078
 20
6.705550193786621
 30
4.5
 11
-0.3382129967212677
 21
6.705780029296875
 31
4.5
  0
LINE
  8
0
 10
-1.6285899877548218
 20
-6.22121000289917
 30
4.5
 11
-1.6541149616241455
 21
-6.250635147094727
 31
4.5
  0
LINE
  8
0
 10
4.6115899085998535
 20
4.709090232849121
 30
4.5
 11
4.6112799644470215
 21
4.670810222625732
 31
4.5
  0
LINE
  8
0
 10
0.5834845304489136
 20
6.439410209655762
 30
4.5
 11
0.5974060297012329
 21
6.403029918670654
 31
4.5
  0
LINE
  8
0
 10
-5.246490001678467
 20
-3.7188899517059326
 30
4.5
 11
-5.284955024719238
 21
-3.725019931793213
 31
4.5
  0
LINE
  8
0
 10
-6.584469795227051
 20
0.6722239851951599
 30
4.5
 11
-6.605534553527832
 21
0.7051739692687988
 31
4.5
  0
LINE
  8
0
 10
-1.8178699016571045
 20
-0.3864000141620636
 30
4.5
 11
-1.7357399463653564
 21
-0.7728000283241272
 31
4.5
  0
LINE
  8
0
 10
3.692199945449829
 20
5.307929992675781
 30
4.5
 11
3.726249933242798
 21
5.326849937438965
 31
4.5
  0
LINE
  8
0
 10
-0.6160879731178284
 20
6.3269500732421875
 30
4.5
 11
-0.606747031211853
 21
6.364990234375
 31
4.5
  0
LINE
  8
0
 10
1.739400029182434
 20
-6.328889846801758
 30
4.5
 11
1.7095201015472412
 21
-6.304474830627441
 31
4.5
  0
LINE
  8
0
 10
-0.9554319977760315
 20
4.900290012359619
 30
4.5
 11
-0.9190620183944702
 21
4.916860103607178
 31
4.5
  0
LINE
  8
0
 10
-3.840280055999756
 20
3.552104949951172
 30
4.5
 11
-3.8524599075317383
 21
3.5886099338531494
 31
4.5
  0
LINE
  8
0
 10
-6.559624671936035
 20
0.6431000232696533
 30
4.5
 11
-6.584469795227051
 21
0.6722239851951599
 31
4.5
  0
LINE
  8
0
 10
-4.721489906311035
 20
-1.6227200031280518
 30
4.5
 11
-4.856619834899902
 21
-0.8563549518585205
 31
4.5
  0
LINE
  8
0
 10
-1.6866859197616577
 20
4.6341352462768555
 30
4.5
 11
-0.9554319977760315
 21
4.900290012359619
 31
4.5
  0
LINE
  8
0
 10
-2.74288010597229
 20
-5.734670162200928
 30
4.5
 11
-2.7319350242614746
 21
-5.696450233459473
 31
4.5
  0
LINE
  8
0
 10
-1.6068000793457031
 20
-6.188654899597168
 30
4.5
 11
-1.6285899877548218
 21
-6.22121000289917
 31
4.5
  0
LINE
  8
0
 10
-4.126930236816406
 20
-3.1594700813293457
 30
4.5
 11
-4.164995193481445
 21
-3.1651201248168945
 31
4.5
  0
LINE
  8
0
 10
-6.044760227203369
 20
1.697119951248169
 30
4.5
 11
-5.618575096130371
 21
1.6214299201965332
 31
4.5
  0
LINE
  8
0
 10
6.538879871368408
 20
1.5066649913787842
 30
4.5
 11
6.544864654541016
 21
1.497979998588562
 31
4.5
  0
LINE
  8
0
 10
0.7121700048446655
 20
5.087430000305176
 30
4.5
 11
0.736537516117096
 21
5.057909965515137
 31
4.5
  0
LINE
  8
0
 10
-2.747109889984131
 20
-5.773614883422852
 30
4.5
 11
-2.74288010597229
 21
-5.734670162200928
 31
4.5
  0
LINE
  8
0
 10
-4.088345050811768
 20
-3.1599700450897217
 30
4.5
 11
-4.126930236816406
 21
-3.1594700813293457
 31
4.5
  0
LINE
  8
0
 10
-4.029900074005127
 20
5.3602399826049805
 30
4.5
 11
-3.991219997406006
 21
5.364990234375
 31
4.5
  0
ENDSEC
  0
EOF
